<svg width="1920" height="920" viewBox="0 0 1920 920" fill="none" xmlns="http://www.w3.org/2000/svg">
<mask id="mask0_6516_8" style="mask-type:alpha" maskUnits="userSpaceOnUse" x="0" y="0" width="1920" height="1121">
<rect width="1920" height="1121" fill="#C4C4C4"/>
</mask>
<g mask="url(#mask0_6516_8)">
<path d="M1503.01 -7.38859L314.145 2.1254C289.605 2.32177 265.717 10.0367 245.698 24.2303L12.5416 189.543C-17.7957 211.052 -36.4459 245.412 -37.953 282.571L-55.5572 716.616C-58.4673 788.367 1.86835 846.593 73.4699 841.132L1103.95 762.539C1137.85 759.954 1169.06 743.11 1189.83 716.192L1598.98 185.912C1660.12 106.671 1603.1 -8.18951 1503.01 -7.38859Z" fill="#DBEAFE"/>
<path d="M37.7312 245.344C53.3807 202.505 91.9622 172.24 137.296 167.242L1662.75 -0.934841C1714.06 -6.5911 1763.23 21.1944 1784.86 68.0608L1977.92 486.408C1982.77 496.918 1985.28 508.355 1985.28 519.929V777.65C1985.28 822.192 1948.9 858.157 1904.36 857.644L22.2214 835.986C-25.2285 835.44 -61.7763 793.948 -56.3295 746.809L-16.1809 399.342C-15.4601 393.104 -14.0074 386.972 -11.8526 381.074L37.7312 245.344Z" fill="#73B7EA"/>
</g>
</svg>
