<svg width="414" height="831" viewBox="0 0 414 831" fill="none" xmlns="http://www.w3.org/2000/svg">
<path d="M279.559 1.76308e-05L96.1543 3.91625e-05C47.3551 4.48915e-05 3.41589 29.5514 -14.9863 74.7478L-63.7106 194.416C-69.3831 208.348 -72.3856 223.222 -72.5618 238.263L-77.6085 669.289C-78.5371 748.595 -3.64602 806.972 73.0344 786.714L192.792 755.075C236.023 743.654 269.318 709.144 279.184 665.532L396.602 146.477C413.581 71.4164 356.516 8.5961e-06 279.559 1.76308e-05Z" fill="#DBEAFE"/>
<path d="M-52.2219 241.743C-47.4832 196.808 -17.9057 158.345 24.3047 142.225L287.73 41.6243C360.078 13.995 439.264 61.1148 449.491 137.881L496.001 487V750.747C496.001 796.18 458.211 832.494 412.815 830.684L-1.58016 814.166C-45.5252 812.414 -79.8154 775.518 -78.3492 731.562L-66.5389 377.5L-52.2219 241.743Z" fill="#73B7EA"/>
</svg>
