<svg width="24" height="25" viewBox="0 0 24 25" fill="none" xmlns="http://www.w3.org/2000/svg">
<g clip-path="url(#clip0_326_790)">
<path d="M3.58 21.3405H17.839L17.158 19.1355L18.787 20.5335L20.28 21.8715L23 24.1445V2.61953C22.932 1.28153 21.78 0.144531 20.352 0.144531L3.585 0.147531C2.158 0.147531 1 1.28653 1 2.62453V18.8645C1 20.2755 2.156 21.3405 3.58 21.3405ZM14.128 5.82753L14.095 5.83953L14.107 5.82753H14.128ZM6.497 7.09653C8.33 5.76253 10.029 5.82653 10.029 5.82653L10.166 5.96153C7.923 6.49653 6.906 7.49853 6.906 7.49853C6.906 7.49853 7.178 7.36553 7.653 7.16253C10.674 5.97453 13.973 6.06053 17.027 7.56453C17.027 7.56453 16.008 6.62753 13.903 6.02753L14.089 5.84453C14.38 5.84553 15.92 5.89953 17.568 7.10453C17.568 7.10453 19.412 10.2545 19.412 14.1245C19.351 14.0505 18.268 15.7905 15.481 15.8505C15.481 15.8505 15.009 15.3165 14.673 14.8505C16.303 14.3825 16.913 13.4465 16.913 13.4465C16.378 13.7835 15.89 13.9835 15.494 14.1835C14.885 14.4515 14.275 14.5835 13.666 14.7185C10.782 15.1865 9.163 14.4035 7.633 13.7825L7.11 13.5165C7.11 13.5165 7.719 14.4525 9.284 14.9205C8.873 15.3895 8.466 15.9225 8.466 15.9225C5.68 15.8565 4.664 14.1165 4.664 14.1165C4.664 10.2405 6.497 7.09653 6.497 7.09653Z" fill="#111827"/>
<path d="M14.3076 12.9157C15.0186 12.9157 15.5976 12.3157 15.5976 11.5757C15.5976 10.8407 15.0216 10.2407 14.3076 10.2407V10.2437C13.5996 10.2437 13.0196 10.8417 13.0176 11.5817C13.0176 12.3157 13.5966 12.9157 14.3076 12.9157Z" fill="#111827"/>
<path d="M9.69039 12.9157C10.4014 12.9157 10.9804 12.3157 10.9804 11.5757C10.9804 10.8407 10.4054 10.2407 9.69439 10.2407L9.69039 10.2437C8.97939 10.2437 8.40039 10.8417 8.40039 11.5817C8.40039 12.3157 8.97939 12.9157 9.69039 12.9157Z" fill="#111827"/>
</g>
<defs>
<clipPath id="clip0_326_790">
<rect width="24" height="24" fill="white" transform="translate(0 0.144531)"/>
</clipPath>
</defs>
</svg>
