<svg width="212" height="46" viewBox="0 0 212 46" fill="none" xmlns="http://www.w3.org/2000/svg">
<path fill-rule="evenodd" clip-rule="evenodd" d="M10.3492 20.6127C10.7742 21.787 11.5981 22.9123 12.231 23.9716C16.9869 31.9296 26.89 36.1528 36.1649 29.2877C51.1582 18.1941 48.8391 7.19735 30.3074 5.0861C11.7757 2.97554 4.28446 10.0578 10.3492 20.6127Z" fill="#5CC2EF"/>
<path fill-rule="evenodd" clip-rule="evenodd" d="M4.96232 30.129C7.07424 48.6607 17.7959 50.774 29.1639 35.9866C37.7864 24.7705 35.2663 6.87241 17.2269 10.9886C9.96366 12.6465 3.63532 18.4859 4.96232 30.129Z" fill="#FCB125"/>
<path fill-rule="evenodd" clip-rule="evenodd" d="M31.7666 31.7332C33.0694 28.9951 33.8046 26.0989 33.9229 23.3528C32.2408 25.2475 30.8822 26.3929 28.3418 28.27C25.8015 30.1459 24.3521 31.1729 22.6289 32.2215C25.4934 33.0044 28.6136 32.9358 31.7666 31.7332Z" fill="#518A3F"/>
<path fill-rule="evenodd" clip-rule="evenodd" d="M2.67774 21.2913C10.1152 38.3965 13.0335 39.4746 28.3402 28.2694C43.6469 17.0634 37.1685 9.96768 21.0225 2.94657C3.91731 -4.49086 -4.75969 4.18614 2.67774 21.2913Z" fill="#D34E9C"/>
<path fill-rule="evenodd" clip-rule="evenodd" d="M33.9218 23.3529C40.6711 15.715 35.8702 10.0976 24.8775 4.71962C12.8504 4.52928 7.05271 9.07729 8.50953 16.0211V16.0217L8.52903 16.1118L8.5223 16.0789C9.91455 22.5781 16.0566 30.4345 22.6237 32.2202C23.4436 32.4254 32.8894 25.2415 33.9218 23.3529Z" fill="#53479D"/>
<path fill-rule="evenodd" clip-rule="evenodd" d="M8.50969 16.0223C6.41796 18.4477 5.02167 21.7306 4.8125 25.9894C9.9006 36.553 13.3671 38.0824 22.6272 32.2215L22.6232 32.2202C16.0373 30.4298 9.87773 22.5323 8.50969 16.0223Z" fill="#EE2A26"/>
<path fill-rule="evenodd" clip-rule="evenodd" d="M22.6267 32.2213C22.6987 32.2388 22.8352 32.2005 23.0262 32.1151C25.0285 31.2138 32.9791 25.0758 33.9207 23.3527C34.6229 12.3122 26.1685 8.35807 16.9158 10.848C13.6356 11.7311 10.7939 13.3715 8.50781 16.0215C9.87652 22.5321 16.0408 30.4309 22.6267 32.2213Z" fill="#1D174A"/>
<path fill-rule="evenodd" clip-rule="evenodd" d="M26.1579 26.3963C26.1849 26.5113 26.1943 26.6324 26.2064 26.7487C26.3967 28.6037 26.7989 30.717 23.9068 32.0191C22.6612 32.58 20.9421 32.0964 19.0703 30.9537C16.2642 29.24 13.1952 26.064 11.314 23.0387C4.63593 12.2989 20.2251 7.25655 25.7188 13.0583C27.9793 15.4453 28.364 19.4868 26.127 22.3621C25.2338 23.5102 25.7961 24.8574 26.1579 26.3963Z" fill="white"/>
<path fill-rule="evenodd" clip-rule="evenodd" d="M206.382 37.0386H212V26.884C212 19.3268 208.241 17.4665 203.823 17.4665C201.575 17.4665 199.483 18.1646 197.816 20.3344L197.622 17.8929H192.584V37.0386H198.088V27.1564C198.088 24.6369 199.832 22.4664 202.428 22.4664C205.063 22.4664 206.382 23.9394 206.382 26.923V37.0386ZM180.183 17.9319H174.989V37.0386H180.57V27.0777C180.57 24.2091 182.624 22.6595 185.027 22.6595C186.151 22.6595 187.198 22.9695 188.089 23.628L190.414 19.2105C189.096 18.0476 187.546 17.4658 185.724 17.4658C183.553 17.4658 181.888 18.2023 180.609 20.0236L180.183 17.9319ZM160.882 32.6971C157.471 32.6971 156.076 30.1016 156.076 27.5041C156.076 25.1016 157.588 22.4658 160.882 22.4658C164.254 22.4658 165.726 25.101 165.726 27.5041C165.726 30.2166 164.293 32.6971 160.882 32.6971ZM160.882 37.6588C167.393 37.6588 171.384 33.628 171.384 27.5041C171.384 21.73 167.276 17.4665 160.882 17.4665C154.526 17.4665 150.418 21.73 150.418 27.5041C150.419 33.628 154.371 37.6588 160.882 37.6588ZM149.217 34.5965L145.69 30.9538C144.759 31.884 143.054 32.3871 141.814 32.3871C139.217 32.3871 136.892 30.6437 136.892 27.5814C136.892 24.3651 139.141 22.5821 141.931 22.5821C143.132 22.5821 144.334 22.8148 145.534 23.706L148.635 20.1797C146.659 18.0476 144.488 17.4665 141.698 17.4665C136.117 17.4665 131.273 21.1489 131.273 27.5821C131.273 34.4815 136.156 37.6588 141.737 37.6588C144.217 37.6588 146.891 37.0387 149.217 34.5965ZM118.445 32.5041C115.848 32.5041 113.29 30.8368 113.29 27.5041C113.29 23.8614 115.925 22.5821 118.445 22.5821C121.429 22.5821 123.134 24.7526 123.134 27.5041C123.134 30.4117 121.351 32.5041 118.445 32.5041ZM107.593 45.487H113.212V35.1783C114.879 37.0387 117.204 37.6191 119.219 37.6191C124.839 37.6191 128.754 33.7827 128.754 27.5041C128.754 21.5746 124.917 17.5048 119.297 17.5048C116.855 17.5048 114.685 18.0859 112.941 20.3727L112.592 17.9312H107.592V45.487H107.593ZM93.4856 32.6971C90.0756 32.6971 88.68 30.1016 88.68 27.5041C88.68 25.1016 90.1913 22.4658 93.4856 22.4658C96.858 22.4658 98.3303 25.101 98.3303 27.5041C98.3303 30.2166 96.8963 32.6971 93.4856 32.6971ZM93.4856 37.6588C99.9969 37.6588 103.989 33.628 103.989 27.5041C103.989 21.73 99.8806 17.4665 93.4856 17.4665C87.1297 17.4665 83.0216 21.73 83.0216 27.5041C83.0216 33.628 86.975 37.6588 93.4856 37.6588ZM64.2249 23.8224V15.6451H70.9682C73.8751 15.6451 75.3091 17.5828 75.3091 19.7532C75.3091 21.9237 73.8751 23.8224 70.9682 23.8224H64.2249ZM64.2249 29.3645H70.9682C77.8669 29.2488 81.3549 25.1016 81.3549 19.6369C81.3549 14.3665 77.9442 9.9093 70.9682 9.9093H58.1797V37.0386H64.2255V29.3645H64.2249Z" fill="#1D174A"/>
</svg>
