<svg width="24" height="25" viewBox="0 0 24 25" fill="none" xmlns="http://www.w3.org/2000/svg">
<path fill-rule="evenodd" clip-rule="evenodd" d="M12 2.14453C6.477 2.14453 2 6.62853 2 12.1615C2 16.5865 4.865 20.3415 8.839 21.6655C9.339 21.7575 9.521 21.4485 9.521 21.1825C9.521 20.9455 9.513 20.3145 9.508 19.4795C6.726 20.0845 6.139 18.1365 6.139 18.1365C5.685 16.9785 5.029 16.6705 5.029 16.6705C4.121 16.0505 5.098 16.0625 5.098 16.0625C6.101 16.1325 6.629 17.0945 6.629 17.0945C7.521 18.6245 8.97 18.1825 9.539 17.9265C9.631 17.2795 9.889 16.8385 10.175 16.5885C7.955 16.3355 5.62 15.4755 5.62 11.6375C5.62 10.5445 6.01 9.64953 6.649 8.94953C6.546 8.69653 6.203 7.67753 6.747 6.29953C6.747 6.29953 7.587 6.02953 9.497 7.32553C10.3128 7.10305 11.1544 6.98972 12 6.98853C12.85 6.99253 13.705 7.10353 14.504 7.32553C16.413 6.02953 17.251 6.29853 17.251 6.29853C17.797 7.67753 17.453 8.69653 17.351 8.94953C17.991 9.64953 18.379 10.5445 18.379 11.6375C18.379 15.4855 16.04 16.3325 13.813 16.5805C14.172 16.8895 14.491 17.5005 14.491 18.4355C14.491 19.7735 14.479 20.8545 14.479 21.1825C14.479 21.4505 14.659 21.7625 15.167 21.6645C17.1583 20.9966 18.8893 19.7198 20.1155 18.0146C21.3416 16.3093 22.0009 14.2618 22 12.1615C22 6.62853 17.522 2.14453 12 2.14453Z" fill="#111827"/>
</svg>
