<svg width="24" height="25" viewBox="0 0 24 25" fill="none" xmlns="http://www.w3.org/2000/svg">
<path d="M8.29 20.3979C15.837 20.3979 19.965 14.1449 19.965 8.72293C19.965 8.54493 19.965 8.36793 19.953 8.19293C20.7562 7.61146 21.4493 6.89154 22 6.06693C21.2511 6.39893 20.4566 6.61669 19.643 6.71293C20.4996 6.19999 21.1408 5.39328 21.447 4.44293C20.6417 4.92082 19.7607 5.25766 18.842 5.43893C18.2234 4.78069 17.405 4.34476 16.5136 4.19863C15.6222 4.0525 14.7075 4.20433 13.9111 4.6306C13.1147 5.05687 12.4811 5.7338 12.1083 6.55659C11.7355 7.37938 11.6444 8.30211 11.849 9.18193C10.2176 9.10017 8.6216 8.67625 7.16465 7.9377C5.70769 7.19914 4.42233 6.16245 3.392 4.89493C2.86732 5.79813 2.70659 6.86735 2.94254 7.88489C3.17848 8.90244 3.79337 9.79181 4.662 10.3719C4.00926 10.353 3.37063 10.1774 2.8 9.85993V9.91193C2.80039 10.8592 3.1284 11.7772 3.7284 12.5103C4.3284 13.2433 5.16347 13.7463 6.092 13.9339C5.48781 14.0986 4.85389 14.1226 4.239 14.0039C4.50116 14.8194 5.01168 15.5325 5.69913 16.0435C6.38658 16.5546 7.21657 16.8379 8.073 16.8539C7.22212 17.5225 6.24779 18.0168 5.20573 18.3085C4.16367 18.6002 3.07432 18.6836 2 18.5539C3.8766 19.7583 6.06019 20.397 8.29 20.3939" fill="#111827"/>
</svg>
