<svg width="1920" height="2394" viewBox="0 0 1920 2394" fill="none" xmlns="http://www.w3.org/2000/svg">
<path fill-rule="evenodd" clip-rule="evenodd" d="M925.324 2200.46C1307.89 2173 1668.02 2083.56 1992.1 1945.17L1981.64 1614.13C1756.77 1670.75 1519.52 1703.45 1274.58 1709.1L618.331 2208.8C719.484 2210.59 821.916 2207.88 925.324 2200.46Z" fill="#FFF5CF"/>
<path d="M2077.73 1768.86C1778.01 1943.85 1435.81 2082.47 1062.71 2171.09C678.854 2262.27 299.228 2291.76 -57.9993 2267.08L-132.787 1571.64C206.843 1650.48 534.994 1693.9 922.911 1662.61C1316.92 1630.84 1688.77 1540.11 2022.55 1403.79L2077.73 1768.86Z" fill="#FFFAEA"/>
<path d="M-1.08203 856.418L-1.08203 0H1918.92V853.433C1625.1 963.626 1298.7 1025 954.918 1025C614.254 1025 290.651 964.734 -1.08203 856.418Z" fill="#FDEAA7"/>
</svg>
