<svg width="1920" height="1069" viewBox="0 0 1920 1069" fill="none" xmlns="http://www.w3.org/2000/svg">
<mask id="mask0_2425:33997" style="mask-type:alpha" maskUnits="userSpaceOnUse" x="-43" y="-2" width="2006" height="1071">
<path d="M-43 892.853L-43 -2H1963V889.733C1656.03 1004.87 1315 1069 955.821 1069C599.898 1069 261.801 1006.03 -43 892.853Z" fill="#FDEAA7"/>
</mask>
<g mask="url(#mask0_2425:33997)">
<path d="M-43 892.853L-43 -2H1963V889.733C1656.03 1004.87 1315 1069 955.821 1069C599.898 1069 261.801 1006.03 -43 892.853Z" fill="#FDEAA7"/>
<path d="M1719.84 895.048C1717.5 901.703 1715.39 908.433 1713.48 915.238C1710.44 926.23 1707.9 937.372 1705.78 948.663L1671.11 882.112C1671.11 882.112 1668.71 874.56 1654.31 864.689C1639.83 854.819 1646.4 822.44 1670.13 822.216C1688.13 822.066 1710.37 871.568 1719.84 895.048Z" fill="#73B7EA" stroke="#2E1E00" stroke-miterlimit="10" stroke-linecap="round" stroke-linejoin="round"/>
<path d="M1634.75 915.313C1634.75 915.313 1629.74 894.525 1647.88 897.665C1647.88 897.665 1640.12 866.409 1661.94 864.839C1683.75 863.268 1681.07 891.085 1681.07 891.085C1681.07 891.085 1687.57 887.944 1689.76 892.805C1691.94 897.665 1689.61 902.376 1689.61 902.376C1689.61 902.376 1698.44 907.012 1694.2 915.387H1634.75V915.313Z" fill="#FEFFFA" stroke="#2E1E00" stroke-miterlimit="10" stroke-linecap="round" stroke-linejoin="round"/>
<path d="M1790.3 1059.33C1790.23 1067.48 1790.3 1075.63 1790.52 1083.78C1791.29 1108.46 1791.08 1133.29 1787.48 1157.74C1786.35 1165.66 1784.51 1189.29 1773.36 1189.29C1746.74 1189.29 1750.9 1060.6 1750.9 1060.6H1739.61C1739.61 1060.6 1736.64 1189.29 1714.4 1189.29H1714.19C1705.43 1189.07 1702.18 1175.98 1700.56 1168.95C1693.36 1137.92 1695.97 1102.93 1696.6 1071.45C1696.96 1049.84 1697.38 1028.3 1698.79 1006.69C1700.06 987.248 1702.25 967.731 1705.78 948.588C1707.83 937.372 1710.37 926.155 1713.48 915.163C1715.39 908.358 1717.51 901.629 1719.84 894.973C1724.42 882.037 1729.86 869.4 1736.5 857.511C1742.5 846.743 1749.42 836.424 1757.68 827.525C1758.46 826.628 1766.93 819.973 1766.93 818.926L1768.7 843.453C1790.3 846.294 1796.73 864.166 1796.73 864.166C1811.49 856.165 1826.74 856.165 1826.74 856.165C1810.64 874.26 1798.99 957.561 1793.62 1003.92C1793.34 1006.32 1793.13 1008.78 1792.92 1011.18C1792.7 1013.34 1792.56 1015.44 1792.35 1017.61C1802.17 1014.77 1817.7 1007.36 1824.2 988.444C1834.08 959.655 1811.56 928.025 1831.12 921.893C1852.23 915.387 1881.67 1025.53 1790.3 1059.33Z" fill="#73B7EA" stroke="#2E1E00" stroke-miterlimit="10" stroke-linecap="round" stroke-linejoin="round"/>
<path d="M1739.75 1060.53C1734.52 1059.86 1729.44 1057.99 1724.99 1054.92L1739.75 1060.53Z" fill="#FFDC38"/>
<path d="M1739.75 1060.53C1734.52 1059.86 1729.44 1057.99 1724.99 1054.92" stroke="#2E1E00" stroke-miterlimit="10" stroke-linecap="round" stroke-linejoin="round"/>
<path d="M1792.28 1017.76L1790.3 1059.33" stroke="#2E1E00" stroke-miterlimit="10" stroke-linecap="round" stroke-linejoin="round"/>
<path d="M1711.29 923.538C1711.29 923.538 1738.9 959.356 1803.01 936.699" stroke="#FEFFFA" stroke-miterlimit="10" stroke-linecap="round" stroke-linejoin="round"/>
<path d="M1810.92 897.217L1781.62 899.684L1807.74 911.35L1810.92 897.217Z" fill="#2E1E00" stroke="#2E1E00" stroke-miterlimit="10" stroke-linecap="round" stroke-linejoin="round"/>
<path d="M1806.4 918.154H1787.62L1804.43 928.623L1806.4 918.154Z" fill="#2E1E00" stroke="#2E1E00" stroke-miterlimit="10" stroke-linecap="round" stroke-linejoin="round"/>
<path d="M1736.92 894.226C1736.92 894.226 1747.87 896.992 1750.2 886.449" stroke="#2E1E00" stroke-miterlimit="10" stroke-linecap="round" stroke-linejoin="round"/>
<path d="M1775.82 878.251C1778.49 876.62 1778.58 871.5 1776.03 866.815C1773.48 862.13 1769.24 859.654 1766.57 861.285C1763.91 862.917 1763.81 868.037 1766.37 872.722C1768.92 877.407 1773.16 879.883 1775.82 878.251Z" fill="#2E1E00"/>
<path d="M1738.9 860.011C1743.85 858.663 1747.24 855.009 1746.47 851.849C1745.7 848.689 1741.07 847.22 1736.12 848.568C1731.17 849.916 1727.78 853.57 1728.55 856.729C1729.32 859.889 1733.95 861.358 1738.9 860.011Z" fill="#2E1E00"/>
<path d="M1735.93 885.776C1737.92 885.776 1739.54 884.069 1739.54 881.962C1739.54 879.856 1737.92 878.149 1735.93 878.149C1733.95 878.149 1732.33 879.856 1732.33 881.962C1732.33 884.069 1733.95 885.776 1735.93 885.776Z" fill="#2E1E00"/>
<path d="M1759.87 881.215C1761.39 881.215 1762.62 879.909 1762.62 878.298C1762.62 876.688 1761.39 875.382 1759.87 875.382C1758.35 875.382 1757.12 876.688 1757.12 878.298C1757.12 879.909 1758.35 881.215 1759.87 881.215Z" fill="#2E1E00"/>
<path d="M1735.93 871.269C1737.45 871.269 1738.69 869.964 1738.69 868.353C1738.69 866.743 1737.45 865.437 1735.93 865.437C1734.41 865.437 1733.18 866.743 1733.18 868.353C1733.18 869.964 1734.41 871.269 1735.93 871.269Z" fill="#2E1E00"/>
<path d="M1717.72 943.204L1720.89 933.857" stroke="#FEFFFA" stroke-miterlimit="10" stroke-linecap="round" stroke-linejoin="round"/>
<path d="M1694.27 915.313L1691.73 958.459L1639.69 960.627L1638.35 951.878L1634.82 915.313H1694.27Z" fill="#FDEAA7" stroke="#2E1E00" stroke-miterlimit="10" stroke-linecap="round" stroke-linejoin="round"/>
<path d="M1654.31 864.689C1654.31 864.689 1669.14 874.036 1676.27 851.155L1654.31 864.689Z" fill="#73B7EA"/>
<path d="M1654.31 864.689C1654.31 864.689 1669.14 874.036 1676.27 851.155" stroke="#2E1E00" stroke-miterlimit="10" stroke-linecap="round" stroke-linejoin="round"/>
<path d="M1789.39 727.399C1789.39 727.399 1795.25 722.389 1792.42 717.679C1789.6 712.968 1784.51 718.352 1784.51 718.352C1784.51 718.352 1779.78 711.023 1775.33 714.912C1770.89 718.8 1774.98 723.735 1774.98 723.735C1774.98 723.735 1768.41 724.334 1770.53 728.596C1772.65 732.783 1776.82 730.54 1776.82 730.54C1776.82 730.54 1778.3 739.364 1783.31 736.896C1788.33 734.279 1789.39 727.399 1789.39 727.399Z" fill="#FEFFFA" stroke="#2E1E00" stroke-miterlimit="10" stroke-linecap="round" stroke-linejoin="round"/>
<path d="M1716.73 800.007C1716.73 800.007 1727.25 795.147 1723.15 788.043C1719.06 780.939 1713.27 786.772 1713.27 786.772C1713.27 786.772 1709.03 779.818 1705.08 782.958C1701.19 786.099 1703.17 805.092 1716.73 800.007Z" fill="#FEFFFA" stroke="#2E1E00" stroke-miterlimit="10" stroke-linecap="round" stroke-linejoin="round"/>
<path d="M1667.3 904.246C1667.3 904.246 1673.37 897.217 1679.38 904.246" stroke="#2E1E00" stroke-miterlimit="10" stroke-linecap="round" stroke-linejoin="round"/>
<path d="M1656.78 881.439C1656.78 881.439 1662.85 874.41 1668.85 881.439" stroke="#2E1E00" stroke-miterlimit="10" stroke-linecap="round" stroke-linejoin="round"/>
<path d="M1727.74 955.617C1729.37 957.337 1729.37 960.104 1727.74 961.749C1726.33 963.244 1724.07 963.394 1722.45 962.198C1722.24 962.721 1721.95 963.17 1721.6 963.544C1719.98 965.263 1717.36 965.263 1715.81 963.544C1714.89 962.571 1714.47 961.151 1714.68 959.879C1714.4 959.954 1714.12 959.954 1713.76 959.954C1711.5 959.954 1709.67 958.01 1709.67 955.617C1709.67 953.224 1711.5 951.28 1713.76 951.28C1714.19 951.28 1714.54 951.355 1714.89 951.43C1713.41 949.71 1713.48 947.093 1715.03 945.448C1716.66 943.728 1719.27 943.728 1720.82 945.448C1721.53 946.195 1721.88 947.093 1722.02 948.065C1723.65 946.495 1726.19 946.495 1727.74 948.14C1729.37 949.859 1729.37 952.626 1727.74 954.271C1727.53 954.496 1727.25 954.72 1727.04 954.869C1727.32 955.169 1727.53 955.393 1727.74 955.617Z" fill="#FEFFFA" stroke="#2E1E00" stroke-miterlimit="10" stroke-linecap="round" stroke-linejoin="round"/>
<path d="M1767.99 955.243L1691.73 958.459L1639.69 960.627L1638.35 951.878C1638.35 951.878 1638.35 951.878 1638.35 951.953C1638.07 952.327 1634.82 954.645 1634.54 954.869C1626.84 961.001 1624.16 969.002 1627.27 977.975C1629.95 985.677 1637.36 989.94 1644.28 992.482C1645.62 992.931 1646.9 993.454 1648.31 993.753C1660.1 996.744 1672.88 997.567 1685.17 997.043C1688.41 996.894 1691.66 996.744 1694.91 996.67L1766.37 992.482" fill="#73B7EA"/>
<path d="M1767.99 955.243L1691.73 958.459L1639.69 960.627L1638.35 951.878C1638.35 951.878 1638.35 951.878 1638.35 951.953C1638.07 952.327 1634.82 954.645 1634.54 954.869C1626.84 961.001 1624.16 969.002 1627.27 977.975C1629.95 985.677 1637.36 989.94 1644.28 992.482C1645.62 992.931 1646.9 993.454 1648.31 993.753C1660.1 996.744 1672.88 997.567 1685.17 997.043C1688.41 996.894 1691.66 996.744 1694.91 996.67L1766.37 992.482" stroke="#2E1E00" stroke-miterlimit="10" stroke-linecap="round" stroke-linejoin="round"/>
<path d="M144.705 1039.88V1060.43C144.705 1083.44 143.39 1106.91 144.642 1129.78C145.018 1137.07 149.776 1156.89 160.418 1150.66C166.678 1147.02 168.181 1135.95 169.496 1129.32C170.81 1122.62 171.499 1115.92 172.375 1109.16C174.692 1091.13 175.944 1072.96 176.757 1054.8C176.883 1051.81 177.008 1048.9 177.133 1045.91C177.133 1045.91 184.207 1047.5 190.593 1045.91C190.593 1045.91 189.278 1151.52 210.375 1151.72C231.66 1151.92 225.525 989.628 225.525 989.628C225.525 989.628 255.574 982.202 253.32 942.225C253.32 942.225 250.942 920.48 234.164 915.574L237.795 824.018L217.574 849.078C217.574 849.078 203.99 835.819 184.708 845.233L165.301 824.018L162.234 846.36L157.538 880.039L155.16 896.945L150.277 932.016L126.112 929.231C126.112 929.231 121.354 903.309 121.354 903.243C121.292 902.978 117.911 905.099 117.723 905.232C114.593 907.751 112.84 911.795 111.776 915.773C108.771 927.176 109.522 940.634 114.405 951.374C120.102 963.772 132.122 968.943 144.454 970.6V1008.92C144.454 1008.92 94.122 1021.65 76.9062 1068.79C63.1336 1106.51 63.8223 1135.68 78.3461 1133.43C93.1203 1131.04 88.1747 1057.58 144.705 1039.88Z" fill="#ADF0E7" stroke="#2E1E00" stroke-miterlimit="10" stroke-linecap="round" stroke-linejoin="round"/>
<path d="M119.539 879.906L121.604 903.176C121.604 903.243 126.362 929.165 126.362 929.165L150.527 931.949L155.41 896.878L157.789 879.972H119.539V879.906Z" fill="#FDEAA7" stroke="#2E1E00" stroke-miterlimit="10" stroke-linecap="round" stroke-linejoin="round"/>
<path d="M119.539 879.906H157.726L162.421 846.227C160.418 843.642 157.476 841.122 154.346 842.316C148.461 844.504 147.898 851.995 147.898 851.995C147.898 851.995 144.204 845.962 139.258 848.415C134.313 850.868 134.688 859.155 134.688 859.155C134.688 859.155 121.041 851.664 117.035 864.459C113.842 874.072 119.539 879.906 119.539 879.906Z" fill="#FEFFFA" stroke="#2E1E00" stroke-miterlimit="10" stroke-linecap="round" stroke-linejoin="round"/>
<path d="M234.227 915.441L229.156 952.435" stroke="#2E1E00" stroke-miterlimit="10" stroke-linecap="round" stroke-linejoin="round"/>
<path d="M144.705 1008.85L170.435 1001.69" stroke="#2E1E00" stroke-miterlimit="10" stroke-linecap="round" stroke-linejoin="round"/>
<path d="M144.705 1039.88L175.505 1030.86" stroke="#2E1E00" stroke-miterlimit="10" stroke-linecap="round" stroke-linejoin="round"/>
<path d="M270.912 844.504C270.912 844.504 265.716 840.062 268.22 835.885C270.724 831.708 275.231 836.482 275.231 836.482C275.231 836.482 279.426 829.985 283.37 833.432C287.314 836.879 283.683 841.255 283.683 841.255C283.683 841.255 289.505 841.785 287.627 845.564C285.749 849.277 282.055 847.288 282.055 847.288C282.055 847.288 280.74 855.111 276.296 852.923C271.851 850.603 270.912 844.504 270.912 844.504Z" fill="#FEFFFA" stroke="#2E1E00" stroke-miterlimit="10" stroke-linecap="round" stroke-linejoin="round"/>
<path d="M143.516 863.73C143.516 863.73 148.899 857.498 154.221 863.73" stroke="#2E1E00" stroke-miterlimit="10" stroke-linecap="round" stroke-linejoin="round"/>
<path d="M125.924 872.945C125.924 872.945 131.308 866.713 136.629 872.945" stroke="#2E1E00" stroke-miterlimit="10" stroke-linecap="round" stroke-linejoin="round"/>
<path fill-rule="evenodd" clip-rule="evenodd" d="M618.294 470.282C619.063 471.496 618.737 473.155 617.566 473.988L75.9078 858.983C74.7362 859.816 73.1627 859.507 72.3932 858.293C71.6238 857.079 71.9497 855.419 73.1213 854.587L614.779 469.591C615.951 468.759 617.524 469.068 618.294 470.282Z" fill="url(#paint0_linear_2425:33997)"/>
</g>
<defs>
<linearGradient id="paint0_linear_2425:33997" x1="570.548" y1="558.733" x2="52.6251" y2="901.568" gradientUnits="userSpaceOnUse">
<stop stop-color="#F4AF50"/>
<stop offset="0.891556" stop-color="#E9E241" stop-opacity="0"/>
</linearGradient>
</defs>
</svg>
