<svg version="1.2" baseProfile="tiny-ps" xmlns="http://www.w3.org/2000/svg" viewBox="0 0 1920 1069" width="1920" height="1069">
	<title>bgUpperFaq-svg</title>
	<defs>
		<clipPath clipPathUnits="userSpaceOnUse" id="cp1">
			<path d="M-43 892.85L-43 -2L1963 -2L1963 889.73C1656.03 1004.87 1315 1069 955.82 1069C599.9 1069 261.8 1006.03 -43 892.85Z" />
		</clipPath>
		<linearGradient id="grd1" gradientUnits="userSpaceOnUse"  x1="570.548" y1="558.733" x2="52.625" y2="901.568">
			<stop offset="0" stop-color="#f4af50"  />
			<stop offset="0.892" stop-color="#e9e241" stop-opacity="0" />
		</linearGradient>
	</defs>
	<style>
		tspan { white-space:pre }
		.shp0 { fill: #fdeaa7 } 
		.shp1 { fill: #73b7ea;stroke: #2e1e00;stroke-linecap:round;stroke-linejoin:round } 
		.shp2 { fill: #fefffa;stroke: #2e1e00;stroke-linecap:round;stroke-linejoin:round } 
		.shp3 { fill: #ffdc38 } 
		.shp4 { fill: none;stroke: #2e1e00;stroke-linecap:round;stroke-linejoin:round } 
		.shp5 { fill: none;stroke: #fefffa;stroke-linecap:round;stroke-linejoin:round } 
		.shp6 { fill: #2e1e00;stroke: #2e1e00;stroke-linecap:round;stroke-linejoin:round } 
		.shp7 { fill: #2e1e00 } 
		.shp8 { fill: #fdeaa7;stroke: #2e1e00;stroke-linecap:round;stroke-linejoin:round } 
		.shp9 { fill: #73b7ea } 
		.shp10 { fill: #adf0e7;stroke: #2e1e00;stroke-linecap:round;stroke-linejoin:round } 
		.shp11 { fill: url(#grd1) } 
	</style>
	<g id="Clip-Path" clip-path="url(#cp1)">
		<g id="Layer">
			<path id="Layer" class="shp0" d="M-43 892.85L-43 -2L1963 -2L1963 889.73C1656.03 1004.87 1315 1069 955.82 1069C599.9 1069 261.8 1006.03 -43 892.85Z" />
			<path id="Layer" class="shp1" d="M1719.84 895.05C1717.5 901.7 1715.39 908.43 1713.48 915.24C1710.44 926.23 1707.9 937.37 1705.78 948.66L1671.11 882.11C1671.11 882.11 1668.71 874.56 1654.31 864.69C1639.83 854.82 1646.4 822.44 1670.13 822.22C1688.13 822.07 1710.37 871.57 1719.84 895.05Z" />
			<path id="Layer" class="shp2" d="M1634.75 915.31C1634.75 915.31 1629.74 894.52 1647.88 897.66C1647.88 897.66 1640.12 866.41 1661.94 864.84C1683.75 863.27 1681.07 891.09 1681.07 891.09C1681.07 891.09 1687.57 887.94 1689.76 892.8C1691.94 897.66 1689.61 902.38 1689.61 902.38C1689.61 902.38 1698.44 907.01 1694.2 915.39L1634.75 915.39L1634.75 915.31Z" />
			<path id="Layer" class="shp1" d="M1790.3 1059.33C1790.23 1067.48 1790.3 1075.63 1790.52 1083.78C1791.29 1108.46 1791.08 1133.29 1787.48 1157.74C1786.35 1165.66 1784.51 1189.29 1773.36 1189.29C1746.74 1189.29 1750.9 1060.6 1750.9 1060.6L1739.61 1060.6C1739.61 1060.6 1736.64 1189.29 1714.4 1189.29L1714.19 1189.29C1705.43 1189.07 1702.18 1175.98 1700.56 1168.95C1693.36 1137.92 1695.97 1102.93 1696.6 1071.45C1696.96 1049.84 1697.38 1028.3 1698.79 1006.69C1700.06 987.25 1702.25 967.73 1705.78 948.59C1707.83 937.37 1710.37 926.15 1713.48 915.16C1715.39 908.36 1717.51 901.63 1719.84 894.97C1724.42 882.04 1729.86 869.4 1736.5 857.51C1742.5 846.74 1749.42 836.42 1757.68 827.52C1758.46 826.63 1766.93 819.97 1766.93 818.93L1768.7 843.45C1790.3 846.29 1796.73 864.17 1796.73 864.17C1811.49 856.16 1826.74 856.16 1826.74 856.16C1810.64 874.26 1798.99 957.56 1793.62 1003.92C1793.34 1006.32 1793.13 1008.78 1792.92 1011.18C1792.7 1013.34 1792.56 1015.44 1792.35 1017.61C1802.17 1014.77 1817.7 1007.36 1824.2 988.44C1834.08 959.65 1811.56 928.02 1831.12 921.89C1852.23 915.39 1881.67 1025.53 1790.3 1059.33Z" />
			<path id="Layer" class="shp3" d="M1739.75 1060.53C1734.52 1059.86 1729.44 1057.99 1724.99 1054.92L1739.75 1060.53Z" />
			<path id="Layer" class="shp4" d="M1739.75 1060.53C1734.52 1059.86 1729.44 1057.99 1724.99 1054.92" />
			<path id="Layer" class="shp4" d="M1792.28 1017.76L1790.3 1059.33" />
			<path id="Layer" class="shp5" d="M1711.29 923.54C1711.29 923.54 1738.9 959.36 1803.01 936.7" />
			<path id="Layer" class="shp6" d="M1807.74 911.35L1781.62 899.68L1810.92 897.22L1807.74 911.35Z" />
			<path id="Layer" class="shp6" d="M1804.43 928.62L1787.62 918.15L1806.4 918.15L1804.43 928.62Z" />
			<path id="Layer" class="shp4" d="M1736.92 894.23C1736.92 894.23 1747.87 896.99 1750.2 886.45" />
			<path id="Layer" class="shp7" d="M1766.37 872.72C1763.81 868.04 1763.91 862.92 1766.57 861.28C1769.24 859.65 1773.48 862.13 1776.03 866.82C1778.58 871.5 1778.49 876.62 1775.82 878.25C1773.16 879.88 1768.92 877.41 1766.37 872.72Z" />
			<path id="Layer" class="shp7" d="M1728.55 856.73C1727.78 853.57 1731.17 849.92 1736.12 848.57C1741.07 847.22 1745.7 848.69 1746.47 851.85C1747.24 855.01 1743.85 858.66 1738.9 860.01C1733.95 861.36 1729.32 859.89 1728.55 856.73Z" />
			<path id="Layer" class="shp7" d="M1732.33 881.96C1732.33 879.86 1733.95 878.15 1735.93 878.15C1737.92 878.15 1739.54 879.86 1739.54 881.96C1739.54 884.07 1737.92 885.78 1735.93 885.78C1733.95 885.78 1732.33 884.07 1732.33 881.96Z" />
			<path id="Layer" class="shp7" d="M1757.12 878.3C1757.12 876.69 1758.35 875.38 1759.87 875.38C1761.39 875.38 1762.62 876.69 1762.62 878.3C1762.62 879.91 1761.39 881.22 1759.87 881.22C1758.35 881.22 1757.12 879.91 1757.12 878.3Z" />
			<path id="Layer" class="shp7" d="M1733.18 868.35C1733.18 866.74 1734.41 865.44 1735.93 865.44C1737.45 865.44 1738.69 866.74 1738.69 868.35C1738.69 869.96 1737.45 871.27 1735.93 871.27C1734.41 871.27 1733.18 869.96 1733.18 868.35Z" />
			<path id="Layer" class="shp5" d="M1717.72 943.2L1720.89 933.86" />
			<path id="Layer" class="shp8" d="M1694.27 915.31L1691.73 958.46L1639.69 960.63L1638.35 951.88L1634.82 915.31L1694.27 915.31Z" />
			<path id="Layer" class="shp9" d="M1654.31 864.69C1654.31 864.69 1669.14 874.04 1676.27 851.15L1654.31 864.69Z" />
			<path id="Layer" class="shp4" d="M1654.31 864.69C1654.31 864.69 1669.14 874.04 1676.27 851.15" />
			<path id="Layer" class="shp2" d="M1783.31 736.9C1778.3 739.36 1776.82 730.54 1776.82 730.54C1776.82 730.54 1772.65 732.78 1770.53 728.6C1768.41 724.33 1774.98 723.74 1774.98 723.74C1774.98 723.74 1770.89 718.8 1775.33 714.91C1779.78 711.02 1784.51 718.35 1784.51 718.35C1784.51 718.35 1789.6 712.97 1792.42 717.68C1795.25 722.39 1789.39 727.4 1789.39 727.4C1789.39 727.4 1788.33 734.28 1783.31 736.9Z" />
			<path id="Layer" class="shp2" d="M1705.08 782.96C1709.03 779.82 1713.27 786.77 1713.27 786.77C1713.27 786.77 1719.06 780.94 1723.15 788.04C1727.25 795.15 1716.73 800.01 1716.73 800.01C1703.17 805.09 1701.19 786.1 1705.08 782.96Z" />
			<path id="Layer" class="shp4" d="M1667.3 904.25C1667.3 904.25 1673.37 897.22 1679.38 904.25" />
			<path id="Layer" class="shp4" d="M1656.78 881.44C1656.78 881.44 1662.85 874.41 1668.85 881.44" />
			<path id="Layer" class="shp2" d="M1727.74 955.62C1729.37 957.34 1729.37 960.1 1727.74 961.75C1726.33 963.24 1724.07 963.39 1722.45 962.2C1722.24 962.72 1721.95 963.17 1721.6 963.54C1719.98 965.26 1717.36 965.26 1715.81 963.54C1714.89 962.57 1714.47 961.15 1714.68 959.88C1714.4 959.95 1714.12 959.95 1713.76 959.95C1711.5 959.95 1709.67 958.01 1709.67 955.62C1709.67 953.22 1711.5 951.28 1713.76 951.28C1714.19 951.28 1714.54 951.36 1714.89 951.43C1713.41 949.71 1713.48 947.09 1715.03 945.45C1716.66 943.73 1719.27 943.73 1720.82 945.45C1721.53 946.2 1721.88 947.09 1722.02 948.07C1723.65 946.5 1726.19 946.5 1727.74 948.14C1729.37 949.86 1729.37 952.63 1727.74 954.27C1727.53 954.5 1727.25 954.72 1727.04 954.87C1727.32 955.17 1727.53 955.39 1727.74 955.62Z" />
			<path id="Layer" class="shp9" d="M1766.37 992.48L1694.91 996.67C1691.66 996.74 1688.41 996.89 1685.17 997.04C1672.88 997.57 1660.1 996.74 1648.31 993.75C1646.9 993.45 1645.62 992.93 1644.28 992.48C1637.36 989.94 1629.95 985.68 1627.27 977.98C1624.16 969 1626.84 961 1634.54 954.87C1634.82 954.64 1638.07 952.33 1638.35 951.95C1638.35 951.88 1638.35 951.88 1638.35 951.88L1639.69 960.63L1691.73 958.46L1767.99 955.24" />
			<path id="Layer" class="shp4" d="M1766.37 992.48L1694.91 996.67C1691.66 996.74 1688.41 996.89 1685.17 997.04C1672.88 997.57 1660.1 996.74 1648.31 993.75C1646.9 993.45 1645.62 992.93 1644.28 992.48C1637.36 989.94 1629.95 985.68 1627.27 977.98C1624.16 969 1626.84 961 1634.54 954.87C1634.82 954.64 1638.07 952.33 1638.35 951.95C1638.35 951.88 1638.35 951.88 1638.35 951.88L1639.69 960.63L1691.73 958.46L1767.99 955.24" />
			<path id="Layer" class="shp10" d="M78.35 1133.43C63.82 1135.68 63.13 1106.51 76.91 1068.79C94.12 1021.65 144.45 1008.92 144.45 1008.92L144.45 970.6C132.12 968.94 120.1 963.77 114.41 951.37C109.52 940.63 108.77 927.18 111.78 915.77C112.84 911.79 114.59 907.75 117.72 905.23C117.91 905.1 121.29 902.98 121.35 903.24C121.35 903.31 126.11 929.23 126.11 929.23L150.28 932.02L155.16 896.95L157.54 880.04L162.23 846.36L165.3 824.02L184.71 845.23C203.99 835.82 217.57 849.08 217.57 849.08L237.79 824.02L234.16 915.57C250.94 920.48 253.32 942.23 253.32 942.23C255.57 982.2 225.53 989.63 225.53 989.63C225.53 989.63 231.66 1151.92 210.38 1151.72C189.28 1151.52 190.59 1045.91 190.59 1045.91C184.21 1047.5 177.13 1045.91 177.13 1045.91C177.01 1048.9 176.88 1051.81 176.76 1054.8C175.94 1072.96 174.69 1091.13 172.38 1109.16C171.5 1115.92 170.81 1122.62 169.5 1129.32C168.18 1135.95 166.68 1147.02 160.42 1150.66C149.78 1156.89 145.02 1137.07 144.64 1129.78C143.39 1106.91 144.71 1083.44 144.71 1060.43L144.71 1039.88C88.17 1057.58 93.12 1131.04 78.35 1133.43Z" />
			<path id="Layer" class="shp8" d="M119.54 879.97L157.79 879.97L155.41 896.88L150.53 931.95L126.36 929.16C126.36 929.16 121.6 903.24 121.6 903.18L119.54 879.91L119.54 879.97Z" />
			<path id="Layer" class="shp2" d="M117.03 864.46C121.04 851.66 134.69 859.15 134.69 859.15C134.69 859.15 134.31 850.87 139.26 848.41C144.2 845.96 147.9 852 147.9 852C147.9 852 148.46 844.5 154.35 842.32C157.48 841.12 160.42 843.64 162.42 846.23L157.73 879.91L119.54 879.91C119.54 879.91 113.84 874.07 117.03 864.46Z" />
			<path id="Layer" class="shp4" d="M234.23 915.44L229.16 952.43" />
			<path id="Layer" class="shp4" d="M144.71 1008.85L170.44 1001.69" />
			<path id="Layer" class="shp4" d="M144.71 1039.88L175.5 1030.86" />
			<path id="Layer" class="shp2" d="M270.91 844.5C270.91 844.5 265.72 840.06 268.22 835.88C270.72 831.71 275.23 836.48 275.23 836.48C275.23 836.48 279.43 829.99 283.37 833.43C287.31 836.88 283.68 841.25 283.68 841.25C283.68 841.25 289.5 841.78 287.63 845.56C285.75 849.28 282.06 847.29 282.06 847.29C282.06 847.29 280.74 855.11 276.3 852.92C271.85 850.6 270.91 844.5 270.91 844.5Z" />
			<path id="Layer" class="shp4" d="M143.52 863.73C143.52 863.73 148.9 857.5 154.22 863.73" />
			<path id="Layer" class="shp4" d="M125.92 872.95C125.92 872.95 131.31 866.71 136.63 872.95" />
			<path id="Layer" fill-rule="evenodd" class="shp11" d="M618.29 470.28C619.06 471.5 618.74 473.15 617.57 473.99L75.91 858.98C74.74 859.82 73.16 859.51 72.39 858.29C71.62 857.08 71.95 855.42 73.12 854.59L614.78 469.59C615.95 468.76 617.52 469.07 618.29 470.28Z" />
		</g>
	</g>
</svg>