<svg width="543" height="278" viewBox="0 0 543 278" fill="none" xmlns="http://www.w3.org/2000/svg">
<path d="M276.306 232.367L277.471 238.366C257.036 235.475 239.737 252.042 239.737 252.042C208.472 234.417 190.647 255.422 190.647 255.422C179.404 249.868 170.776 249.897 164.378 252.115L164.24 251.358C164.24 251.358 53.4972 145.059 78.8875 126.514C100.092 111.018 176.005 206.232 176.005 206.232L155.736 108.054L175.032 127.519C175.032 127.519 196.573 113.118 218.665 120.124L230.473 95.388L250.321 193.638C250.321 193.638 290.634 78.727 315.761 86.3708C345.831 95.5167 276.306 232.367 276.306 232.367Z" fill="#1AAEE4"/>
<path d="M239.355 253.121C239.153 253.155 238.937 253.12 238.749 253.015C208.66 236.098 191.688 255.361 190.979 256.188C190.706 256.509 190.248 256.604 189.868 256.416C180.332 251.719 171.763 250.629 164.398 253.178C164.141 253.266 163.864 253.24 163.631 253.106C163.398 252.97 163.236 252.741 163.188 252.477L163.104 252.017C157.08 246.228 72.2678 164.166 74.2772 134.589C74.5091 131.15 75.8948 128.485 78.392 126.663C98.0875 112.298 160.739 186.877 174.03 203.142L154.629 109.207C154.547 108.808 154.737 108.402 155.098 108.21C155.455 108.019 155.9 108.084 156.188 108.371L174.891 127.203C178.636 124.925 197.976 114.073 217.753 119.894L229.187 96.0018C229.356 95.6448 229.737 95.4358 230.131 95.4863C230.525 95.5333 230.843 95.8294 230.921 96.2167L250.016 190.696C256.828 171.951 291.778 79.397 315.291 86.5195C318.247 87.4168 320.432 89.477 321.785 92.6451C333.417 119.887 280.471 225.178 276.618 232.769L277.719 238.421C277.776 238.714 277.688 239.014 277.482 239.231C277.278 239.448 276.98 239.551 276.683 239.508C257.011 236.738 240.007 252.716 239.838 252.879C239.702 253.01 239.533 253.091 239.355 253.121ZM209.096 244.865C216.967 243.531 227.055 244.483 239.07 251.087C242.055 248.405 257.354 235.624 275.671 237.532L274.754 232.81C274.714 232.61 274.742 232.401 274.836 232.219C275.406 231.103 331.57 120.249 320.094 93.3666C318.948 90.6848 317.204 89.0189 314.758 88.2787C307.963 86.2187 295.351 93.2276 273.843 138.306C260.832 165.575 250.745 194.137 250.644 194.423C250.507 194.813 250.123 195.067 249.71 195.036C249.296 195.007 248.952 194.708 248.871 194.302L229.665 99.2822L219.082 121.403C218.884 121.817 218.409 122.022 217.971 121.883C196.625 115.135 175.483 129.001 175.274 129.141C174.906 129.387 174.416 129.337 174.104 129.025L157.065 111.871L176.606 206.485C176.691 206.902 176.481 207.322 176.094 207.505C175.708 207.684 175.248 207.576 174.982 207.246C174.796 207.01 155.852 183.355 134.584 161.896C99.4305 126.429 85.2182 123.971 79.484 128.151C77.4186 129.657 76.3181 131.805 76.1197 134.715C74.1384 163.881 163.697 250.035 164.6 250.901C164.672 250.97 164.73 251.045 164.775 251.129C172.234 248.878 180.733 250.002 190.073 254.472C191.864 252.651 198.451 246.669 209.096 244.865Z" fill="#010101"/>
<path d="M179.17 223.765C178.625 223.857 178.118 223.538 178.035 223.05L175.326 207.067C175.244 206.581 175.617 206.11 176.163 206.018C176.708 205.925 177.215 206.245 177.298 206.733L180.007 222.715C180.089 223.202 179.716 223.672 179.17 223.765Z" fill="#010101"/>
<path d="M253.116 211.233C252.572 211.325 252.063 211.006 251.98 210.518L249.272 194.535C249.189 194.049 249.563 193.579 250.108 193.486C250.653 193.394 251.161 193.713 251.243 194.201L253.952 210.184C254.034 210.67 253.659 211.141 253.116 211.233Z" fill="#010101"/>
<path d="M30.8115 224.321C25.6933 225.188 20.7146 222.342 18.7796 217.604C17.8086 218.092 16.7713 218.431 15.6829 218.616C9.69428 219.63 3.98983 215.558 2.96923 209.536C1.94893 203.515 5.99247 197.787 11.9811 196.772C13.1992 196.566 14.4297 196.568 15.6452 196.778C16.4582 192.227 20.0266 188.621 24.6293 187.841C30.6196 186.826 36.3241 190.898 37.3447 196.921C37.8096 199.664 37.2509 202.396 35.7731 204.715C37.9325 206.418 39.3605 208.816 39.8251 211.557C40.8457 217.579 36.8019 223.306 30.8115 224.321ZM19.1213 215.377C19.2788 215.351 19.4396 215.364 19.5901 215.423C19.858 215.523 20.0628 215.744 20.1431 216.018C21.4626 220.506 25.92 223.301 30.507 222.524C35.5111 221.676 38.8906 216.893 38.038 211.862C37.6064 209.315 36.1794 207.123 34.0193 205.689C33.8087 205.549 33.6665 205.33 33.6244 205.081C33.5819 204.831 33.6439 204.577 33.797 204.377C35.3643 202.313 35.9891 199.772 35.5578 197.227C34.7053 192.196 29.9385 188.793 24.9344 189.642C20.8059 190.341 17.6725 193.762 17.3194 197.959C17.2973 198.228 17.157 198.472 16.9374 198.625C16.7181 198.781 16.4418 198.831 16.1824 198.76C14.8939 198.415 13.5836 198.351 12.2859 198.571C7.28185 199.419 3.90408 204.202 4.75694 209.234C5.6095 214.265 10.3746 217.668 15.3787 216.82C16.602 216.613 17.748 216.17 18.7856 215.507C18.8901 215.441 19.0037 215.397 19.1213 215.377Z" fill="#010101"/>
<path d="M46.739 42.7321C44.9589 43.0338 43.0836 42.9146 41.2533 42.3007C35.2845 40.3012 32.0379 33.7978 34.0176 27.8031C34.4224 26.5827 35.018 25.4558 35.7984 24.4403C32.0535 21.475 30.504 16.4414 32.026 11.8335C34.0038 5.8392 40.4718 2.58753 46.4406 4.58705C49.1592 5.49667 51.3728 7.34001 52.7656 9.82985C55.3595 8.67731 58.2317 8.53685 60.9485 9.44678C66.9173 11.4463 70.1639 17.9497 68.1843 23.9443C66.4915 29.0663 61.4915 32.2506 56.2482 31.717C56.2203 32.8458 56.0266 33.9638 55.6679 35.0542C54.2958 39.2089 50.7648 42.0498 46.739 42.7321ZM41.2662 6.01396C37.903 6.58392 34.9539 8.95589 33.8069 12.428C32.4421 16.5611 34.0358 21.1057 37.6783 23.4772C37.9124 23.6302 38.0664 23.8763 38.1006 24.1538C38.1362 24.4293 38.0452 24.7076 37.8587 24.9115C36.92 25.9279 36.2269 27.0991 35.7988 28.3994C34.1453 33.4055 36.8571 38.8402 41.8433 40.5099C46.8293 42.1779 52.2315 39.4643 53.8864 34.4561C54.2903 33.2303 54.4441 31.9635 54.3437 30.6861C54.3211 30.3899 54.4363 30.1019 54.6575 29.907C54.8787 29.7121 55.1761 29.6302 55.4666 29.6921C60.1858 30.6664 64.8855 27.9385 66.4028 23.3462C68.0559 18.3384 65.3442 12.9036 60.3579 11.2339C57.8342 10.3875 55.1505 10.6294 52.7999 11.9129C52.5722 12.0367 52.302 12.0621 52.0556 11.9779C51.8098 11.8973 51.6073 11.7131 51.4989 11.476C50.3807 9.03033 48.3754 7.22023 45.8517 6.37386C44.3205 5.86115 42.7543 5.76176 41.2662 6.01396Z" fill="#010101"/>
<path d="M274.228 77.4815C269.493 78.2839 264.813 76.3511 262.061 72.5974C260.246 75.927 256.965 78.3016 253.148 78.9486C246.36 80.0989 239.913 75.5759 238.776 68.8661C238.13 65.0586 239.307 61.2346 241.941 58.4232C239.775 56.6922 238.352 54.2835 237.886 51.5346C236.841 45.3682 241.066 39.4884 247.304 38.4313C250.224 37.9365 253.227 38.5928 255.669 40.2334C257.399 38.7461 259.487 37.7642 261.754 37.3801C268.541 36.2298 274.988 40.7528 276.126 47.4644C276.467 49.4775 276.298 51.5262 275.638 53.4512C280.195 54.7464 283.684 58.5529 284.476 63.2249C285.612 69.9385 281.016 76.3312 274.228 77.4815ZM261.776 69.7235C261.808 69.7181 261.837 69.715 261.872 69.7128C262.238 69.687 262.589 69.8799 262.759 70.2049C264.891 74.2359 269.374 76.4293 273.918 75.6592C279.686 74.6816 283.596 69.2456 282.629 63.5397C281.904 59.2629 278.517 55.8347 274.198 55.0167C273.921 54.962 273.68 54.7869 273.548 54.5388C273.416 54.2907 273.408 53.9944 273.522 53.7373C274.358 51.8568 274.621 49.7959 274.279 47.7792C273.312 42.0733 267.829 38.2271 262.059 39.205C259.908 39.5695 257.948 40.5661 256.388 42.0882C256.052 42.4173 255.521 42.4456 255.153 42.1578C253.021 40.4972 250.272 39.8032 247.609 40.2545C242.387 41.1395 238.851 46.0603 239.726 51.2228C240.168 53.834 241.649 56.0788 243.893 57.5444C244.134 57.7013 244.288 57.9601 244.309 58.247C244.33 58.532 244.216 58.811 244.002 59.0032C241.28 61.4321 240.014 65.0043 240.616 68.5542C241.583 74.2601 247.065 78.1045 252.835 77.1267C256.592 76.49 259.743 73.8814 261.052 70.3237C261.17 70.0059 261.45 69.7789 261.776 69.7235Z" fill="#010101"/>
<path d="M217.575 219.883C218.919 220.648 220.565 220.885 222.162 220.397C225.224 219.459 226.949 216.235 226.014 213.196C225.226 210.634 222.799 209.028 220.223 209.145C220.329 208.351 220.275 207.525 220.023 206.712C219.089 203.674 215.847 201.967 212.783 202.904C209.721 203.842 207.996 207.064 208.932 210.105C209.166 210.864 209.543 211.539 210.024 212.113C207.376 213.278 205.957 216.25 206.823 219.065C207.759 222.104 211.001 223.809 214.065 222.872C215.666 222.383 216.894 221.266 217.575 219.883Z" fill="white"/>
<path d="M213.456 224.04C211.994 224.287 210.499 224.051 209.168 223.352C207.571 222.513 206.4 221.103 205.871 219.387C204.982 216.495 206.153 213.413 208.626 211.796C208.36 211.348 208.149 210.865 207.992 210.358C207.464 208.64 207.641 206.822 208.49 205.231C209.338 203.643 210.758 202.475 212.486 201.949C216.061 200.853 219.848 202.851 220.939 206.396C221.125 206.994 221.221 207.607 221.231 208.227C223.89 208.504 226.175 210.33 226.973 212.929C227.503 214.647 227.324 216.465 226.476 218.054C225.628 219.641 224.207 220.809 222.479 221.339C220.997 221.791 219.389 221.718 217.957 221.143C217.093 222.42 215.808 223.38 214.324 223.834C214.036 223.921 213.747 223.99 213.456 224.04ZM213.66 203.565C213.449 203.6 213.238 203.651 213.03 203.713C211.776 204.098 210.747 204.941 210.13 206.094C209.513 207.247 209.386 208.566 209.769 209.812C209.963 210.44 210.274 211.014 210.697 211.512C210.883 211.736 210.955 212.032 210.886 212.314C210.821 212.597 210.626 212.835 210.357 212.951C208.086 213.951 206.922 216.483 207.648 218.842C208.033 220.087 208.881 221.109 210.038 221.719C211.196 222.326 212.523 222.455 213.78 222.068C215.091 221.666 216.145 220.768 216.75 219.536C216.864 219.304 217.067 219.132 217.315 219.056C217.561 218.981 217.827 219.009 218.052 219.137C219.248 219.818 220.625 219.976 221.937 219.574C224.526 218.782 225.99 216.046 225.198 213.473C224.545 211.354 222.528 209.94 220.294 210.04C220.02 210.051 219.754 209.944 219.57 209.743C219.383 209.543 219.298 209.271 219.332 208.999C219.424 208.299 219.368 207.605 219.164 206.94C218.779 205.692 217.933 204.672 216.775 204.063C215.805 203.555 214.721 203.385 213.66 203.565Z" fill="#010101"/>
<path d="M238.946 139.593L223.171 142.267L240.295 149.507L238.946 139.593Z" fill="#010101"/>
<path d="M240.532 150.482C240.373 150.509 240.207 150.493 240.05 150.435L222.924 144.044C222.533 143.899 222.289 143.51 222.332 143.098C222.372 142.685 222.688 142.349 223.098 142.279L239.019 139.581C239.268 139.539 239.52 139.601 239.725 139.748C239.926 139.894 240.056 140.117 240.091 140.365L241.295 149.453C241.339 149.774 241.209 150.093 240.952 150.293C240.827 150.392 240.684 150.456 240.532 150.482ZM226.776 143.517L239.259 148.178L238.381 141.551L226.776 143.517Z" fill="#010101"/>
<path d="M243.608 161.117L241.627 151.31L228.27 154.399L243.608 161.117Z" fill="#010101"/>
<path d="M243.838 162.092C243.661 162.122 243.478 162.102 243.306 162.025L227.82 155.209C227.451 155.046 227.228 154.664 227.265 154.265C227.302 153.866 227.593 153.535 227.984 153.443L241.466 150.326C241.718 150.265 241.97 150.312 242.182 150.448C242.395 150.584 242.542 150.801 242.592 151.05L244.6 160.986C244.669 161.328 244.542 161.682 244.271 161.9C244.141 162.001 243.993 162.066 243.838 162.092ZM231.141 154.628L242.411 159.591L240.949 152.359L231.141 154.628Z" fill="#010101"/>
<path d="M201.381 139.367C201.704 141.272 199.758 143.192 197.036 143.653C194.314 144.115 191.844 142.943 191.521 141.038C191.198 139.133 193.144 137.213 195.866 136.752C198.588 136.29 201.058 137.46 201.381 139.367Z" fill="#010101"/>
<path d="M205.978 149.238C205.529 149.314 205.084 148.984 204.955 148.467C204.821 147.925 205.093 147.381 205.562 147.249C205.778 147.189 210.803 145.707 209.749 139.487C209.655 138.935 209.968 138.419 210.451 138.337C210.934 138.255 211.4 138.639 211.493 139.192C212.589 145.655 208.416 148.577 206.054 149.219C206.03 149.229 206.003 149.233 205.978 149.238Z" fill="#010101"/>
<path d="M177.047 146.027C176.91 146.05 176.764 146.035 176.619 145.978C176.142 145.782 175.865 145.18 176.004 144.627C176.057 144.417 177.366 139.449 182.91 137.938C183.387 137.799 183.889 138.164 184.028 138.733C184.165 139.304 183.889 139.87 183.411 140.001C178.812 141.256 177.746 145.289 177.739 145.327C177.641 145.715 177.367 145.972 177.047 146.027Z" fill="#010101"/>
<path d="M219.046 135.866C218.692 135.926 218.322 135.81 218.095 135.534C217.98 135.399 215.569 132.616 210.376 133.096C209.826 133.146 209.349 132.781 209.311 132.278C209.271 131.777 209.678 131.324 210.234 131.278C216.58 130.692 219.573 134.255 219.695 134.406C220.023 134.803 219.926 135.377 219.482 135.69C219.351 135.78 219.202 135.84 219.046 135.866Z" fill="#010101"/>
<path d="M223.677 127.659C223.429 129.093 220.261 129.994 216.598 129.67C212.936 129.347 210.168 127.926 210.417 126.493C210.667 125.059 213.837 124.16 217.497 124.482C221.16 124.805 223.928 126.227 223.677 127.659Z" fill="#010101"/>
<path d="M171.672 137.265C172.419 138.761 175.717 138.626 179.042 136.963C182.368 135.299 184.459 132.738 183.714 131.242C182.969 129.744 179.67 129.88 176.344 131.544C173.018 133.207 170.926 135.769 171.672 137.265Z" fill="#010101"/>
<path d="M165.669 156.069L181.444 153.395L167.495 164.888L165.669 156.069Z" fill="#010101"/>
<path d="M167.593 165.885C167.443 165.911 167.285 165.9 167.134 165.848C166.825 165.741 166.598 165.484 166.532 165.168L164.676 156.187C164.625 155.943 164.677 155.689 164.82 155.483C164.963 155.275 165.181 155.137 165.43 155.095L181.349 152.397C181.762 152.327 182.169 152.541 182.344 152.917C182.52 153.293 182.418 153.739 182.098 154.006L168.031 165.685C167.904 165.789 167.752 165.858 167.593 165.885ZM166.681 156.744L168.036 163.291L178.286 154.778L166.681 156.744Z" fill="#010101"/>
<path d="M167.674 167.9L180.492 165.728L169.918 176.648L167.674 167.9Z" fill="#010101"/>
<path d="M170.015 177.646C169.887 177.668 169.75 177.659 169.619 177.621C169.299 177.529 169.051 177.269 168.965 176.936L166.698 168.106C166.633 167.847 166.673 167.572 166.812 167.347C166.95 167.123 167.175 166.97 167.428 166.927L180.403 164.729C180.799 164.662 181.194 164.869 181.379 165.239C181.565 165.609 181.499 166.059 181.217 166.351L170.509 177.38C170.375 177.525 170.202 177.614 170.015 177.646ZM168.738 168.646L170.333 174.858L177.862 167.1L168.738 168.646Z" fill="#010101"/>
<path d="M210.898 196.074C189.098 199.768 173.6 193.121 173.369 193.019C172.904 192.814 172.688 192.263 172.887 191.791C173.087 191.318 173.624 191.101 174.089 191.308C174.428 191.456 208.339 205.946 246.327 179.004C246.744 178.711 247.313 178.815 247.605 179.24C247.896 179.663 247.795 180.245 247.382 180.539C234.392 189.753 221.849 194.218 210.898 196.074Z" fill="#010101"/>
<path d="M214.297 203.612C213.753 203.704 213.244 203.387 213.162 202.901L211.956 195.784C211.874 195.3 212.248 194.831 212.793 194.739C213.338 194.646 213.846 194.964 213.928 195.45L215.134 202.567C215.216 203.051 214.84 203.52 214.297 203.612Z" fill="#010101"/>
<path d="M306.146 119.077C305.33 119.215 304.508 119.156 303.733 118.868C300.894 117.812 299.763 114.074 301.209 110.533C302.656 106.994 306.145 104.973 308.984 106.027C311.824 107.083 312.954 110.822 311.508 114.364C310.454 116.938 308.322 118.708 306.146 119.077ZM306.82 107.53C305.274 107.792 303.698 109.172 302.888 111.157C301.807 113.8 302.486 116.527 304.399 117.239C306.311 117.95 308.748 116.382 309.83 113.739C310.91 111.097 310.23 108.37 308.318 107.656C307.839 107.479 307.332 107.444 306.82 107.53ZM310.667 114.049L310.675 114.048L310.667 114.049Z" fill="#010101"/>
<path d="M315.218 104.724C315.549 105.769 316.44 106.346 317.209 106.01C317.978 105.677 318.335 104.558 318.004 103.513C317.673 102.466 316.782 101.891 316.013 102.225C315.244 102.562 314.887 103.679 315.218 104.724Z" fill="#010101"/>
<path d="M310.113 98.4896C310.494 99.5258 311.642 100.059 312.679 99.6784C313.716 99.2976 314.247 98.1508 313.869 97.1142C313.487 96.0758 312.342 95.5441 311.303 95.9232C310.266 96.3041 309.732 97.4512 310.113 98.4896Z" fill="#010101"/>
<path d="M302.452 101.217C302.738 101.995 303.599 102.394 304.376 102.108C305.154 101.823 305.554 100.962 305.269 100.185C304.983 99.4064 304.124 99.0076 303.344 99.2919C302.567 99.5775 302.167 100.439 302.452 101.217Z" fill="#010101"/>
<path d="M98.1324 153.315C97.3341 153.45 96.4731 153.42 95.5849 153.218C93.8382 152.819 92.1778 151.789 90.9134 150.314C88.2341 147.193 88.1597 143.004 90.7511 140.976C93.3409 138.951 97.6243 139.839 100.304 142.96C102.983 146.081 103.057 150.27 100.466 152.299C99.7943 152.826 98.9982 153.168 98.1324 153.315ZM93.4188 141.793C92.8872 141.884 92.3982 142.087 91.9838 142.413C90.2388 143.78 90.4468 146.785 92.4454 149.115C93.4467 150.281 94.7356 151.092 96.0741 151.397C97.3102 151.679 98.4315 151.489 99.2349 150.859C100.98 149.494 100.772 146.486 98.7733 144.156C97.2499 142.384 95.1186 141.505 93.4188 141.793Z" fill="#010101"/>
<path d="M93.113 134.812C93.9297 134.945 94.7011 134.391 94.834 133.574C94.9666 132.755 94.4109 131.985 93.5941 131.852C92.7774 131.719 92.0063 132.275 91.8734 133.092C91.7405 133.909 92.2965 134.681 93.113 134.812Z" fill="#010101"/>
<path d="M85.2253 136.149C86.0421 136.282 86.8132 135.726 86.9461 134.909C87.0791 134.093 86.5231 133.321 85.7064 133.188C84.8897 133.055 84.1188 133.613 83.9856 134.428C83.8529 135.247 84.4088 136.018 85.2253 136.149Z" fill="#010101"/>
<path d="M83.6047 144.538C84.4228 144.671 85.192 144.115 85.3251 143.299C85.4576 142.481 84.9036 141.71 84.0855 141.577C83.2674 141.445 82.4998 142 82.3654 142.818C82.231 143.635 82.7868 144.407 83.6047 144.538Z" fill="#010101"/>
<path d="M166.915 52.0546C166.702 52.0906 166.473 52.0475 166.272 51.9117C153.436 43.2644 144.999 55.0474 144.647 55.5535C144.35 55.9798 143.778 56.0634 143.369 55.7396C142.961 55.4157 142.871 54.809 143.166 54.383C146.489 49.5916 155.793 42.5731 167.235 50.2793C167.666 50.5687 167.798 51.1702 167.534 51.6196C167.39 51.8633 167.161 52.0129 166.915 52.0546Z" fill="#010101"/>
<path d="M537.239 189.414C537.066 189.27 536.943 189.062 536.912 188.818C534.789 173.158 520.035 174.149 519.408 174.197C518.879 174.239 518.427 173.845 518.396 173.314C518.365 172.785 518.768 172.322 519.295 172.279C525.221 171.792 536.921 174.561 538.815 188.517C538.886 189.044 538.518 189.537 537.995 189.618C537.71 189.665 537.441 189.583 537.239 189.414Z" fill="#010101"/>
<path d="M523.758 259.693C518.743 260.543 513.99 257.259 513.161 252.368C513.106 252.046 513.07 251.72 513.049 251.391C509.51 250.621 506.802 247.861 506.2 244.305C505.389 239.523 508.72 234.955 513.628 234.123C514.235 234.02 514.862 233.98 515.497 234.005C516.859 232.269 518.794 231.121 521.007 230.746C525.787 229.936 530.32 233.067 531.11 237.729C531.225 238.405 531.252 239.095 531.193 239.787C532.905 240.383 534.182 241.842 534.486 243.636C534.882 245.975 533.507 248.251 531.321 249.119C531.332 249.176 531.344 249.23 531.353 249.287C532.182 254.176 528.774 258.843 523.758 259.693ZM513.938 235.955C510.067 236.611 507.441 240.213 508.08 243.985C508.592 247.003 511.021 249.293 514.124 249.684C514.608 249.746 514.963 250.153 514.947 250.632C514.931 251.111 514.963 251.585 515.042 252.05C515.699 255.929 519.469 258.536 523.449 257.861C527.429 257.187 530.134 253.485 529.476 249.604C529.426 249.311 529.351 249.03 529.268 248.752C529.192 248.501 529.229 248.226 529.373 248.003C529.516 247.778 529.748 247.62 530.012 247.57C531.729 247.252 532.894 245.63 532.61 243.954C532.388 242.64 531.332 241.613 529.986 241.396C529.736 241.356 529.515 241.221 529.368 241.019C529.222 240.818 529.166 240.565 529.211 240.324C529.354 239.553 529.36 238.788 529.235 238.047C528.616 234.396 525.065 231.944 521.323 232.578C519.446 232.896 517.823 233.928 516.749 235.482C516.552 235.771 516.211 235.929 515.859 235.896C515.201 235.832 514.555 235.85 513.938 235.955Z" fill="#010101"/>
<path d="M147.29 269.738C147.091 269.771 146.881 269.734 146.693 269.62C146.266 269.356 146.122 268.789 146.366 268.349C154.572 253.63 164.3 251.648 164.711 251.572C165.195 251.477 165.658 251.815 165.753 252.32C165.846 252.821 165.532 253.304 165.053 253.394C164.923 253.42 155.659 255.388 147.908 269.294C147.769 269.542 147.54 269.695 147.29 269.738Z" fill="#010101"/>
<path d="M293.079 249.088C292.73 249.147 292.361 248.999 292.151 248.678C287.283 241.248 276.91 239.517 276.807 239.499C276.301 239.421 275.952 238.938 276.03 238.43C276.108 237.917 276.579 237.566 277.082 237.649C277.539 237.719 288.363 239.512 293.691 247.647C293.975 248.079 293.859 248.659 293.433 248.947C293.324 249.02 293.203 249.067 293.079 249.088Z" fill="#010101"/>
</svg>
