<svg width="442" height="1784" viewBox="0 0 442 1784" fill="none" xmlns="http://www.w3.org/2000/svg">
<g clip-path="url(#clip0_2507:33178)">
<path d="M88.9792 1164.22C87.0744 1162 84.2974 1160.53 81.1437 1160.4C75.1077 1160.15 70.0082 1164.84 69.7552 1170.88C69.542 1175.96 72.8434 1180.37 77.4994 1181.79C76.8114 1183.14 76.3877 1184.65 76.3199 1186.27C76.0669 1192.31 80.7541 1197.41 86.7911 1197.66C92.828 1197.91 97.9274 1193.22 98.1804 1187.19C98.2436 1185.68 97.998 1184.23 97.501 1182.9C102.947 1182.48 107.343 1178.05 107.577 1172.46C107.83 1166.42 103.142 1161.32 97.1054 1161.07C93.9526 1160.94 91.063 1162.16 88.9792 1164.22Z" fill="white"/>
<path d="M108.558 1172.5C108.323 1178.11 104.21 1182.74 98.7889 1183.72C99.0858 1184.86 99.2104 1186.03 99.1604 1187.23C98.8851 1193.8 93.3181 1198.91 86.7509 1198.64C80.1847 1198.36 75.0646 1192.8 75.3398 1186.23C75.3959 1184.89 75.6741 1183.59 76.1679 1182.35C71.56 1180.47 68.5645 1175.88 68.7761 1170.83C69.0514 1164.27 74.6185 1159.15 81.1857 1159.42C84.1748 1159.55 86.9262 1160.75 89.0369 1162.84C91.3138 1160.94 94.1563 1159.97 97.1464 1160.09C103.713 1160.37 108.834 1165.93 108.558 1172.5ZM96.521 1182.86C96.5281 1182.69 96.5803 1182.52 96.6748 1182.37C96.8398 1182.11 97.1178 1181.95 97.4261 1181.92C102.444 1181.54 106.388 1177.45 106.598 1172.42C106.828 1166.93 102.551 1162.28 97.0642 1162.05C94.2888 1161.93 91.6612 1162.95 89.6685 1164.92C89.476 1165.11 89.2115 1165.21 88.9391 1165.2C88.6676 1165.18 88.4136 1165.06 88.2367 1164.86C86.4151 1162.73 83.8819 1161.5 81.1055 1161.38C75.6173 1161.15 70.9682 1165.43 70.7382 1170.92C70.5484 1175.44 73.4461 1179.53 77.7861 1180.85C78.0643 1180.93 78.2895 1181.14 78.403 1181.4C78.5165 1181.67 78.5077 1181.97 78.3741 1182.23C77.7233 1183.52 77.3614 1184.89 77.3018 1186.31C77.0719 1191.8 81.3488 1196.45 86.835 1196.68C92.3212 1196.91 96.9723 1192.63 97.2023 1187.15C97.2585 1185.8 97.0504 1184.49 96.5834 1183.25C96.5356 1183.12 96.5155 1182.99 96.521 1182.86Z" fill="#010101"/>
<path d="M214.01 1388.03C212.105 1385.81 209.328 1384.35 206.175 1384.21C200.138 1383.96 195.039 1388.65 194.786 1394.69C194.573 1399.77 197.874 1404.18 202.53 1405.6C201.842 1406.95 201.418 1408.46 201.35 1410.08C201.097 1416.12 205.785 1421.22 211.822 1421.47C217.859 1421.72 222.958 1417.03 223.211 1411C223.274 1409.49 223.029 1408.04 222.532 1406.71C227.977 1406.29 232.374 1401.87 232.608 1396.27C232.861 1390.23 228.174 1385.14 222.137 1384.88C218.983 1384.75 216.094 1385.97 214.01 1388.03Z" fill="white"/>
<path d="M-14.4457 310.282C-17.1747 311.33 -19.4873 313.451 -20.6713 316.378C-22.9401 321.977 -20.2426 328.356 -14.6416 330.624C-9.923 332.538 -4.66039 330.912 -1.76055 327.007C-0.717935 328.108 0.566363 329.017 2.06551 329.625C7.66461 331.893 14.0442 329.196 16.3131 323.596C18.583 317.995 15.8836 311.616 10.2835 309.347C8.88469 308.781 7.43859 308.523 6.02006 308.544C7.45635 303.274 4.76471 297.645 -0.422079 295.542C-6.02208 293.272 -12.4008 295.972 -14.6707 301.572C-15.8565 304.496 -15.6756 307.629 -14.4457 310.282Z" fill="white"/>
<path d="M18.0906 319.977C18.034 321.326 17.7459 322.672 17.2216 323.963C16.0258 326.915 13.7515 329.223 10.819 330.464C7.88857 331.704 4.64774 331.729 1.69664 330.534C0.45714 330.031 -0.673049 329.333 -1.67472 328.449C-5.00013 332.156 -10.3285 333.431 -15.0096 331.535C-21.1019 329.066 -24.0477 322.098 -21.5796 316.009C-20.4551 313.235 -18.396 311.048 -15.7209 309.765C-16.747 306.98 -16.7015 303.976 -15.579 301.203C-14.3832 298.25 -12.1099 295.943 -9.17743 294.701C-6.24399 293.461 -3.00511 293.435 -0.0540559 294.632C5.15213 296.741 8.12901 302.17 7.22766 307.607C8.3985 307.71 9.5453 307.988 10.6526 308.437C13.6027 309.632 15.9117 311.907 17.1524 314.838C17.851 316.489 18.1635 318.238 18.0906 319.977ZM-20.4829 320.06C-20.6542 324.147 -18.2759 328.093 -14.2745 329.715C-10.0734 331.419 -5.25209 330.063 -2.54885 326.421C-2.37614 326.188 -2.10799 326.045 -1.81859 326.026C-1.52825 326.009 -1.24722 326.12 -1.04889 326.331C-0.057025 327.377 1.11489 328.18 2.43361 328.714C4.8991 329.714 7.60575 329.691 10.0564 328.656C12.5061 327.619 14.4042 325.69 15.4049 323.224C16.4035 320.76 16.3826 318.052 15.3464 315.603C14.3102 313.152 12.3812 311.253 9.91564 310.254C8.67034 309.75 7.36416 309.503 6.03501 309.523C5.72659 309.527 5.43301 309.387 5.24588 309.144C5.05479 308.901 4.99353 308.582 5.07278 308.284C6.39846 303.428 3.87657 298.34 -0.790886 296.448C-3.25642 295.449 -5.96299 295.47 -8.4127 296.506C-10.8624 297.543 -12.7635 299.473 -13.7622 301.938C-14.8057 304.514 -14.7323 307.329 -13.5555 309.867C-13.4411 310.113 -13.4344 310.396 -13.5343 310.648C-13.6371 310.9 -13.8389 311.099 -14.0923 311.196C-16.7045 312.198 -18.7182 314.168 -19.7618 316.744C-20.204 317.832 -20.4364 318.951 -20.4829 320.06Z" fill="#010101"/>
<path d="M332.868 218.464C330.138 219.512 327.827 221.632 326.642 224.559C324.373 230.158 327.071 236.538 332.672 238.806C337.391 240.72 342.654 239.094 345.552 235.188C346.596 236.289 347.88 237.198 349.379 237.807C354.977 240.075 361.356 237.377 363.625 231.777C365.896 226.176 363.196 219.797 357.596 217.529C356.199 216.962 354.752 216.705 353.334 216.726C354.768 211.456 352.079 205.826 346.89 203.723C341.292 201.454 334.912 204.154 332.641 209.753C331.456 212.678 331.637 215.809 332.868 218.464Z" fill="white"/>
<path d="M365.397 228.177C365.341 229.505 365.06 230.844 364.535 232.144C362.065 238.237 355.099 241.184 349.008 238.714C347.771 238.212 346.638 237.513 345.638 236.631C342.313 240.336 336.985 241.612 332.302 239.715C329.353 238.519 327.044 236.246 325.801 233.313C324.56 230.381 324.535 227.143 325.731 224.189C326.855 221.417 328.916 219.23 331.591 217.946C330.565 215.162 330.609 212.157 331.731 209.383C334.201 203.292 341.165 200.345 347.258 202.814C352.462 204.922 355.44 210.345 354.538 215.79C355.711 215.893 356.857 216.169 357.964 216.617C362.756 218.561 365.601 223.285 365.397 228.177ZM326.824 228.258C326.763 229.709 327.024 231.17 327.608 232.549C328.646 234.999 330.572 236.898 333.039 237.897C337.238 239.598 342.059 238.243 344.764 234.604C344.937 234.37 345.204 234.226 345.495 234.208C345.783 234.191 346.064 234.303 346.264 234.512C347.256 235.559 348.428 236.362 349.746 236.896C354.834 238.959 360.654 236.497 362.716 231.406C364.78 226.319 362.316 220.498 357.227 218.435C355.984 217.932 354.677 217.686 353.346 217.705C353.038 217.711 352.746 217.57 352.557 217.325C352.368 217.081 352.307 216.765 352.386 216.465C353.708 211.614 351.19 206.521 346.521 204.63C341.433 202.568 335.613 205.03 333.551 210.119C332.505 212.696 332.579 215.51 333.758 218.049C333.87 218.295 333.878 218.577 333.777 218.831C333.674 219.083 333.474 219.28 333.219 219.378C330.608 220.379 328.594 222.35 327.55 224.926C327.114 226.005 326.871 227.13 326.824 228.258Z" fill="#010101"/>
<path d="M243.492 325.479C241.638 324.146 239.39 323.318 236.94 323.215C230.255 322.935 224.608 328.126 224.328 334.812C224.22 337.391 224.933 339.809 226.223 341.831C223.905 343.758 222.367 346.613 222.231 349.865C221.975 355.967 226.716 361.119 232.816 361.375C236.001 361.508 238.917 360.273 241.024 358.203C243.031 361.669 246.702 364.074 251.002 364.255C257.686 364.535 263.332 359.342 263.613 352.657C263.802 348.137 261.486 344.099 257.902 341.865C262.817 340.49 266.514 336.085 266.739 330.711C267.02 324.026 261.826 318.378 255.141 318.097C249.956 317.88 245.407 320.964 243.492 325.479Z" fill="white"/>
<path d="M267.72 330.752C267.509 335.786 264.469 340.164 259.969 342.162C263.025 344.754 264.764 348.639 264.594 352.698C264.291 359.912 258.177 365.537 250.96 365.235C246.867 365.063 243.156 363.018 240.821 359.7C238.546 361.542 235.732 362.478 232.777 362.354C226.146 362.076 220.975 356.455 221.253 349.823C221.383 346.721 222.725 343.782 224.969 341.638C223.808 339.538 223.249 337.181 223.35 334.771C223.652 327.556 229.768 321.932 236.983 322.234C239.15 322.325 241.239 322.947 243.092 324.044C245.44 319.653 250.161 316.909 255.185 317.119C262.398 317.421 268.023 323.536 267.72 330.752ZM256.923 341.825C256.925 341.792 256.928 341.76 256.931 341.726C256.988 341.341 257.264 341.025 257.639 340.921C262.296 339.616 265.559 335.497 265.761 330.669C266.019 324.534 261.237 319.334 255.102 319.077C250.501 318.884 246.197 321.61 244.395 325.858C244.278 326.134 244.043 326.34 243.758 326.422C243.471 326.502 243.163 326.448 242.921 326.274C241.153 325.004 239.071 324.284 236.9 324.193C230.765 323.936 225.566 328.717 225.309 334.852C225.213 337.139 225.815 339.368 227.052 341.302C227.318 341.718 227.232 342.267 226.853 342.583C224.66 344.406 223.332 347.074 223.213 349.903C222.98 355.455 227.308 360.159 232.859 360.392C235.667 360.509 238.323 359.484 240.337 357.501C240.555 357.287 240.857 357.187 241.158 357.229C241.457 357.269 241.724 357.446 241.876 357.71C243.798 361.033 247.226 363.113 251.042 363.273C257.179 363.53 262.377 358.748 262.634 352.614C262.801 348.618 260.79 344.819 257.385 342.696C257.082 342.509 256.909 342.175 256.923 341.825Z" fill="#010101"/>
<path d="M233.338 122.8C231.486 121.468 229.238 120.639 226.786 120.536C220.102 120.256 214.454 125.447 214.174 132.134C214.065 134.712 214.779 137.131 216.069 139.151C213.751 141.079 212.215 143.934 212.079 147.186C211.823 153.287 216.562 158.44 222.662 158.696C225.847 158.829 228.763 157.595 230.871 155.524C232.877 158.99 236.548 161.395 240.848 161.576C247.531 161.856 253.18 156.663 253.46 149.978C253.65 145.459 251.332 141.42 247.748 139.187C252.663 137.811 256.36 133.406 256.585 128.032C256.865 121.347 251.674 115.699 244.987 115.419C239.802 115.203 235.253 118.287 233.338 122.8Z" fill="white"/>
<path d="M257.566 128.073C257.355 133.106 254.315 137.484 249.815 139.484C252.871 142.075 254.61 145.96 254.44 150.019C254.137 157.233 248.023 162.858 240.808 162.556C236.715 162.384 233.004 160.339 230.666 157.022C228.392 158.863 225.578 159.799 222.623 159.675C215.992 159.397 210.823 153.776 211.101 147.145C211.231 144.042 212.573 141.103 214.815 138.958C213.653 136.859 213.094 134.503 213.195 132.093C213.498 124.878 219.614 119.253 226.831 119.555C228.996 119.646 231.085 120.268 232.937 121.366C235.286 116.976 240.007 114.23 245.031 114.44C252.244 114.743 257.869 120.857 257.566 128.073ZM246.769 139.146C246.771 139.114 246.774 139.082 246.779 139.047C246.834 138.663 247.112 138.347 247.485 138.242C252.142 136.937 255.405 132.817 255.607 127.99C255.864 121.856 251.083 116.655 244.948 116.398C240.349 116.206 236.045 118.931 234.241 123.18C234.124 123.455 233.891 123.662 233.604 123.743C233.317 123.824 233.009 123.769 232.766 123.595C230.999 122.325 228.917 121.605 226.748 121.514C220.611 121.257 215.412 126.039 215.155 132.174C215.059 134.459 215.661 136.689 216.898 138.623C217.162 139.038 217.08 139.589 216.699 139.905C214.506 141.727 213.18 144.396 213.061 147.225C212.828 152.776 217.154 157.48 222.705 157.713C225.513 157.83 228.169 156.805 230.185 154.822C230.401 154.609 230.703 154.509 231.006 154.549C231.305 154.591 231.57 154.767 231.722 155.03C233.644 158.355 237.072 160.434 240.89 160.594C247.025 160.851 252.222 156.069 252.48 149.935C252.647 145.94 250.636 142.14 247.23 140.018C246.928 139.831 246.755 139.496 246.769 139.146Z" fill="#010101"/>
<path d="M202.806 1686.1C200.955 1684.77 198.707 1683.94 196.257 1683.84C189.571 1683.56 183.924 1688.75 183.644 1695.43C183.536 1698.01 184.247 1700.43 185.539 1702.45C183.219 1704.38 181.686 1707.23 181.549 1710.49C181.293 1716.59 186.032 1721.74 192.132 1722C195.315 1722.13 198.234 1720.9 200.34 1718.82C202.346 1722.29 206.017 1724.7 210.318 1724.88C217.002 1725.16 222.649 1719.96 222.929 1713.28C223.118 1708.76 220.801 1704.72 217.219 1702.49C222.131 1701.11 225.828 1696.71 226.054 1691.33C226.334 1684.65 221.143 1679 214.458 1678.72C209.272 1678.5 204.721 1681.59 202.806 1686.1Z" fill="white"/>
<path d="M183.543 477.529C183.514 478.22 183.588 478.891 183.733 479.533C182.576 479.274 181.344 479.109 180.061 479.055C173.178 478.767 167.462 481.786 167.294 485.802C167.169 488.784 170.142 491.471 174.499 492.779C172.352 494.803 170.959 497.631 170.826 500.812C170.555 507.284 175.583 512.752 182.055 513.024C187.078 513.234 191.482 510.248 193.338 505.879C195.049 506.823 196.996 507.406 199.081 507.493C206.291 507.796 212.381 502.197 212.684 494.987C212.986 487.778 207.385 481.687 200.175 481.384C199.371 481.351 198.581 481.402 197.812 481.509C198.36 480.512 198.7 479.382 198.751 478.167C198.927 473.969 195.664 470.422 191.464 470.246C187.266 470.07 183.719 473.331 183.543 477.529Z" fill="white"/>
<path d="M213.663 495.029C213.338 502.767 206.779 508.8 199.038 508.476C197.211 508.399 195.451 507.974 193.79 507.208C191.525 511.512 186.918 514.209 182.014 514.004C175.012 513.71 169.552 507.775 169.846 500.771C169.963 497.973 170.985 495.34 172.752 493.211C168.672 491.592 166.19 488.769 166.316 485.763C166.51 481.137 172.565 477.76 180.103 478.076C180.936 478.111 181.761 478.193 182.57 478.318C182.264 473.232 186.5 469.055 191.507 469.266C196.239 469.464 199.929 473.477 199.731 478.21C199.699 478.96 199.57 479.692 199.349 480.398C199.641 480.391 199.929 480.394 200.216 480.407C207.956 480.729 213.987 487.29 213.663 495.029ZM171.806 500.853C171.558 506.775 176.174 511.795 182.096 512.043C186.539 512.229 190.693 509.598 192.433 505.496C192.542 505.24 192.754 505.042 193.016 504.952C193.278 504.862 193.567 504.886 193.809 505.02C195.468 505.933 197.255 506.437 199.122 506.515C205.781 506.795 211.425 501.605 211.704 494.947C211.983 488.287 206.793 482.645 200.134 482.366C199.431 482.336 198.715 482.374 197.946 482.482C197.578 482.531 197.213 482.373 197.003 482.066C196.791 481.76 196.771 481.361 196.952 481.037C197.45 480.128 197.727 479.149 197.77 478.126C197.923 474.474 195.075 471.378 191.424 471.225C187.203 471.048 183.691 474.922 184.688 479.318C184.763 479.644 184.664 479.988 184.425 480.227C184.186 480.465 183.845 480.564 183.517 480.492C182.39 480.24 181.214 480.086 180.019 480.036C173.794 479.775 168.417 482.435 168.274 485.845C168.174 488.234 170.787 490.643 174.779 491.839C175.114 491.939 175.371 492.212 175.451 492.553C175.531 492.896 175.425 493.252 175.17 493.492C173.118 495.428 171.924 498.043 171.806 500.853Z" fill="#010101"/>
<path d="M58.4759 702.304C59.1083 702.581 59.7588 702.756 60.4124 702.854C59.7517 703.837 59.1524 704.926 58.6368 706.102C55.8756 712.414 56.6225 718.836 60.3044 720.445C63.0385 721.642 66.6207 719.844 69.4159 716.257C70.5266 718.989 72.6587 721.312 75.574 722.589C81.5089 725.185 88.4259 722.479 91.024 716.543C93.0381 711.94 91.8506 706.751 88.4472 703.442C89.9489 702.187 91.198 700.587 92.0332 698.672C94.9257 692.061 91.9107 684.356 85.3 681.464C78.6884 678.572 70.983 681.585 68.0914 688.199C67.7689 688.937 67.5302 689.69 67.3511 690.449C66.6209 689.576 65.6883 688.849 64.5758 688.362C60.7252 686.678 56.2396 688.434 54.5536 692.284C52.8686 696.134 54.6254 700.62 58.4759 702.304Z" fill="white"/>
<path d="M94.1045 694.018C94.0324 695.736 93.6409 697.443 92.9319 699.064C92.198 700.739 91.1637 702.225 89.8499 703.497C93.0408 707.168 93.8861 712.439 91.9206 716.936C89.1107 723.357 81.6018 726.296 75.1811 723.487C72.6156 722.365 70.5298 720.459 69.183 718.042C66.1982 721.259 62.6687 722.55 59.9094 721.344C55.6694 719.489 54.7144 712.621 57.7382 705.71C58.0717 704.946 58.4463 704.205 58.856 703.496C58.5906 703.411 58.3316 703.312 58.0819 703.203C53.7416 701.305 51.7552 696.229 53.6542 691.889C55.5532 687.549 60.6287 685.562 64.967 687.46C65.6563 687.762 66.2921 688.147 66.8706 688.61C66.9694 688.336 67.0759 688.067 67.192 687.803C68.6958 684.366 71.4486 681.719 74.942 680.352C78.4355 678.985 82.2544 679.06 85.6923 680.563C89.1282 682.068 91.7754 684.82 93.1428 688.314C93.8656 690.16 94.185 692.097 94.1045 694.018ZM87.4663 703.399C87.4779 703.123 87.6056 702.865 87.8181 702.688C89.2711 701.472 90.3857 699.989 91.1348 698.277C92.4271 695.32 92.492 692.035 91.3163 689.029C90.1405 686.021 87.8629 683.655 84.9061 682.36C81.9484 681.066 78.6642 681 75.6578 682.178C72.6515 683.354 70.2823 685.631 68.9881 688.588C68.7059 689.233 68.4839 689.914 68.305 690.669C68.2192 691.031 67.9364 691.313 67.5764 691.399C67.2145 691.484 66.8368 691.359 66.5984 691.074C65.9318 690.278 65.119 689.667 64.1819 689.256C60.8318 687.792 56.9161 689.324 55.4514 692.672C53.9866 696.022 55.5199 699.938 58.8681 701.404C59.3897 701.631 59.9582 701.793 60.5564 701.88C60.8881 701.93 61.1725 702.147 61.3088 702.455C61.4432 702.761 61.4136 703.118 61.2261 703.398C60.5831 704.357 60.0142 705.398 59.5353 706.495C57.0381 712.202 57.5701 718.178 60.6956 719.545C62.886 720.504 66.0784 718.94 68.6401 715.652C68.8559 715.376 69.2025 715.236 69.549 715.284C69.8945 715.332 70.1911 715.562 70.3209 715.885C71.3845 718.499 73.3893 720.561 75.9663 721.688C81.395 724.063 87.747 721.578 90.1217 716.148C91.9054 712.075 90.9551 707.249 87.7621 704.141C87.5631 703.949 87.4556 703.679 87.4652 703.403L87.4654 703.399L87.4663 703.399ZM58.476 702.303L58.4764 702.293L58.476 702.303Z" fill="#010101"/>
<path d="M227.037 1533.69C227.34 1531.84 226.41 1530.08 224.85 1529.23C225.281 1528.44 225.595 1527.58 225.75 1526.65C226.474 1522.25 223.493 1518.1 219.094 1517.38C216.818 1517 214.613 1517.63 212.911 1518.92C212.245 1518.61 211.532 1518.38 210.772 1518.26C206.245 1517.51 201.973 1520.58 201.231 1525.11C200.626 1528.79 202.542 1532.3 205.712 1533.88C205.515 1534.4 205.366 1534.95 205.271 1535.52C204.511 1540.16 207.656 1544.54 212.295 1545.3C216.934 1546.06 221.313 1542.92 222.077 1538.28C222.134 1537.93 222.162 1537.59 222.174 1537.24C224.488 1537.58 226.658 1536.01 227.037 1533.69Z" fill="white"/>
<path d="M119.978 369.5C118.104 369.422 116.465 370.559 115.811 372.21C114.982 371.876 114.085 371.667 113.14 371.628C108.687 371.441 104.925 374.899 104.738 379.352C104.641 381.656 105.527 383.77 107.015 385.305C106.789 386.003 106.646 386.739 106.614 387.508C106.422 392.091 109.981 395.963 114.566 396.156C118.293 396.312 121.55 393.987 122.739 390.648C123.279 390.78 123.84 390.863 124.418 390.887C129.116 391.084 133.083 387.435 133.28 382.737C133.477 378.039 129.829 374.069 125.131 373.872C124.778 373.857 124.43 373.872 124.086 373.899C124.147 371.562 122.325 369.598 119.978 369.5Z" fill="white"/>
<path d="M134.259 382.778C134.04 388.008 129.606 392.086 124.375 391.867C124.03 391.853 123.685 391.819 123.34 391.766C121.772 395.164 118.329 397.295 114.524 397.136C109.407 396.921 105.418 392.583 105.633 387.467C105.659 386.834 105.755 386.194 105.92 385.559C104.424 383.815 103.661 381.618 103.758 379.311C103.967 374.326 108.193 370.438 113.18 370.647C113.903 370.678 114.621 370.798 115.324 371.003C116.314 369.412 118.1 368.441 120.018 368.521C122.522 368.626 124.572 370.501 124.989 372.888C125.05 372.889 125.111 372.891 125.17 372.894C130.402 373.113 134.478 377.547 134.259 382.778ZM107.594 387.549C107.425 391.585 110.571 395.006 114.607 395.176C117.834 395.311 120.731 393.358 121.815 390.319C121.983 389.845 122.483 389.576 122.971 389.694C123.46 389.814 123.962 389.885 124.457 389.906C128.607 390.08 132.125 386.844 132.299 382.695C132.473 378.544 129.239 375.026 125.088 374.852C124.776 374.839 124.468 374.851 124.164 374.876C123.887 374.898 123.612 374.801 123.411 374.609C123.21 374.418 123.099 374.15 123.105 373.872C123.153 372.077 121.732 370.554 119.937 370.479C118.532 370.42 117.242 371.261 116.722 372.57C116.627 372.812 116.437 373.008 116.196 373.11C115.958 373.213 115.686 373.217 115.444 373.119C114.681 372.812 113.891 372.64 113.098 372.607C109.193 372.443 105.882 375.487 105.718 379.392C105.636 381.35 106.346 383.206 107.719 384.621C107.972 384.882 108.059 385.259 107.946 385.604C107.74 386.253 107.621 386.907 107.594 387.549Z" fill="#010101"/>
</g>
<path fill-rule="evenodd" clip-rule="evenodd" d="M346.895 791.112C347.75 792.26 347.552 793.935 346.453 794.852L-165.915 1222.53C-167.014 1223.45 -168.598 1223.26 -169.452 1222.11C-170.307 1220.96 -170.109 1219.29 -169.01 1218.37L343.358 790.694C344.457 789.776 346.041 789.964 346.895 791.112Z" fill="url(#paint0_linear_2507:33178)"/>
<defs>
<linearGradient id="paint0_linear_2507:33178" x1="305.663" y1="883.163" x2="-187.113" y2="1265.48" gradientUnits="userSpaceOnUse">
<stop stop-color="#F4AF50"/>
<stop offset="0.891556" stop-color="#E9E241" stop-opacity="0"/>
</linearGradient>
<clipPath id="clip0_2507:33178">
<rect width="1748.12" height="891.718" fill="white" transform="translate(-523 1746.59) rotate(-87.5999)"/>
</clipPath>
</defs>
</svg>
