<svg version="1.2" baseProfile="tiny-ps" xmlns="http://www.w3.org/2000/svg" viewBox="0 0 442 1784" width="442" height="1784">
	<title>faqpopcorn-svg</title>
	<defs>
		<clipPath clipPathUnits="userSpaceOnUse" id="cp1">
			<path d="M-523 1746.59L-449.79 0L441.14 37.35L367.94 1783.93L-523 1746.59Z" />
		</clipPath>
		<linearGradient id="grd1" gradientUnits="userSpaceOnUse"  x1="305.663" y1="883.163" x2="-187.113" y2="1265.48">
			<stop offset="0" stop-color="#f4af50"  />
			<stop offset="0.892" stop-color="#e9e241" stop-opacity="0" />
		</linearGradient>
	</defs>
	<style>
		tspan { white-space:pre }
		.shp0 { fill: #ffffff } 
		.shp1 { fill: #010101 } 
		.shp2 { fill: url(#grd1) } 
	</style>
	<g id="Clip-Path" clip-path="url(#cp1)">
		<g id="Layer">
			<path id="Layer" class="shp0" d="M97.11 1161.07C103.14 1161.32 107.83 1166.42 107.58 1172.46C107.34 1178.05 102.95 1182.48 97.5 1182.9C98 1184.23 98.24 1185.68 98.18 1187.19C97.93 1193.22 92.83 1197.91 86.79 1197.66C80.75 1197.41 76.07 1192.31 76.32 1186.27C76.39 1184.65 76.81 1183.14 77.5 1181.79C72.84 1180.37 69.54 1175.96 69.76 1170.88C70.01 1164.84 75.11 1160.15 81.14 1160.4C84.3 1160.53 87.07 1162 88.98 1164.22C91.06 1162.16 93.95 1160.94 97.11 1161.07Z" />
			<path id="Layer" fill-rule="evenodd" class="shp1" d="M108.56 1172.5C108.32 1178.11 104.21 1182.74 98.79 1183.72C99.09 1184.86 99.21 1186.03 99.16 1187.23C98.89 1193.8 93.32 1198.91 86.75 1198.64C80.18 1198.36 75.06 1192.8 75.34 1186.23C75.4 1184.89 75.67 1183.59 76.17 1182.35C71.56 1180.47 68.56 1175.88 68.78 1170.83C69.05 1164.27 74.62 1159.15 81.19 1159.42C84.17 1159.55 86.93 1160.75 89.04 1162.84C91.31 1160.94 94.16 1159.97 97.15 1160.09C103.71 1160.37 108.83 1165.93 108.56 1172.5ZM96.52 1182.86C96.53 1182.69 96.58 1182.52 96.67 1182.37C96.84 1182.11 97.12 1181.95 97.43 1181.92C102.44 1181.54 106.39 1177.45 106.6 1172.42C106.83 1166.93 102.55 1162.28 97.06 1162.05C94.29 1161.93 91.66 1162.95 89.67 1164.92C89.48 1165.11 89.21 1165.21 88.94 1165.2C88.67 1165.18 88.41 1165.06 88.24 1164.86C86.42 1162.73 83.88 1161.5 81.11 1161.38C75.62 1161.15 70.97 1165.43 70.74 1170.92C70.55 1175.44 73.45 1179.53 77.79 1180.85C78.06 1180.93 78.29 1181.14 78.4 1181.4C78.52 1181.67 78.51 1181.97 78.37 1182.23C77.72 1183.52 77.36 1184.89 77.3 1186.31C77.07 1191.8 81.35 1196.45 86.83 1196.68C92.32 1196.91 96.97 1192.63 97.2 1187.15C97.26 1185.8 97.05 1184.49 96.58 1183.25C96.54 1183.12 96.52 1182.99 96.52 1182.86Z" />
			<path id="Layer" class="shp0" d="M222.14 1384.88C228.17 1385.14 232.86 1390.23 232.61 1396.27C232.37 1401.87 227.98 1406.29 222.53 1406.71C223.03 1408.04 223.27 1409.49 223.21 1411C222.96 1417.03 217.86 1421.72 211.82 1421.47C205.78 1421.22 201.1 1416.12 201.35 1410.08C201.42 1408.46 201.84 1406.95 202.53 1405.6C197.87 1404.18 194.57 1399.77 194.79 1394.69C195.04 1388.65 200.14 1383.96 206.18 1384.21C209.33 1384.35 212.1 1385.81 214.01 1388.03C216.09 1385.97 218.98 1384.75 222.14 1384.88Z" />
			<path id="Layer" class="shp0" d="M-14.67 301.57C-12.4 295.97 -6.02 293.27 -0.42 295.54C4.76 297.64 7.46 303.27 6.02 308.54C7.44 308.52 8.88 308.78 10.28 309.35C15.88 311.62 18.58 318 16.31 323.6C14.04 329.2 7.66 331.89 2.07 329.63C0.57 329.02 -0.72 328.11 -1.76 327.01C-4.66 330.91 -9.92 332.54 -14.64 330.62C-20.24 328.36 -22.94 321.98 -20.67 316.38C-19.49 313.45 -17.17 311.33 -14.45 310.28C-15.68 307.63 -15.86 304.5 -14.67 301.57Z" />
			<path id="Layer" fill-rule="evenodd" class="shp1" d="M18.09 319.98C18.03 321.33 17.75 322.67 17.22 323.96C16.03 326.92 13.75 329.22 10.82 330.46C7.89 331.7 4.65 331.73 1.7 330.53C0.46 330.03 -0.67 329.33 -1.67 328.45C-5 332.16 -10.33 333.43 -15.01 331.54C-21.1 329.07 -24.05 322.1 -21.58 316.01C-20.46 313.24 -18.4 311.05 -15.72 309.76C-16.75 306.98 -16.7 303.98 -15.58 301.2C-14.38 298.25 -12.11 295.94 -9.18 294.7C-6.24 293.46 -3.01 293.44 -0.05 294.63C5.15 296.74 8.13 302.17 7.23 307.61C8.4 307.71 9.55 307.99 10.65 308.44C13.6 309.63 15.91 311.91 17.15 314.84C17.85 316.49 18.16 318.24 18.09 319.98ZM-20.48 320.06C-20.65 324.15 -18.28 328.09 -14.27 329.71C-10.07 331.42 -5.25 330.06 -2.55 326.42C-2.38 326.19 -2.11 326.05 -1.82 326.03C-1.53 326.01 -1.25 326.12 -1.05 326.33C-0.06 327.38 1.11 328.18 2.43 328.71C4.9 329.71 7.61 329.69 10.06 328.66C12.51 327.62 14.4 325.69 15.4 323.22C16.4 320.76 16.38 318.05 15.35 315.6C14.31 313.15 12.38 311.25 9.92 310.25C8.67 309.75 7.36 309.5 6.04 309.52C5.73 309.53 5.43 309.39 5.25 309.14C5.05 308.9 4.99 308.58 5.07 308.28C6.4 303.43 3.88 298.34 -0.79 296.45C-3.26 295.45 -5.96 295.47 -8.41 296.51C-10.86 297.54 -12.76 299.47 -13.76 301.94C-14.81 304.51 -14.73 307.33 -13.56 309.87C-13.44 310.11 -13.43 310.4 -13.53 310.65C-13.64 310.9 -13.84 311.1 -14.09 311.2C-16.7 312.2 -18.72 314.17 -19.76 316.74C-20.2 317.83 -20.44 318.95 -20.48 320.06Z" />
			<path id="Layer" class="shp0" d="M332.64 209.75C334.91 204.15 341.29 201.45 346.89 203.72C352.08 205.83 354.77 211.46 353.33 216.73C354.75 216.71 356.2 216.96 357.6 217.53C363.2 219.8 365.9 226.18 363.63 231.78C361.36 237.38 354.98 240.07 349.38 237.81C347.88 237.2 346.6 236.29 345.55 235.19C342.65 239.09 337.39 240.72 332.67 238.81C327.07 236.54 324.37 230.16 326.64 224.56C327.83 221.63 330.14 219.51 332.87 218.46C331.64 215.81 331.46 212.68 332.64 209.75Z" />
			<path id="Layer" fill-rule="evenodd" class="shp1" d="M365.4 228.18C365.34 229.5 365.06 230.84 364.54 232.14C362.06 238.24 355.1 241.18 349.01 238.71C347.77 238.21 346.64 237.51 345.64 236.63C342.31 240.34 336.99 241.61 332.3 239.72C329.35 238.52 327.04 236.25 325.8 233.31C324.56 230.38 324.54 227.14 325.73 224.19C326.86 221.42 328.92 219.23 331.59 217.95C330.56 215.16 330.61 212.16 331.73 209.38C334.2 203.29 341.17 200.34 347.26 202.81C352.46 204.92 355.44 210.34 354.54 215.79C355.71 215.89 356.86 216.17 357.96 216.62C362.76 218.56 365.6 223.28 365.4 228.18ZM326.82 228.26C326.76 229.71 327.02 231.17 327.61 232.55C328.65 235 330.57 236.9 333.04 237.9C337.24 239.6 342.06 238.24 344.76 234.6C344.94 234.37 345.2 234.23 345.5 234.21C345.78 234.19 346.06 234.3 346.26 234.51C347.26 235.56 348.43 236.36 349.75 236.9C354.83 238.96 360.65 236.5 362.72 231.41C364.78 226.32 362.32 220.5 357.23 218.44C355.98 217.93 354.68 217.69 353.35 217.71C353.04 217.71 352.75 217.57 352.56 217.32C352.37 217.08 352.31 216.76 352.39 216.47C353.71 211.61 351.19 206.52 346.52 204.63C341.43 202.57 335.61 205.03 333.55 210.12C332.5 212.7 332.58 215.51 333.76 218.05C333.87 218.29 333.88 218.58 333.78 218.83C333.67 219.08 333.47 219.28 333.22 219.38C330.61 220.38 328.59 222.35 327.55 224.93C327.11 226 326.87 227.13 326.82 228.26Z" />
			<path id="Layer" class="shp0" d="M255.14 318.1C261.83 318.38 267.02 324.03 266.74 330.71C266.51 336.08 262.82 340.49 257.9 341.87C261.49 344.1 263.8 348.14 263.61 352.66C263.33 359.34 257.69 364.54 251 364.25C246.7 364.07 243.03 361.67 241.02 358.2C238.92 360.27 236 361.51 232.82 361.38C226.72 361.12 221.97 355.97 222.23 349.87C222.37 346.61 223.91 343.76 226.22 341.83C224.93 339.81 224.22 337.39 224.33 334.81C224.61 328.13 230.25 322.94 236.94 323.21C239.39 323.32 241.64 324.15 243.49 325.48C245.41 320.96 249.96 317.88 255.14 318.1Z" />
			<path id="Layer" fill-rule="evenodd" class="shp1" d="M267.72 330.75C267.51 335.79 264.47 340.16 259.97 342.16C263.02 344.75 264.76 348.64 264.59 352.7C264.29 359.91 258.18 365.54 250.96 365.24C246.87 365.06 243.16 363.02 240.82 359.7C238.55 361.54 235.73 362.48 232.78 362.35C226.15 362.08 220.97 356.45 221.25 349.82C221.38 346.72 222.72 343.78 224.97 341.64C223.81 339.54 223.25 337.18 223.35 334.77C223.65 327.56 229.77 321.93 236.98 322.23C239.15 322.32 241.24 322.95 243.09 324.04C245.44 319.65 250.16 316.91 255.19 317.12C262.4 317.42 268.02 323.54 267.72 330.75ZM256.92 341.82C256.93 341.79 256.93 341.76 256.93 341.73C256.99 341.34 257.26 341.02 257.64 340.92C262.3 339.62 265.56 335.5 265.76 330.67C266.02 324.53 261.24 319.33 255.1 319.08C250.5 318.88 246.2 321.61 244.4 325.86C244.28 326.13 244.04 326.34 243.76 326.42C243.47 326.5 243.16 326.45 242.92 326.27C241.15 325 239.07 324.28 236.9 324.19C230.76 323.94 225.57 328.72 225.31 334.85C225.21 337.14 225.81 339.37 227.05 341.3C227.32 341.72 227.23 342.27 226.85 342.58C224.66 344.41 223.33 347.07 223.21 349.9C222.98 355.45 227.31 360.16 232.86 360.39C235.67 360.51 238.32 359.48 240.34 357.5C240.56 357.29 240.86 357.19 241.16 357.23C241.46 357.27 241.72 357.45 241.88 357.71C243.8 361.03 247.23 363.11 251.04 363.27C257.18 363.53 262.38 358.75 262.63 352.61C262.8 348.62 260.79 344.82 257.38 342.7C257.08 342.51 256.91 342.18 256.92 341.82Z" />
			<path id="Layer" class="shp0" d="M244.99 115.42C251.67 115.7 256.87 121.35 256.58 128.03C256.36 133.41 252.66 137.81 247.75 139.19C251.33 141.42 253.65 145.46 253.46 149.98C253.18 156.66 247.53 161.86 240.85 161.58C236.55 161.4 232.88 158.99 230.87 155.52C228.76 157.59 225.85 158.83 222.66 158.7C216.56 158.44 211.82 153.29 212.08 147.19C212.22 143.93 213.75 141.08 216.07 139.15C214.78 137.13 214.06 134.71 214.17 132.13C214.45 125.45 220.1 120.26 226.79 120.54C229.24 120.64 231.49 121.47 233.34 122.8C235.25 118.29 239.8 115.2 244.99 115.42Z" />
			<path id="Layer" fill-rule="evenodd" class="shp1" d="M257.57 128.07C257.36 133.11 254.31 137.48 249.81 139.48C252.87 142.07 254.61 145.96 254.44 150.02C254.14 157.23 248.02 162.86 240.81 162.56C236.72 162.38 233 160.34 230.67 157.02C228.39 158.86 225.58 159.8 222.62 159.68C215.99 159.4 210.82 153.78 211.1 147.15C211.23 144.04 212.57 141.1 214.81 138.96C213.65 136.86 213.09 134.5 213.19 132.09C213.5 124.88 219.61 119.25 226.83 119.56C229 119.65 231.09 120.27 232.94 121.37C235.29 116.98 240.01 114.23 245.03 114.44C252.24 114.74 257.87 120.86 257.57 128.07ZM246.77 139.15C246.77 139.11 246.77 139.08 246.78 139.05C246.83 138.66 247.11 138.35 247.49 138.24C252.14 136.94 255.41 132.82 255.61 127.99C255.86 121.86 251.08 116.66 244.95 116.4C240.35 116.21 236.04 118.93 234.24 123.18C234.12 123.45 233.89 123.66 233.6 123.74C233.32 123.82 233.01 123.77 232.77 123.59C231 122.33 228.92 121.61 226.75 121.51C220.61 121.26 215.41 126.04 215.16 132.17C215.06 134.46 215.66 136.69 216.9 138.62C217.16 139.04 217.08 139.59 216.7 139.91C214.51 141.73 213.18 144.4 213.06 147.22C212.83 152.78 217.15 157.48 222.71 157.71C225.51 157.83 228.17 156.81 230.19 154.82C230.4 154.61 230.7 154.51 231.01 154.55C231.31 154.59 231.57 154.77 231.72 155.03C233.64 158.35 237.07 160.43 240.89 160.59C247.03 160.85 252.22 156.07 252.48 149.94C252.65 145.94 250.64 142.14 247.23 140.02C246.93 139.83 246.75 139.5 246.77 139.15Z" />
			<path id="Layer" class="shp0" d="M214.46 1678.72C221.14 1679 226.33 1684.65 226.05 1691.33C225.83 1696.71 222.13 1701.11 217.22 1702.49C220.8 1704.72 223.12 1708.76 222.93 1713.28C222.65 1719.96 217 1725.16 210.32 1724.88C206.02 1724.7 202.35 1722.29 200.34 1718.82C198.23 1720.9 195.31 1722.13 192.13 1722C186.03 1721.74 181.29 1716.59 181.55 1710.49C181.69 1707.23 183.22 1704.38 185.54 1702.45C184.25 1700.43 183.54 1698.01 183.64 1695.43C183.92 1688.75 189.57 1683.56 196.26 1683.84C198.71 1683.94 200.96 1684.77 202.81 1686.1C204.72 1681.59 209.27 1678.5 214.46 1678.72Z" />
			<path id="Layer" class="shp0" d="M191.46 470.25C195.66 470.42 198.93 473.97 198.75 478.17C198.7 479.38 198.36 480.51 197.81 481.51C198.58 481.4 199.37 481.35 200.18 481.38C207.38 481.69 212.99 487.78 212.68 494.99C212.38 502.2 206.29 507.8 199.08 507.49C197 507.41 195.05 506.82 193.34 505.88C191.48 510.25 187.08 513.23 182.06 513.02C175.58 512.75 170.56 507.28 170.83 500.81C170.96 497.63 172.35 494.8 174.5 492.78C170.14 491.47 167.17 488.78 167.29 485.8C167.46 481.79 173.18 478.77 180.06 479.06C181.34 479.11 182.58 479.27 183.73 479.53C183.59 478.89 183.51 478.22 183.54 477.53C183.72 473.33 187.27 470.07 191.46 470.25Z" />
			<path id="Layer" fill-rule="evenodd" class="shp1" d="M213.66 495.03C213.34 502.77 206.78 508.8 199.04 508.48C197.21 508.4 195.45 507.97 193.79 507.21C191.53 511.51 186.92 514.21 182.01 514C175.01 513.71 169.55 507.77 169.85 500.77C169.96 497.97 170.99 495.34 172.75 493.21C168.67 491.59 166.19 488.77 166.32 485.76C166.51 481.14 172.56 477.76 180.1 478.08C180.94 478.11 181.76 478.19 182.57 478.32C182.26 473.23 186.5 469.06 191.51 469.27C196.24 469.46 199.93 473.48 199.73 478.21C199.7 478.96 199.57 479.69 199.35 480.4C199.64 480.39 199.93 480.39 200.22 480.41C207.96 480.73 213.99 487.29 213.66 495.03ZM171.81 500.85C171.56 506.77 176.17 511.8 182.1 512.04C186.54 512.23 190.69 509.6 192.43 505.5C192.54 505.24 192.75 505.04 193.02 504.95C193.28 504.86 193.57 504.89 193.81 505.02C195.47 505.93 197.25 506.44 199.12 506.51C205.78 506.8 211.43 501.61 211.7 494.95C211.98 488.29 206.79 482.64 200.13 482.37C199.43 482.34 198.72 482.37 197.95 482.48C197.58 482.53 197.21 482.37 197 482.07C196.79 481.76 196.77 481.36 196.95 481.04C197.45 480.13 197.73 479.15 197.77 478.13C197.92 474.47 195.07 471.38 191.42 471.23C187.2 471.05 183.69 474.92 184.69 479.32C184.76 479.64 184.66 479.99 184.43 480.23C184.19 480.46 183.84 480.56 183.52 480.49C182.39 480.24 181.21 480.09 180.02 480.04C173.79 479.77 168.42 482.44 168.27 485.85C168.17 488.23 170.79 490.64 174.78 491.84C175.11 491.94 175.37 492.21 175.45 492.55C175.53 492.9 175.43 493.25 175.17 493.49C173.12 495.43 171.92 498.04 171.81 500.85Z" />
			<path id="Layer" class="shp0" d="M54.55 692.28C56.24 688.43 60.73 686.68 64.58 688.36C65.69 688.85 66.62 689.58 67.35 690.45C67.53 689.69 67.77 688.94 68.09 688.2C70.98 681.59 78.69 678.57 85.3 681.46C91.91 684.36 94.93 692.06 92.03 698.67C91.2 700.59 89.95 702.19 88.45 703.44C91.85 706.75 93.04 711.94 91.02 716.54C88.43 722.48 81.51 725.18 75.57 722.59C72.66 721.31 70.53 718.99 69.42 716.26C66.62 719.84 63.04 721.64 60.3 720.45C56.62 718.84 55.88 712.41 58.64 706.1C59.15 704.93 59.75 703.84 60.41 702.85C59.76 702.76 59.11 702.58 58.48 702.3C54.63 700.62 52.87 696.13 54.55 692.28Z" />
			<path id="Layer" fill-rule="evenodd" class="shp1" d="M94.1 694.02C94.03 695.74 93.64 697.44 92.93 699.06C92.2 700.74 91.16 702.23 89.85 703.5C93.04 707.17 93.89 712.44 91.92 716.94C89.11 723.36 81.6 726.3 75.18 723.49C72.62 722.37 70.53 720.46 69.18 718.04C66.2 721.26 62.67 722.55 59.91 721.34C55.67 719.49 54.71 712.62 57.74 705.71C58.07 704.95 58.45 704.21 58.86 703.5C58.59 703.41 58.33 703.31 58.08 703.2C53.74 701.3 51.76 696.23 53.65 691.89C55.55 687.55 60.63 685.56 64.97 687.46C65.66 687.76 66.29 688.15 66.87 688.61C66.97 688.34 67.08 688.07 67.19 687.8C68.7 684.37 71.45 681.72 74.94 680.35C78.44 678.99 82.25 679.06 85.69 680.56C89.13 682.07 91.78 684.82 93.14 688.31C93.87 690.16 94.19 692.1 94.1 694.02ZM87.47 703.4C87.48 703.12 87.61 702.87 87.82 702.69C89.27 701.47 90.39 699.99 91.13 698.28C92.43 695.32 92.49 692.03 91.32 689.03C90.14 686.02 87.86 683.65 84.91 682.36C81.95 681.07 78.66 681 75.66 682.18C72.65 683.35 70.28 685.63 68.99 688.59C68.71 689.23 68.48 689.91 68.31 690.67C68.22 691.03 67.94 691.31 67.58 691.4C67.21 691.48 66.84 691.36 66.6 691.07C65.93 690.28 65.12 689.67 64.18 689.26C60.83 687.79 56.92 689.32 55.45 692.67C53.99 696.02 55.52 699.94 58.87 701.4C59.39 701.63 59.96 701.79 60.56 701.88C60.89 701.93 61.17 702.15 61.31 702.46C61.44 702.76 61.41 703.12 61.23 703.4C60.58 704.36 60.01 705.4 59.54 706.5C57.04 712.2 57.57 718.18 60.7 719.54C62.89 720.5 66.08 718.94 68.64 715.65C68.86 715.38 69.2 715.24 69.55 715.28C69.89 715.33 70.19 715.56 70.32 715.88C71.38 718.5 73.39 720.56 75.97 721.69C81.39 724.06 87.75 721.58 90.12 716.15C91.91 712.08 90.96 707.25 87.76 704.14C87.56 703.95 87.46 703.68 87.47 703.4L87.47 703.4L87.47 703.4ZM58.48 702.3L58.48 702.29L58.48 702.3Z" />
			<path id="Layer" class="shp0" d="M222.17 1537.24C222.16 1537.59 222.13 1537.93 222.08 1538.28C221.31 1542.92 216.93 1546.06 212.29 1545.3C207.66 1544.54 204.51 1540.16 205.27 1535.52C205.37 1534.95 205.51 1534.4 205.71 1533.88C202.54 1532.3 200.63 1528.79 201.23 1525.11C201.97 1520.58 206.25 1517.51 210.77 1518.26C211.53 1518.38 212.25 1518.61 212.91 1518.92C214.61 1517.63 216.82 1517 219.09 1517.38C223.49 1518.1 226.47 1522.25 225.75 1526.65C225.59 1527.58 225.28 1528.44 224.85 1529.23C226.41 1530.08 227.34 1531.84 227.04 1533.69C226.66 1536.01 224.49 1537.58 222.17 1537.24Z" />
			<path id="Layer" class="shp0" d="M124.09 373.9C124.43 373.87 124.78 373.86 125.13 373.87C129.83 374.07 133.48 378.04 133.28 382.74C133.08 387.44 129.12 391.08 124.42 390.89C123.84 390.86 123.28 390.78 122.74 390.65C121.55 393.99 118.29 396.31 114.57 396.16C109.98 395.96 106.42 392.09 106.61 387.51C106.65 386.74 106.79 386 107.02 385.31C105.53 383.77 104.64 381.66 104.74 379.35C104.92 374.9 108.69 371.44 113.14 371.63C114.08 371.67 114.98 371.88 115.81 372.21C116.47 370.56 118.1 369.42 119.98 369.5C122.33 369.6 124.15 371.56 124.09 373.9Z" />
			<path id="Layer" fill-rule="evenodd" class="shp1" d="M134.26 382.78C134.04 388.01 129.61 392.09 124.38 391.87C124.03 391.85 123.69 391.82 123.34 391.77C121.77 395.16 118.33 397.3 114.52 397.14C109.41 396.92 105.42 392.58 105.63 387.47C105.66 386.83 105.75 386.19 105.92 385.56C104.42 383.81 103.66 381.62 103.76 379.31C103.97 374.33 108.19 370.44 113.18 370.65C113.9 370.68 114.62 370.8 115.32 371C116.31 369.41 118.1 368.44 120.02 368.52C122.52 368.63 124.57 370.5 124.99 372.89C125.05 372.89 125.11 372.89 125.17 372.89C130.4 373.11 134.48 377.55 134.26 382.78ZM107.59 387.55C107.42 391.58 110.57 395.01 114.61 395.18C117.83 395.31 120.73 393.36 121.81 390.32C121.98 389.85 122.48 389.58 122.97 389.69C123.46 389.81 123.96 389.88 124.46 389.91C128.61 390.08 132.13 386.84 132.3 382.69C132.47 378.54 129.24 375.03 125.09 374.85C124.78 374.84 124.47 374.85 124.16 374.88C123.89 374.9 123.61 374.8 123.41 374.61C123.21 374.42 123.1 374.15 123.11 373.87C123.15 372.08 121.73 370.55 119.94 370.48C118.53 370.42 117.24 371.26 116.72 372.57C116.63 372.81 116.44 373.01 116.2 373.11C115.96 373.21 115.69 373.22 115.44 373.12C114.68 372.81 113.89 372.64 113.1 372.61C109.19 372.44 105.88 375.49 105.72 379.39C105.64 381.35 106.35 383.21 107.72 384.62C107.97 384.88 108.06 385.26 107.95 385.6C107.74 386.25 107.62 386.91 107.59 387.55Z" />
		</g>
	</g>
	<path id="Layer" fill-rule="evenodd" class="shp2" d="M346.89 791.11C347.75 792.26 347.55 793.93 346.45 794.85L-165.91 1222.53C-167.01 1223.45 -168.6 1223.26 -169.45 1222.11C-170.31 1220.96 -170.11 1219.29 -169.01 1218.37L343.36 790.69C344.46 789.78 346.04 789.96 346.89 791.11Z" />
</svg>