<svg width="442" height="1784" viewBox="0 0 442 1784" fill="none" xmlns="http://www.w3.org/2000/svg">
<g clip-path="url(#clip0_2425:33923)">
<path d="M88.9791 1164.22C87.0743 1162 84.2973 1160.53 81.1435 1160.4C75.1075 1160.15 70.0081 1164.84 69.7551 1170.88C69.5419 1175.96 72.8433 1180.37 77.4993 1181.79C76.8113 1183.14 76.3876 1184.65 76.3198 1186.27C76.0668 1192.31 80.754 1197.41 86.7909 1197.66C92.8279 1197.91 97.9273 1193.22 98.1803 1187.19C98.2435 1185.68 97.9979 1184.23 97.5009 1182.9C102.947 1182.48 107.343 1178.05 107.577 1172.46C107.83 1166.42 103.142 1161.32 97.1052 1161.07C93.9525 1160.94 91.0629 1162.16 88.9791 1164.22Z" fill="white"/>
<path d="M108.558 1172.5C108.323 1178.11 104.21 1182.74 98.7889 1183.72C99.0858 1184.86 99.2104 1186.03 99.1604 1187.23C98.8851 1193.8 93.3181 1198.91 86.7509 1198.64C80.1847 1198.36 75.0646 1192.8 75.3398 1186.23C75.3959 1184.89 75.6741 1183.59 76.1679 1182.35C71.56 1180.47 68.5645 1175.88 68.7761 1170.83C69.0514 1164.27 74.6185 1159.15 81.1857 1159.42C84.1748 1159.55 86.9262 1160.75 89.0369 1162.84C91.3138 1160.94 94.1563 1159.97 97.1464 1160.09C103.713 1160.37 108.834 1165.93 108.558 1172.5ZM96.521 1182.86C96.5281 1182.69 96.5803 1182.52 96.6748 1182.37C96.8398 1182.11 97.1178 1181.95 97.4261 1181.92C102.444 1181.54 106.388 1177.45 106.598 1172.42C106.828 1166.93 102.551 1162.28 97.0642 1162.05C94.2888 1161.93 91.6612 1162.95 89.6685 1164.92C89.476 1165.11 89.2115 1165.21 88.9391 1165.2C88.6676 1165.18 88.4136 1165.06 88.2367 1164.86C86.4151 1162.73 83.8819 1161.5 81.1055 1161.38C75.6173 1161.15 70.9682 1165.43 70.7382 1170.92C70.5484 1175.44 73.4461 1179.53 77.7861 1180.85C78.0643 1180.93 78.2895 1181.14 78.403 1181.4C78.5165 1181.67 78.5077 1181.97 78.3741 1182.23C77.7233 1183.52 77.3614 1184.89 77.3018 1186.31C77.0719 1191.8 81.3488 1196.45 86.835 1196.68C92.3212 1196.91 96.9723 1192.63 97.2023 1187.15C97.2585 1185.8 97.0504 1184.49 96.5834 1183.25C96.5356 1183.12 96.5155 1182.99 96.521 1182.86Z" fill="#010101"/>
<path d="M214.01 1388.03C212.105 1385.81 209.328 1384.35 206.175 1384.21C200.138 1383.96 195.039 1388.65 194.786 1394.69C194.573 1399.77 197.874 1404.18 202.53 1405.6C201.842 1406.95 201.418 1408.47 201.351 1410.08C201.098 1416.12 205.785 1421.22 211.822 1421.47C217.859 1421.72 222.958 1417.03 223.211 1411C223.274 1409.49 223.029 1408.04 222.532 1406.71C227.977 1406.29 232.374 1401.87 232.608 1396.27C232.861 1390.23 228.174 1385.14 222.137 1384.88C218.983 1384.75 216.094 1385.97 214.01 1388.03Z" fill="white"/>
<path d="M-14.4457 310.282C-17.1747 311.33 -19.4873 313.451 -20.6713 316.378C-22.9401 321.977 -20.2426 328.357 -14.6416 330.624C-9.923 332.538 -4.66039 330.912 -1.76055 327.007C-0.717935 328.108 0.566363 329.017 2.06551 329.625C7.66461 331.893 14.0442 329.196 16.3131 323.596C18.583 317.995 15.8836 311.616 10.2835 309.347C8.88469 308.781 7.43859 308.523 6.02006 308.544C7.45635 303.274 4.76471 297.645 -0.422079 295.542C-6.02208 293.272 -12.4008 295.972 -14.6707 301.572C-15.8565 304.496 -15.6756 307.629 -14.4457 310.282Z" fill="white"/>
<path d="M18.0905 319.977C18.0339 321.326 17.7458 322.672 17.2215 323.963C16.0257 326.915 13.7514 329.223 10.8189 330.465C7.88845 331.704 4.64761 331.729 1.69652 330.534C0.457018 330.031 -0.673171 329.333 -1.67484 328.45C-5.00026 332.156 -10.3287 333.431 -15.0097 331.535C-21.102 329.066 -24.0478 322.098 -21.5797 316.009C-20.4552 313.235 -18.3961 311.048 -15.7211 309.765C-16.7471 306.98 -16.7016 303.976 -15.5791 301.203C-14.3833 298.25 -12.1101 295.943 -9.17755 294.701C-6.24411 293.461 -3.00523 293.435 -0.054178 294.632C5.15201 296.741 8.12889 302.171 7.22754 307.607C8.39837 307.71 9.54518 307.988 10.6524 308.437C13.6025 309.632 15.9115 311.907 17.1523 314.838C17.8508 316.489 18.1634 318.238 18.0905 319.977ZM-20.4831 320.061C-20.6544 324.147 -18.2761 328.093 -14.2747 329.715C-10.0735 331.419 -5.25221 330.063 -2.54897 326.421C-2.37626 326.189 -2.10811 326.045 -1.81871 326.026C-1.52837 326.009 -1.24734 326.12 -1.04901 326.331C-0.057147 327.378 1.11477 328.181 2.43349 328.714C4.89898 329.714 7.60563 329.692 10.0563 328.656C12.506 327.619 14.4041 325.69 15.4048 323.224C16.4034 320.76 16.3824 318.052 15.3462 315.603C14.3101 313.152 12.3811 311.253 9.91552 310.255C8.67022 309.75 7.36404 309.503 6.03489 309.523C5.72647 309.527 5.43289 309.387 5.24576 309.144C5.05467 308.901 4.9934 308.582 5.07266 308.284C6.39834 303.428 3.87645 298.34 -0.791008 296.448C-3.25654 295.449 -5.96312 295.47 -8.41282 296.507C-10.8625 297.543 -12.7636 299.473 -13.7623 301.938C-14.8059 304.514 -14.7324 307.33 -13.5556 309.867C-13.4413 310.113 -13.4345 310.396 -13.5344 310.648C-13.6372 310.9 -13.839 311.099 -14.0924 311.196C-16.7046 312.198 -18.7183 314.168 -19.7619 316.744C-20.2041 317.832 -20.4366 318.951 -20.4831 320.061Z" fill="#010101"/>
<path d="M332.868 218.464C330.138 219.512 327.827 221.633 326.642 224.56C324.373 230.158 327.071 236.538 332.672 238.806C337.391 240.72 342.654 239.094 345.552 235.188C346.596 236.289 347.88 237.198 349.379 237.807C354.977 240.075 361.356 237.377 363.625 231.777C365.896 226.177 363.196 219.797 357.596 217.529C356.199 216.962 354.752 216.705 353.334 216.726C354.768 211.456 352.079 205.826 346.89 203.723C341.292 201.454 334.912 204.154 332.641 209.753C331.456 212.678 331.637 215.81 332.868 218.464Z" fill="white"/>
<path d="M365.397 228.177C365.342 229.505 365.061 230.844 364.535 232.144C362.065 238.237 355.099 241.184 349.008 238.714C347.771 238.212 346.638 237.514 345.639 236.631C342.313 240.336 336.985 241.612 332.302 239.715C329.353 238.519 327.044 236.246 325.801 233.313C324.56 230.381 324.535 227.143 325.731 224.189C326.855 221.417 328.916 219.23 331.591 217.946C330.565 215.162 330.609 212.157 331.731 209.383C334.202 203.292 341.165 200.345 347.258 202.814C352.463 204.922 355.441 210.345 354.538 215.79C355.711 215.893 356.858 216.169 357.964 216.617C362.756 218.561 365.601 223.285 365.397 228.177ZM326.824 228.258C326.763 229.709 327.024 231.17 327.608 232.549C328.646 234.999 330.572 236.898 333.039 237.897C337.238 239.599 342.059 238.244 344.764 234.604C344.937 234.37 345.204 234.227 345.495 234.208C345.783 234.191 346.064 234.303 346.264 234.512C347.256 235.559 348.428 236.362 349.746 236.896C354.834 238.959 360.654 236.497 362.716 231.406C364.78 226.319 362.316 220.498 357.227 218.435C355.985 217.932 354.677 217.686 353.346 217.705C353.038 217.711 352.746 217.57 352.557 217.326C352.368 217.081 352.307 216.765 352.386 216.465C353.708 211.614 351.19 206.521 346.521 204.63C341.433 202.568 335.613 205.03 333.551 210.119C332.506 212.696 332.579 215.51 333.758 218.049C333.87 218.295 333.878 218.577 333.777 218.831C333.674 219.083 333.474 219.28 333.219 219.378C330.608 220.379 328.594 222.35 327.551 224.926C327.115 226.005 326.871 227.13 326.824 228.258Z" fill="#010101"/>
<path d="M243.492 325.479C241.638 324.146 239.39 323.318 236.94 323.215C230.255 322.935 224.608 328.126 224.328 334.812C224.22 337.391 224.933 339.809 226.223 341.831C223.905 343.758 222.367 346.613 222.231 349.865C221.975 355.967 226.716 361.119 232.816 361.375C236.001 361.508 238.918 360.273 241.024 358.203C243.031 361.669 246.703 364.074 251.002 364.255C257.686 364.535 263.332 359.342 263.613 352.657C263.802 348.137 261.487 344.099 257.903 341.865C262.817 340.49 266.514 336.085 266.739 330.711C267.02 324.026 261.826 318.378 255.142 318.097C249.956 317.88 245.407 320.964 243.492 325.479Z" fill="white"/>
<path d="M267.72 330.752C267.509 335.786 264.469 340.164 259.969 342.162C263.025 344.754 264.764 348.639 264.594 352.698C264.291 359.912 258.177 365.537 250.96 365.235C246.867 365.063 243.156 363.018 240.821 359.7C238.546 361.542 235.732 362.478 232.777 362.354C226.146 362.076 220.975 356.455 221.253 349.823C221.383 346.721 222.725 343.782 224.969 341.638C223.808 339.538 223.249 337.181 223.35 334.771C223.652 327.556 229.768 321.932 236.983 322.234C239.15 322.325 241.239 322.947 243.092 324.044C245.44 319.653 250.161 316.909 255.185 317.119C262.398 317.421 268.023 323.536 267.72 330.752ZM256.923 341.825C256.925 341.792 256.928 341.76 256.931 341.726C256.988 341.341 257.264 341.025 257.639 340.921C262.296 339.616 265.559 335.497 265.761 330.669C266.019 324.534 261.237 319.334 255.102 319.077C250.501 318.884 246.197 321.61 244.395 325.858C244.278 326.134 244.043 326.34 243.758 326.422C243.471 326.502 243.163 326.448 242.921 326.274C241.153 325.004 239.071 324.284 236.9 324.193C230.765 323.936 225.566 328.717 225.309 334.852C225.213 337.139 225.815 339.368 227.052 341.302C227.318 341.718 227.232 342.267 226.853 342.583C224.66 344.406 223.332 347.074 223.213 349.903C222.98 355.455 227.308 360.159 232.859 360.392C235.667 360.509 238.323 359.484 240.337 357.501C240.555 357.287 240.857 357.187 241.158 357.229C241.457 357.269 241.724 357.446 241.876 357.71C243.798 361.033 247.226 363.113 251.042 363.273C257.179 363.53 262.377 358.748 262.634 352.614C262.801 348.618 260.79 344.819 257.385 342.696C257.082 342.509 256.909 342.175 256.923 341.825Z" fill="#010101"/>
<path d="M233.338 122.8C231.486 121.468 229.238 120.639 226.786 120.536C220.102 120.256 214.454 125.447 214.173 132.134C214.065 134.712 214.779 137.131 216.069 139.151C213.75 141.079 212.215 143.934 212.079 147.186C211.823 153.287 216.562 158.44 222.662 158.696C225.847 158.829 228.763 157.595 230.871 155.524C232.877 158.99 236.548 161.395 240.848 161.576C247.531 161.856 253.18 156.663 253.46 149.978C253.65 145.459 251.332 141.42 247.748 139.187C252.663 137.811 256.36 133.406 256.585 128.032C256.865 121.347 251.674 115.699 244.987 115.419C239.802 115.203 235.253 118.287 233.338 122.8Z" fill="white"/>
<path d="M257.566 128.073C257.355 133.106 254.315 137.484 249.815 139.484C252.871 142.075 254.61 145.96 254.44 150.019C254.137 157.233 248.023 162.858 240.808 162.556C236.715 162.384 233.004 160.339 230.666 157.022C228.392 158.863 225.578 159.799 222.623 159.675C215.992 159.397 210.823 153.776 211.101 147.145C211.231 144.042 212.573 141.103 214.815 138.958C213.653 136.859 213.094 134.503 213.195 132.093C213.498 124.878 219.614 119.253 226.831 119.555C228.996 119.646 231.085 120.268 232.937 121.366C235.286 116.976 240.007 114.23 245.031 114.44C252.244 114.743 257.869 120.857 257.566 128.073ZM246.769 139.146C246.771 139.114 246.774 139.082 246.779 139.047C246.834 138.663 247.112 138.347 247.485 138.242C252.142 136.937 255.405 132.817 255.607 127.99C255.864 121.856 251.083 116.655 244.948 116.398C240.349 116.206 236.045 118.931 234.241 123.18C234.124 123.455 233.891 123.662 233.604 123.743C233.317 123.824 233.009 123.769 232.766 123.595C230.999 122.325 228.917 121.605 226.748 121.514C220.611 121.257 215.412 126.039 215.155 132.174C215.059 134.459 215.661 136.689 216.898 138.623C217.162 139.038 217.08 139.589 216.699 139.905C214.506 141.727 213.18 144.396 213.061 147.225C212.828 152.776 217.154 157.48 222.705 157.713C225.513 157.83 228.169 156.805 230.185 154.822C230.401 154.609 230.703 154.509 231.006 154.549C231.305 154.591 231.57 154.767 231.722 155.03C233.644 158.355 237.072 160.434 240.89 160.594C247.025 160.851 252.222 156.069 252.48 149.935C252.647 145.94 250.636 142.14 247.23 140.018C246.928 139.831 246.755 139.496 246.769 139.146Z" fill="#010101"/>
<path d="M202.806 1686.1C200.955 1684.77 198.707 1683.94 196.257 1683.84C189.571 1683.56 183.924 1688.75 183.644 1695.43C183.536 1698.01 184.247 1700.43 185.539 1702.45C183.219 1704.38 181.686 1707.23 181.549 1710.49C181.293 1716.59 186.032 1721.74 192.132 1722C195.315 1722.13 198.234 1720.9 200.34 1718.82C202.346 1722.29 206.017 1724.7 210.318 1724.88C217.002 1725.16 222.649 1719.96 222.929 1713.28C223.118 1708.76 220.801 1704.72 217.219 1702.49C222.131 1701.11 225.828 1696.71 226.054 1691.33C226.334 1684.65 221.143 1679 214.458 1678.72C209.272 1678.5 204.721 1681.59 202.806 1686.1Z" fill="white"/>
<path d="M183.543 477.529C183.514 478.22 183.588 478.891 183.733 479.533C182.576 479.274 181.344 479.109 180.061 479.055C173.178 478.767 167.462 481.786 167.294 485.802C167.169 488.784 170.142 491.471 174.499 492.779C172.352 494.803 170.959 497.631 170.826 500.812C170.555 507.284 175.583 512.752 182.055 513.024C187.078 513.234 191.482 510.248 193.338 505.879C195.049 506.823 196.996 507.406 199.081 507.493C206.291 507.796 212.381 502.197 212.684 494.987C212.986 487.778 207.385 481.687 200.175 481.384C199.371 481.351 198.581 481.402 197.812 481.509C198.36 480.512 198.7 479.382 198.751 478.167C198.927 473.969 195.664 470.422 191.464 470.246C187.266 470.07 183.719 473.331 183.543 477.529Z" fill="white"/>
<path d="M213.663 495.029C213.338 502.767 206.779 508.8 199.038 508.475C197.211 508.399 195.45 507.974 193.79 507.208C191.525 511.512 186.918 514.209 182.014 514.004C175.011 513.71 169.552 507.775 169.846 500.771C169.963 497.973 170.985 495.34 172.752 493.211C168.672 491.592 166.19 488.769 166.316 485.763C166.51 481.137 172.565 477.76 180.103 478.076C180.936 478.111 181.76 478.193 182.57 478.318C182.264 473.232 186.499 469.055 191.507 469.266C196.239 469.464 199.929 473.477 199.731 478.209C199.699 478.96 199.57 479.692 199.349 480.398C199.641 480.391 199.929 480.394 200.216 480.406C207.956 480.729 213.987 487.289 213.663 495.029ZM171.806 500.852C171.558 506.775 176.174 511.795 182.096 512.043C186.538 512.229 190.693 509.598 192.433 505.496C192.542 505.24 192.754 505.042 193.016 504.952C193.278 504.862 193.567 504.886 193.809 505.02C195.468 505.933 197.255 506.437 199.121 506.515C205.781 506.794 211.424 501.605 211.703 494.947C211.983 488.287 206.793 482.645 200.134 482.365C199.431 482.336 198.715 482.374 197.946 482.482C197.578 482.531 197.213 482.373 197.003 482.066C196.791 481.76 196.771 481.361 196.952 481.037C197.45 480.127 197.727 479.148 197.77 478.126C197.923 474.474 195.075 471.378 191.424 471.225C187.203 471.048 183.691 474.922 184.688 479.318C184.763 479.644 184.664 479.988 184.425 480.227C184.186 480.465 183.845 480.564 183.517 480.492C182.39 480.239 181.214 480.086 180.019 480.036C173.794 479.775 168.417 482.435 168.274 485.845C168.174 488.234 170.787 490.643 174.779 491.839C175.114 491.939 175.371 492.212 175.451 492.553C175.53 492.896 175.425 493.252 175.17 493.492C173.118 495.428 171.924 498.043 171.806 500.852Z" fill="#010101"/>
<path d="M58.4758 702.304C59.1082 702.581 59.7587 702.756 60.4123 702.854C59.7516 703.837 59.1523 704.927 58.6367 706.102C55.8755 712.414 56.6224 718.836 60.3043 720.445C63.0383 721.643 66.6206 719.844 69.4158 716.257C70.5265 718.99 72.6586 721.312 75.5739 722.589C81.5088 725.185 88.4257 722.479 91.0239 716.543C93.038 711.94 91.8505 706.752 88.4471 703.442C89.9487 702.187 91.1979 700.587 92.0331 698.673C94.9256 692.061 91.9105 684.356 85.2999 681.464C78.6883 678.572 70.9829 681.585 68.0913 688.199C67.7688 688.938 67.53 689.69 67.351 690.449C66.6208 689.576 65.6882 688.849 64.5756 688.362C60.7251 686.678 56.2395 688.434 54.5535 692.284C52.8684 696.134 54.6253 700.62 58.4758 702.304Z" fill="white"/>
<path d="M94.1043 694.018C94.0323 695.736 93.6407 697.443 92.9317 699.064C92.1978 700.739 91.1636 702.225 89.8497 703.497C93.0407 707.168 93.8859 712.439 91.9205 716.936C89.1106 723.357 81.6017 726.296 75.1809 723.487C72.6155 722.365 70.5297 720.459 69.1829 718.042C66.1981 721.259 62.6685 722.55 59.9093 721.344C55.6693 719.489 54.7143 712.621 57.7381 705.71C58.0715 704.946 58.4462 704.205 58.8559 703.496C58.5904 703.411 58.3314 703.312 58.0817 703.203C53.7415 701.305 51.7551 696.229 53.6541 691.889C55.5531 687.549 60.6285 685.562 64.9669 687.46C65.6562 687.762 66.292 688.147 66.8704 688.61C66.9693 688.336 67.0758 688.067 67.1919 687.803C68.6957 684.366 71.4485 681.719 74.9419 680.352C78.4354 678.985 82.2542 679.06 85.6921 680.563C89.128 682.068 91.7753 684.82 93.1427 688.314C93.8655 690.16 94.1849 692.097 94.1043 694.018ZM87.4662 703.399C87.4778 703.123 87.6054 702.865 87.818 702.688C89.271 701.472 90.3855 699.989 91.1347 698.277C92.4269 695.32 92.4919 692.035 91.3161 689.029C90.1404 686.021 87.8628 683.655 84.906 682.36C81.9483 681.066 78.6641 681 75.6577 682.178C72.6514 683.354 70.2822 685.631 68.988 688.588C68.7057 689.233 68.4838 689.914 68.3049 690.669C68.219 691.031 67.9363 691.313 67.5763 691.399C67.2144 691.484 66.8367 691.359 66.5983 691.074C65.9317 690.278 65.1189 689.667 64.1818 689.256C60.8316 687.792 56.916 689.324 55.4513 692.672C53.9865 696.022 55.5198 699.938 58.8679 701.404C59.3896 701.631 59.9581 701.793 60.5563 701.88C60.888 701.93 61.1724 702.147 61.3087 702.455C61.4431 702.761 61.4135 703.118 61.226 703.398C60.583 704.357 60.0141 705.398 59.5352 706.495C57.038 712.202 57.5699 718.178 60.6955 719.545C62.8858 720.504 66.0783 718.94 68.64 715.652C68.8558 715.376 69.2024 715.236 69.5489 715.284C69.8944 715.332 70.191 715.562 70.3208 715.885C71.3844 718.499 73.3892 720.561 75.9662 721.688C81.3948 724.063 87.7469 721.578 90.1216 716.148C91.9053 712.075 90.955 707.249 87.762 704.141C87.563 703.949 87.4555 703.679 87.4651 703.403L87.4653 703.399L87.4662 703.399ZM58.4759 702.303L58.4763 702.293L58.4759 702.303Z" fill="#010101"/>
<path d="M227.037 1533.69C227.34 1531.84 226.41 1530.08 224.85 1529.23C225.281 1528.44 225.595 1527.58 225.75 1526.65C226.474 1522.25 223.493 1518.1 219.094 1517.38C216.818 1517 214.613 1517.63 212.911 1518.92C212.245 1518.61 211.532 1518.38 210.772 1518.26C206.245 1517.51 201.973 1520.58 201.231 1525.11C200.626 1528.79 202.542 1532.3 205.712 1533.88C205.515 1534.4 205.366 1534.95 205.271 1535.52C204.511 1540.16 207.656 1544.54 212.295 1545.3C216.934 1546.06 221.313 1542.92 222.077 1538.28C222.134 1537.93 222.162 1537.59 222.174 1537.24C224.488 1537.58 226.658 1536.01 227.037 1533.69Z" fill="white"/>
<path d="M119.978 369.5C118.105 369.422 116.465 370.56 115.811 372.21C114.982 371.876 114.085 371.667 113.14 371.628C108.687 371.441 104.925 374.899 104.738 379.352C104.641 381.656 105.527 383.77 107.016 385.305C106.789 386.003 106.646 386.74 106.614 387.508C106.422 392.091 109.981 395.963 114.566 396.156C118.293 396.312 121.55 393.987 122.739 390.648C123.28 390.781 123.841 390.863 124.418 390.887C129.116 391.084 133.083 387.435 133.28 382.737C133.477 378.039 129.829 374.069 125.131 373.872C124.778 373.857 124.43 373.872 124.086 373.899C124.147 371.562 122.325 369.599 119.978 369.5Z" fill="white"/>
<path d="M134.259 382.778C134.04 388.009 129.606 392.086 124.375 391.867C124.03 391.853 123.685 391.819 123.34 391.766C121.772 395.164 118.329 397.295 114.524 397.136C109.407 396.921 105.418 392.584 105.633 387.467C105.659 386.834 105.755 386.194 105.92 385.56C104.424 383.815 103.661 381.618 103.758 379.311C103.967 374.326 108.193 370.439 113.18 370.648C113.903 370.678 114.621 370.798 115.324 371.003C116.314 369.412 118.1 368.441 120.018 368.521C122.522 368.626 124.572 370.501 124.989 372.888C125.05 372.889 125.111 372.891 125.17 372.894C130.402 373.113 134.478 377.547 134.259 382.778ZM107.594 387.549C107.425 391.585 110.571 395.006 114.607 395.176C117.834 395.311 120.731 393.358 121.815 390.319C121.983 389.846 122.483 389.576 122.971 389.694C123.46 389.814 123.962 389.885 124.457 389.906C128.607 390.08 132.125 386.844 132.299 382.695C132.473 378.545 129.239 375.026 125.088 374.852C124.776 374.839 124.468 374.851 124.164 374.876C123.887 374.898 123.612 374.801 123.411 374.609C123.21 374.418 123.099 374.15 123.105 373.872C123.153 372.077 121.732 370.554 119.937 370.479C118.532 370.42 117.242 371.261 116.722 372.57C116.627 372.813 116.437 373.008 116.196 373.111C115.958 373.214 115.686 373.217 115.444 373.119C114.681 372.812 113.891 372.64 113.098 372.607C109.193 372.443 105.882 375.487 105.718 379.393C105.636 381.35 106.346 383.206 107.719 384.621C107.972 384.882 108.059 385.259 107.946 385.604C107.74 386.253 107.621 386.907 107.594 387.549Z" fill="#010101"/>
</g>
<defs>
<clipPath id="clip0_2425:33923">
<rect width="1748.12" height="891.718" fill="white" transform="translate(-523 1746.59) rotate(-87.5999)"/>
</clipPath>
</defs>
</svg>
