<svg width="514" height="1877" viewBox="0 0 514 1877" fill="none" xmlns="http://www.w3.org/2000/svg">
<g clip-path="url(#clip0_2425:33960)">
<path d="M444.222 651.347C445.988 653.749 448.7 655.448 451.896 655.824C458.012 656.543 463.555 652.166 464.274 646.048C464.88 640.893 461.861 636.159 457.236 634.362C458.039 633.039 458.586 631.533 458.778 629.894C459.497 623.777 455.122 618.235 449.005 617.516C442.887 616.797 437.344 621.173 436.625 627.29C436.445 628.818 436.584 630.31 436.988 631.7C431.42 631.71 426.611 635.875 425.945 641.543C425.226 647.661 429.602 653.203 435.72 653.923C438.915 654.298 441.946 653.273 444.222 651.347Z" fill="white"/>
<path d="M424.951 641.426C425.619 635.739 430.155 631.348 435.741 630.766C435.526 629.586 435.49 628.383 435.632 627.173C436.414 620.518 442.465 615.741 449.12 616.523C455.774 617.305 460.554 623.356 459.772 630.011C459.612 631.365 459.23 632.665 458.633 633.888C463.173 636.156 465.868 641.049 465.266 646.165C464.484 652.821 458.433 657.599 451.778 656.817C448.749 656.461 446.044 655.024 444.058 652.742C441.597 654.502 438.633 655.272 435.603 654.916C428.949 654.134 424.169 648.081 424.951 641.426ZM437.981 631.816C437.96 631.989 437.895 632.157 437.787 632.299C437.6 632.55 437.304 632.698 436.989 632.7C431.858 632.71 427.536 636.562 426.937 641.66C426.284 647.22 430.276 652.276 435.837 652.929C438.649 653.26 441.398 652.426 443.574 650.584C443.785 650.405 444.061 650.322 444.337 650.354C444.612 650.386 444.861 650.532 445.025 650.754C446.715 653.051 449.196 654.5 452.009 654.83C457.571 655.484 462.624 651.492 463.278 645.931C463.817 641.343 461.184 636.969 456.873 635.295C456.597 635.188 456.383 634.964 456.288 634.684C456.193 634.404 456.225 634.097 456.381 633.844C457.141 632.586 457.614 631.218 457.783 629.777C458.437 624.217 454.444 619.163 448.885 618.509C443.325 617.856 438.27 621.847 437.616 627.407C437.456 628.766 437.567 630.117 437.947 631.42C437.986 631.55 437.996 631.684 437.981 631.816Z" fill="#010101"/>
<path d="M334.237 414.254C336.003 416.656 338.715 418.354 341.91 418.73C348.027 419.449 353.57 415.073 354.289 408.955C354.895 403.799 351.876 399.065 347.251 397.269C348.054 395.945 348.601 394.44 348.793 392.801C349.512 386.684 345.138 381.142 339.02 380.422C332.902 379.703 327.359 384.08 326.64 390.197C326.46 391.725 326.599 393.216 327.003 394.606C321.434 394.617 316.626 398.781 315.96 404.45C315.241 410.568 319.616 416.109 325.734 416.828C328.93 417.205 331.961 416.182 334.237 414.254Z" fill="white"/>
<path d="M314.966 404.334C315.634 398.647 320.172 394.256 325.755 393.673C325.541 392.494 325.507 391.29 325.649 390.082C326.431 383.427 332.481 378.649 339.134 379.431C345.789 380.213 350.569 386.264 349.786 392.919C349.627 394.274 349.246 395.573 348.648 396.797C353.187 399.064 355.882 403.957 355.28 409.073C354.498 415.729 348.45 420.506 341.795 419.724C338.765 419.368 336.059 417.932 334.073 415.649C331.612 417.41 328.646 418.179 325.618 417.823C318.963 417.041 314.184 410.99 314.966 404.334ZM327.996 394.724C327.975 394.897 327.911 395.064 327.803 395.206C327.615 395.458 327.319 395.607 327.005 395.607C321.873 395.617 317.551 399.47 316.952 404.568C316.299 410.127 320.291 415.183 325.852 415.837C328.664 416.167 331.413 415.334 333.59 413.492C333.802 413.312 334.077 413.23 334.352 413.262C334.627 413.295 334.876 413.439 335.04 413.662C336.731 415.959 339.212 417.407 342.026 417.738C347.586 418.391 352.639 414.399 353.292 408.839C353.831 404.251 351.199 399.877 346.888 398.203C346.611 398.096 346.398 397.872 346.303 397.592C346.208 397.311 346.242 397.005 346.396 396.752C347.157 395.495 347.629 394.126 347.798 392.685C348.452 387.125 344.459 382.071 338.899 381.417C333.341 380.764 328.286 384.755 327.633 390.315C327.473 391.675 327.584 393.025 327.962 394.328C328.001 394.458 328.011 394.592 327.996 394.724Z" fill="#010101"/>
<path d="M484.036 1527.38C486.891 1526.52 489.404 1524.54 490.831 1521.65C493.566 1516.14 491.312 1509.44 485.791 1506.71C481.141 1504.4 475.667 1505.65 472.42 1509.4C471.444 1508.2 470.208 1507.18 468.73 1506.45C463.212 1503.71 456.52 1505.97 453.785 1511.49C451.049 1517.01 453.305 1523.7 458.825 1526.43C460.203 1527.12 461.654 1527.49 463.097 1527.58C461.234 1532.82 463.54 1538.75 468.652 1541.29C474.171 1544.02 480.863 1541.77 483.599 1536.25C485.028 1533.37 485.083 1530.17 484.036 1527.38Z" fill="white"/>
<path d="M451.701 1515.03C451.862 1513.66 452.258 1512.32 452.89 1511.04C454.331 1508.14 456.82 1505.96 459.896 1504.92C462.97 1503.89 466.266 1504.11 469.175 1505.55C470.397 1506.16 471.492 1506.95 472.443 1507.93C476.107 1504.42 481.622 1503.53 486.235 1505.81C492.24 1508.79 494.702 1516.1 491.727 1522.1C490.371 1524.83 488.111 1526.9 485.293 1528C486.123 1530.91 485.847 1533.96 484.494 1536.69C483.052 1539.6 480.565 1541.77 477.488 1542.81C474.411 1543.85 471.117 1543.63 468.208 1542.18C463.077 1539.64 460.466 1533.89 461.798 1528.44C460.616 1528.24 459.471 1527.87 458.38 1527.33C455.472 1525.89 453.299 1523.4 452.262 1520.33C451.678 1518.59 451.494 1516.79 451.701 1515.03ZM490.922 1517.9C491.408 1513.75 489.293 1509.56 485.349 1507.61C481.208 1505.55 476.203 1506.56 473.176 1510.06C472.983 1510.28 472.699 1510.41 472.404 1510.4C472.107 1510.4 471.83 1510.26 471.645 1510.04C470.716 1508.9 469.586 1507.99 468.287 1507.35C465.857 1506.14 463.103 1505.96 460.533 1506.82C457.963 1507.69 455.886 1509.5 454.68 1511.93C453.476 1514.36 453.29 1517.12 454.156 1519.69C455.022 1522.26 456.838 1524.34 459.268 1525.54C460.495 1526.15 461.804 1526.5 463.157 1526.58C463.471 1526.6 463.759 1526.76 463.93 1527.03C464.106 1527.29 464.144 1527.62 464.041 1527.91C462.321 1532.75 464.496 1538.11 469.096 1540.39C471.526 1541.6 474.279 1541.78 476.849 1540.92C479.419 1540.05 481.499 1538.24 482.703 1535.81C483.961 1533.27 484.102 1530.4 483.099 1527.73C483.002 1527.47 483.017 1527.18 483.138 1526.93C483.261 1526.69 483.482 1526.5 483.747 1526.42C486.479 1525.6 488.677 1523.75 489.935 1521.21C490.468 1520.14 490.79 1519.02 490.922 1517.9Z" fill="#010101"/>
<path d="M123.929 1594.15C126.785 1593.29 129.297 1591.31 130.726 1588.43C133.461 1582.91 131.205 1576.22 125.686 1573.48C121.034 1571.18 115.56 1572.43 112.315 1576.18C111.337 1574.98 110.102 1573.95 108.625 1573.22C103.107 1570.49 96.4154 1572.74 93.6804 1578.26C90.9432 1583.78 93.2004 1590.47 98.72 1593.21C100.097 1593.89 101.548 1594.26 102.991 1594.35C101.13 1599.6 103.433 1605.53 108.547 1608.06C114.065 1610.8 120.757 1608.54 123.494 1603.02C124.923 1600.14 124.979 1596.94 123.929 1594.15Z" fill="white"/>
<path d="M91.6037 1581.79C91.7619 1580.44 92.1499 1579.1 92.7839 1577.82C95.7612 1571.81 103.068 1569.35 109.071 1572.33C110.29 1572.93 111.388 1573.73 112.337 1574.7C116.001 1571.19 121.516 1570.3 126.131 1572.59C129.038 1574.03 131.211 1576.52 132.25 1579.59C133.287 1582.67 133.065 1585.96 131.624 1588.87C130.269 1591.61 128.006 1593.67 125.188 1594.77C126.018 1597.68 125.744 1600.73 124.391 1603.47C121.414 1609.47 114.109 1611.93 108.104 1608.96C102.974 1606.42 100.361 1600.67 101.696 1595.21C100.511 1595.01 99.3664 1594.65 98.2761 1594.11C93.5533 1591.76 91.0219 1586.74 91.6037 1581.79ZM130.824 1584.65C130.997 1583.18 130.843 1581.68 130.355 1580.23C129.487 1577.66 127.674 1575.58 125.243 1574.38C121.104 1572.33 116.099 1573.34 113.071 1576.83C112.877 1577.05 112.595 1577.18 112.298 1577.18C112.004 1577.17 111.727 1577.04 111.539 1576.81C110.611 1575.67 109.481 1574.76 108.182 1574.12C103.167 1571.63 97.0619 1573.69 94.5763 1578.71C92.089 1583.72 94.1483 1589.83 99.1643 1592.31C100.389 1592.92 101.699 1593.27 103.054 1593.35C103.368 1593.37 103.653 1593.54 103.827 1593.8C104 1594.06 104.039 1594.39 103.935 1594.69C102.22 1599.52 104.39 1604.89 108.992 1607.17C114.007 1609.65 120.112 1607.6 122.597 1602.58C123.857 1600.04 123.998 1597.17 122.994 1594.5C122.898 1594.24 122.912 1593.96 123.034 1593.71C123.158 1593.46 123.376 1593.27 123.643 1593.19C126.374 1592.37 128.572 1590.52 129.83 1587.99C130.356 1586.92 130.69 1585.8 130.824 1584.65Z" fill="#010101"/>
<path d="M222.977 1492.19C224.76 1493.69 226.982 1494.7 229.465 1495C236.24 1495.79 242.378 1490.95 243.174 1484.17C243.481 1481.56 242.941 1479.04 241.784 1476.89C244.288 1475.11 246.07 1472.32 246.457 1469.03C247.184 1462.85 242.758 1457.24 236.577 1456.52C233.349 1456.14 230.29 1457.17 227.99 1459.11C226.214 1455.44 222.666 1452.71 218.309 1452.2C211.536 1451.4 205.398 1456.25 204.602 1463.02C204.063 1467.61 206.108 1471.89 209.581 1474.43C204.48 1475.45 200.384 1479.65 199.744 1485.1C198.948 1491.87 203.795 1498.01 210.57 1498.81C215.824 1499.42 220.685 1496.64 222.977 1492.19Z" fill="white"/>
<path d="M198.75 1484.98C199.349 1479.88 202.775 1475.66 207.503 1473.97C204.595 1471.1 203.124 1467.02 203.607 1462.91C204.467 1455.6 211.113 1450.35 218.427 1451.21C222.574 1451.69 226.19 1454.06 228.311 1457.61C230.764 1455.91 233.696 1455.17 236.691 1455.53C243.411 1456.32 248.238 1462.43 247.448 1469.15C247.079 1472.29 245.489 1475.17 243.044 1477.18C244.064 1479.41 244.452 1481.85 244.165 1484.29C243.306 1491.6 236.657 1496.85 229.346 1495.99C227.15 1495.73 225.074 1494.94 223.274 1493.68C220.551 1497.97 215.542 1500.4 210.45 1499.8C203.14 1498.94 197.89 1492.29 198.75 1484.98ZM210.573 1474.55C210.569 1474.58 210.564 1474.61 210.557 1474.65C210.471 1475.03 210.166 1475.34 209.777 1475.41C204.943 1476.38 201.31 1480.32 200.735 1485.21C200.004 1491.43 204.467 1497.08 210.684 1497.81C215.347 1498.36 219.932 1495.92 222.088 1491.74C222.228 1491.47 222.483 1491.28 222.779 1491.21C223.077 1491.15 223.386 1491.23 223.619 1491.43C225.319 1492.86 227.38 1493.75 229.58 1494C235.797 1494.74 241.449 1490.27 242.18 1484.06C242.452 1481.74 242.01 1479.43 240.901 1477.37C240.662 1476.92 240.791 1476.37 241.201 1476.08C243.57 1474.39 245.124 1471.78 245.461 1468.91C246.123 1463.29 242.083 1458.18 236.458 1457.51C233.612 1457.18 230.833 1458.02 228.634 1459.88C228.396 1460.08 228.082 1460.16 227.779 1460.09C227.478 1460.03 227.22 1459.83 227.086 1459.55C225.386 1456.03 222.061 1453.65 218.193 1453.19C211.974 1452.46 206.324 1456.93 205.594 1463.14C205.118 1467.19 206.872 1471.21 210.171 1473.63C210.464 1473.84 210.615 1474.19 210.573 1474.55Z" fill="#010101"/>
<path d="M217.795 1699.02C219.575 1700.51 221.797 1701.53 224.282 1701.82C231.055 1702.61 237.195 1697.77 237.991 1690.99C238.298 1688.38 237.758 1685.87 236.601 1683.71C239.106 1681.93 240.885 1679.15 241.272 1675.85C241.999 1669.67 237.576 1664.07 231.394 1663.34C228.166 1662.96 225.107 1663.99 222.805 1665.94C221.031 1662.26 217.483 1659.53 213.126 1659.02C206.353 1658.22 200.213 1663.07 199.417 1669.85C198.879 1674.43 200.926 1678.71 204.398 1681.25C199.297 1682.28 195.201 1686.47 194.561 1691.92C193.765 1698.69 198.611 1704.83 205.387 1705.63C210.642 1706.24 215.503 1703.46 217.795 1699.02Z" fill="white"/>
<path d="M193.567 1691.8C194.167 1686.7 197.592 1682.48 202.32 1680.79C199.412 1677.93 197.941 1673.84 198.425 1669.73C199.284 1662.42 205.93 1657.17 213.242 1658.03C217.39 1658.52 221.005 1660.88 223.128 1664.43C225.581 1662.73 228.513 1662 231.509 1662.35C238.228 1663.14 243.053 1669.25 242.263 1675.97C241.894 1679.11 240.304 1682 237.861 1684.01C238.881 1686.23 239.269 1688.67 238.982 1691.11C238.123 1698.42 231.475 1703.67 224.161 1702.81C221.967 1702.55 219.891 1701.76 218.092 1700.5C215.368 1704.79 210.359 1707.22 205.267 1706.62C197.958 1705.76 192.708 1699.11 193.567 1691.8ZM205.391 1681.37C205.387 1681.4 205.381 1681.44 205.373 1681.47C205.288 1681.86 204.981 1682.16 204.594 1682.23C199.76 1683.2 196.127 1687.14 195.552 1692.04C194.822 1698.25 199.284 1703.9 205.502 1704.63C210.162 1705.18 214.747 1702.74 216.906 1698.56C217.045 1698.29 217.298 1698.1 217.597 1698.04C217.895 1697.98 218.204 1698.05 218.436 1698.25C220.136 1699.68 222.197 1700.57 224.395 1700.83C230.615 1701.56 236.266 1697.09 236.997 1690.88C237.269 1688.56 236.827 1686.25 235.718 1684.19C235.481 1683.74 235.607 1683.19 236.019 1682.9C238.387 1681.21 239.94 1678.6 240.277 1675.74C240.938 1670.11 236.9 1665 231.275 1664.34C228.43 1664 225.651 1664.84 223.449 1666.7C223.213 1666.9 222.899 1666.98 222.594 1666.92C222.293 1666.85 222.037 1666.65 221.903 1666.37C220.203 1662.85 216.878 1660.47 213.008 1660.02C206.791 1659.29 201.142 1663.75 200.411 1669.97C199.935 1674.01 201.689 1678.03 204.988 1680.45C205.282 1680.66 205.432 1681.02 205.391 1681.37Z" fill="#010101"/>
<path d="M368.43 112.087C370.21 113.582 372.432 114.597 374.915 114.889C381.69 115.686 387.828 110.839 388.624 104.065C388.931 101.452 388.393 98.9376 387.235 96.7837C389.741 95.0021 391.518 92.2175 391.905 88.9232C392.632 82.7387 388.209 77.1371 382.027 76.4105C378.801 76.0314 375.74 77.0641 373.44 79.0079C371.667 75.3297 368.119 72.6039 363.76 72.0915C356.986 71.2954 350.848 76.143 350.052 82.9174C349.514 87.4979 351.561 91.7811 355.032 94.3247C349.932 95.3474 345.837 99.542 345.196 104.989C344.4 111.764 349.246 117.901 356.02 118.698C361.275 119.315 366.137 116.529 368.43 112.087Z" fill="white"/>
<path d="M344.201 104.872C344.801 99.7716 348.225 95.5534 352.952 93.8647C350.044 90.9956 348.574 86.9131 349.057 82.8004C349.916 75.4897 356.563 70.2397 363.876 71.0993C368.024 71.5868 371.64 73.95 373.761 77.5009C376.214 75.8026 379.146 75.0669 382.141 75.4189C388.861 76.2088 393.687 82.318 392.897 89.0397C392.528 92.1831 390.938 95.0682 388.493 97.0765C389.515 99.3011 389.901 101.739 389.614 104.181C388.755 111.493 382.109 116.743 374.795 115.883C372.599 115.625 370.524 114.832 368.724 113.575C366 117.859 360.991 120.29 355.901 119.692C348.591 118.832 343.342 112.185 344.201 104.872ZM356.024 94.4412C356.02 94.474 356.016 94.5068 356.008 94.5411C355.923 94.9268 355.616 95.227 355.227 95.3052C350.395 96.2747 346.763 100.213 346.188 105.106C345.457 111.322 349.918 116.974 356.137 117.705C360.798 118.253 365.382 115.811 367.539 111.629C367.679 111.357 367.934 111.167 368.23 111.106C368.528 111.046 368.839 111.125 369.072 111.321C370.771 112.747 372.831 113.638 375.031 113.897C381.248 114.628 386.899 110.164 387.63 103.948C387.902 101.632 387.46 99.3183 386.353 97.259C386.114 96.8151 386.242 96.2622 386.654 95.9692C389.023 94.2843 390.575 91.6736 390.912 88.8064C391.573 83.1811 387.534 78.0666 381.908 77.4054C379.063 77.0709 376.286 77.9115 374.085 79.7713C373.849 79.9721 373.532 80.0507 373.23 79.9859C372.928 79.9213 372.671 79.7209 372.537 79.4423C370.836 75.9167 367.511 73.5403 363.644 73.0857C357.427 72.355 351.775 76.8178 351.044 83.034C350.568 87.0831 352.322 91.1003 355.623 93.5181C355.914 93.7325 356.065 94.0867 356.024 94.4412Z" fill="#010101"/>
<path d="M295.554 1342.2C295.637 1341.5 295.613 1340.82 295.515 1340.15C296.67 1340.5 297.91 1340.77 299.21 1340.92C306.185 1341.74 312.228 1339.11 312.706 1335.04C313.061 1332.02 310.245 1329.06 305.915 1327.39C308.252 1325.5 309.885 1322.73 310.263 1319.51C311.034 1312.95 306.341 1307 299.782 1306.23C294.692 1305.64 289.986 1308.33 287.765 1312.63C286.098 1311.54 284.163 1310.8 282.051 1310.55C274.744 1309.69 268.124 1314.92 267.265 1322.23C266.406 1329.53 271.634 1336.15 278.941 1337.01C279.755 1337.11 280.563 1337.12 281.353 1337.07C280.719 1338.04 280.287 1339.16 280.143 1340.39C279.642 1344.65 282.688 1348.5 286.944 1349C291.199 1349.5 295.054 1346.46 295.554 1342.2Z" fill="white"/>
<path d="M266.273 1322.11C267.195 1314.27 274.325 1308.64 282.169 1309.56C284.021 1309.78 285.778 1310.34 287.407 1311.25C290.039 1307.05 294.929 1304.66 299.899 1305.24C306.995 1306.07 312.091 1312.53 311.257 1319.62C310.923 1322.46 309.683 1325.06 307.724 1327.09C311.748 1329.05 314.055 1332.1 313.697 1335.15C313.146 1339.84 306.732 1342.81 299.093 1341.91C298.249 1341.81 297.417 1341.67 296.603 1341.48C296.526 1346.67 291.9 1350.59 286.825 1350C282.03 1349.43 278.586 1345.07 279.15 1340.27C279.239 1339.51 279.426 1338.78 279.705 1338.08C279.407 1338.06 279.115 1338.04 278.824 1338C270.98 1337.08 265.351 1329.95 266.273 1322.11ZM309.27 1319.39C309.976 1313.39 305.667 1307.93 299.665 1307.23C295.163 1306.7 290.739 1309.06 288.656 1313.09C288.525 1313.34 288.295 1313.53 288.022 1313.6C287.749 1313.67 287.456 1313.63 287.221 1313.47C285.604 1312.42 283.826 1311.77 281.934 1311.54C275.186 1310.75 269.051 1315.6 268.258 1322.34C267.465 1329.09 272.309 1335.22 279.058 1336.02C279.77 1336.1 280.501 1336.12 281.29 1336.07C281.668 1336.04 282.028 1336.23 282.218 1336.56C282.41 1336.89 282.399 1337.3 282.191 1337.61C281.615 1338.5 281.258 1339.47 281.137 1340.51C280.702 1344.21 283.36 1347.58 287.059 1348.01C291.337 1348.51 295.204 1344.84 294.527 1340.3C294.476 1339.96 294.603 1339.62 294.864 1339.39C295.125 1339.17 295.479 1339.1 295.808 1339.19C296.933 1339.54 298.118 1339.78 299.328 1339.93C305.637 1340.67 311.306 1338.37 311.712 1334.92C311.997 1332.5 309.525 1329.85 305.559 1328.33C305.225 1328.2 304.985 1327.9 304.93 1327.55C304.875 1327.19 305.009 1326.84 305.287 1326.62C307.521 1324.81 308.936 1322.24 309.27 1319.39Z" fill="#010101"/>
<path d="M439.894 1123.26C439.272 1122.93 438.624 1122.71 437.967 1122.56C438.714 1121.61 439.407 1120.55 440.021 1119.39C443.311 1113.18 443.043 1106.6 439.423 1104.68C436.735 1103.26 432.956 1104.81 429.84 1108.24C428.92 1105.38 426.93 1102.85 424.064 1101.33C418.229 1098.24 410.99 1100.46 407.895 1106.3C405.495 1110.82 406.305 1116.19 409.512 1119.81C407.889 1120.97 406.497 1122.51 405.502 1124.39C402.055 1130.89 404.531 1138.95 411.03 1142.4C417.53 1145.84 425.594 1143.37 429.04 1136.87C429.424 1136.14 429.724 1135.39 429.964 1134.64C430.64 1135.58 431.533 1136.39 432.626 1136.97C436.412 1138.98 441.106 1137.54 443.115 1133.75C445.122 1129.97 443.68 1125.27 439.894 1123.26Z" fill="white"/>
<path d="M403.04 1128.96C403.245 1127.22 403.773 1125.52 404.618 1123.92C405.492 1122.28 406.657 1120.84 408.09 1119.65C405.127 1115.68 404.671 1110.25 407.013 1105.83C410.361 1099.52 418.22 1097.1 424.532 1100.45C427.054 1101.79 429.029 1103.89 430.213 1106.45C433.494 1103.4 437.181 1102.36 439.893 1103.8C444.062 1106.01 444.507 1113.06 440.905 1119.86C440.507 1120.61 440.07 1121.33 439.599 1122.02C439.862 1122.13 440.118 1122.25 440.363 1122.38C444.631 1124.64 446.262 1129.95 443.999 1134.22C441.736 1138.49 436.425 1140.12 432.16 1137.86C431.482 1137.5 430.865 1137.06 430.312 1136.54C430.191 1136.81 430.062 1137.08 429.924 1137.34C428.132 1140.72 425.131 1143.2 421.475 1144.32C417.819 1145.44 413.942 1145.08 410.563 1143.28C407.185 1141.49 404.704 1138.49 403.581 1134.83C402.988 1132.9 402.811 1130.91 403.04 1128.96ZM410.506 1119.93C410.473 1120.21 410.324 1120.47 410.094 1120.63C408.524 1121.75 407.277 1123.18 406.385 1124.86C404.845 1127.77 404.527 1131.1 405.493 1134.25C406.458 1137.4 408.592 1139.98 411.499 1141.52C414.407 1143.06 417.741 1143.38 420.887 1142.41C424.033 1141.44 426.616 1139.31 428.158 1136.4C428.494 1135.77 428.772 1135.09 429.012 1134.34C429.127 1133.98 429.436 1133.71 429.808 1133.65C430.183 1133.6 430.557 1133.75 430.778 1134.06C431.394 1134.92 432.174 1135.6 433.095 1136.09C436.389 1137.84 440.487 1136.58 442.232 1133.29C443.977 1129.99 442.718 1125.9 439.427 1124.15C438.914 1123.88 438.348 1123.67 437.747 1123.54C437.413 1123.46 437.141 1123.22 437.026 1122.89C436.912 1122.57 436.97 1122.21 437.182 1121.94C437.909 1121.02 438.567 1120 439.138 1118.92C442.113 1113.31 442.029 1107.2 438.957 1105.57C436.803 1104.42 433.438 1105.77 430.582 1108.92C430.342 1109.18 429.979 1109.3 429.63 1109.22C429.282 1109.15 428.999 1108.89 428.891 1108.55C428.01 1105.81 426.13 1103.56 423.596 1102.22C418.259 1099.39 411.611 1101.43 408.782 1106.77C406.657 1110.77 407.254 1115.75 410.262 1119.16C410.45 1119.37 410.538 1119.65 410.507 1119.93L410.507 1119.93L410.506 1119.93ZM439.894 1123.26L439.893 1123.27L439.894 1123.26Z" fill="#010101"/>
<path d="M332.137 265.173C331.687 267.031 332.498 268.897 334.019 269.878C333.52 270.642 333.135 271.497 332.906 272.434C331.834 276.85 334.546 281.297 338.964 282.367C341.249 282.92 343.538 282.455 345.367 281.272C346.02 281.635 346.728 281.926 347.491 282.11C352.036 283.212 356.614 280.42 357.715 275.875C358.611 272.178 356.932 268.461 353.831 266.609C354.07 266.095 354.264 265.551 354.404 264.977C355.532 260.318 352.67 255.626 348.012 254.497C343.354 253.368 338.662 256.229 337.53 260.888C337.446 261.239 337.391 261.588 337.351 261.938C335.026 261.413 332.7 262.846 332.137 265.173Z" fill="white"/>
<path d="M331.05 265.575C331.075 265.362 331.114 265.15 331.164 264.937C331.767 262.453 334.048 260.777 336.518 260.833C336.531 260.773 336.546 260.712 336.56 260.654C337.168 258.14 338.718 256.015 340.927 254.669C343.135 253.323 345.735 252.918 348.246 253.526C350.76 254.136 352.886 255.686 354.232 257.894C355.579 260.101 355.986 262.699 355.375 265.214C355.292 265.556 355.189 265.896 355.069 266.229C358.156 268.472 359.604 272.33 358.688 276.11C358.092 278.569 356.576 280.647 354.414 281.963C352.256 283.281 349.713 283.677 347.255 283.081C346.627 282.93 346.007 282.706 345.406 282.417C343.365 283.566 341.016 283.893 338.728 283.339C336.332 282.758 334.307 281.28 333.025 279.176C331.742 277.071 331.355 274.593 331.936 272.198C332.111 271.481 332.371 270.787 332.718 270.125C331.477 268.964 330.85 267.272 331.05 265.575ZM353.598 263.815C353.798 262.119 353.428 260.416 352.524 258.934C351.455 257.184 349.769 255.953 347.775 255.47C345.782 254.987 343.719 255.308 341.967 256.377C340.217 257.445 338.984 259.131 338.502 261.125C338.358 261.719 338.413 262.412 337.927 262.754C337.695 262.919 337.406 262.976 337.13 262.914C335.343 262.51 333.54 263.629 333.108 265.409C332.767 266.8 333.355 268.259 334.562 269.037C334.784 269.181 334.941 269.408 334.997 269.669C335.053 269.929 335.001 270.202 334.857 270.425C334.399 271.126 334.07 271.882 333.879 272.67C333.425 274.544 333.727 276.485 334.731 278.135C335.736 279.782 337.323 280.94 339.199 281.395C341.139 281.865 343.137 281.523 344.825 280.432C345.135 280.23 345.53 280.217 345.854 280.397C346.459 280.735 347.089 280.985 347.725 281.138C349.665 281.608 351.672 281.295 353.373 280.255C355.077 279.217 356.273 277.577 356.744 275.639C357.522 272.44 356.142 269.154 353.317 267.467C352.878 267.204 352.707 266.651 352.925 266.186C353.141 265.722 353.311 265.236 353.431 264.743C353.504 264.434 353.562 264.125 353.598 263.815Z" fill="#010101"/>
<path d="M351.91 1456.89C353.809 1457.11 355.562 1456.08 356.354 1454.45C357.171 1454.86 358.067 1455.14 359.025 1455.25C363.537 1455.78 367.627 1452.55 368.157 1448.04C368.432 1445.71 367.693 1443.49 366.297 1441.81C366.581 1441.12 366.782 1440.38 366.874 1439.61C367.42 1434.96 364.097 1430.75 359.451 1430.21C355.674 1429.76 352.186 1431.88 350.721 1435.18C350.182 1435 349.618 1434.88 349.033 1434.81C344.272 1434.25 339.96 1437.65 339.4 1442.42C338.84 1447.18 342.245 1451.49 347.006 1452.05C347.364 1452.09 347.719 1452.1 348.07 1452.1C347.83 1454.48 349.532 1456.61 351.91 1456.89Z" fill="white"/>
<path d="M338.408 1442.3C339.031 1437 343.85 1433.19 349.152 1433.82C349.501 1433.86 349.849 1433.92 350.195 1434C352.049 1430.66 355.713 1428.76 359.569 1429.21C364.754 1429.82 368.477 1434.54 367.868 1439.72C367.793 1440.36 367.647 1441.01 367.43 1441.64C368.817 1443.53 369.425 1445.82 369.15 1448.16C368.556 1453.21 363.962 1456.84 358.909 1456.24C358.176 1456.16 357.455 1455.98 356.757 1455.72C355.628 1457.26 353.738 1458.11 351.794 1457.88C349.257 1457.58 347.316 1455.52 347.075 1453.06C347.013 1453.06 346.951 1453.05 346.892 1453.04C341.589 1452.42 337.785 1447.6 338.408 1442.3ZM365.881 1439.49C366.361 1435.4 363.424 1431.68 359.335 1431.2C356.064 1430.81 352.97 1432.58 351.635 1435.59C351.428 1436.05 350.9 1436.29 350.412 1436.13C349.924 1435.97 349.42 1435.86 348.918 1435.8C344.712 1435.31 340.888 1438.33 340.394 1442.53C339.9 1446.74 342.918 1450.56 347.125 1451.06C347.441 1451.1 347.755 1451.11 348.066 1451.1C348.349 1451.1 348.621 1451.22 348.811 1451.43C349 1451.64 349.093 1451.92 349.065 1452.21C348.879 1454.03 350.208 1455.68 352.026 1455.9C353.451 1456.07 354.826 1455.31 355.455 1454.02C355.57 1453.78 355.778 1453.59 356.031 1453.51C356.281 1453.42 356.557 1453.44 356.796 1453.56C357.548 1453.93 358.338 1454.16 359.143 1454.26C363.099 1454.72 366.699 1451.88 367.164 1447.92C367.397 1445.94 366.817 1444 365.53 1442.46C365.293 1442.17 365.233 1441.78 365.374 1441.44C365.633 1440.79 365.804 1440.14 365.881 1439.49Z" fill="#010101"/>
</g>
<defs>
<clipPath id="clip0_2425:33960">
<rect width="1782.18" height="909.091" fill="white" transform="translate(1110.92 106.122) rotate(96.7037)"/>
</clipPath>
</defs>
</svg>
