<svg width="400" height="400" viewBox="0 0 400 400" fill="none" xmlns="http://www.w3.org/2000/svg">
  <path d="M317.034 99.032C317.034 99.032 293.56 62.565 245.282 99.702C245.282 99.702 231.973 93.93 213.342 100.711C213.318 100.718 213.303 100.727 213.279 100.735C202.083 104.827 188.963 113.453 175.661 130.578C175.661 130.578 165.742 126.053 159.49 135.301C156.777 139.322 154.553 146.363 154.246 155.912C153.828 168.346 156.674 185.031 165.9 204.829L161.177 213.376L148.948 235.564L120.302 287.47L142.954 273.861C142.954 273.861 157.329 289.851 179.547 287.312L185.382 314.554L210.849 260.307C210.849 260.307 212.576 260.323 215.509 260.093C250.029 257.341 278.697 232.19 286.078 198.356C287.646 191.181 288.395 183.651 287.3 176.901C287.3 176.901 300.577 166.036 310.647 150.384C313.525 145.914 316.143 141.049 318.098 135.931C322.554 124.358 323.689 111.505 317.034 99.032ZM280.771 136.003C276.782 122.852 263.251 113.713 263.251 113.713C263.251 113.713 278.666 99.67 289.98 111.616C300.886 123.144 280.771 136.003 280.771 136.003Z" fill="#F89A5F" />
  <path d="M185.382 315.343C185.352 315.343 185.322 315.342 185.292 315.338C184.957 315.299 184.683 315.051 184.611 314.72L178.924 288.171C159.128 290.103 145.439 277.487 142.822 274.86L120.707 288.146C120.402 288.331 120.01 288.285 119.753 288.038C119.497 287.791 119.438 287.401 119.61 287.09L148.256 235.184L165.015 204.8C154.848 182.837 153.115 166.089 153.456 155.887C153.738 147.176 155.697 139.512 158.833 134.862C164.49 126.497 173.086 128.814 175.397 129.633C186.975 114.856 199.626 104.885 213.006 99.995C213.012 99.993 213.081 99.967 213.086 99.965C230.136 93.76 242.663 97.853 245.157 98.803C262.302 85.71 278.26 80.331 292.594 82.815C309.216 85.695 317.357 98.079 317.696 98.605C317.709 98.623 317.718 98.641 317.728 98.661C323.725 109.902 324.097 122.537 318.832 136.215C317.02 140.962 314.487 145.874 311.309 150.811C302.194 164.979 290.32 175.373 288.147 177.218C289.055 183.265 288.617 190.43 286.847 198.523C283.187 215.299 274.418 230.152 261.489 241.472C248.547 252.805 232.668 259.516 215.571 260.879C213.527 261.038 212.071 261.081 211.35 261.091L186.095 314.888C185.966 315.168 185.685 315.343 185.382 315.343ZM179.548 286.524C179.915 286.524 180.239 286.78 180.319 287.147L185.663 312.1L210.136 259.972C210.267 259.693 210.549 259.547 210.857 259.518C210.878 259.521 212.592 259.532 215.449 259.308C232.204 257.972 247.767 251.396 260.452 240.287C273.128 229.19 281.723 214.633 285.308 198.186C287.079 190.089 287.488 182.97 286.523 177.027C286.477 176.749 286.585 176.468 286.801 176.29C286.933 176.183 300.104 165.317 309.985 149.957C313.105 145.111 315.587 140.296 317.363 135.649C322.451 122.428 322.113 110.245 316.356 99.432C315.945 98.817 307.896 87.053 292.3 84.362C278.323 81.95 262.667 87.322 245.764 100.325C245.536 100.5 245.233 100.535 244.97 100.423C244.841 100.367 231.7 94.868 213.612 101.45C213.607 101.451 213.54 101.477 213.536 101.478C200.312 106.311 187.775 116.265 176.283 131.06C176.06 131.349 175.667 131.445 175.334 131.294C174.953 131.122 165.937 127.17 160.142 135.741C157.167 140.152 155.305 147.513 155.033 155.935C154.695 166.023 156.429 182.635 166.615 204.493C166.72 204.722 166.712 204.987 166.59 205.208L122.409 285.281L142.549 273.181C142.872 272.989 143.289 273.049 143.541 273.329C143.684 273.486 157.925 288.99 179.459 286.525C179.488 286.525 179.518 286.524 179.548 286.524ZM280.771 136.792C280.68 136.792 280.587 136.775 280.498 136.743C280.267 136.658 280.089 136.469 280.018 136.233C276.159 123.509 262.945 114.457 262.811 114.367C262.611 114.231 262.484 114.012 262.466 113.771C262.449 113.529 262.542 113.293 262.721 113.13C262.881 112.985 278.842 98.708 290.554 111.074C293.206 113.877 294.341 117.004 293.928 120.366C292.853 129.122 281.672 136.364 281.197 136.668C281.068 136.75 280.921 136.792 280.771 136.792ZM264.539 113.662C267.524 115.859 277.423 123.78 281.196 134.756C283.801 132.899 291.543 126.862 292.362 120.172C292.715 117.299 291.721 114.602 289.408 112.158C284.965 107.469 279.342 106.374 272.693 108.907C268.944 110.335 265.895 112.575 264.539 113.662Z" fill="#010101" />
  <path d="M213.344 100.711C213.318 100.722 213.301 100.727 213.275 100.737C202.084 104.826 188.965 113.451 175.66 130.581C175.66 130.581 165.743 126.052 159.493 135.299C156.778 139.32 154.55 146.363 154.243 155.913C145.175 156.977 135.734 154.391 146.701 134.203C164.712 101.041 193.836 90.626 203.773 92.058C209.502 92.889 212.145 97.211 213.344 100.711Z" fill="#F89A5F" />
  <path d="M151.013 156.905C146.773 156.905 143.835 155.731 142.256 153.399C139.687 149.604 140.914 143.201 146.007 133.826C163.9 100.881 192.997 89.713 203.885 91.279C210.023 92.168 212.823 96.76 214.09 100.455C214.227 100.851 214.029 101.285 213.641 101.441C213.628 101.446 213.582 101.464 213.569 101.469C200.315 106.312 187.777 116.266 176.283 131.064C176.06 131.352 175.669 131.449 175.334 131.298C174.953 131.125 165.937 127.17 160.146 135.74C157.166 140.152 155.302 147.514 155.031 155.937C155.018 156.328 154.722 156.649 154.335 156.695C153.151 156.836 152.043 156.905 151.013 156.905ZM201.807 92.718C196.641 92.718 188.066 95.104 178.674 100.831C169.84 106.218 157.242 116.446 147.393 134.579C142.675 143.265 141.386 149.301 143.561 152.516C145.444 155.294 149.857 155.545 153.479 155.202C153.838 146.775 155.779 139.389 158.838 134.859C164.491 126.496 173.085 128.814 175.397 129.635C186.785 115.102 199.206 105.219 212.334 100.247C211.103 97.117 208.624 93.559 203.659 92.84C203.105 92.76 202.485 92.718 201.807 92.718Z" fill="#010101" />
  <path d="M161.176 213.376L148.943 235.566C104.037 200.514 104.827 140.268 120.232 139.28C136.258 138.252 135.503 153.901 139.528 176.431C142.632 193.827 155.484 207.884 161.176 213.376Z" fill="#F89A5F" />
  <path d="M148.944 236.354C148.768 236.354 148.597 236.297 148.458 236.188C111.956 207.696 106.468 164.557 111.641 147.793C113.417 142.036 116.451 138.733 120.181 138.494C134.343 137.596 136.044 148.869 138.636 165.947C139.136 169.244 139.653 172.653 140.304 176.293C143.387 193.575 156.311 207.586 161.724 212.809C161.98 213.057 162.039 213.445 161.867 213.757L149.634 235.946C149.522 236.147 149.327 236.292 149.101 236.337C149.049 236.349 148.996 236.354 148.944 236.354ZM121.666 140.022C121.221 140.022 120.76 140.038 120.283 140.068C117.252 140.261 114.719 143.17 113.149 148.257C108.121 164.548 113.456 206.351 148.702 234.37L160.197 213.52C154.446 207.887 141.837 193.856 138.753 176.568C138.099 172.908 137.581 169.488 137.078 166.181C134.625 150.02 133.105 140.022 121.666 140.022Z" fill="#010101" />
  <path d="M375.562 171.911C374.628 169.754 372.847 167.969 370.457 167.116C365.885 165.482 360.852 167.864 359.219 172.438C357.84 176.292 359.323 180.463 362.559 182.661C361.709 183.536 361.022 184.598 360.584 185.822C358.95 190.396 361.332 195.427 365.906 197.061C370.48 198.696 375.512 196.313 377.146 191.739C377.553 190.597 377.712 189.427 377.647 188.288C381.927 189.264 386.358 186.913 387.873 182.676C389.508 178.103 387.124 173.071 382.551 171.435C380.162 170.583 377.652 170.833 375.562 171.911Z" fill="white" />
  <path d="M368.871 198.368C367.785 198.368 366.695 198.181 365.642 197.804C363.231 196.943 361.3 195.194 360.204 192.881C359.11 190.569 358.98 187.966 359.842 185.556C360.203 184.544 360.727 183.612 361.402 182.778C358.314 180.233 357.109 175.996 358.475 172.172C360.253 167.196 365.749 164.596 370.723 166.373C372.989 167.183 374.815 168.764 375.936 170.869C378.138 169.951 380.552 169.886 382.817 170.694C385.228 171.556 387.158 173.303 388.254 175.617C389.349 177.93 389.479 180.532 388.616 182.942C387.098 187.193 382.838 189.768 378.441 189.226C378.397 190.17 378.212 191.101 377.889 192.005C377.029 194.415 375.28 196.346 372.966 197.441C371.664 198.059 370.271 198.368 368.871 198.368ZM367.506 167.39C364.218 167.39 361.129 169.433 359.961 172.702C358.734 176.133 359.985 179.959 363.002 182.008C363.194 182.139 363.318 182.349 363.343 182.581C363.366 182.813 363.286 183.043 363.124 183.21C362.316 184.042 361.711 185.01 361.327 186.087C360.607 188.101 360.716 190.274 361.63 192.207C362.545 194.14 364.158 195.599 366.173 196.319C368.185 197.039 370.36 196.931 372.291 196.016C374.225 195.1 375.685 193.488 376.403 191.474C376.766 190.457 376.921 189.4 376.86 188.333C376.846 188.085 376.949 187.845 377.137 187.685C377.325 187.524 377.579 187.464 377.822 187.518C381.767 188.418 385.768 186.223 387.131 182.41C387.851 180.396 387.742 178.223 386.828 176.291C385.913 174.358 384.299 172.897 382.285 172.178C380.181 171.426 377.923 171.58 375.925 172.611C375.731 172.711 375.503 172.726 375.298 172.654C375.092 172.58 374.926 172.425 374.839 172.224C373.946 170.16 372.296 168.609 370.193 167.857C369.306 167.54 368.398 167.39 367.506 167.39Z" fill="#010101" />
  <path d="M245.563 336.64L245.353 337.808L246.498 337.497C246.954 337.373 247.423 337.302 247.905 337.302C250.869 337.302 253.272 339.706 253.271 342.669V342.669C253.271 345.634 250.868 348.037 247.904 348.037C247.049 348.037 246.243 347.831 245.522 347.472L244.183 346.807L244.45 348.278C244.556 348.858 244.618 349.446 244.618 350.039C244.618 355.426 240.251 359.794 234.864 359.794C229.477 359.794 225.111 355.426 225.111 350.039C225.111 348.484 225.485 347.015 226.136 345.707L226.507 344.963L225.729 344.671C222.44 343.435 220.098 340.269 220.098 336.552C220.098 331.759 223.985 327.872 228.777 327.872C231.131 327.872 233.265 328.814 234.83 330.339L235.759 331.245L236.08 329.987C236.51 328.3 237.205 326.91 238.037 325.956C238.868 325.005 239.791 324.531 240.713 324.531C241.951 324.531 243.21 325.396 244.201 327.096C245.182 328.776 245.812 331.148 245.812 333.808C245.812 334.796 245.724 335.746 245.563 336.64Z" fill="white" stroke="black" stroke-width="1.5" />
  <path d="M63.17 243.672C62.969 244.191 62.85 244.719 62.794 245.246C61.982 244.75 61.087 244.305 60.126 243.93C54.963 241.925 49.831 242.741 48.662 245.752C47.793 247.988 49.357 250.804 52.333 252.928C50.175 253.912 48.382 255.702 47.455 258.088C45.57 262.942 47.976 268.405 52.831 270.292C56.596 271.754 60.723 270.626 63.267 267.782C64.325 268.944 65.653 269.894 67.218 270.501C72.626 272.602 78.712 269.921 80.812 264.514C82.912 259.107 80.232 253.02 74.824 250.92C74.22 250.687 73.607 250.52 72.992 250.401C73.669 249.785 74.221 249.012 74.575 248.102C75.798 244.953 74.237 241.408 71.088 240.184C67.938 238.962 64.394 240.523 63.17 243.672Z" fill="white" />
  <path d="M71.025 272.009C69.643 272.009 68.259 271.752 66.933 271.237C65.562 270.706 64.334 269.925 63.269 268.911C60.428 271.599 56.223 272.455 52.545 271.026C47.294 268.987 44.681 263.053 46.721 257.802C47.536 255.703 48.995 253.965 50.892 252.802C48.207 250.513 47.052 247.722 47.927 245.466C49.275 241.997 54.759 240.999 60.41 243.195C61.035 243.437 61.643 243.713 62.225 244.017C62.285 243.802 62.355 243.591 62.434 243.386C63.812 239.836 67.822 238.07 71.372 239.449C74.922 240.828 76.688 244.838 75.31 248.386C75.09 248.949 74.803 249.473 74.451 249.954C74.675 250.023 74.893 250.1 75.11 250.184C77.921 251.276 80.139 253.398 81.355 256.157C82.571 258.918 82.639 261.987 81.547 264.799C80.454 267.611 78.333 269.827 75.572 271.044C74.116 271.687 72.571 272.009 71.025 272.009ZM63.267 266.993C63.489 266.993 63.701 267.087 63.85 267.251C64.876 268.377 66.104 269.224 67.504 269.767C69.923 270.705 72.563 270.647 74.938 269.602C77.314 268.557 79.138 266.647 80.078 264.229C81.018 261.81 80.96 259.169 79.913 256.795C78.868 254.421 76.959 252.595 74.54 251.655C74.013 251.45 73.458 251.294 72.846 251.176C72.553 251.119 72.317 250.903 72.235 250.615C72.155 250.327 72.242 250.019 72.463 249.818C73.08 249.256 73.543 248.583 73.841 247.817C74.904 245.077 73.542 241.983 70.804 240.92C68.064 239.857 64.971 241.22 63.907 243.957V243.958C63.742 244.384 63.631 244.846 63.581 245.33C63.552 245.598 63.387 245.834 63.144 245.954C62.903 246.072 62.616 246.06 62.384 245.918C61.592 245.435 60.737 245.013 59.841 244.665C55.174 242.852 50.391 243.48 49.399 246.037C48.703 247.828 50.066 250.34 52.793 252.286C53.022 252.449 53.147 252.724 53.12 253.003C53.093 253.282 52.918 253.528 52.662 253.645C50.599 254.587 49.011 256.266 48.192 258.374C46.467 262.813 48.677 267.831 53.117 269.556C56.448 270.851 60.292 269.926 62.68 267.256C62.829 267.09 63.041 266.995 63.264 266.993H63.267V266.993ZM63.171 243.672H63.179H63.171Z" fill="#010101" />
  <path d="M212.94 214.258C212.767 214.258 212.592 214.2 212.447 214.084C212.169 213.86 184.643 191.424 184.339 163.552C184.042 136.292 175.381 131.325 175.293 131.279C174.913 131.074 174.764 130.599 174.965 130.216C175.166 129.834 175.635 129.682 176.019 129.879C176.411 130.08 185.606 135.118 185.916 163.536C186.212 190.67 213.163 212.635 213.434 212.854C213.775 213.126 213.828 213.623 213.555 213.962C213.4 214.157 213.172 214.258 212.94 214.258Z" fill="#010101" />
  <path d="M185.127 164.333C184.928 164.333 184.73 164.258 184.576 164.109C184.264 163.804 184.258 163.305 184.562 162.994L218.561 128.155C218.866 127.843 219.365 127.838 219.676 128.142C219.987 128.446 219.994 128.944 219.69 129.257L185.691 164.095C185.538 164.253 185.332 164.333 185.127 164.333Z" fill="#010101" />
  <path d="M192.256 240.191C192.103 240.191 191.948 240.146 191.813 240.053C184.05 234.738 177.221 225.527 172.858 218.736C168.148 211.401 165.214 205.224 165.185 205.163C165 204.769 165.168 204.3 165.562 204.113C165.956 203.929 166.424 204.096 166.611 204.49C166.725 204.732 178.236 228.845 192.702 238.753C193.061 238.998 193.154 239.489 192.907 239.849C192.755 240.072 192.508 240.191 192.256 240.191Z" fill="#010101" />
  <path d="M153.558 227.195L162.271 239.118L147.916 237.429L153.558 227.195Z" fill="#010101" />
  <path d="M162.271 239.906C162.24 239.906 162.209 239.904 162.179 239.9L147.823 238.211C147.562 238.18 147.334 238.023 147.215 237.788C147.094 237.555 147.098 237.277 147.225 237.048L152.868 226.815C152.998 226.58 153.239 226.425 153.508 226.409C153.771 226.389 154.036 226.513 154.195 226.731L162.908 238.653C163.093 238.907 163.11 239.246 162.952 239.517C162.81 239.759 162.549 239.906 162.271 239.906ZM149.172 236.781L160.568 238.124L153.651 228.659L149.172 236.781Z" fill="#010101" />
  <path d="M146.368 240.232L153.222 247.332L142.851 246.606L145.755 241.507" fill="#010101" />
  <path d="M153.222 248.121C153.204 248.121 153.185 248.119 153.166 248.119L142.796 247.393C142.527 247.373 142.284 247.217 142.156 246.978C142.028 246.739 142.032 246.452 142.166 246.216L145.069 241.116C145.213 240.863 145.475 240.72 145.747 240.717C145.5 240.404 145.526 239.947 145.819 239.664C146.132 239.361 146.633 239.371 146.934 239.684L153.787 246.784C154.015 247.018 154.073 247.369 153.935 247.665C153.806 247.943 153.526 248.121 153.222 248.121ZM144.156 245.907L151.228 246.402L146.542 241.548C146.537 241.666 146.503 241.786 146.44 241.897L144.156 245.907Z" fill="#010101" />
  <path d="M263.759 186.714C262.435 186.714 261.147 186.577 259.921 186.27C256.552 185.423 254.008 183.369 252.361 180.164C246.372 168.508 257.215 154.961 267.368 145.649C274.024 139.545 280.27 135.387 280.334 135.347C280.695 135.106 281.187 135.205 281.426 135.568C281.667 135.932 281.568 136.421 281.204 136.661C281.142 136.701 274.994 140.795 268.434 146.811C258.686 155.752 248.229 168.67 253.764 179.443C255.195 182.226 257.393 184.008 260.303 184.739C270.617 187.334 286.692 176.363 286.854 176.252C287.21 176.005 287.703 176.095 287.95 176.454C288.197 176.812 288.107 177.304 287.75 177.551C287.144 177.968 274.331 186.714 263.759 186.714Z" fill="#010101" />
  <path d="M263.249 114.5C263.077 114.5 262.905 114.445 262.759 114.329C258.597 111.017 252.538 109.271 252.478 109.254C252.06 109.135 251.816 108.7 251.935 108.28C252.054 107.861 252.491 107.619 252.909 107.737C253.169 107.811 259.327 109.583 263.741 113.095C264.083 113.366 264.138 113.862 263.867 114.202C263.711 114.399 263.48 114.5 263.249 114.5Z" fill="#010101" />
  <path d="M172.874 257.854C172.835 257.854 172.796 257.851 172.758 257.845C172.327 257.782 172.029 257.38 172.092 256.949C173.011 250.747 167.024 248.263 166.768 248.161C166.365 247.998 166.168 247.54 166.329 247.136C166.492 246.732 166.948 246.536 167.352 246.697C167.426 246.726 174.757 249.732 173.651 257.181C173.594 257.571 173.258 257.854 172.874 257.854Z" fill="#010101" />
  <path d="M163.007 253.814C162.678 255.406 161.121 256.428 159.53 256.099C157.938 255.771 156.915 254.214 157.244 252.622C157.573 251.03 159.13 250.008 160.722 250.336C162.313 250.666 163.336 252.223 163.007 253.814Z" fill="#010101" />
  <path d="M172.204 263.737C172.016 264.652 171.121 265.241 170.206 265.051C169.293 264.863 168.705 263.967 168.893 263.053C169.081 262.139 169.976 261.55 170.891 261.74C171.805 261.929 172.392 262.823 172.204 263.737Z" fill="#010101" />
  <path d="M152.396 255.256C152.204 256.183 151.299 256.777 150.373 256.586C149.446 256.395 148.85 255.488 149.042 254.563C149.233 253.636 150.14 253.041 151.066 253.232C151.991 253.423 152.587 254.329 152.396 255.256Z" fill="#010101" />
  <path d="M181.299 273.549C181.893 275.346 179.436 277.775 175.811 278.976C172.185 280.177 168.764 279.695 168.168 277.9C167.574 276.104 170.031 273.674 173.657 272.473C177.283 271.271 180.704 271.754 181.299 273.549Z" fill="#010101" />
  <path d="M141.853 258.066C140.272 259.106 140.692 262.536 142.791 265.727C144.89 268.919 147.872 270.665 149.453 269.623C151.034 268.585 150.613 265.154 148.514 261.963C146.416 258.772 143.433 257.028 141.853 258.066Z" fill="#010101" />
  <path d="M210.851 260.305L193.276 252.846L205.964 270.714L210.851 260.305Z" fill="#010101" />
  <path d="M205.964 271.502C205.71 271.502 205.47 271.379 205.321 271.17L192.633 253.302C192.429 253.014 192.441 252.627 192.661 252.351C192.883 252.078 193.259 251.982 193.583 252.12L211.157 259.581C211.354 259.664 211.511 259.825 211.587 260.025C211.663 260.224 211.654 260.448 211.564 260.64L206.678 271.048C206.558 271.302 206.313 271.474 206.033 271.498C206.011 271.501 205.987 271.502 205.964 271.502ZM195.532 254.658L205.825 269.155L209.789 260.712L195.532 254.658Z" fill="#010101" />
  <path d="M203.805 275.313L190.22 270.309L199.857 283.721L203.805 275.313Z" fill="#010101" />
  <path d="M199.857 284.509C199.605 284.509 199.366 284.388 199.217 284.181L189.58 270.77C189.378 270.488 189.383 270.108 189.593 269.832C189.803 269.557 190.17 269.452 190.493 269.57L204.077 274.575C204.284 274.652 204.449 274.811 204.534 275.015C204.617 275.219 204.612 275.45 204.518 275.649L200.571 284.056C200.452 284.309 200.208 284.481 199.93 284.506C199.906 284.508 199.881 284.509 199.857 284.509ZM192.362 271.938L199.714 282.169L202.726 275.757L192.362 271.938Z" fill="#010101" />
  <path d="M267.9 146.23L290.006 155.041L279.511 136.872L267.9 146.23Z" fill="#010101" />
  <path d="M290.006 155.829C289.908 155.829 289.809 155.811 289.714 155.772L267.61 146.962C267.35 146.858 267.165 146.624 267.122 146.346C267.081 146.07 267.189 145.791 267.407 145.616L279.015 136.257C279.195 136.113 279.429 136.053 279.655 136.096C279.881 136.138 280.078 136.277 280.193 136.477L290.689 154.646C290.857 154.937 290.823 155.302 290.603 155.556C290.45 155.734 290.229 155.829 290.006 155.829ZM269.447 145.997L288.186 153.467L279.287 138.063L269.447 145.997Z" fill="#010101" />
  <path d="M318.102 135.932C316.142 141.05 313.528 145.912 310.646 150.39L296.682 131.507C296.682 131.506 312.658 134.807 318.102 135.932Z" fill="#010101" />
  <path d="M310.646 151.178C310.396 151.178 310.16 151.059 310.011 150.859L296.046 131.976C295.853 131.713 295.84 131.358 296.017 131.082C296.193 130.808 296.519 130.669 296.84 130.735L318.26 135.161C318.488 135.208 318.681 135.352 318.794 135.554C318.903 135.758 318.921 135.998 318.837 136.215C317.017 140.97 314.483 145.883 311.308 150.817C311.168 151.035 310.93 151.17 310.67 151.178C310.662 151.178 310.654 151.178 310.646 151.178ZM298.542 132.695L310.597 148.996C313.24 144.779 315.399 140.589 317.027 136.515L298.542 132.695Z" fill="#010101" />
  <path d="M282.752 179.678L276.252 163.708L294.083 170.637C294.083 170.637 288.641 176.737 282.752 179.678Z" fill="#010101" />
  <path d="M282.752 180.465C282.657 180.465 282.563 180.448 282.473 180.414C282.268 180.337 282.104 180.177 282.022 179.974L275.523 164.005C275.404 163.713 275.47 163.38 275.69 163.154C275.913 162.93 276.247 162.859 276.539 162.973L294.37 169.903C294.611 169.996 294.791 170.203 294.85 170.453C294.911 170.704 294.844 170.97 294.673 171.162C294.445 171.415 289.061 177.409 283.105 180.382C282.993 180.438 282.873 180.465 282.752 180.465ZM277.673 165.105L283.154 178.576C287.28 176.313 291.108 172.6 292.708 170.949L277.673 165.105Z" fill="#010101" />
  <path d="M332.527 281.864C332.527 280.356 331.558 279.079 330.211 278.608C330.451 277.931 330.588 277.205 330.588 276.443C330.588 272.861 327.684 269.956 324.102 269.956C322.248 269.956 320.581 270.738 319.398 271.986C318.83 271.827 318.234 271.737 317.616 271.737C313.928 271.737 310.938 274.727 310.938 278.415C310.938 281.414 312.915 283.95 315.636 284.794C315.547 285.232 315.5 285.686 315.5 286.149C315.5 289.929 318.564 292.993 322.344 292.993C326.124 292.993 329.19 289.93 329.19 286.149C329.19 285.865 329.167 285.587 329.133 285.311C331.012 285.282 332.527 283.752 332.527 281.864Z" fill="white" />
  <path d="M322.344 293.781C318.136 293.781 314.712 290.358 314.712 286.149C314.712 285.872 314.728 285.592 314.758 285.314C311.977 284.169 310.149 281.476 310.149 278.415C310.149 274.298 313.499 270.949 317.616 270.949C318.126 270.949 318.642 271.005 319.157 271.116C320.508 269.856 322.246 269.169 324.102 269.169C328.114 269.169 331.377 272.433 331.377 276.444C331.377 277.025 331.305 277.606 331.164 278.177C332.475 278.919 333.315 280.322 333.315 281.865C333.315 283.879 331.878 285.588 329.975 286.005C329.977 286.053 329.977 286.102 329.977 286.15C329.978 290.358 326.553 293.781 322.344 293.781ZM317.615 272.525C314.368 272.525 311.725 275.168 311.725 278.415C311.725 281.012 313.392 283.272 315.869 284.041C316.255 284.159 316.488 284.552 316.41 284.948C316.33 285.345 316.289 285.75 316.289 286.149C316.289 289.488 319.006 292.205 322.344 292.205C325.684 292.205 328.401 289.488 328.401 286.149C328.401 285.897 328.38 285.651 328.35 285.407C328.323 285.185 328.391 284.962 328.539 284.794C328.685 284.626 328.896 284.527 329.12 284.523C330.563 284.502 331.739 283.307 331.739 281.865C331.739 280.734 331.02 279.725 329.952 279.353C329.754 279.285 329.591 279.139 329.5 278.95C329.409 278.761 329.397 278.543 329.468 278.346C329.689 277.723 329.8 277.083 329.8 276.445C329.8 273.302 327.244 270.746 324.102 270.746C322.528 270.746 321.06 271.38 319.971 272.529C319.77 272.741 319.469 272.824 319.188 272.746C318.66 272.601 318.132 272.525 317.615 272.525Z" fill="#010101" />
</svg>