<svg width="223" height="246" viewBox="0 0 223 246" fill="none" xmlns="http://www.w3.org/2000/svg">
<path d="M78.7049 216.881V237.433C78.7049 260.438 77.3903 283.907 78.6423 306.779C79.0179 314.072 83.7757 333.895 94.4181 327.663C100.678 324.017 102.181 312.945 103.496 306.315C104.81 299.619 105.499 292.923 106.375 286.161C108.692 268.128 109.944 249.963 110.757 231.798C110.883 228.814 111.008 225.897 111.133 222.914C111.133 222.914 118.207 224.505 124.593 222.914C124.593 222.914 123.278 328.525 144.375 328.724C165.66 328.923 159.525 166.628 159.525 166.628C159.525 166.628 189.574 159.202 187.32 119.225C187.32 119.225 184.942 97.4799 168.164 92.574L171.795 1.01788L151.574 26.0781C151.574 26.0781 137.99 12.8187 118.708 22.2329L99.3012 1.01788L96.2336 23.3599L91.5384 57.0388L89.1595 73.9445L84.2765 109.016L60.1119 106.231C60.1119 106.231 55.3541 80.3091 55.3541 80.2428C55.2915 79.9776 51.911 82.0991 51.7232 82.2317C48.593 84.751 46.8402 88.795 45.7759 92.7729C42.771 104.176 43.5222 117.634 48.4052 128.374C54.102 140.772 66.1217 145.943 78.4545 147.6V185.92C78.4545 185.92 28.122 198.649 10.9062 245.786C-2.86635 283.509 -2.17773 312.68 12.3461 310.426C27.1203 308.039 22.1747 234.582 78.7049 216.881Z" fill="#ADF0E7" stroke="#2E1E00" stroke-miterlimit="10" stroke-linecap="round" stroke-linejoin="round"/>
<path d="M53.5386 56.9062L55.6045 80.1764C55.6045 80.2427 60.3623 106.165 60.3623 106.165L84.5269 108.949L89.4099 73.8782L91.7888 56.9725H53.5386V56.9062Z" fill="#FDEAA7" stroke="#2E1E00" stroke-miterlimit="10" stroke-linecap="round" stroke-linejoin="round"/>
<path d="M53.5386 56.9061H91.7262L96.4214 23.2273C94.4181 20.6417 91.4758 18.1224 88.3457 19.3158C82.4611 21.5036 81.8976 28.9951 81.8976 28.9951C81.8976 28.9951 78.2041 22.9621 73.2585 25.4151C68.3128 27.8681 68.6885 36.1552 68.6885 36.1552C68.6885 36.1552 55.0411 28.6636 51.0345 41.459C47.8418 51.072 53.5386 56.9061 53.5386 56.9061Z" fill="#FEFFFA" stroke="#2E1E00" stroke-miterlimit="10" stroke-linecap="round" stroke-linejoin="round"/>
<path d="M168.227 92.4413L163.156 129.435" stroke="#2E1E00" stroke-miterlimit="10" stroke-linecap="round" stroke-linejoin="round"/>
<path d="M78.7048 185.854L104.435 178.694" stroke="#2E1E00" stroke-miterlimit="10" stroke-linecap="round" stroke-linejoin="round"/>
<path d="M78.7048 216.881L109.505 207.865" stroke="#2E1E00" stroke-miterlimit="10" stroke-linecap="round" stroke-linejoin="round"/>
<path d="M204.912 21.5035C204.912 21.5035 199.716 17.0617 202.22 12.8849C204.724 8.70824 209.231 13.4816 209.231 13.4816C209.231 13.4816 213.426 6.98451 217.37 10.432C221.314 13.8794 217.683 18.255 217.683 18.255C217.683 18.255 223.505 18.7854 221.627 22.5643C219.749 26.2769 216.055 24.288 216.055 24.288C216.055 24.288 214.74 32.1111 210.296 29.9233C205.851 27.6029 204.912 21.5035 204.912 21.5035Z" fill="#FEFFFA" stroke="#2E1E00" stroke-miterlimit="10" stroke-linecap="round" stroke-linejoin="round"/>
<path d="M77.5156 40.7297C77.5156 40.7297 82.8995 34.4978 88.2207 40.7297" stroke="#2E1E00" stroke-miterlimit="10" stroke-linecap="round" stroke-linejoin="round"/>
<path d="M59.9241 49.945C59.9241 49.945 65.3079 43.713 70.6291 49.945" stroke="#2E1E00" stroke-miterlimit="10" stroke-linecap="round" stroke-linejoin="round"/>
</svg>
