<svg version="1.2" baseProfile="tiny-ps" xmlns="http://www.w3.org/2000/svg" viewBox="0 0 212 46" width="212" height="46">
	<title>logo-svg</title>
	<style>
		tspan { white-space:pre }
		.shp0 { fill: #5cc2ef } 
		.shp1 { fill: #fcb125 } 
		.shp2 { fill: #518a3f } 
		.shp3 { fill: #d34e9c } 
		.shp4 { fill: #53479d } 
		.shp5 { fill: #ee2a26 } 
		.shp6 { fill: #1d174a } 
		.shp7 { fill: #ffffff } 
		.shp8 { fill: #1d164a } 
	</style>
	<path id="Layer" fill-rule="evenodd" class="shp0" d="M30.31 4.82C48.84 6.93 51.16 17.92 36.17 29.02C26.89 35.88 16.99 31.66 12.23 23.7C11.6 22.64 10.78 21.52 10.35 20.34C4.29 9.79 11.78 2.71 30.31 4.82Z" />
	<path id="Layer" fill-rule="evenodd" class="shp1" d="M17.23 10.72C35.27 6.6 37.79 24.5 29.16 35.72C17.79 50.5 7.07 48.39 4.96 29.86C3.63 18.22 9.96 12.38 17.23 10.72Z" />
	<path id="Layer" fill-rule="evenodd" class="shp2" d="M22.63 31.95C24.35 30.9 25.8 29.88 28.34 28C30.88 26.12 32.24 24.98 33.92 23.08C33.8 25.83 33.07 28.73 31.77 31.46C28.61 32.67 25.49 32.73 22.63 31.95Z" />
	<path id="Layer" fill-rule="evenodd" class="shp3" d="M21.02 2.68C37.17 9.7 43.65 16.79 28.34 28C13.03 39.2 10.12 38.13 2.68 21.02C-4.76 3.92 3.92 -4.76 21.02 2.68Z" />
	<path id="Layer" fill-rule="evenodd" class="shp4" d="M22.62 31.95C16.06 30.17 9.91 22.31 8.52 15.81L8.53 15.84L8.51 15.75L8.51 15.75C7.05 8.81 12.85 4.26 24.88 4.45C35.87 9.83 40.67 15.45 33.92 23.08C32.89 24.97 23.44 32.16 22.62 31.95Z" />
	<path id="Layer" fill-rule="evenodd" class="shp5" d="M22.62 31.95L22.63 31.95C13.37 37.81 9.9 36.28 4.81 25.72C5.02 21.46 6.42 18.18 8.51 15.75C9.88 22.26 16.04 30.16 22.62 31.95Z" />
	<path id="Layer" fill-rule="evenodd" class="shp6" d="M8.51 15.75C10.79 13.1 13.64 11.46 16.92 10.58C26.17 8.09 34.62 12.04 33.92 23.08C32.98 24.81 25.03 30.94 23.03 31.85C22.84 31.93 22.7 31.97 22.63 31.95C16.04 30.16 9.88 22.26 8.51 15.75Z" />
	<path id="Layer" fill-rule="evenodd" class="shp7" d="M26.16 26.13C26.19 26.24 26.2 26.36 26.21 26.48C26.4 28.33 26.8 30.45 23.91 31.75C22.66 32.31 20.94 31.83 19.07 30.68C16.27 28.97 13.2 25.79 11.31 22.77C4.64 12.03 20.23 6.99 25.72 12.79C27.98 15.18 28.36 19.22 26.13 22.09C25.23 23.24 25.8 24.59 26.16 26.13Z" />
	<path id="Layer" fill-rule="evenodd" class="shp8" d="M206.38 26.65C206.38 23.67 205.06 22.2 202.43 22.2C199.83 22.2 198.09 24.37 198.09 26.89L198.09 36.77L192.58 36.77L192.58 17.62L197.62 17.62L197.81 20.06C199.48 17.89 201.57 17.2 203.82 17.2C208.24 17.2 212 19.06 212 26.62L212 36.77L206.38 36.77L206.38 26.65ZM180.61 19.76C181.89 17.93 183.55 17.2 185.72 17.2C187.54 17.2 189.1 17.78 190.41 18.94L188.09 23.36C187.2 22.7 186.15 22.39 185.03 22.39C182.62 22.39 180.57 23.94 180.57 26.81L180.57 36.77L174.99 36.77L174.99 17.66L180.18 17.66L180.61 19.76ZM150.42 27.23C150.42 21.46 154.53 17.2 160.88 17.2C167.28 17.2 171.38 21.46 171.38 27.23C171.38 33.36 167.39 37.39 160.88 37.39C154.37 37.39 150.42 33.36 150.42 27.23ZM165.72 27.23C165.72 24.83 164.25 22.2 160.88 22.2C157.59 22.2 156.07 24.83 156.07 27.23C156.07 29.83 157.47 32.43 160.88 32.43C164.29 32.43 165.72 29.95 165.72 27.23ZM141.74 37.39C136.16 37.39 131.27 34.21 131.27 27.31C131.27 20.88 136.12 17.2 141.7 17.2C144.49 17.2 146.66 17.78 148.63 19.91L145.53 23.44C144.33 22.55 143.13 22.31 141.93 22.31C139.14 22.31 136.89 24.1 136.89 27.31C136.89 30.37 139.22 32.12 141.81 32.12C143.05 32.12 144.76 31.62 145.69 30.68L149.22 34.33C146.89 36.77 144.22 37.39 141.74 37.39ZM107.59 45.22L107.59 17.66L112.59 17.66L112.94 20.1C114.68 17.82 116.86 17.24 119.3 17.24C124.92 17.24 128.75 21.31 128.75 27.24C128.75 33.51 124.84 37.35 119.22 37.35C117.2 37.35 114.88 36.77 113.21 34.91L113.21 45.22L107.59 45.22ZM123.13 27.23C123.13 24.48 121.43 22.31 118.44 22.31C115.92 22.31 113.29 23.59 113.29 27.23C113.29 30.57 115.85 32.23 118.44 32.23C121.35 32.23 123.13 30.14 123.13 27.23ZM83.02 27.23C83.02 21.46 87.13 17.2 93.49 17.2C99.88 17.2 103.99 21.46 103.99 27.23C103.99 33.36 100 37.39 93.49 37.39C86.97 37.39 83.02 33.36 83.02 27.23ZM98.33 27.23C98.33 24.83 96.86 22.2 93.49 22.2C90.19 22.2 88.68 24.83 88.68 27.23C88.68 29.83 90.08 32.43 93.49 32.43C96.9 32.43 98.33 29.95 98.33 27.23ZM64.23 29.09L64.23 36.77L58.18 36.77L58.18 9.64L70.97 9.64C77.94 9.64 81.35 14.1 81.35 19.37C81.35 24.83 77.87 28.98 70.97 29.09L64.23 29.09ZM70.97 23.55C73.87 23.55 75.31 21.65 75.31 19.48C75.31 17.31 73.87 15.38 70.97 15.38L64.22 15.38L64.22 23.55L70.97 23.55Z" />
</svg>