<svg width="1920" height="1245" viewBox="0 0 1920 1245" fill="none" xmlns="http://www.w3.org/2000/svg">
  <path d="M477.101 428.87C477.761 433.046 476.768 437.803 471.449 441.824C465.388 446.4 459.487 451.37 454.733 457.166C451.565 461.029 448.911 465.26 447.057 470.004C445.819 473.143 444.937 476.505 444.496 480.12C443.033 492.054 445.515 512.535 447.186 524.06C440.358 525.049 435.869 529.919 435.869 529.919C423.162 522.121 414.73 522.433 409.29 525.191L409.07 523.824C409.07 523.824 404.771 503.737 406.094 480.943C406.404 475.647 407.018 470.215 408.058 464.851C409.754 456.071 412.601 447.488 417.162 440.039C420.66 434.278 425.194 429.201 430.995 425.251C430.995 425.251 431.261 425.037 431.754 424.663C435.017 422.238 448.332 413.173 462.955 415.37C470.098 416.44 475.993 421.772 477.101 428.87Z" fill="#1AAEE4" />
  <path d="M436.008 530.909C435.792 530.946 435.564 530.907 435.365 530.786C424.866 524.343 416.215 522.764 409.651 526.09C409.387 526.224 409.073 526.226 408.807 526.092C408.543 525.957 408.358 525.707 408.311 525.415L408.088 524.047C408.054 523.889 403.782 503.593 405.104 480.91C405.437 475.201 406.104 469.738 407.088 464.674C408.973 454.922 412.081 446.458 416.328 439.522C420.086 433.334 424.836 428.257 430.449 424.434C430.453 424.428 430.72 424.214 431.178 423.868C434.933 421.075 448.315 412.157 463.134 414.379C470.925 415.551 476.93 421.293 478.081 428.668C478.942 434.105 476.861 438.895 472.064 442.52C467.043 446.309 460.62 451.464 455.477 457.733C452.116 461.827 449.648 465.95 447.933 470.337C446.683 473.502 445.84 476.836 445.422 480.244C443.967 492.124 446.482 512.759 448.113 523.997C448.149 524.242 448.083 524.489 447.937 524.682C447.787 524.88 447.585 525.012 447.322 525.046C440.915 525.959 436.581 530.578 436.539 530.625C436.395 530.778 436.207 530.876 436.008 530.909ZM413.771 522.813C419.942 521.767 427.292 523.781 435.718 528.829C437.074 527.552 440.847 524.414 446.144 523.371C444.502 511.866 442.132 491.799 443.577 480.022C444.014 476.457 444.897 472.974 446.202 469.669C447.986 465.097 450.55 460.811 454.037 456.565C459.306 450.143 465.839 444.898 470.941 441.048C475.221 437.816 477.004 433.747 476.243 428.958C475.218 422.381 469.837 417.258 462.855 416.209C448.751 414.092 435.9 422.666 432.298 425.344C431.83 425.698 431.573 425.905 431.568 425.909C426.113 429.629 421.541 434.515 417.92 440.479C413.787 447.227 410.759 455.483 408.915 465.02C407.947 470.002 407.289 475.387 406.962 481.012C405.654 503.437 409.875 523.504 409.918 523.704L409.952 523.916C411.17 523.406 412.443 523.038 413.771 522.813Z" fill="#010101" />
  <path d="M426.015 474.541L405.853 481.25C406.238 476.122 406.941 470.86 408.082 465.658L426.015 474.541Z" fill="#010101" />
  <path d="M406.931 482.081C406.682 482.124 406.426 482.064 406.221 481.915C405.976 481.735 405.84 481.444 405.858 481.143C406.206 475.564 406.886 470.224 407.88 465.273C407.936 464.99 408.128 464.751 408.396 464.625C408.663 464.5 408.973 464.508 409.231 464.645L426.543 473.789C426.864 473.958 427.05 474.297 427.02 474.653C426.99 475.011 426.745 475.318 426.398 475.436L407.083 482.043C407.033 482.062 406.98 482.073 406.931 482.081ZM409.459 466.826C408.684 470.949 408.128 475.333 407.795 479.89L423.817 474.409L409.459 466.826Z" fill="#010101" />
  <path d="M447.163 437.736L417.164 440.266C420.701 434.595 425.282 429.593 431.129 425.691C431.129 425.691 431.398 425.48 431.894 425.109L447.163 437.736Z" fill="#010101" />
  <path d="M447.392 438.711C447.365 438.716 447.339 438.72 447.311 438.721L417.186 441.243C416.835 441.271 416.5 441.107 416.312 440.815C416.129 440.524 416.129 440.154 416.312 439.858C420.119 433.713 424.92 428.666 430.587 424.861C430.592 424.855 430.861 424.642 431.322 424.298C431.676 424.036 432.164 424.047 432.498 424.325L447.848 437.107C448.137 437.346 448.246 437.732 448.128 438.085C448.021 438.414 447.734 438.653 447.392 438.711ZM418.905 439.261L444.918 437.082L431.856 426.207C431.761 426.278 431.712 426.317 431.711 426.319C426.687 429.695 422.401 434.034 418.905 439.261Z" fill="#010101" />
  <path d="M454.604 457.705C451.385 461.485 448.685 465.624 446.789 470.255L428.63 454.062L454.604 457.705Z" fill="#010101" />
  <path d="M447.363 471.172C447.086 471.219 446.803 471.134 446.596 470.941L428.893 454.484C428.6 454.213 428.518 453.783 428.693 453.424C428.867 453.065 429.254 452.861 429.645 452.923L454.831 456.779C455.152 456.828 455.422 457.047 455.54 457.35C455.657 457.654 455.603 457.996 455.396 458.248C452.125 462.261 449.724 466.302 448.057 470.604C447.95 470.884 447.707 471.093 447.415 471.162C447.397 471.165 447.38 471.169 447.363 471.172ZM432.284 455.163L446.864 468.719C448.383 465.132 450.407 461.712 453.01 458.337L432.284 455.163Z" fill="#010101" />
  <path d="M525.117 478.281C524.904 478.317 524.676 478.273 524.474 478.138C511.606 469.469 503.204 481.275 502.849 481.778C502.554 482.205 501.982 482.291 501.572 481.967C501.164 481.643 501.073 481.035 501.368 480.609C504.692 475.818 513.997 468.799 525.437 476.505C525.868 476.795 526.001 477.398 525.736 477.846C525.592 478.089 525.363 478.239 525.117 478.281Z" fill="#010101" />
  <path d="M458.369 527.12C458.13 527.16 457.88 527.113 457.676 526.97C454.356 524.615 447.756 525.482 447.689 525.491C447.204 525.557 446.762 525.254 446.706 524.811C446.649 524.372 446.995 523.967 447.483 523.894C447.783 523.854 454.897 522.922 458.792 525.684C459.17 525.953 459.23 526.46 458.92 526.815C458.778 526.981 458.579 527.084 458.369 527.12Z" fill="#010101" />
  <path d="M393.931 543.112C393.771 543.139 393.604 543.123 393.44 543.054C392.974 542.862 392.743 542.313 392.926 541.833C397.837 528.964 408.55 524.532 409.003 524.349C409.468 524.164 409.997 524.402 410.184 524.884C410.371 525.365 410.146 525.911 409.68 526.099C409.576 526.142 399.234 530.444 394.621 542.537C394.499 542.851 394.233 543.061 393.931 543.112Z" fill="#010101" />
  <path fill-rule="evenodd" clip-rule="evenodd" d="M925.323 1051.46C1307.89 1024 1668.02 934.565 1992.1 796.167L1981.64 465.13C1756.77 521.75 1519.52 554.447 1274.58 560.103L618.331 1059.8C719.484 1061.59 821.916 1058.88 925.323 1051.46Z" fill="#FFF5CF" />
  <path d="M2077.73 619.86C1778.01 794.854 1435.81 933.466 1062.71 1022.09C678.854 1113.27 299.228 1142.76 -57.9993 1118.08L-132.787 422.642C206.843 501.475 534.994 544.899 922.911 513.613C1316.92 481.837 1688.77 391.111 2022.55 254.79L2077.73 619.86Z" fill="#FFFAEA" />
  <path d="M327.306 572.367L328.471 578.366C308.036 575.475 290.737 592.042 290.737 592.042C259.472 574.417 241.647 595.422 241.647 595.422C230.404 589.868 221.776 589.897 215.378 592.115L215.24 591.359C215.24 591.359 104.497 485.059 129.888 466.514C151.092 451.018 227.005 546.232 227.005 546.232L206.736 448.054L226.032 467.519C226.032 467.519 247.573 453.118 269.665 460.124L281.473 435.388L301.321 533.638C301.321 533.638 341.634 418.727 366.761 426.371C396.831 435.517 327.306 572.367 327.306 572.367Z" fill="#1AAEE4" />
  <path d="M290.355 593.121C290.153 593.155 289.937 593.12 289.749 593.015C259.66 576.098 242.688 595.361 241.979 596.188C241.706 596.509 241.248 596.604 240.868 596.416C231.332 591.719 222.763 590.629 215.398 593.178C215.141 593.267 214.863 593.24 214.631 593.106C214.398 592.97 214.236 592.742 214.188 592.477L214.104 592.017C208.08 586.229 123.268 504.166 125.277 474.589C125.509 471.15 126.895 468.485 129.392 466.663C149.087 452.298 211.739 526.877 225.03 543.142L205.629 449.207C205.547 448.808 205.737 448.402 206.097 448.21C206.454 448.019 206.9 448.085 207.187 448.371L225.891 467.203C229.636 464.925 248.976 454.073 268.753 459.894L280.187 436.002C280.356 435.645 280.737 435.436 281.131 435.486C281.525 435.533 281.843 435.83 281.921 436.217L301.015 530.696C307.828 511.951 342.778 419.397 366.291 426.52C369.247 427.417 371.432 429.477 372.785 432.645C384.416 459.887 331.471 565.178 327.618 572.769L328.719 578.421C328.776 578.714 328.688 579.014 328.482 579.232C328.278 579.448 327.98 579.551 327.683 579.508C308.011 576.738 291.007 592.717 290.837 592.879C290.702 593.01 290.533 593.091 290.355 593.121ZM260.096 584.865C267.967 583.531 278.055 584.483 290.07 591.087C293.055 588.405 308.354 575.624 326.671 577.532L325.754 572.811C325.714 572.61 325.742 572.401 325.836 572.219C326.406 571.103 382.57 460.249 371.094 433.367C369.948 430.685 368.204 429.019 365.758 428.279C358.963 426.219 346.351 433.228 324.842 478.307C311.832 505.575 301.745 534.137 301.644 534.424C301.507 534.813 301.123 535.068 300.71 535.036C300.296 535.007 299.952 534.708 299.871 534.302L280.665 439.282L270.082 461.403C269.884 461.817 269.409 462.022 268.971 461.884C247.625 455.135 226.483 469.001 226.274 469.141C225.906 469.387 225.416 469.337 225.104 469.025L208.065 451.871L227.606 546.485C227.691 546.902 227.481 547.322 227.094 547.505C226.708 547.684 226.248 547.576 225.982 547.246C225.796 547.011 206.852 523.355 185.584 501.896C150.43 466.429 136.218 463.971 130.484 468.151C128.418 469.658 127.318 471.805 127.12 474.715C125.138 503.881 214.697 590.035 215.6 590.901C215.672 590.97 215.73 591.045 215.775 591.129C223.233 588.878 231.733 590.002 241.073 594.473C242.864 592.652 249.451 586.669 260.096 584.865Z" fill="#010101" />
  <path d="M230.17 563.765C229.625 563.857 229.118 563.538 229.035 563.05L226.326 547.067C226.244 546.581 226.617 546.11 227.163 546.018C227.708 545.925 228.215 546.245 228.298 546.733L231.007 562.716C231.089 563.202 230.716 563.672 230.17 563.765Z" fill="#010101" />
  <path d="M304.116 551.233C303.572 551.325 303.063 551.006 302.98 550.518L300.272 534.535C300.189 534.049 300.563 533.579 301.108 533.486C301.654 533.394 302.161 533.713 302.244 534.201L304.952 550.184C305.035 550.67 304.659 551.141 304.116 551.233Z" fill="#010101" />
  <path d="M81.8115 564.321C76.6933 565.188 71.7146 562.342 69.7796 557.604C68.8086 558.093 67.7713 558.431 66.6829 558.616C60.6943 559.631 54.9898 555.558 53.9692 549.536C52.9489 543.515 56.9925 537.787 62.9811 536.772C64.1992 536.566 65.4297 536.568 66.6452 536.778C67.4582 532.227 71.0266 528.621 75.6293 527.841C81.6196 526.826 87.3241 530.898 88.3447 536.921C88.8096 539.664 88.2509 542.396 86.7731 544.716C88.9325 546.418 90.3605 548.816 90.8251 551.557C91.8457 557.58 87.8019 563.306 81.8115 564.321ZM70.1213 555.377C70.2788 555.351 70.4396 555.365 70.5901 555.423C70.858 555.523 71.0628 555.744 71.1431 556.018C72.4626 560.507 76.92 563.301 81.507 562.524C86.5111 561.676 89.8906 556.893 89.038 551.862C88.6064 549.315 87.1794 547.123 85.0193 545.689C84.8087 545.55 84.6665 545.33 84.6244 545.081C84.5819 544.831 84.6439 544.577 84.797 544.378C86.3643 542.314 86.9891 539.772 86.5578 537.227C85.7053 532.196 80.9385 528.794 75.9344 529.642C71.8059 530.341 68.6725 533.762 68.3194 537.96C68.2973 538.228 68.157 538.472 67.9374 538.626C67.7181 538.781 67.4418 538.831 67.1824 538.761C65.8939 538.415 64.5836 538.351 63.2859 538.571C58.2818 539.419 54.9041 544.202 55.7569 549.235C56.6095 554.265 61.3746 557.668 66.3787 556.82C67.602 556.613 68.748 556.17 69.7856 555.508C69.8901 555.442 70.0037 555.397 70.1213 555.377Z" fill="#010101" />
  <path d="M97.739 382.732C95.9589 383.034 94.0836 382.915 92.2533 382.301C86.2845 380.301 83.0379 373.798 85.0176 367.803C85.4224 366.583 86.018 365.456 86.7984 364.44C83.0535 361.475 81.504 356.442 83.026 351.834C85.0038 345.839 91.4718 342.588 97.4406 344.587C100.159 345.497 102.373 347.34 103.766 349.83C106.359 348.677 109.232 348.537 111.949 349.447C117.917 351.446 121.164 357.95 119.184 363.944C117.492 369.066 112.491 372.251 107.248 371.717C107.22 372.846 107.027 373.964 106.668 375.054C105.296 379.209 101.765 382.05 97.739 382.732ZM92.2662 346.014C88.903 346.584 85.9539 348.956 84.8069 352.428C83.4421 356.561 85.0358 361.106 88.6783 363.477C88.9124 363.63 89.0664 363.876 89.1006 364.154C89.1362 364.429 89.0452 364.708 88.8587 364.912C87.92 365.928 87.2269 367.099 86.7988 368.4C85.1453 373.406 87.8571 378.84 92.8433 380.51C97.8293 382.178 103.232 379.464 104.886 374.456C105.29 373.23 105.444 371.964 105.344 370.686C105.321 370.39 105.436 370.102 105.657 369.907C105.879 369.712 106.176 369.63 106.467 369.692C111.186 370.667 115.886 367.939 117.403 363.346C119.056 358.339 116.344 352.904 111.358 351.234C108.834 350.388 106.151 350.629 103.8 351.913C103.572 352.037 103.302 352.062 103.056 351.978C102.81 351.897 102.607 351.713 102.499 351.476C101.381 349.03 99.3754 347.22 96.8517 346.374C95.3205 345.861 93.7543 345.762 92.2662 346.014Z" fill="#010101" />
  <path d="M325.228 417.482C320.493 418.284 315.813 416.351 313.061 412.598C311.246 415.927 307.965 418.302 304.148 418.949C297.36 420.099 290.913 415.576 289.776 408.866C289.13 405.059 290.307 401.235 292.941 398.423C290.775 396.692 289.352 394.284 288.886 391.535C287.841 385.368 292.066 379.489 298.304 378.431C301.224 377.937 304.227 378.593 306.669 380.234C308.399 378.746 310.487 377.764 312.754 377.38C319.541 376.23 325.988 380.753 327.126 387.465C327.467 389.478 327.298 391.526 326.638 393.451C331.195 394.747 334.684 398.553 335.476 403.225C336.612 409.939 332.016 416.331 325.228 417.482ZM312.776 409.724C312.808 409.718 312.837 409.715 312.872 409.713C313.238 409.687 313.589 409.88 313.759 410.205C315.891 414.236 320.374 416.429 324.918 415.659C330.686 414.682 334.596 409.246 333.629 403.54C332.904 399.263 329.517 395.835 325.198 395.017C324.921 394.962 324.68 394.787 324.548 394.539C324.416 394.291 324.408 393.995 324.522 393.737C325.358 391.857 325.621 389.796 325.279 387.779C324.312 382.073 318.829 378.227 313.059 379.205C310.908 379.57 308.948 380.566 307.388 382.088C307.052 382.417 306.521 382.446 306.153 382.158C304.021 380.497 301.272 379.803 298.609 380.255C293.387 381.14 289.851 386.06 290.726 391.223C291.168 393.834 292.649 396.079 294.893 397.544C295.134 397.701 295.288 397.96 295.309 398.247C295.33 398.532 295.216 398.811 295.002 399.003C292.28 401.432 291.014 405.004 291.616 408.554C292.583 414.26 298.065 418.105 303.835 417.127C307.592 416.49 310.743 413.882 312.052 410.324C312.17 410.006 312.45 409.779 312.776 409.724Z" fill="#010101" />
  <path d="M268.574 559.883C269.919 560.648 271.565 560.886 273.162 560.397C276.224 559.459 277.949 556.235 277.014 553.196C276.226 550.634 273.799 549.029 271.223 549.145C271.329 548.351 271.275 547.526 271.022 546.712C270.089 543.674 266.847 541.967 263.783 542.904C260.721 543.842 258.996 547.064 259.932 550.105C260.165 550.864 260.543 551.54 261.024 552.113C258.376 553.278 256.956 556.25 257.823 559.065C258.759 562.104 262 563.809 265.064 562.872C266.665 562.383 267.894 561.267 268.574 559.883Z" fill="white" />
  <path d="M264.456 564.04C262.994 564.287 261.499 564.051 260.168 563.352C258.571 562.513 257.4 561.103 256.871 559.387C255.982 556.495 257.153 553.413 259.626 551.796C259.36 551.348 259.149 550.865 258.992 550.358C258.464 548.64 258.641 546.822 259.49 545.231C260.338 543.643 261.758 542.476 263.486 541.949C267.061 540.853 270.848 542.852 271.939 546.396C272.125 546.994 272.221 547.607 272.231 548.227C274.89 548.504 277.175 550.33 277.973 552.929C278.503 554.647 278.324 556.466 277.476 558.054C276.628 559.641 275.207 560.809 273.479 561.339C271.997 561.792 270.389 561.718 268.957 561.143C268.093 562.421 266.808 563.38 265.324 563.834C265.036 563.921 264.747 563.99 264.456 564.04ZM264.66 543.565C264.449 543.601 264.238 543.651 264.03 543.713C262.776 544.098 261.747 544.942 261.13 546.094C260.513 547.247 260.386 548.566 260.769 549.813C260.963 550.44 261.274 551.014 261.697 551.512C261.883 551.736 261.955 552.032 261.886 552.314C261.821 552.597 261.626 552.835 261.357 552.951C259.086 553.951 257.922 556.483 258.648 558.843C259.033 560.087 259.881 561.109 261.038 561.72C262.196 562.327 263.523 562.455 264.78 562.068C266.091 561.667 267.145 560.768 267.75 559.536C267.864 559.304 268.067 559.132 268.315 559.056C268.561 558.981 268.827 559.009 269.052 559.138C270.248 559.818 271.625 559.976 272.937 559.574C275.526 558.782 276.99 556.046 276.198 553.473C275.545 551.354 273.528 549.94 271.294 550.04C271.02 550.052 270.754 549.944 270.57 549.744C270.383 549.543 270.298 549.271 270.332 548.999C270.424 548.3 270.368 547.605 270.164 546.94C269.779 545.693 268.933 544.672 267.775 544.063C266.805 543.555 265.721 543.385 264.66 543.565Z" fill="#010101" />
  <path d="M289.947 479.593L274.172 482.267L291.295 489.507L289.947 479.593Z" fill="#010101" />
  <path d="M291.532 490.482C291.373 490.509 291.207 490.494 291.05 490.436L273.924 484.044C273.533 483.9 273.289 483.51 273.332 483.098C273.372 482.685 273.688 482.349 274.098 482.279L290.019 479.581C290.268 479.539 290.52 479.601 290.725 479.748C290.926 479.894 291.056 480.117 291.091 480.365L292.295 489.453C292.339 489.774 292.209 490.093 291.952 490.293C291.827 490.392 291.684 490.456 291.532 490.482ZM277.776 483.517L290.259 488.179L289.381 481.551L277.776 483.517Z" fill="#010101" />
  <path d="M294.608 501.117L292.627 491.31L279.27 494.399L294.608 501.117Z" fill="#010101" />
  <path d="M294.838 502.093C294.661 502.122 294.478 502.102 294.306 502.025L278.819 495.209C278.451 495.046 278.228 494.664 278.265 494.265C278.302 493.866 278.593 493.535 278.984 493.443L292.466 490.326C292.718 490.265 292.97 490.312 293.182 490.448C293.395 490.584 293.542 490.802 293.592 491.05L295.6 500.986C295.669 501.328 295.542 501.682 295.271 501.9C295.141 502.001 294.993 502.066 294.838 502.093ZM282.14 494.628L293.411 499.591L291.949 492.359L282.14 494.628Z" fill="#010101" />
  <path d="M252.381 479.367C252.704 481.272 250.758 483.192 248.036 483.653C245.314 484.115 242.844 482.943 242.521 481.038C242.198 479.133 244.144 477.213 246.866 476.752C249.588 476.29 252.057 477.46 252.381 479.367Z" fill="#010101" />
  <path d="M256.978 489.238C256.529 489.314 256.084 488.984 255.955 488.467C255.821 487.926 256.093 487.381 256.562 487.249C256.778 487.189 261.803 485.707 260.749 479.488C260.655 478.935 260.968 478.419 261.451 478.337C261.934 478.255 262.4 478.639 262.493 479.192C263.589 485.656 259.416 488.577 257.054 489.219C257.03 489.229 257.003 489.233 256.978 489.238Z" fill="#010101" />
  <path d="M228.047 486.027C227.91 486.05 227.765 486.035 227.619 485.978C227.142 485.782 226.866 485.18 227.004 484.627C227.057 484.418 228.366 479.449 233.91 477.938C234.387 477.799 234.889 478.164 235.028 478.733C235.165 479.304 234.889 479.87 234.411 480.001C229.812 481.256 228.746 485.289 228.739 485.328C228.641 485.715 228.367 485.972 228.047 486.027Z" fill="#010101" />
  <path d="M270.046 475.866C269.692 475.926 269.322 475.81 269.095 475.534C268.98 475.399 266.569 472.616 261.376 473.096C260.826 473.146 260.349 472.782 260.311 472.278C260.271 471.777 260.678 471.324 261.234 471.278C267.58 470.693 270.573 474.255 270.695 474.406C271.023 474.803 270.926 475.377 270.482 475.69C270.351 475.781 270.202 475.84 270.046 475.866Z" fill="#010101" />
  <path d="M274.677 467.659C274.429 469.093 271.261 469.994 267.599 469.67C263.936 469.347 261.168 467.926 261.417 466.494C261.667 465.059 264.837 464.16 268.497 464.482C272.16 464.805 274.928 466.228 274.677 467.659Z" fill="#010101" />
  <path d="M222.672 477.265C223.419 478.761 226.717 478.626 230.042 476.963C233.368 475.3 235.459 472.738 234.714 471.242C233.969 469.744 230.67 469.88 227.344 471.544C224.018 473.207 221.926 475.769 222.672 477.265Z" fill="#010101" />
  <path d="M216.669 496.069L232.444 493.395L218.495 504.888L216.669 496.069Z" fill="#010101" />
  <path d="M218.593 505.885C218.443 505.911 218.285 505.9 218.134 505.848C217.825 505.742 217.598 505.485 217.532 505.168L215.676 496.187C215.625 495.943 215.677 495.69 215.82 495.483C215.963 495.275 216.181 495.137 216.43 495.095L232.349 492.397C232.763 492.327 233.169 492.541 233.344 492.917C233.52 493.293 233.418 493.739 233.098 494.006L219.031 505.685C218.904 505.79 218.752 505.858 218.593 505.885ZM217.682 496.745L219.036 503.291L229.286 494.778L217.682 496.745Z" fill="#010101" />
  <path d="M218.674 507.9L231.492 505.728L220.918 516.648L218.674 507.9Z" fill="#010101" />
  <path d="M221.015 517.646C220.887 517.668 220.75 517.659 220.618 517.621C220.299 517.529 220.05 517.269 219.965 516.936L217.698 508.106C217.633 507.847 217.673 507.572 217.812 507.347C217.949 507.123 218.175 506.971 218.428 506.928L231.403 504.729C231.799 504.662 232.193 504.869 232.379 505.239C232.565 505.609 232.498 506.059 232.217 506.351L221.509 517.38C221.374 517.525 221.201 517.614 221.015 517.646ZM219.738 508.646L221.333 514.858L228.862 507.1L219.738 508.646Z" fill="#010101" />
  <path d="M261.898 536.074C240.098 539.768 224.6 533.122 224.369 533.019C223.904 532.814 223.688 532.263 223.887 531.791C224.087 531.319 224.624 531.101 225.089 531.308C225.428 531.457 259.339 545.946 297.327 519.004C297.744 518.711 298.313 518.815 298.605 519.24C298.896 519.663 298.795 520.245 298.382 520.539C285.392 529.753 272.849 534.218 261.898 536.074Z" fill="#010101" />
  <path d="M265.297 543.612C264.753 543.704 264.244 543.387 264.162 542.901L262.956 535.784C262.874 535.3 263.248 534.831 263.793 534.739C264.338 534.646 264.845 534.964 264.928 535.45L266.134 542.567C266.216 543.051 265.84 543.52 265.297 543.612Z" fill="#010101" />
  <path d="M357.146 459.077C356.33 459.215 355.507 459.156 354.733 458.868C351.893 457.812 350.763 454.074 352.209 450.533C353.656 446.994 357.145 444.973 359.984 446.027C362.823 447.083 363.954 450.822 362.508 454.364C361.453 456.938 359.322 458.708 357.146 459.077ZM357.82 447.53C356.274 447.792 354.698 449.172 353.888 451.158C352.807 453.8 353.486 456.528 355.399 457.239C357.31 457.95 359.748 456.382 360.83 453.739C361.91 451.097 361.229 448.37 359.318 447.657C358.839 447.479 358.332 447.444 357.82 447.53ZM361.667 454.049L361.675 454.048L361.667 454.049Z" fill="#010101" />
  <path d="M366.218 444.724C366.549 445.769 367.44 446.346 368.209 446.011C368.978 445.677 369.335 444.558 369.004 443.513C368.672 442.466 367.782 441.891 367.013 442.225C366.244 442.562 365.887 443.68 366.218 444.724Z" fill="#010101" />
  <path d="M361.113 438.49C361.494 439.526 362.642 440.059 363.679 439.679C364.715 439.298 365.247 438.151 364.868 437.114C364.487 436.076 363.342 435.544 362.303 435.923C361.266 436.304 360.732 437.451 361.113 438.49Z" fill="#010101" />
  <path d="M353.453 441.217C353.739 441.996 354.599 442.394 355.376 442.108C356.154 441.823 356.554 440.962 356.269 440.185C355.983 439.406 355.124 439.008 354.345 439.292C353.567 439.578 353.167 440.44 353.453 441.217Z" fill="#010101" />
  <path d="M149.132 493.315C148.334 493.45 147.473 493.42 146.585 493.218C144.838 492.819 143.178 491.789 141.913 490.314C139.234 487.194 139.159 483.004 141.751 480.976C144.341 478.951 148.624 479.839 151.303 482.96C153.983 486.081 154.057 490.27 151.466 492.299C150.794 492.826 149.998 493.168 149.132 493.315ZM144.419 481.794C143.887 481.884 143.398 482.088 142.984 482.413C141.239 483.78 141.447 486.785 143.445 489.116C144.446 490.281 145.735 491.092 147.074 491.397C148.31 491.679 149.431 491.489 150.235 490.859C151.98 489.494 151.772 486.487 149.773 484.156C148.25 482.384 146.118 481.506 144.419 481.794Z" fill="#010101" />
  <path d="M144.113 474.812C144.93 474.945 145.701 474.391 145.834 473.574C145.967 472.755 145.411 471.985 144.594 471.852C143.777 471.719 143.006 472.275 142.873 473.092C142.741 473.909 143.296 474.681 144.113 474.812Z" fill="#010101" />
  <path d="M136.226 476.149C137.042 476.282 137.813 475.726 137.946 474.909C138.079 474.093 137.523 473.321 136.707 473.189C135.89 473.056 135.119 473.613 134.986 474.428C134.853 475.247 135.409 476.018 136.226 476.149Z" fill="#010101" />
  <path d="M134.605 484.538C135.423 484.671 136.192 484.115 136.325 483.3C136.458 482.481 135.904 481.71 135.086 481.578C134.268 481.445 133.5 482 133.366 482.818C133.231 483.635 133.787 484.407 134.605 484.538Z" fill="#010101" />
  <path d="M217.915 392.055C217.702 392.091 217.473 392.048 217.272 391.912C204.436 383.265 195.999 395.048 195.647 395.554C195.35 395.98 194.778 396.064 194.369 395.74C193.961 395.416 193.871 394.809 194.166 394.383C197.489 389.592 206.793 382.573 218.235 390.279C218.666 390.569 218.798 391.17 218.534 391.62C218.39 391.863 218.161 392.013 217.915 392.055Z" fill="#010101" />
  <path d="M588.239 529.414C588.066 529.271 587.943 529.062 587.912 528.818C585.789 513.158 571.034 514.149 570.407 514.197C569.879 514.239 569.427 513.845 569.395 513.314C569.365 512.785 569.768 512.322 570.295 512.279C576.22 511.792 587.921 514.561 589.815 528.517C589.886 529.044 589.518 529.538 588.995 529.619C588.71 529.665 588.441 529.583 588.239 529.414Z" fill="#010101" />
  <path d="M574.758 599.693C569.743 600.543 564.99 597.259 564.161 592.369C564.106 592.046 564.07 591.72 564.049 591.391C560.51 590.621 557.802 587.861 557.2 584.306C556.389 579.523 559.72 574.955 564.628 574.123C565.235 574.02 565.862 573.98 566.497 574.005C567.859 572.27 569.794 571.121 572.007 570.746C576.787 569.936 581.32 573.067 582.11 577.729C582.225 578.405 582.252 579.095 582.193 579.787C583.905 580.384 585.182 581.842 585.486 583.636C585.882 585.975 584.507 588.251 582.321 589.119C582.332 589.176 582.344 589.231 582.353 589.287C583.182 594.176 579.774 598.843 574.758 599.693ZM564.938 575.955C561.067 576.611 558.441 580.214 559.08 583.985C559.592 587.003 562.021 589.293 565.124 589.684C565.608 589.747 565.963 590.153 565.947 590.632C565.931 591.111 565.963 591.585 566.042 592.05C566.699 595.93 570.469 598.536 574.449 597.861C578.429 597.187 581.134 593.485 580.476 589.604C580.426 589.311 580.351 589.03 580.268 588.752C580.192 588.501 580.229 588.226 580.373 588.003C580.516 587.778 580.748 587.62 581.012 587.57C582.729 587.252 583.894 585.63 583.61 583.954C583.388 582.64 582.332 581.613 580.986 581.396C580.736 581.357 580.515 581.221 580.368 581.019C580.222 580.818 580.166 580.565 580.211 580.324C580.354 579.554 580.36 578.788 580.235 578.047C579.616 574.396 576.065 571.944 572.323 572.578C570.446 572.896 568.823 573.928 567.749 575.482C567.552 575.771 567.211 575.929 566.859 575.896C566.201 575.832 565.555 575.851 564.938 575.955Z" fill="#010101" />
  <path d="M198.29 609.738C198.092 609.771 197.881 609.734 197.693 609.62C197.267 609.356 197.122 608.789 197.366 608.349C205.572 593.63 215.301 591.649 215.711 591.572C216.195 591.477 216.659 591.815 216.753 592.32C216.846 592.821 216.533 593.304 216.053 593.394C215.923 593.42 206.659 595.388 198.908 609.294C198.769 609.542 198.54 609.695 198.29 609.738Z" fill="#010101" />
  <path d="M344.079 589.088C343.73 589.147 343.361 588.999 343.151 588.678C338.283 581.248 327.91 579.517 327.807 579.499C327.301 579.421 326.952 578.938 327.03 578.43C327.108 577.917 327.579 577.566 328.082 577.649C328.539 577.719 339.363 579.512 344.691 587.647C344.975 588.079 344.859 588.659 344.433 588.947C344.324 589.021 344.203 589.067 344.079 589.088Z" fill="#010101" />
</svg>