<svg width="69" height="60" viewBox="0 0 69 60" fill="none" xmlns="http://www.w3.org/2000/svg">
<path d="M51.9403 18.3383C50.6866 17.6261 49.0746 17.6261 47.6418 18.3383L37.6119 24.2136L30.806 27.9525L20.9552 33.8279C19.7015 34.5401 18.0896 34.5401 16.6567 33.8279L8.95522 29.1988C7.70149 28.4866 6.80597 27.0623 6.80597 25.4599V16.5579C6.80597 15.1335 7.52239 13.7092 8.95522 12.819L16.6567 8.36795C17.9104 7.65579 19.5224 7.65579 20.9552 8.36795L28.6567 12.997C29.9104 13.7092 30.806 15.1335 30.806 16.7359V22.6113L37.6119 18.6944V12.6409C37.6119 11.2166 36.8955 9.79228 35.4627 8.90208L21.1343 0.534125C19.8806 -0.178042 18.2687 -0.178042 16.8358 0.534125L2.14925 9.08012C0.716418 9.79228 0 11.2166 0 12.6409V29.3769C0 30.8012 0.716418 32.2255 2.14925 33.1157L16.6567 41.4837C17.9104 42.1958 19.5224 42.1958 20.9552 41.4837L30.806 35.7864L37.6119 31.8694L47.4627 26.1721C48.7164 25.4599 50.3284 25.4599 51.7612 26.1721L59.4627 30.6231C60.7164 31.3353 61.6119 32.7596 61.6119 34.362V43.2641C61.6119 44.6884 60.8955 46.1128 59.4627 47.003L51.9403 51.454C50.6866 52.1662 49.0746 52.1662 47.6418 51.454L39.9403 47.003C38.6866 46.2908 37.791 44.8665 37.791 43.2641V37.5668L30.9851 41.4837V47.3591C30.9851 48.7834 31.7015 50.2077 33.1343 51.0979L47.6418 59.4659C48.8955 60.178 50.5075 60.178 51.9403 59.4659L66.4478 51.0979C67.7015 50.3858 68.597 48.9614 68.597 47.3591V30.4451C68.597 29.0208 67.8806 27.5964 66.4478 26.7062L51.9403 18.3383Z" fill="#8247E5"/>
</svg>
