<svg width="229" height="356" viewBox="0 0 229 356" fill="none" xmlns="http://www.w3.org/2000/svg">
<path d="M94.8351 182.048C92.505 188.703 90.3867 195.433 88.4802 202.238C85.444 213.23 82.902 224.372 80.7838 235.663L46.1145 169.112C46.1145 169.112 43.7137 161.56 29.3093 151.689C14.8344 141.819 21.4011 109.44 45.1259 109.216C63.1313 109.066 85.3734 158.568 94.8351 182.048Z" fill="#73B7EA" stroke="#2E1E00" stroke-miterlimit="10" stroke-linecap="round" stroke-linejoin="round"/>
<path d="M9.75058 202.313C9.75058 202.313 4.73727 181.525 22.884 184.665C22.884 184.665 15.1169 153.409 36.9353 151.839C58.7537 150.268 56.0705 178.085 56.0705 178.085C56.0705 178.085 62.5665 174.944 64.7554 179.805C66.9443 184.665 64.6142 189.376 64.6142 189.376C64.6142 189.376 73.4405 194.012 69.2039 202.387H9.75058V202.313Z" fill="#FEFFFA" stroke="#2E1E00" stroke-miterlimit="10" stroke-linecap="round" stroke-linejoin="round"/>
<path d="M165.304 346.332C165.233 354.483 165.304 362.633 165.515 370.784C166.292 395.46 166.08 420.286 162.479 444.738C161.349 452.664 159.514 476.294 148.357 476.294C121.737 476.294 125.903 347.603 125.903 347.603H114.606C114.606 347.603 111.64 476.294 89.3982 476.294H89.1864C80.4308 476.069 77.1828 462.983 75.5587 455.954C68.3566 424.922 70.9691 389.927 71.6046 358.446C71.9577 336.836 72.3813 315.3 73.7935 293.69C75.0645 274.248 77.2534 254.731 80.7839 235.588C82.8315 224.372 85.3735 213.155 88.4803 202.163C90.3868 195.358 92.5051 188.629 94.8352 181.973C99.4248 169.037 104.862 156.4 111.499 144.511C117.501 133.743 124.421 123.424 132.682 114.525C133.459 113.628 141.932 106.973 141.932 105.926L143.697 130.453C165.304 133.294 171.729 151.166 171.729 151.166C186.486 143.165 201.738 143.165 201.738 143.165C185.639 161.26 173.989 244.561 168.622 290.923C168.34 293.316 168.128 295.783 167.916 298.176C167.704 300.345 167.563 302.438 167.351 304.607C177.166 301.765 192.7 294.363 199.196 275.444C209.081 246.655 186.557 215.025 206.116 208.893C227.228 202.387 256.672 312.533 165.304 346.332Z" fill="#73B7EA" stroke="#2E1E00" stroke-miterlimit="10" stroke-linecap="round" stroke-linejoin="round"/>
<path d="M114.747 347.529C109.522 346.856 104.438 344.986 99.9896 341.92L114.747 347.529Z" fill="#FFDC38"/>
<path d="M114.747 347.529C109.522 346.856 104.438 344.986 99.9896 341.92" stroke="#2E1E00" stroke-miterlimit="10" stroke-linecap="round" stroke-linejoin="round"/>
<path d="M167.281 304.756L165.304 346.332" stroke="#2E1E00" stroke-miterlimit="10" stroke-linecap="round" stroke-linejoin="round"/>
<path d="M86.2913 210.538C86.2913 210.538 113.9 246.356 178.013 223.699" stroke="#FEFFFA" stroke-miterlimit="10" stroke-linecap="round" stroke-linejoin="round"/>
<path d="M185.922 184.217L156.619 186.684L182.744 198.35L185.922 184.217Z" fill="#2E1E00" stroke="#2E1E00" stroke-miterlimit="10" stroke-linecap="round" stroke-linejoin="round"/>
<path d="M181.402 205.154H162.62L179.425 215.623L181.402 205.154Z" fill="#2E1E00" stroke="#2E1E00" stroke-miterlimit="10" stroke-linecap="round" stroke-linejoin="round"/>
<path d="M111.923 181.226C111.923 181.226 122.867 183.992 125.197 173.449" stroke="#2E1E00" stroke-miterlimit="10" stroke-linecap="round" stroke-linejoin="round"/>
<path d="M150.824 165.251C153.492 163.62 153.584 158.5 151.03 153.815C148.476 149.13 144.242 146.654 141.574 148.285C138.906 149.917 138.814 155.037 141.368 159.722C143.923 164.407 148.156 166.883 150.824 165.251Z" fill="#2E1E00"/>
<path d="M113.9 147.011C118.847 145.663 122.236 142.009 121.469 138.849C120.701 135.689 116.068 134.22 111.121 135.568C106.173 136.916 102.784 140.57 103.552 143.729C104.319 146.889 108.952 148.358 113.9 147.011Z" fill="#2E1E00"/>
<path d="M110.934 172.776C112.923 172.776 114.535 171.069 114.535 168.962C114.535 166.856 112.923 165.149 110.934 165.149C108.945 165.149 107.333 166.856 107.333 168.962C107.333 171.069 108.945 172.776 110.934 172.776Z" fill="#2E1E00"/>
<path d="M134.871 168.215C136.392 168.215 137.625 166.909 137.625 165.298C137.625 163.688 136.392 162.382 134.871 162.382C133.35 162.382 132.117 163.688 132.117 165.298C132.117 166.909 133.35 168.215 134.871 168.215Z" fill="#2E1E00"/>
<path d="M110.934 158.269C112.455 158.269 113.688 156.964 113.688 155.353C113.688 153.743 112.455 152.437 110.934 152.437C109.413 152.437 108.18 153.743 108.18 155.353C108.18 156.964 109.413 158.269 110.934 158.269Z" fill="#2E1E00"/>
<path d="M92.7168 230.204L95.8943 220.857" stroke="#FEFFFA" stroke-miterlimit="10" stroke-linecap="round" stroke-linejoin="round"/>
<path d="M69.2743 202.313L66.7324 245.459L14.6931 247.627L13.3515 238.878L9.82104 202.313H69.2743Z" fill="#FDEAA7" stroke="#2E1E00" stroke-miterlimit="10" stroke-linecap="round" stroke-linejoin="round"/>
<path d="M29.3093 151.689C29.3093 151.689 44.1373 161.036 51.2689 138.155L29.3093 151.689Z" fill="#73B7EA"/>
<path d="M29.3093 151.689C29.3093 151.689 44.1373 161.036 51.2689 138.155" stroke="#2E1E00" stroke-miterlimit="10" stroke-linecap="round" stroke-linejoin="round"/>
<path d="M164.386 14.3995C164.386 14.3995 170.246 9.38946 167.422 4.67855C164.597 -0.0323645 159.513 5.35153 159.513 5.35153C159.513 5.35153 154.783 -1.97654 150.334 1.91184C145.886 5.80021 149.981 10.7354 149.981 10.7354C149.981 10.7354 143.414 11.3337 145.533 15.5959C147.651 19.7834 151.817 17.5401 151.817 17.5401C151.817 17.5401 153.3 26.3637 158.313 23.8961C163.326 21.2789 164.386 14.3995 164.386 14.3995Z" fill="#FEFFFA" stroke="#2E1E00" stroke-miterlimit="10" stroke-linecap="round" stroke-linejoin="round"/>
<path d="M91.7283 87.0074C91.7283 87.0074 102.249 82.1469 98.1537 75.0431C94.0584 67.9393 88.2684 73.7719 88.2684 73.7719C88.2684 73.7719 84.0318 66.8177 80.0777 69.9583C76.1942 73.0989 78.1712 92.0922 91.7283 87.0074Z" fill="#FEFFFA" stroke="#2E1E00" stroke-miterlimit="10" stroke-linecap="round" stroke-linejoin="round"/>
<path d="M42.3015 191.246C42.3015 191.246 48.3739 184.217 54.3757 191.246" stroke="#2E1E00" stroke-miterlimit="10" stroke-linecap="round" stroke-linejoin="round"/>
<path d="M31.7806 168.439C31.7806 168.439 37.853 161.41 43.8549 168.439" stroke="#2E1E00" stroke-miterlimit="10" stroke-linecap="round" stroke-linejoin="round"/>
<path d="M102.743 242.617C104.367 244.337 104.367 247.104 102.743 248.749C101.331 250.244 99.0716 250.394 97.4476 249.198C97.2357 249.721 96.9533 250.17 96.6003 250.544C94.9763 252.263 92.3637 252.263 90.8102 250.544C89.8923 249.571 89.4687 248.151 89.6805 246.879C89.3981 246.954 89.1156 246.954 88.7625 246.954C86.503 246.954 84.6672 245.01 84.6672 242.617C84.6672 240.224 86.503 238.28 88.7625 238.28C89.1862 238.28 89.5393 238.355 89.8924 238.43C88.4096 236.71 88.4801 234.093 90.0336 232.448C91.6576 230.728 94.2701 230.728 95.8235 232.448C96.5296 233.195 96.8827 234.093 97.0239 235.065C98.6479 233.495 101.19 233.495 102.743 235.14C104.367 236.859 104.367 239.626 102.743 241.271C102.531 241.496 102.249 241.72 102.037 241.869C102.32 242.169 102.531 242.393 102.743 242.617Z" fill="#FEFFFA" stroke="#2E1E00" stroke-miterlimit="10" stroke-linecap="round" stroke-linejoin="round"/>
<path d="M142.991 242.243L66.7323 245.459L14.6931 247.627L13.3515 238.878C13.3515 238.878 13.3515 238.878 13.3515 238.953C13.069 239.327 9.82098 241.645 9.53855 241.869C1.8421 248.001 -0.841103 256.002 2.26572 264.975C4.94889 272.677 12.363 276.94 19.2827 279.482C20.6243 279.931 21.8952 280.454 23.3074 280.753C35.0992 283.744 47.8795 284.567 60.1656 284.043C63.4137 283.894 66.6617 283.744 69.9098 283.67L141.367 279.482" fill="#73B7EA"/>
<path d="M142.991 242.243L66.7323 245.459L14.6931 247.627L13.3515 238.878C13.3515 238.878 13.3515 238.878 13.3515 238.953C13.069 239.327 9.82098 241.645 9.53855 241.869C1.8421 248.001 -0.841103 256.002 2.26572 264.975C4.94889 272.677 12.363 276.94 19.2827 279.482C20.6243 279.931 21.8952 280.454 23.3074 280.753C35.0992 283.744 47.8795 284.567 60.1656 284.043C63.4137 283.894 66.6617 283.744 69.9098 283.67L141.367 279.482" stroke="#2E1E00" stroke-miterlimit="10" stroke-linecap="round" stroke-linejoin="round"/>
</svg>
