<svg version="1.2" baseProfile="tiny-ps" xmlns="http://www.w3.org/2000/svg" viewBox="0 0 1366 1143" width="1366" height="1143">
	<title>rocket-svg</title>
	<defs>
		<linearGradient id="grd1" gradientUnits="userSpaceOnUse"  x1="1348.27" y1="559.393" x2="1219.17" y2="673.328">
			<stop offset="0" stop-color="#f4af50"  />
			<stop offset="0.892" stop-color="#e9e241" stop-opacity="0" />
		</linearGradient>
		<linearGradient id="grd2" gradientUnits="userSpaceOnUse"  x1="252.859" y1="586.44" x2="-218.401" y2="973.64">
			<stop offset="0" stop-color="#f4af50"  />
			<stop offset="0.892" stop-color="#e9e241" stop-opacity="0" />
		</linearGradient>
		<linearGradient id="grd3" gradientUnits="userSpaceOnUse"  x1="1076.15" y1="113.094" x2="997.688" y2="617.023">
			<stop offset="0" stop-color="#e94622"  />
			<stop offset="1" stop-color="#f15d0a" stop-opacity="0" />
		</linearGradient>
		<linearGradient id="grd4" gradientUnits="userSpaceOnUse"  x1="876.971" y1="83.395" x2="-115.5" y2="1052.5">
			<stop offset="0" stop-color="#f37e2a"  />
			<stop offset="1" stop-color="#e9e241" stop-opacity="0" />
		</linearGradient>
	</defs>
	<style>
		tspan { white-space:pre }
		.shp0 { fill: url(#grd1) } 
		.shp1 { fill: url(#grd2) } 
		.shp2 { fill: #73b7ea;stroke: #2e1e00;stroke-linecap:round;stroke-linejoin:round;stroke-width: 1.5 } 
		.shp3 { fill: #adf0e7;stroke: #2e1e00;stroke-linecap:round;stroke-linejoin:round;stroke-width: 1.5 } 
		.shp4 { fill: none;stroke: #2e1e00;stroke-linecap:round;stroke-linejoin:round;stroke-width: 1.5 } 
		.shp5 { fill: #ffdc38;stroke: #2e1e00;stroke-linecap:round;stroke-linejoin:round;stroke-width: 1.5 } 
		.shp6 { fill: #2e1e00;stroke: #2e1e00;stroke-linecap:round;stroke-linejoin:round;stroke-width: 1.5 } 
		.shp7 { fill: #2e1e00 } 
		.shp8 { opacity: 0.4;fill: #fefffa;stroke: #2e1e00;stroke-linecap:round;stroke-linejoin:round;stroke-width: 1.5 } 
		.shp9 { opacity: 0.149;fill: url(#grd3) } 
		.shp10 { fill: none;stroke: url(#grd4);stroke-linecap:round;stroke-width: 5 } 
		.shp11 { fill: none;stroke: #f37e2a;stroke-linecap:round;stroke-width: 5 } 
		.shp12 { fill: #fefffa } 
		.shp13 { fill: #fefffa;stroke: #2e1e00;stroke-linecap:round;stroke-linejoin:round;stroke-width: 1.5 } 
	</style>
	<path id="Layer" fill-rule="evenodd" class="shp0" d="M1345.61 504.11C1346.54 505.13 1346.46 506.72 1345.44 507.64L1150.46 684.45C1149.44 685.37 1147.86 685.3 1146.93 684.27L1146.93 684.27C1146 683.25 1146.08 681.67 1147.1 680.74L1342.08 503.94C1343.1 503.01 1344.68 503.09 1345.61 504.11L1345.61 504.11Z" />
	<path id="Layer" fill-rule="evenodd" class="shp1" d="M294.09 499.52C294.95 500.6 294.76 502.17 293.68 503.03L-218.75 906.91C-219.83 907.77 -221.4 907.58 -222.26 906.5L-222.26 906.5C-223.11 905.41 -222.93 903.84 -221.84 902.99L290.58 499.1C291.66 498.25 293.24 498.43 294.09 499.52L294.09 499.52Z" />
	<path id="Layer" class="shp2" d="M711.93 403.6L695.47 428.64L645.39 442.45L672.56 393.64L711.93 403.6Z" />
	<path id="Layer" class="shp3" d="M644.12 334.31C644.12 334.31 831.16 173.38 971.69 190.53L971.61 191.06C944.22 334.6 738.66 469.23 738.66 469.23C673.02 422.75 644.12 334.31 644.12 334.31Z" />
	<path id="Layer" class="shp2" d="M589.94 301.4C589.94 301.4 662.11 306.63 688.21 328.14L644.12 334.31C644.12 334.31 623.4 315.88 589.94 301.4Z" />
	<path id="Layer" class="shp2" d="M734.14 464.27L767.28 433.48C766.16 468.02 723.07 528.37 723.07 528.37C734.24 492.58 734.22 464.23 734.14 464.27Z" />
	<path id="Layer" class="shp4" d="M729.54 346.02C732.85 334.22 744.79 327.36 756.21 330.71C767.63 334.05 774.2 346.34 770.89 358.14C767.58 369.95 755.64 376.8 744.22 373.46C732.8 370.11 726.23 357.83 729.54 346.02Z" />
	<path id="Layer" class="shp5" d="M866.16 316.05C860.98 322.21 854.35 326.93 846.93 329.7C842.25 331.48 837.24 332.28 832.3 332.14C828.09 332 821.39 330.79 817.38 329.69C802.41 325.3 789.86 322.24 775.14 316.96C770.14 315.15 764.97 313.23 760.39 310.38C758.3 309.08 754.56 306.54 755.43 303.43C756.84 298.42 761.63 298.86 765.63 299.76C783.71 303.69 801.69 308.48 819.23 314.58C819.29 314.6 819.42 314.63 819.48 314.65C818.82 314.39 817.51 310.3 817.12 309.57C816.22 307.59 815.33 305.54 814.36 303.54C812.15 298.64 809.88 293.72 807.67 288.81C805.22 283.36 802.75 277.97 800.29 272.51L798.12 267.96L802.48 268.96L812.64 271.32C813.7 263.54 827.14 257.04 827.14 257.04L827.15 252.99L827.09 245.63C831.19 246.63 835.13 249.15 838.73 252.68C844.73 258.49 849.98 265.11 854.58 272.15C857.48 276.71 859.99 281.49 862.62 286.31C865.21 291.05 868.15 295.49 870.97 300.09L873.67 305.14C873.69 305.07 871.5 309.58 866.16 316.05Z" />
	<path id="Layer" class="shp4" d="M806.15 284.52L825.8 274.84" />
	<path id="Layer" class="shp6" d="M834.23 275.32C827.96 278.49 821.47 272.54 821.47 272.54L834.85 265.55C834.85 265.55 840.5 272.14 834.23 275.32Z" />
	<path id="Layer" class="shp6" d="M842.48 262.02L853.92 256.03C853.92 256.03 854.56 263.7 849.31 266.56C843.98 269.46 842.48 262.02 842.48 262.02Z" />
	<path id="Layer" class="shp4" d="M837.61 268.48L845.23 264.75" />
	<path id="Layer" class="shp7" d="M842.04 274.93C842.33 273.91 843.36 273.32 844.34 273.61C845.32 273.9 845.89 274.96 845.6 275.97C845.32 276.99 844.29 277.58 843.31 277.29C842.32 277 841.76 275.95 842.04 274.93Z" />
	<path id="Layer" class="shp4" d="M836.43 279.32C836.43 279.32 839.34 284.57 845.06 282.4" />
	<path id="Layer" class="shp6" d="M808.73 290.02L820.57 286.62L812.42 297.69L808.73 290.02Z" />
	<path id="Layer" class="shp6" d="M814.29 301.67L823.03 298.19L816.49 306.15L814.29 301.67Z" />
	<path id="Layer" class="shp7" d="M671.8 395.14L682.21 410.82L662.75 411.57" />
	<path id="Layer" class="shp4" d="M671.8 395.14L682.21 410.82L662.75 411.57" />
	<path id="Layer" class="shp8" d="M794.26 264.43C800.39 242.57 822.51 229.87 843.65 236.07C864.79 242.26 876.96 265.01 870.83 286.87C864.7 308.73 842.59 321.42 821.44 315.23C800.3 309.03 788.13 286.29 794.26 264.43Z" />
	<path id="Layer" class="shp4" d="M794.26 264.43C800.39 242.57 822.51 229.87 843.65 236.07C864.79 242.26 876.96 265.01 870.83 286.87C864.7 308.73 842.59 321.42 821.44 315.23C800.3 309.03 788.13 286.29 794.26 264.43Z" />
	<path id="Layer" class="shp9" d="M1146.14 347.65L1359.48 157.21L796 1051L210 981L1080.79 270.18L1146.14 347.65Z" />
	<path id="Layer" class="shp10" d="M258.5 934.5L1072.15 279.05C1077.63 274.63 1085.62 275.38 1090.19 280.72L1139.1 337.93C1143.89 343.52 1152.36 344.03 1157.78 339.05L1358.09 155.01" />
	<path id="Layer" class="shp11" d="M1343.45 154.86L1358.09 155.01L1357.58 168.59" />
	<path id="Layer" class="shp12" d="M568.92 472.81C568.65 473.28 568.26 473.63 567.73 473.7C567.04 473.86 566.11 473.59 565.02 472.99L564.55 472.7L564.46 473.25C564.28 474.2 563.93 475.49 563.01 476.33C562.3 476.96 561.37 477.19 560.3 477.07C559.95 477 559.65 476.92 559.37 476.79C558.63 476.47 558.25 475.97 558.05 475.63C557.48 474.57 557.65 473.2 557.88 472.23L558.03 471.66L557.43 471.79C556.62 471.94 555.44 471.98 554.52 471.37C553.58 470.71 553.1 469.52 553.13 467.79C553.13 466.56 553.58 465.56 554.41 464.82C556.02 463.43 558.71 463.44 559.8 463.53L560.01 463.54L560.15 463.39C560.31 463.2 560.5 463.03 560.77 462.89C562.37 461.92 564.53 462.13 565.97 463.4C567.93 465.14 567.95 467.79 567.85 468.85L567.85 469.07L568.01 469.18C568.37 469.54 569.88 470.96 568.92 472.81Z" />
	<path id="Layer" class="shp12" d="M496.35 452.03C494.38 451.78 491.52 450.56 491.01 447.04C490.5 443.61 493.65 441.88 495.76 440.77C494.86 439.82 493.85 438.24 493.85 437.12C493.85 435.5 494.79 434.1 495.55 433.27C494.24 432.41 492.88 430.67 493.26 427.79C493.4 426.74 493.92 426.27 494.81 425.84C496.45 425.04 499.02 425.76 500.46 426.08C500.68 423.21 501.68 421.46 505.33 421.14C503.64 418.36 503.17 415.16 505.28 413.24C506.66 411.99 507.2 412.26 508.65 412.58C509.66 412.84 511.15 413.87 512.18 414.69C512.92 413.69 515.13 412.02 516.22 411.67C515.3 410.89 514.15 409.76 513.91 408.41C513.63 406.75 513.92 405.33 514.74 404.23C515.72 402.94 517.2 402.37 518.21 402.12C517.76 400.89 517.77 399.44 518.3 398.13C518.99 396.45 519.96 395.8 521.69 395.51C524.08 395.13 525.58 396.63 526.5 397.62C526.7 397.23 527.46 395.97 527.78 395.6C528.96 394.22 530.25 394 531.72 393.95C533.18 393.93 534.72 394.93 535.56 395.5C536.04 393.82 536.71 392.06 537.5 391.54C538.86 390.66 540.48 390.85 542.34 391.35C542.95 390.36 544.49 388.11 546.59 387.73C548.1 387.48 549.63 388.81 551.13 390.1C551.64 389.46 553.13 387.83 553.71 387.52L553.14 386.59C552.46 385.53 552.09 384.39 553.29 381.56C554 379.9 554.5 379.38 555.82 379.09C557.33 378.75 559.11 379.86 560.11 380.46C560.31 378.96 560.74 376.79 562.62 376.44C564.84 375.97 566.67 377.96 567.53 379.1C567.72 378.96 567.89 378.83 568.11 378.7C569.5 377.93 571.68 378.26 572.7 378.53C572.81 377.85 573.09 376.94 573.77 376.2C574.68 375.18 575.49 374.5 577.26 374.53C580.44 374.56 582.48 377.58 583.36 379.59C584.66 377.7 586.68 376.21 589.07 376.85C591.53 377.52 593.43 379.45 594.56 382.37C595.03 383.65 595.39 385.3 595.53 386.09C596.02 386 596.39 385.51 596.92 385.62C599.17 386.11 601.61 389.55 602.63 391.23C602.91 390.63 603.62 389.3 604.26 388.85C605.18 388.21 605.44 387.68 606.75 388.03C608.66 388.51 609.83 390.12 610.18 392.71C610.28 393.57 610.25 394.97 610.24 395.61C611.48 395.32 613.45 394.54 615 396.02C616.57 397.55 617.08 401.07 617.17 402.69C617.96 402.38 619.14 401.82 620.19 402.18C621.21 402.53 621.73 402.97 622.18 404.2C622.46 404.74 624.26 408.64 621.4 413.33C621.08 413.83 620.73 414.28 620.39 414.61C621.41 415.94 623.38 419.14 621.66 422.05C620.17 424.58 617.91 423.95 616.34 423.62C615.95 425 614.81 428.49 612.8 429.17C613.77 430.96 615.24 434.76 613.38 438.42C612.71 439.75 612.25 440.07 611.06 440.25C609.26 440.5 607.29 438.72 606.32 437.87C605.55 439.04 603.59 441.93 601.64 442.12L601.61 442.11C601.81 443.14 601.73 444.26 601.32 445.37C600.61 447.2 599.15 448.76 597.44 449.4C596.55 449.75 595.89 449.12 595.09 448.78C593.64 448.16 592.9 446.73 592.34 445.97C591.6 446.25 589.87 446.54 589.12 446.44C589.19 447.79 589.46 450.39 588.34 451.92C587.66 452.88 586.68 453.44 585.48 453.57C584.69 453.66 583.97 453.61 583.35 453.51C583.04 454.96 582.03 457.66 578.77 459.05C577.42 459.62 576.17 459.64 575.02 459.11C574.17 458.75 573.59 457.64 573.14 457.02C572.88 457.55 572.47 458.57 571.93 458.98C570.86 459.77 569.45 459.98 567.73 459.54C567.39 459.44 567.06 459.34 566.78 459.22C565.72 458.76 565.52 458.04 565.15 457.11C564.69 455.92 565.08 454.33 565.37 453.43C563.69 453.48 562.13 453.15 561.28 452.19C560.43 451.23 560.3 449.71 560.27 448.76C559.87 448.93 558.87 449.57 558.41 449.68C558.29 449.67 557.29 449.58 557.21 449.59C557.9 451.04 559.14 453.67 558.42 455.85C558 457.08 557.71 458.11 556.37 458.65C554.7 459.31 553.21 459.31 551.96 458.6C550.95 458.04 550.39 456.26 549.96 455.48C549.29 456.43 548.18 458.44 546.79 458.7C546.13 458.8 545.49 458.74 544.82 458.45C544.71 458.41 543.75 458.04 543.64 457.99C543.47 460.45 543.29 463.84 540.13 464.16C539.27 464.26 538.49 464.14 537.82 463.85C537.43 463.68 537.06 463.48 536.73 463.17C535.5 462.13 535.07 460.53 534.91 459.61C533.22 459.39 532.03 458.75 531.37 457.62C530.72 456.48 531.37 454.79 531.56 453.71C531.22 453.83 529.02 454.04 528.68 454.06C528.69 456.08 528.48 458.73 526.67 460.62C525.44 461.93 523.53 462.74 522.01 462.6C521.32 464.31 519.97 469.14 516.47 468.19C516.16 468.14 515.91 468.04 515.66 467.93C513.51 467.01 512.77 465.06 512.66 463.61C511.65 463.64 509.95 463.47 508.72 462.21C507.56 460.99 507.08 459.11 507.4 456.6C506.63 456.26 505.08 455.09 504.29 454.28C503.21 455.4 501.55 458.16 498.88 457.31C498.72 457.29 498.62 457.24 498.47 457.18C496.32 456.26 496.01 453.77 496.35 452.03Z" />
	<path id="Layer" class="shp12" d="M538.27 507.86C536.89 506.28 537.15 503.4 537.18 501.91C536.77 501.99 534.72 502.06 534.2 502C534.43 503.26 534.31 504.88 533.72 506.04C532.72 507.97 531.01 509.42 528.59 509.79C527.77 509.87 527.06 509.78 526.46 509.52C524.8 508.81 524.17 506.19 523.68 504.56C523.04 505.1 521.7 506.37 520.59 506.45C519.31 506.55 517.44 504.84 516.32 503.72C515.24 506.38 513.31 511 509.05 510.59C508.34 510.5 507.7 510.35 507.1 510.09C506.25 509.73 505.57 509.18 505.01 508.42C503.71 506.63 503.68 504.26 503.77 503.14C502.62 502.69 500.24 501.33 499.49 497.58C499.28 496.46 499.49 495.44 500.12 494.51C501.45 492.55 504.43 491.56 506.05 491.14C505.5 490.13 505.26 489 505.3 487.78C505.37 485.88 505.94 484.58 507.03 483.94C508.06 483.35 509.17 484.08 510.02 484.32C510 483.06 510.27 480.57 511.5 479.47C512.57 478.47 514.16 478.34 516.21 479C517.48 479.42 518.97 480.36 520.3 481.44C520.47 481.13 520.74 480.56 520.9 480.28L520.94 480.18C522.47 477.66 524.5 475.19 527.87 475.78C530 476.13 532.48 477.67 534.12 478.93C534.3 478.06 534.52 476.92 535.25 476.15C535.99 475.36 536.41 475.03 537.41 475.11C539.89 475.32 542.57 478.82 543.49 480.12C544.63 479.66 546.85 478.47 549.14 479.97C549.99 480.51 550.51 481.28 550.6 482.18C550.79 483.93 549.51 485.56 549.17 485.98C549.21 485.99 549.19 486.03 549.19 486.03C549.15 488.16 548.58 489.67 547.5 490.49C549.16 492.1 552.5 496.1 551.23 500.35C550.73 501.98 549.9 503 548.71 503.38C547.43 503.78 546.27 502.47 545.34 501.99C545.26 503.41 544.75 506.49 543.52 507.88C542.74 508.79 541.68 509.24 540.47 509.28C539.85 509.27 539.88 508.89 539.39 508.68C538.93 508.49 538.7 508.13 538.27 507.86Z" />
	<path id="Layer" class="shp12" d="M485.37 416.57C484.71 416.67 483.35 417.16 482.32 416.63C481.31 416.07 480.75 415.1 480.83 413.89C480.91 411.87 482.65 409.83 484.99 408.87C487.23 407.94 489.55 408.25 491.68 409.72C492.29 410.15 492.87 410.66 493.42 411.24C495.67 413.66 496.9 417.14 494.68 419.53C493.85 420.46 492.95 420.84 492.01 420.7C491.11 420.57 490.71 419.33 490.26 418.79C489.94 419.17 489.26 420.25 488.71 420.48C488.02 420.74 487.28 420.73 486.51 420.39C486.47 420.38 486.44 420.37 486.4 420.35C485.64 419.98 485.16 419.43 484.91 418.73C484.75 418.19 485.23 417.02 485.37 416.57Z" />
	<path id="Layer" class="shp12" d="M507.55 402.99C507.51 403.7 507.31 404.99 506.51 405.84C505.95 406.41 505.24 406.71 504.42 406.7C504.01 406.7 503.63 406.62 503.34 406.5C502.92 406.31 502.61 406.06 502.43 405.8C501.75 404.92 501.69 403.65 501.76 402.86C500.58 402.61 498.75 401.92 497.97 400.38C497.6 399.67 497.34 398.48 498.18 396.92C498.84 395.7 499.69 394.95 500.75 394.68C502.05 394.33 503.28 394.86 503.81 395.18C505.7 394.61 509.15 394.47 510.47 397.64C510.95 398.79 510.97 399.87 510.48 400.77C509.77 402.1 508.32 402.72 507.55 402.99Z" />
	<path id="Layer" class="shp12" d="M491.05 515.25C490.69 516.42 490.04 517.22 489.11 517.67C487.86 518.29 486.46 517.99 485.69 517.75C485.28 518.34 484.46 519.23 483.36 519.49C482.77 519.62 482.17 519.58 481.57 519.32C481.29 519.2 480.98 519.03 480.69 518.82C479.87 518.21 479.41 517.41 479.26 516.45C479.09 515.04 479.72 513.69 480.12 513.01C479.54 512.2 478.49 510.42 478.92 508.85C479.09 508.24 479.6 507.38 480.94 506.93C484.03 505.86 486.15 507.67 486.93 508.9C487.35 509.08 488.35 509.59 489.27 510.37C490.95 511.82 491.58 513.55 491.05 515.25Z" />
	<path id="Layer" class="shp12" d="M533.91 376.08C534.56 372.76 537.57 372.08 539.35 372.16C539.93 371.55 541.38 370.24 543.28 370.03C544.71 369.88 546.08 370.38 547.37 371.49C548.48 372.43 548.76 373.88 548.14 375.5C547.95 376.06 547.67 376.54 547.44 376.91C547.95 377.47 548.67 378.46 548.72 379.65C548.75 380.3 548.6 381.26 547.65 382.18C545.86 383.94 543.62 383.33 542.25 382.53C541.47 383.64 540.01 384.78 538.25 384.02C536.59 383.31 536.32 381.65 536.49 380.4C535.87 380.31 535.1 380.06 534.53 379.43C533.85 378.67 533.64 377.55 533.91 376.08Z" />
	<path id="Layer" class="shp12" d="M524.05 352.41C523.65 351.25 523.89 350.07 524.64 349.02C526.27 346.85 529.02 347.51 530.48 348.31C532.77 347.67 537.07 347.58 538.86 351.22C539.54 352.58 539.59 353.8 539.05 354.81C538.29 356.28 536.47 356.79 535.53 356.94C535.35 357.81 534.86 359.4 533.66 360.21C533.1 360.57 532.15 360.98 530.8 360.53C530.65 360.5 530.47 360.43 530.29 360.35C527.97 359.36 527.28 357.09 527.23 355.57C526 355.04 524.63 353.94 524.05 352.41Z" />
	<path id="Layer" class="shp12" d="M502.75 365.89C502.63 364.94 502.93 364 503.63 363.1C504.16 362.43 504.85 362.04 505.67 361.96C507.26 361.83 508.93 363.01 509.6 363.6C510.94 363.36 514.35 362.9 515.44 364.69C516.36 366.2 514.66 367.74 513.49 368.78C514.17 369.76 515.21 371.36 514.14 372.79C513.69 373.37 513.11 373.68 512.46 373.74C511.48 373.83 510.39 372.42 509.73 371.92C509.16 372.71 508.21 374.62 506.93 374.84C506.33 374.97 505.75 374.89 505.15 374.63C504.65 374.42 504.15 374.03 503.67 373.57C502.56 372.45 502.05 371.25 502.15 370C502.25 368.85 502.86 367.95 503.37 367.4C503.12 367 502.87 366.5 502.75 365.89Z" />
	<path id="Layer" class="shp12" d="M470.89 437.6C469.76 440.07 467.01 442.02 465.36 441.53C465.25 441.48 465.18 441.45 465.07 441.41C464.54 441.18 464.56 440.63 464.29 440.08C463.79 439.06 464.29 437.43 464.5 436.62C463.85 436.38 462.31 436.11 461.78 435.15C461.28 434.25 461.12 433.33 461.59 432.07C462.02 431.02 462.68 430.31 463.6 429.98C465.8 429.17 468.61 430.8 468.75 430.86L468.78 430.87C471.31 432.6 472.1 435.04 470.89 437.6Z" />
	<path id="Layer" class="shp12" d="M484.91 455.01C485.26 455.88 485.16 456.83 484.58 457.86C483.88 459.06 483.03 459.43 482.42 459.5C481.14 459.69 479.89 458.89 479.17 458.33C478.36 459.31 476.96 460.29 475.41 459.63C475.27 459.57 475.13 459.51 475 459.41C473.38 458.42 474.06 456.23 474.5 454.95C473.75 454.76 472.19 454.74 471.77 453.83C471.41 452.99 471.59 452.04 472.29 450.92C473.98 448.31 476.78 448.65 478.4 449.35C478.43 449.36 478.43 449.36 478.43 449.36C479.07 448.82 480.37 447.96 482.01 448.62C482.5 448.83 482.92 449.23 483.11 449.78C483.51 450.81 482.55 452.58 482.24 453.43C482.94 453.74 484.47 453.96 484.91 455.01Z" />
	<path id="Layer" class="shp12" d="M461.56 481.02C461.6 480.44 461.68 479.31 462.21 478.81C462.57 478.45 463.2 478.12 464.24 478.31C465.27 478.54 465.75 479.09 465.98 479.53C466.45 480.42 466.32 481.43 466.19 482.06C467 482.71 467.44 483.88 467.38 485.14C467.31 486.53 466.63 487.69 465.56 488.09C464.87 488.35 464.23 488.29 463.67 488.05C462.89 487.72 462.23 487 461.87 486.38C461.11 486.31 459.39 485.96 458.44 484.82C457.98 484.24 457.76 483.55 457.83 482.76C457.94 481.69 458.45 481.14 458.88 480.9C459.66 480.42 460.83 480.88 461.56 481.02Z" />
	<path id="Layer" class="shp12" d="M554.48 357.7C554.43 356.69 554.73 355.75 555.42 354.98C557.47 352.6 560.63 353.87 562.41 355.1C564.07 353.97 567.13 352.84 569.61 354.89C570.42 355.54 570.86 356.41 570.9 357.41C570.98 359.46 569.04 361.58 568.15 362.66C569.4 363.84 570.5 365.72 570.17 367.34C569.84 368.87 568.71 369.92 567.09 370.13C564.64 370.45 563 368.59 562.1 367.65C561.57 368.45 560.69 370.08 559.49 370.38C558.8 370.56 558.13 370.48 557.42 370.18C556.93 369.97 556.48 369.65 555.99 369.23C554.92 368.3 554.39 367.17 554.39 365.93C554.42 364.14 556.32 362.51 557.08 361.68C556.34 360.85 554.51 359.34 554.48 357.7Z" />
	<path id="Layer" class="shp12" d="M494.5 474.06L494.39 474.02C493.54 473.65 492.97 473.02 492.65 472.2C492.13 470.82 493.11 468.72 493.46 467.75C492.69 467.42 490.99 467.12 490.54 465.99C490.3 465.45 490.19 464.6 490.76 463.51C491.52 462.16 492.86 461.5 494.69 461.6C495.62 461.65 496.42 461.91 496.82 462.04C497.73 461.74 500.91 460.96 503.35 462.78C504.27 463.48 504.5 464.34 504.52 464.91C504.57 466.3 503.49 467.64 502.76 468.4C503.61 469.27 504.23 470.79 503.14 472.55C502.57 473.45 501.88 473.63 501.41 473.64C500.5 473.64 499.69 472.39 499.14 471.81C498.78 472.39 498.22 473.65 497.41 474.03C496.54 474.43 495.55 474.43 494.51 474.03L494.5 474.06Z" />
	<path id="Layer" class="shp12" d="M527.93 381.31C528.54 381.83 528.93 382.6 528.97 383.52C529.04 384.79 528.57 385.53 528.16 385.91C527.62 386.45 526.87 386.64 526.31 386.7C526.38 387.46 526.29 388.49 525.7 389.22C525.36 389.64 524.71 390.13 523.5 390.04C523.02 390 522.57 389.89 522.18 389.73C520.49 389 519.66 387.28 519.33 386.45C516.84 385.86 515.31 384.94 514.63 383.67C514.14 382.73 514.13 381.65 514.58 380.43C515.61 377.7 518.35 377.59 519.98 377.95C520.93 377.15 523.64 375.06 525.75 376.18C526.37 376.49 526.78 377.01 526.89 377.65C527.06 378.67 525.95 379.86 525.45 380.68C526.08 380.77 527.37 380.86 527.93 381.31Z" />
	<path id="Layer" class="shp12" d="M514.34 518.25C514.25 517.44 513.58 515.44 514.46 514.19C514.87 513.59 515.53 513.19 516.27 513.08C517.33 512.93 517.99 513.35 518.34 513.71C519 514.42 518.76 516.12 518.76 516.93C519.36 516.89 520.5 516.22 521.11 516.65C521.53 516.96 522.01 517.51 522.06 518.6C522.11 519.7 521.69 520.33 521.33 520.69C520.6 521.36 519.48 520.97 518.85 521C518.41 521.97 517.57 523.23 516.3 523.5C515.53 523.64 514.77 523.58 514.17 523.32C513.68 523.11 513.28 522.76 513 522.34C511.95 520.74 513.5 519.18 514.34 518.25Z" />
	<path id="Layer" class="shp12" d="M452.4 522.54C451.24 523.84 448.59 523.65 447.64 523.54C447.12 523.91 445.81 524.77 444.4 524.59C444.12 524.56 443.86 524.49 443.61 524.38C443.05 524.14 442.52 523.7 442.11 523.1C441.58 522.36 441.46 521.53 441.67 520.72C442.1 519.06 444.18 517.81 445.12 517.32C444.96 516.7 444.65 515.75 445.09 514.95C445.36 514.51 445.86 513.99 446.91 513.85C448 513.71 448.68 514.09 449.07 514.43C449.75 515.02 449.97 515.89 450.07 516.45C450.8 516.8 452.24 517.84 452.85 520.42C453.12 521.48 452.76 522.14 452.4 522.54Z" />
	<path id="Layer" class="shp12" d="M513.44 549.82C513.46 550.38 513.34 551.19 512.54 552.04C511.75 552.86 511 552.97 510.5 552.88C509.6 552.75 508.92 552.08 508.51 551.56C507.49 552.02 505.33 552.85 503.75 552.17C503.01 551.86 502.45 551.19 502.19 550.31C501.87 549.27 502.17 548.63 502.65 547.76C503.39 546.45 504.95 546.18 505.57 545.97C506.05 545.11 507.18 542.42 508.94 542.28C509.45 542.24 510.36 542.03 511.07 542.93C512.72 545.1 512.31 547.41 512.13 548.27C512.5 548.68 513.37 548.97 513.44 549.82Z" />
	<path id="Layer" class="shp12" d="M538.57 561.4C538.09 563.21 536.33 563.35 535.51 563.52C535.04 565.29 533.91 568.27 530.8 568.09C530.26 568.08 529.81 567.97 529.42 567.8C528.86 567.56 528.5 567.24 528.24 566.74C527.79 565.82 528.39 564.54 528.69 563.81C527.41 563.39 525.64 562.54 525.87 560.58C526.11 558.55 528.13 558.17 529.5 558.07C529.51 557.13 529.45 555.35 530.38 554.38C530.81 553.92 531.64 553.42 532.97 553.61C534.1 553.79 534.93 554.28 535.38 555.11C535.89 556.1 535.52 557.61 535.33 558.39C536.21 558.68 537.79 558.84 538.35 559.81C538.64 560.32 538.71 560.86 538.57 561.4Z" />
	<path id="Layer" class="shp12" d="M653.36 528.43C652.41 529.77 651.31 530.53 650.1 530.64C649.19 530.72 648.43 530.43 647.95 530.18L647.4 529.9L647.13 530.46C646.7 531.43 645.95 532.68 644.68 533.24C644.53 533.3 644.33 533.38 644.09 533.45L643.53 533.59L643.68 534.17C644.01 535.5 644.39 537.97 642.93 539.34C641.6 540.55 639.92 539.87 639.04 539.36L638.27 538.9L638.16 539.79C638.05 540.89 637.7 542.4 636.66 543.31C635.75 544.11 634.51 544.3 632.93 543.87C632.48 543.76 632.07 543.63 631.68 543.46C630.26 542.84 629.32 541.88 628.94 540.65L628.73 539.92L628.12 540.21C627.5 540.49 626.84 540.68 626.17 540.68L625.59 540.69L625.6 541.29C625.68 543.15 625.22 544.62 624.22 545.55C622.75 546.91 620.51 546.88 619.63 546.8L619.19 546.74L619.03 547.13C618.35 548.84 617.23 550.06 615.9 550.55C615.18 550.79 614.01 551.01 612.54 550.42L611.8 550.09L611.75 550.93C611.72 551.85 611.48 553.15 610.67 554.25C609.81 555.33 608.58 555.9 606.94 556.04C606.55 556.09 606.12 556.02 605.73 555.94L604.91 555.8L605.04 556.62C605.24 557.9 605.12 559.73 603.55 561.26C602.44 562.36 600.9 562.76 599.38 562.31C598.18 561.96 597.13 561.16 596.52 560.18L596.17 559.6L595.67 560.02C594.91 560.67 593.67 561.46 592.26 561.44C591.06 561.43 589.92 560.85 588.91 559.73C588.07 558.82 587.65 557.78 587.62 556.74L587.57 555.61L586.69 556.25C585.57 557.05 584.54 557.45 583.62 557.44L583.04 557.44L583.05 558.04C583.07 559.33 582.86 560.48 582.46 561.37C581.93 562.59 580.83 563.35 579.24 563.68C576.1 564.32 574.6 562.05 573.86 560.07L573.56 559.26L572.91 559.83C572.02 560.59 570.26 561.75 568.24 560.87C567.99 560.76 567.76 560.62 567.49 560.46L566.93 560.09L566.64 560.69C566.08 561.98 564.83 564.25 563.16 564.89C562.39 565.15 561.61 565.12 560.85 564.62C558.39 563.17 558.17 561.03 558.25 559.91L558.28 559.2L557.6 559.24C556.56 559.35 555.06 559.25 553.95 558.38C553.2 557.76 552.71 556.91 552.55 555.74L552.45 554.97L551.77 555.31C550.82 555.79 548.35 556.77 546.15 555.81C545.54 555.55 545.02 555.2 544.57 554.66C542 551.93 543.5 548.74 544.02 547.86L544.31 547.35L543.8 547.04C542.8 546.44 540.59 544.79 541.47 542.28C542.35 539.89 545.09 539.2 546.66 539.03L547.22 538.98L547.16 538.4C547.02 537.4 547.08 536.44 547.29 535.6L547.38 535.17L547.02 534.93C545.01 533.71 543.89 532.34 543.73 530.77C543.55 529.25 544.3 527.91 544.97 527.09L545.31 526.64L544.92 526.26C544.21 525.57 542.63 523.69 543.77 520.95C545.03 517.83 549.83 518.84 551.27 519.21L551.69 519.31L551.92 518.94C552.66 517.73 553.81 517.03 555.4 516.82C557.85 516.52 560.64 517.56 562.01 518.71L562.45 519.07L562.83 518.64C563 518.42 563.26 518.19 563.54 518.01L564.35 517.47L563.49 517.01C562.69 516.62 561.65 515.87 561.23 514.75C560.83 513.68 561.02 512.49 561.78 511.11L562.01 510.74L561.73 510.41C561.19 509.79 560.27 508.54 560.2 507.06C560.13 506 560.54 504.99 561.33 504.06C563.47 501.66 566.58 503.35 567.82 504.18L568.54 504.67L568.69 503.79C568.84 503 569.12 502.4 569.61 501.93C570.54 501.06 571.92 500.93 572.91 500.98L573.84 501.04L573.45 500.15C573.18 499.47 572.83 498.47 573.01 497.4C573.2 496.12 574.01 495.02 575.41 494.13C576.48 493.45 577.59 493.29 578.65 493.66C580.62 494.35 582.01 496.7 582.69 498.01L583.07 498.73L583.69 498.11C583.76 498.05 583.77 498.01 583.84 497.96C584.16 497.67 584.47 497.42 584.88 497.22L585.59 496.8L584.93 496.26C584.35 495.75 583.57 494.9 583.36 493.75C583.18 492.64 583.54 491.44 584.54 490.21L585.04 489.57L584.28 489.29C583.52 489 582.49 488.47 581.96 487.51C581.43 486.56 581.45 485.37 582 483.99C582.61 482.47 583.54 481.51 584.64 481.17C585.16 481.01 585.71 481 586.28 481.12L587.17 481.29L586.95 480.39C586.74 479.57 586.68 478.78 586.84 478.08C587.07 476.99 587.78 476.06 588.92 475.4C591.74 473.68 594.25 474.47 595.5 475.1L595.98 475.35L596.22 474.86C596.49 474.29 596.88 473.74 597.39 473.19C598.13 472.4 599 472.01 599.99 472.02C601.73 472.05 603.44 473.39 604.29 474.18L604.84 474.67L605.19 474.02C605.52 473.39 605.99 472.87 606.55 472.51L606.89 472.28L606.81 471.86C606.47 470.52 605.88 467.24 607.87 465.93C609.28 465.01 611.21 464.78 612.91 465.3C613.91 465.61 614.74 466.14 615.35 466.91L615.76 467.43L616.22 466.91L616.24 466.87C617.43 465.56 619.7 465.52 620.96 465.6L621.6 465.66L621.57 465.01C621.52 463.79 621.61 461.61 622.79 460.42C623.5 459.71 624.53 459.43 625.8 459.68C629.49 460.34 631.45 463.66 632.27 465.55L632.56 466.19L633.13 465.8C634.74 464.71 637.27 465.55 638.32 465.96L638.81 466.17L639.05 465.68C639.51 464.77 640.87 462.63 643.78 462.96C646.76 463.31 647.97 466.73 648.33 468.21L648.45 468.73L648.98 468.66C649.42 468.6 649.94 468.57 650.46 468.62C655.63 469.12 657.41 472.87 657.58 473.29L657.6 473.34C658.15 474.34 658.32 475.27 658.04 476.17C657.73 477.14 656.96 477.83 656.38 478.22L655.74 478.67L656.33 479.18C657.43 480.17 659.32 482.1 659.54 484.15C659.7 486.01 658.56 487.39 657.61 488.21L656.99 488.71L657.64 489.17C658.06 489.47 658.7 489.96 659.32 490.58C660.96 492.31 661.48 494.02 660.77 495.68C660.3 496.84 659.6 497.56 658.64 497.86C658.1 498.06 657.47 498.08 656.82 497.93L655.82 497.71L656.18 498.68C656.75 500.28 657.59 503.25 656.65 505.27C656.44 505.69 656.16 506.08 655.84 506.37L655.38 506.77L655.79 507.2C656.31 507.77 657.05 508.64 657.71 509.78C659.22 512.35 659.56 514.92 658.62 517.25C657.76 519.39 656.07 520.57 654.06 520.51L653.07 520.47L653.55 521.36C654.35 522.89 655.29 525.73 653.36 528.43Z" />
	<path id="Layer" class="shp12" d="M620.21 568.21L620.03 568.26L619.95 568.44C619.65 569.08 618.03 572.29 614.88 571.31C614.69 571.27 614.51 571.19 614.34 571.12C613.45 570.73 612.84 570.17 612.49 569.38C611.9 568.06 612.15 566.21 613.23 563.73L613.3 563.55L613.2 563.38C612.67 562.43 611.52 560.01 612.92 557.76C613.52 556.79 614.23 556.59 614.69 556.57C615.04 556.55 615.37 556.65 615.69 556.79C616.15 556.99 616.57 557.3 616.86 557.6L617.14 557.85L617.38 557.57C617.73 557.21 618.3 556.73 619.02 556.58C619.52 556.49 620.33 556.54 621.21 557.35C621.85 557.93 622.2 558.63 622.22 559.41C622.23 560.01 622.08 560.67 621.68 561.35L621.39 561.86L621.99 561.95C623.25 562.12 624.19 562.48 624.67 563.03C625.05 563.45 625.19 564.02 625.06 564.65C624.7 567 621.23 567.97 620.21 568.21Z" />
	<path id="Layer" class="shp12" d="M592.75 576.5C592.69 577.07 592.35 578.54 591.24 579.42C590.36 580.15 589.23 580.38 587.82 580.16C586.41 579.93 585.43 579.25 584.95 578.19C584.11 576.33 585.05 574.01 585.32 573.32L585.46 573L585.2 572.8C584.57 572.4 583.55 571.53 583.26 570.38C583.12 569.9 583.13 569.13 583.74 568.25C584.23 567.56 584.89 567.17 585.67 567.08C586.32 567.02 586.97 567.17 587.53 567.42C588 567.62 588.36 567.86 588.63 568.02L588.86 568.16L589.09 568.01C589.81 567.47 591.24 566.6 592.7 566.8C593.71 566.99 594.53 567.64 595.16 568.77C597.27 572.62 593.34 575.77 592.91 576.1L592.8 576.18L592.75 576.5Z" />
	<path id="Layer" class="shp12" d="M531.63 544.89C531 544.62 530.63 544.21 530.42 543.82C529.82 542.75 530.61 541.2 530.83 540.35C529.89 540.03 527.68 539.56 526.91 538.29C526.44 537.53 526.35 536.63 526.61 535.67C526.94 534.57 527.5 533.79 528.37 533.3C529.13 532.86 530.25 533.34 530.91 533.36C530.77 532.58 530.52 530.97 531.06 530.25C531.38 529.88 531.93 529.43 532.97 529.53C534.98 529.67 535.74 531.15 535.92 532.34C536.92 532.21 538.6 532.16 539.65 533.04C540.08 533.4 540.59 534.09 540.56 535.27C540.49 538.41 537.98 540.5 537.21 541.07C537.08 541.49 536.79 542.31 536.25 543.11C535.24 544.68 533.89 545.35 532.4 545.14C532.09 545.09 531.83 545.02 531.63 544.89Z" />
	<path id="Layer" class="shp12" d="M673.91 534.25C673.45 535.19 672.82 535.52 672.34 535.57C671.62 535.68 670.88 535.36 670.41 535.07L670.05 534.83L669.89 535.23C669.55 535.98 669 536.93 668.11 537.27C667.76 537.41 667.18 537.51 666.47 537.2C666.33 537.14 666.15 537.06 666.03 536.96C665.36 536.55 664.94 535.94 664.78 535.19C664.45 533.64 665.34 531.85 665.75 531.13L665.86 530.97L665.8 530.81C665.62 530.31 664.81 527.79 666.7 526.61C667.48 526.13 668.44 526.12 669.36 526.52C669.64 526.64 669.91 526.8 670.17 527C671.23 527.76 671.86 528.89 671.92 529.98L671.91 530.23L672.12 530.32C672.65 530.55 673.62 531.14 674 532.07C674.25 532.56 674.38 533.3 673.91 534.25Z" />
	<path id="Layer" class="shp12" d="M656.64 548.73C655.43 550.08 652.4 549.83 651.53 549.71L651.38 549.68L651.26 549.76C650.73 550.17 649.33 551.05 647.83 550.83C646.92 550.73 646.1 550.16 645.47 549.25C644.94 548.51 644.77 547.67 645.01 546.88C645.48 545.08 647.61 543.75 648.51 543.25L648.78 543.11L648.69 542.81C648.58 542.25 648.41 541.24 648.86 540.42C649.11 540.01 649.61 539.5 650.66 539.37C651.31 539.3 651.82 539.4 652.21 539.57C652.49 539.69 652.69 539.82 652.84 539.97C653.51 540.56 653.75 541.43 653.84 542.02L653.89 542.21L654.07 542.29C654.9 542.69 656.37 543.8 657.09 546.58C657.22 547.49 657.1 548.2 656.64 548.73Z" />
	<path id="Layer" class="shp12" d="M619.7 590.29C619.74 591.02 619.7 592.88 618.78 593.93C618.33 594.42 617.76 594.68 617.09 594.69C616.17 594.72 615.44 594.45 614.87 593.9C614.58 593.6 614.33 593.19 614.21 592.76L614.12 592.47L613.81 592.5C613.2 592.58 612.3 592.53 611.54 592.03C610.73 591.47 610.2 590.51 610.05 589.13C609.93 587.88 610.18 586.93 610.86 586.28C611.67 585.52 612.81 585.38 613.63 585.4L614.01 585.39L614.04 585.02C614.07 584.31 614.22 583.31 614.73 582.68C615.06 582.27 615.51 582.08 616.04 582.1C617.59 582.09 618.21 583.34 618.45 584.08L618.57 584.43L618.89 584.35C619.7 584.19 621.66 583.98 622.19 585.45C622.79 587.07 620.52 589.4 619.83 590.08L619.7 590.2L619.7 590.29Z" />
	<path id="Layer" class="shp12" d="M654.12 588.97C654.04 589.36 653.37 592.99 650.43 592.95C649.31 592.93 648.38 592.45 647.76 591.5C646.91 590.19 646.95 588.46 647.28 587.32L647.33 587.09L647.15 586.92C646.52 586.4 644.51 584.37 645.58 581.39C646.03 580.17 646.77 579.68 647.36 579.47C648.41 579.12 649.61 579.47 650.39 579.8C650.5 579.85 650.6 579.89 650.71 579.94L650.96 580.05L651.15 579.88C651.83 579.23 653.16 578.19 654.59 578.38C655.58 578.51 656.37 579.24 656.98 580.53C658.98 584.76 654.76 588.3 654.27 588.69L654.16 588.77L654.12 588.97Z" />
	<path id="Layer" class="shp4" d="M609.97 404.7C607.37 404.19 607.69 406.85 607.69 406.85C604.16 407.18 603.25 402.5 603.25 402.5C603.25 402.5 603.86 405.59 598.86 404.74C593.84 403.87 597.06 396.47 597.06 396.47C594.38 396.13 589.4 391.08 593.96 387C598.52 382.92 602.61 391.78 602.61 391.78C602.61 391.78 603.16 387.48 607.07 388.46C610.97 389.45 609.95 395.91 609.95 395.91C605.64 399.59 609.92 404.72 609.97 404.7Z" />
	<path id="Layer" class="shp4" d="M609.95 395.91C609.95 395.91 613.1 394.39 615.14 396.38C617.19 398.37 616.95 403.02 616.95 403.02C616.95 403.02 620.81 400.65 622.25 404.44C622.25 404.44 624.38 408.26 621.53 412.91C618.69 417.56 615.91 412.08 615.91 412.08C615.91 412.08 608.03 414.66 607.68 406.89" />
	<path id="Layer" class="shp4" d="M608.54 410.25C604.02 416.16 609.93 420.57 609.93 420.57C607.57 420.25 607.46 425 607.46 425C604.16 421.91 599.73 424.77 599.73 424.77C599.73 424.77 596.07 425.43 593.4 420.17C590.73 414.95 596.3 413.06 596.3 413.06C596.3 413.06 591.32 412.68 592.33 408.49C593.33 404.29 596.68 403.5 596.68 403.5" />
	<path id="Layer" class="shp4" d="M595.14 395.69C591.85 402.03 587.66 395.44 587.66 395.44C587.66 395.44 582.65 399.2 580.72 393.58C578.79 387.95 584.42 386.34 584.42 386.34C580.98 382.68 583.52 375.63 589.07 377.15C594.63 378.64 595.04 386.27 595.04 386.27" />
	<path id="Layer" class="shp4" d="M592.56 411.07C592.56 411.07 583.58 414.51 583.31 404.92C583.31 404.92 573.29 401.14 581.06 394.37" />
	<path id="Layer" class="shp4" d="M620.03 414.45C620.03 414.45 623.71 418.43 621.79 421.72C619.88 425.01 616.31 423.61 616.31 423.61C616.31 423.61 614.27 434.09 607.46 424.91" />
	<path id="Layer" class="shp4" d="M612.15 428.72C612.15 428.72 615.69 433.75 613.35 438.4C610.98 443 606.25 437.93 606.25 437.93C606.25 437.93 602.73 444.86 598.99 440C595.26 435.14 600.72 431.49 600.72 431.49C594.98 429.63 597.99 424.58 597.99 424.58" />
	<path id="Layer" class="shp4" d="M579.38 402.25C579.38 402.25 574.8 408.13 570.88 402.29C570.88 402.29 564.93 403.6 564.55 398.72C564.19 393.81 569.17 388.2 569.17 388.2C569.17 388.2 570.63 390.19 573.49 389.19C573.49 389.19 572.49 396.81 578.53 397.43" />
	<path id="Layer" class="shp4" d="M588.65 411.62C588.65 411.62 587.1 421.41 580.65 416.33C580.65 416.33 576.23 419.24 573.7 413.05C572.04 409 574.73 404.84 574.73 404.84" />
	<path id="Layer" class="shp4" d="M569.17 388.2C569.17 388.2 565.66 385.83 566.42 382.05C567.43 376.7 572.75 378.89 572.75 378.89C572.75 378.89 572.46 374.74 577.28 374.8C582.1 374.85 583.17 380.36 583.17 380.36" />
	<path id="Layer" class="shp4" d="M597.27 428.26C597.27 428.26 589.75 430.98 586.13 426.86C582.51 422.74 585.18 417.59 585.18 417.59" />
	<path id="Layer" class="shp4" d="M565.32 394.39C558.68 393.12 558.83 389.2 558.83 389.2C555.22 389.41 550.84 387.36 553.12 381.96C555.41 376.56 560.32 381.06 560.32 381.06C560.32 381.06 559.99 377.19 562.6 376.68C565.21 376.18 567.36 379.84 567.36 379.84" />
	<path id="Layer" class="shp4" d="M573.02 412.08C572.74 411.66 571.97 411.93 571.16 412.39C569.98 413.04 569.07 414.07 568.35 415.21C565.89 419.22 561.8 416.35 561.8 416.35C555.71 411.08 561.24 406.86 561.24 406.86C561.24 406.86 558.44 405.1 559.09 401.56C559.74 398.03 564.57 398.69 564.57 398.69" />
	<path id="Layer" class="shp4" d="M584.6 424.11C579.99 419.48 576.86 425.63 576.86 425.63C576 422.86 572.34 424.94 572.34 424.94C565.25 422.11 567.72 416.06 567.72 416.06" />
	<path id="Layer" class="shp4" d="M600.97 441.54C602.44 444.43 600.27 448.04 597.61 449.09C594.95 450.13 592.25 445.98 592.25 445.98C589.86 447.27 586.28 445.9 586.47 441.27C586.69 436.65 592.79 436.01 592.79 436.01C588.75 433.34 590.81 429.08 590.81 429.08" />
	<path id="Layer" class="shp4" d="M587.14 438.9C586.38 436.61 584.76 435.61 583.27 435.19C581.84 434.83 580.33 435.09 579.01 435.8C577.6 436.61 574.93 437.18 572.27 433.34C568.31 427.71 572.34 424.94 572.34 424.94" />
	<path id="Layer" class="shp4" d="M559.02 402.74C552.21 400.76 550.69 396.77 550.5 392.66C550.31 388.55 554.07 387.76 554.07 387.76" />
	<path id="Layer" class="shp4" d="M572.34 433.37C567.57 439.6 564.86 432.22 564.86 432.22C564.86 432.22 563.16 437.62 559.22 434.77C555.25 431.92 561.78 427.69 561.78 427.69C561.78 427.69 557.65 428.36 556.82 423.21C556 418.1 561.84 416.36 561.84 416.36" />
	<path id="Layer" class="shp4" d="M553.75 400.13C553.75 400.13 551.82 404.57 548.71 402.34C548.71 402.34 547.35 407.11 543.18 404.34C543.18 404.34 541.75 403.9 541.54 400.43C541.54 400.43 534.98 399.88 535.39 395.82C535.81 391.63 539.09 390.38 542.45 391.6C542.45 391.6 545.66 384.84 550.96 390.11" />
	<path id="Layer" class="shp4" d="M543.69 404.6C541.74 411.22 536.66 408.14 536.66 408.14C536.66 408.14 534.43 412.71 530.34 409.03C526.25 405.35 530.63 402.52 530.63 402.52C528.12 402.38 527.13 401.06 526.81 399.81C526.43 398.4 526.87 396.92 527.8 395.86C531.44 391.6 535.39 395.82 535.39 395.82" />
	<path id="Layer" class="shp4" d="M557.32 419.83C553.58 418.86 552.95 414.7 552.95 414.7C552.95 414.7 549.59 416.55 546.84 412.72C544.09 408.93 546.98 404.77 546.98 404.77" />
	<path id="Layer" class="shp4" d="M577.62 436.36C576.23 438.25 579.38 441.49 579.38 441.49C574.98 440.2 574.02 446.21 574.02 446.21C572.2 446.72 567.2 447.62 565.1 443.42C563 439.22 568.19 435.83 568.19 435.83" />
	<path id="Layer" class="shp4" d="M565.18 443.41C563.06 447.21 558.17 451.8 553.71 448.22C549.25 444.63 553.83 440.69 553.83 440.69C550.08 439.85 548.9 436.13 551.26 433.08C553.61 430.06 557.95 432.52 557.95 432.52" />
	<path id="Layer" class="shp4" d="M550.29 434.76C550.29 434.76 545.58 434.93 542.63 431C539.66 427.12 544.52 424.23 544.52 424.23C541.22 422.56 539.45 420.82 540.73 416.57C542.04 412.33 547.86 413.88 547.86 413.88" />
	<path id="Layer" class="shp4" d="M531.65 409.98C531.65 409.98 529.49 417.92 524.93 416.61C520.34 415.28 521.04 411.73 521.04 411.73C521.04 411.73 514.86 413.4 513.93 408.16C513 402.92 518.7 402.54 518.7 402.54C517.13 400.41 518.09 396.11 521.55 395.54C525.01 394.97 526.69 398.17 526.69 398.17" />
	<path id="Layer" class="shp4" d="M540.61 420.71C540.61 420.71 532.7 423.45 529.76 414.61" />
	<path id="Layer" class="shp4" d="M531.72 418.36C522.72 420.11 528.65 427.62 528.65 427.62C528.65 427.62 523.74 433.36 518.06 430.54C512.38 427.72 515.99 422.2 515.99 422.2C512.45 420.42 511.63 418.79 511.9 415.48C512.21 412.18 517.36 411.82 517.36 411.82" />
	<path id="Layer" class="shp4" d="M552.13 443.04C546.62 438.88 542.8 444.31 542.8 444.31C542.8 444.31 538.91 445 536.69 442.94C534.47 440.87 537.43 437.26 537.43 437.26C534.44 436.06 534.93 433.74 534.93 433.74C534.86 428.83 541.97 429.87 541.97 429.87" />
	<path id="Layer" class="shp4" d="M515.16 427.58C513.42 426.58 512.1 427.68 511.4 429.4C511.05 430.27 510.77 431.27 510.67 432.21C510.6 432.99 510.79 433.85 510.41 434.58C509.69 436.03 507.81 435.57 506.64 435.11C505.37 434.65 504.15 433.7 503.87 432.25C503.8 431.92 503.92 429.19 504.51 429.14C504.48 429.13 500.13 429.32 500.36 425.22C500.56 421.15 505.24 421.15 505.24 421.15C503.36 418.75 502.45 416.01 504.93 413.77C505.94 412.83 507.17 412.25 508.53 412.57C509.85 412.88 511.07 413.75 512.06 414.69" />
	<path id="Layer" class="shp4" d="M526.7 429.36C526.7 429.36 527.75 437.05 534.96 434.69" />
	<path id="Layer" class="shp4" d="M528.38 433.25C519.06 434.39 522.55 443.39 522.55 443.39C522.55 443.39 519.58 448.15 515.79 446.48C512.05 444.79 514.31 438.82 514.31 438.82C510.6 438.99 509.79 435.3 509.79 435.3" />
	<path id="Layer" class="shp4" d="M556.75 449.48C556.75 449.48 560.92 456.62 555.95 458.56C550.98 460.5 549.79 455.19 549.79 455.19C549.79 455.19 547.16 461.56 542.99 456.94C538.84 452.29 544.43 448.01 544.43 448.01C541.84 447.58 542.76 444.3 542.76 444.3" />
	<path id="Layer" class="shp4" d="M541.56 452.43C533.59 448.12 531.93 456.14 527.3 453.48C522.66 450.84 526.33 445.52 526.33 445.52C523.91 445.34 522.57 443.35 522.57 443.35" />
	<path id="Layer" class="shp4" d="M528.66 454.1C529.28 456.76 526.61 463.71 522.04 462.65C517.46 461.59 519.01 457.07 519.01 457.07C519.01 457.07 515.18 458.13 513.33 454.25C511.47 450.37 516.96 446.77 516.96 446.77" />
	<path id="Layer" class="shp4" d="M543.43 457.39C543.43 457.39 543.98 463.66 539.75 464.08C535.53 464.5 535.25 459.49 535.25 459.49C529.07 459.2 531.79 453.13 531.79 453.13" />
	<path id="Layer" class="shp4" d="M588.87 446.15C588.87 446.15 590.06 452.79 585.68 453.27C581.3 453.75 580.34 450.42 580.34 450.42C574.69 451.38 574.07 446.19 574.07 446.19" />
	<path id="Layer" class="shp4" d="M582.96 453.04C582.96 453.04 582.8 457.18 578.67 458.88C574.55 460.58 573.01 456.02 573.01 456.02C573.01 456.02 572.74 460.53 567.93 459.33C563.13 458.12 565.88 453.39 565.88 453.39C559.24 454.44 560.53 448.44 560.53 448.44" />
	<path id="Layer" class="shp4" d="M513.63 443.03C503.86 435.12 500.32 444.31 495.64 440.76C490.97 437.17 495.92 433.26 495.92 433.26C495.92 433.26 492.51 432.18 493.04 428.04C493.59 423.94 500.36 426.12 500.36 426.12" />
	<path id="Layer" class="shp4" d="M505.9 439.76C501.39 442.8 505.77 446.47 505.77 446.47C501.15 449.59 504.31 454.33 504.31 454.33C504.31 454.33 501.41 458.1 498.28 457.14C495.19 456.2 496.33 451.76 496.33 451.76C496.33 451.76 491.4 451.88 490.74 447.31C490.04 442.73 495.64 440.76 495.64 440.76" />
	<path id="Layer" class="shp4" d="M513.87 455.17C513.87 455.17 508.95 459.7 504.29 454.28" />
	<path id="Layer" class="shp4" d="M522.04 462.65C522.04 462.65 519.73 469.12 516.11 468.16C512.48 467.21 512.84 463.38 512.84 463.38C512.84 463.38 506.17 464.72 507.58 456.58" />
	<path id="Layer" class="shp4" d="M568.58 472.58C567.47 474.59 564.2 471.95 564.2 471.95C564.2 471.95 564.23 477.27 560.32 476.71C556.41 476.14 558.72 470.97 558.72 470.97C558.72 470.97 553.45 473.34 553.53 467.76C553.62 462.96 560.2 463.89 560.2 463.89C560.33 463.56 560.59 463.33 560.92 463.13C562.41 462.23 564.36 462.42 565.66 463.58C567.97 465.64 567.28 469.16 567.28 469.16C567.28 469.16 569.62 470.54 568.58 472.58Z" />
	<path id="Layer" class="shp4" d="M569.71 354.85C572.95 357.56 567.85 362.87 567.85 362.87C570.83 364.71 570.99 369.49 567.37 369.95C563.75 370.41 561.86 367.33 561.86 367.33C561.86 367.33 559.7 372.62 555.91 369.23C552.11 365.85 557.04 361.67 557.04 361.67C557.04 361.67 552.8 357.84 555.34 354.86C557.92 351.89 562.33 355.5 562.33 355.5C562.33 355.5 566.47 352.13 569.71 354.85Z" />
	<path id="Layer" class="shp4" d="M539.21 351.28C541.57 356.06 535.44 356.56 535.44 356.56C535.44 356.56 534.91 361.82 531.07 360.6C527.22 359.38 527.6 355.17 527.6 355.17C525.25 354.55 522.46 351.64 524.48 348.91C526.5 346.18 530.31 348.54 530.31 348.54C530.31 348.54 536.85 346.5 539.21 351.28Z" />
	<path id="Layer" class="shp4" d="M547.69 371.41C550.06 373.41 547.15 377 547.15 377C547.15 377 550.51 379.73 547.96 382.23C545.36 384.76 542.12 382.04 542.12 382.04C542.12 382.04 540.5 385.2 538.1 384.17C535.71 383.15 536.86 380 536.86 380C536.86 380 532.8 380.53 533.66 376.19C534.52 371.84 539.39 372.48 539.39 372.48C539.39 372.48 543.16 367.58 547.69 371.41Z" />
	<path id="Layer" class="shp4" d="M525.85 376.14C528.25 377.38 525.04 381.19 525.04 381.19C525.04 381.19 528.9 380.66 529.1 383.83C529.3 387 525.96 386.55 525.96 386.55C525.96 386.55 526.95 390.53 523.81 390.3C520.67 390.07 519.63 386.32 519.63 386.32C516.1 385.54 513.08 384.03 514.38 380.52C515.69 377.01 519.95 378.32 519.95 378.32C519.95 378.32 523.51 374.88 525.85 376.14Z" />
	<path id="Layer" class="shp4" d="M515.66 364.57C516.77 366.42 513.55 368.73 513.55 368.73C513.55 368.73 515.67 370.75 514.2 372.73C512.73 374.71 509.79 371.87 509.79 371.87C509.79 371.87 507.21 376.97 503.67 373.48C500.12 369.99 503.96 367.27 503.96 367.27C503.96 367.27 501.72 365.45 503.72 362.88C505.72 360.31 509.51 363.91 509.51 363.91C509.51 363.91 514.55 362.81 515.66 364.57Z" />
	<path id="Layer" class="shp4" d="M510.5 397.57C512.2 401.64 507.09 402.58 507.09 402.58C507.09 402.58 507.3 406.65 504.33 406.62C501.35 406.63 502.18 402.44 502.18 402.44C500.51 402.28 495.88 400.73 497.98 396.79C500.07 392.89 503.58 395.33 503.58 395.33C503.58 395.33 508.8 393.5 510.5 397.57Z" />
	<path id="Layer" class="shp4" d="M493.27 411.51C495.14 413.52 496.94 417.03 494.66 419.48C492 422.36 490.06 418.58 490.06 418.58C490.06 418.58 488.93 421.35 486.5 420.22C484.06 419.09 485.75 415.96 485.75 415.96C485.75 415.96 484.53 417.41 482.05 416.09C479.57 414.76 481.05 410.61 484.92 409.05C487.29 408.1 489.58 408.57 491.52 409.91C492.13 410.34 492.75 410.86 493.27 411.51Z" />
	<path id="Layer" class="shp4" d="M465.58 441.28C463.11 440.52 464.5 436.62 464.5 436.62C464.5 436.62 460.39 435.93 461.89 432.03C463.4 428.14 468.59 431.14 468.59 431.14C474.86 435.36 468.01 442.02 465.58 441.28Z" />
	<path id="Layer" class="shp4" d="M482.06 448.69C484.08 449.51 482.22 453.38 482.22 453.38C482.22 453.38 486.38 454.44 484.51 457.83C482.63 461.22 479.09 457.61 479.09 457.61C479.09 457.61 477.26 460.68 475.01 459.29C472.76 457.89 474.48 454.9 474.48 454.9C474.48 454.9 469.94 454.46 472.23 450.98C474.51 447.51 478.56 449.76 478.56 449.76C478.56 449.76 480.06 447.91 482.06 448.69Z" />
	<path id="Layer" class="shp4" d="M503.56 462.87C506.43 465 502.22 468.51 502.22 468.51C502.22 468.51 504.69 470.17 503.13 472.67C501.58 475.17 499.24 471.56 499.24 471.56C499.24 471.56 497.89 475.39 494.48 474.01C491.06 472.63 493.48 467.72 493.48 467.72C493.48 467.72 489.09 466.39 490.74 463.37C492.38 460.35 496.8 462.2 496.8 462.2C496.8 462.2 500.75 460.73 503.56 462.87Z" />
	<path id="Layer" class="shp4" d="M465.65 488.17C463.49 489 462.11 486.18 462.11 486.18C462.11 486.18 457.41 485.92 457.75 482.86C458.09 479.79 461.93 481.44 461.93 481.44C461.93 481.44 461.58 477.94 464.27 478.45C466.96 478.96 465.73 482.29 465.73 482.29C467.76 483.29 467.77 487.32 465.65 488.17Z" />
	<path id="Layer" class="shp4" d="M513.27 522.29C511.98 520.37 514.32 518.28 514.32 518.28C514.32 518.28 513.51 513.57 516.47 513.12C519.41 512.71 518.75 516.97 518.75 516.97C518.75 516.97 521.98 515.74 522.11 518.58C522.27 521.43 518.85 521 518.85 521C518.35 523.23 514.56 524.21 513.27 522.29Z" />
	<path id="Layer" class="shp4" d="M491.08 515.26C489.86 519.28 485.54 517.3 485.54 517.3C485.54 517.3 483.61 520.92 480.73 518.75C477.84 516.57 480.6 512.87 480.6 512.87C480.6 512.87 476.79 508.19 480.8 506.87C484.82 505.55 486.69 508.97 486.69 508.97C486.69 508.97 492.27 511.23 491.08 515.26Z" />
	<path id="Layer" class="shp4" d="M452.84 520.63C453.67 524.2 447.43 523.24 447.43 523.24C447.43 523.24 444.08 526.17 441.95 523.07C439.82 519.97 445.45 517.33 445.45 517.33C445.45 517.33 444.17 514.08 446.92 513.72C449.68 513.36 449.7 516.46 449.7 516.46C449.7 516.46 452.02 517.06 452.84 520.63Z" />
	<path id="Layer" class="shp4" d="M656.63 546.69C657.46 550.25 651.22 549.3 651.22 549.3C651.22 549.3 647.87 552.23 645.74 549.13C643.61 546.03 649.24 543.39 649.24 543.39C649.24 543.39 647.95 540.14 650.71 539.78C653.46 539.42 653.49 542.51 653.49 542.51C653.49 542.51 655.81 543.12 656.63 546.69Z" />
	<path id="Layer" class="shp4" d="M656.65 488.19C656.65 488.19 662.23 491.27 660.59 495.1C658.94 498.94 655.32 496.74 655.32 496.74C655.32 496.74 659.59 505.47 653.72 506.76C647.86 508.06 647.01 500.89 648.33 498.46C648.33 498.46 640.72 496.61 643.07 491.96C645.45 487.33 647.42 489.71 647.42 489.71C647.42 489.71 644.42 486.11 646.79 483.45C646.79 483.45 648.62 485.35 649.8 482.85C649.89 482.85 651.2 489.49 656.65 488.19Z" />
	<path id="Layer" class="shp4" d="M646.87 483.44C641.14 478.41 647.89 473.51 647.89 473.51C647.89 473.51 645.38 467.89 650.69 468.37C656 468.85 657.61 472.92 657.61 472.92C659.67 476.42 655.49 478.14 655.49 478.14C655.49 478.14 659.19 480.75 659.46 483.65C659.72 486.55 656.65 488.19 656.65 488.19" />
	<path id="Layer" class="shp4" d="M642.78 494.49C642.78 494.49 640.13 496.74 636.3 495.06C632.48 493.37 635.2 489.02 635.2 489.02C635.2 489.02 630.36 492.47 628 487.09C625.64 481.7 628.36 479.1 628.36 479.1C628.36 479.1 633.24 477.17 632.9 472.61C632.9 472.61 636.61 475.4 637.81 473.26C637.81 473.26 637.59 480.83 644.86 480.65" />
	<path id="Layer" class="shp4" d="M654.98 506.32C654.98 506.32 660.58 511.29 658.33 516.79C656.11 522.26 649.18 520.06 648.5 515.02C648.5 515.02 643.83 518.67 640.7 513.64C637.57 508.62 643.49 506.79 643.49 506.79C643.49 506.79 640.98 499.33 647.83 500.51" />
	<path id="Layer" class="shp4" d="M640.29 512.91C630.38 515.18 633.56 504.63 633.56 504.63C626.38 498.6 634.46 493.28 634.46 493.28" />
	<path id="Layer" class="shp4" d="M632.92 472.57C630.02 461.39 639.28 466.09 639.28 466.09C639.28 466.09 640.35 462.35 644.08 462.75C647.76 463.17 648.56 468.62 648.56 468.62" />
	<path id="Layer" class="shp4" d="M627.4 480.62C627.4 480.62 621.69 480.01 623.78 474.18C623.78 474.18 617.66 476.49 616.2 470.42C614.72 464.39 622.19 465.67 622.19 465.67C622.19 465.67 621.22 458.7 626.17 459.57C631.11 460.45 632.82 466.41 632.82 466.41" />
	<path id="Layer" class="shp4" d="M636.37 513.08C633.2 518.44 639.63 522.27 639.63 522.27C637.13 524.02 637.76 526.44 637.76 526.44C637.76 526.44 630.41 527.1 626.9 523.84C623.38 520.57 628 516.47 628 516.47C625.92 509.67 633.2 509.49 633.2 509.49" />
	<path id="Layer" class="shp4" d="M628.35 511.74C628.35 511.74 623.51 511.42 621.43 507.57C618.27 501.72 623.16 499.88 623.16 499.88C623.2 491.45 631.64 496.14 631.64 496.14" />
	<path id="Layer" class="shp4" d="M652.27 519.68C652.27 519.68 655.85 523.91 652.93 527.93C650.04 531.96 647.05 529.13 647.05 529.13C647.05 529.13 645.51 534.86 640.78 532.44C637.45 530.76 637.76 526.44 637.76 526.44" />
	<path id="Layer" class="shp4" d="M624.99 495.39C624.99 495.39 619.41 494.45 618.45 488.99C617.5 483.49 624.18 478.98 624.18 478.98" />
	<path id="Layer" class="shp4" d="M643.03 533.02C643.03 533.02 644.51 537 642.56 538.86C640.6 540.72 637.83 538.07 637.83 538.07C637.83 538.07 638.3 544.83 632.78 543.45C627.27 542.03 628.34 537.17 630.7 534.33C630.7 534.33 627.61 532.06 630.68 525.84" />
	<path id="Layer" class="shp4" d="M626.9 523.84C626.9 523.84 624.46 528.19 621.36 526.56C618.26 524.93 618.63 521.58 618.63 521.58C618.63 521.58 612.03 523.55 611.74 515.32C611.74 515.32 612.03 510.23 616.59 510.63C617.9 510.77 619.24 510.62 620.46 510.07C621.31 509.7 621.97 509.21 621.83 508.73" />
	<path id="Layer" class="shp4" d="M615.49 510.68C615.49 510.68 609.34 509.03 611.54 501.49C611.54 501.49 615.37 499.7 613.75 497.38C613.75 497.38 620.39 498.56 619.6 491.96" />
	<path id="Layer" class="shp4" d="M619.58 483.78C619.58 483.78 615.06 482.87 615.49 477.95C615.49 477.95 611.29 482.58 607.61 479.93C603.92 477.28 605.06 473.48 607.52 472.31C607.52 472.31 605.97 467.58 608.39 466C610.82 464.43 614.91 464.86 616.21 467.86" />
	<path id="Layer" class="shp4" d="M611.54 501.49C611.54 501.49 606.99 503.1 605.03 496.43C603.7 491.87 605.76 490.06 607.24 489.37C608.59 488.7 609.72 487.65 610.3 486.22C610.91 484.73 611.12 482.8 609.82 480.79" />
	<path id="Layer" class="shp4" d="M628.87 539.12C628.87 539.12 625.99 541.73 622.96 539.11C619.91 536.43 617.81 532.75 620.41 525.94" />
	<path id="Layer" class="shp4" d="M611.69 515.35C611.69 515.35 606.8 519.12 603.38 515.3C599.97 511.48 602.97 508.48 602.97 508.48C602.97 508.48 595.79 511.27 596 506.31C596.2 501.34 601.36 503.21 601.36 503.21C601.36 503.21 597.35 496.48 605.01 496.38" />
	<path id="Layer" class="shp4" d="M625.19 540.24C626.03 547.83 618.88 546.36 618.88 546.36C617.75 549.86 614.8 551.8 611.36 549.6C608.01 547.44 611.58 541.73 611.58 541.73C609.07 539.45 609.58 538 609.58 538C610.03 532.93 614.5 534.67 614.5 534.67C614.66 530.71 619.24 531.86 619.24 531.86" />
	<path id="Layer" class="shp4" d="M611.36 549.6C611.36 549.6 612.18 555.39 606.71 555.83C605.31 555.91 603.94 555.41 603.09 554.24C602.32 553.18 601.93 551.6 603.34 549.46C603.34 549.46 598.52 551.34 598.18 545.75C597.87 540.13 602.73 541.1 602.73 541.1C602.73 541.1 603.46 535.03 609.72 537.46" />
	<path id="Layer" class="shp4" d="M611.58 534.62C611.58 534.62 606.63 534.47 605.38 529.9C604.14 525.34 607.58 523.7 607.58 523.7C607.58 523.7 604.77 520.65 606.3 516.98" />
	<path id="Layer" class="shp4" d="M600.68 498.25C600.68 498.25 594.94 500.46 592.99 496.19C591.04 491.93 594.79 488.31 596.26 487.15C596.26 487.15 601.47 490.02 603.13 485.63C603.13 485.63 603.67 490.19 605.99 490.2" />
	<path id="Layer" class="shp4" d="M596.99 508.75C596.99 508.75 596.25 513.82 592.48 513.92C588.71 514.02 586.59 510.8 588.23 507.18C588.23 507.18 582.42 508.54 582.39 502.7C582.37 496.87 588.84 495.62 593.04 496.17" />
	<path id="Layer" class="shp4" d="M605.1 528.37C605.1 528.37 602.72 534.12 598.7 532.61C594.67 531.1 594.41 528.59 595.15 524.84C595.15 524.84 590.01 527.09 588.82 522.29C587.63 517.5 590.63 513.69 590.63 513.69" />
	<path id="Layer" class="shp4" d="M604.31 555.32C604.31 555.32 605.73 558.63 603.22 561.14C600.67 563.65 596.81 561.83 596.13 559.22C596.13 559.22 592.37 563.69 588.93 559.73C585.49 555.77 590.54 551.73 590.54 551.73C590.54 551.73 587.38 550.12 589.15 545.56C590.92 541.01 598.34 544.06 598.34 544.06" />
	<path id="Layer" class="shp4" d="M595.47 530.15C595.47 530.15 588.57 534.99 593.56 542.78" />
	<path id="Layer" class="shp4" d="M588.15 554.73C588.15 554.73 584.74 558.75 582.05 557C579.37 555.25 578.61 553.55 579.42 549.53C579.42 549.53 573 549.13 574.28 542.74C575.56 536.35 582.95 535.79 582.95 535.79C582.95 535.79 585.1 545.24 591.91 538.91" />
	<path id="Layer" class="shp4" d="M589.29 523.48C589.29 523.48 585.77 529.98 582.05 526.93C582.05 526.93 580 525.96 580.86 522.73C580.86 522.73 576.29 522.96 576.05 519.9C575.84 516.86 578.68 514.05 578.68 514.05C578.68 514.05 585.16 514.21 585.35 507.14" />
	<path id="Layer" class="shp4" d="M582.71 557.32C582.81 558.69 582.72 560.24 582.15 561.54C581.57 562.87 580.37 563.47 579.05 563.76C575.84 564.44 574.26 562.01 573.61 559.03C573.61 559.03 570.76 562.87 567.51 560.58C564.27 558.28 567.05 554.81 567.05 554.81C566.65 555.28 564.51 553.72 564.25 553.44C563.29 552.34 563.36 550.74 563.74 549.41C564.13 548.16 564.88 546.3 566.41 546.61C567.23 546.75 567.73 547.43 568.39 547.85C569.2 548.32 570.11 548.71 571 548.96C572.75 549.45 574.37 549.03 574.67 546.98" />
	<path id="Layer" class="shp4" d="M580.4 536.37C580.4 536.37 575.16 530.83 581.34 526.32" />
	<path id="Layer" class="shp4" d="M565.56 546.67C565.56 546.67 563.23 543.75 565.62 540.83C565.62 540.83 559.66 539.09 560.69 534.95C561.72 530.8 567.16 531.25 567.16 531.25C567.16 531.25 571.91 539.63 578.45 532.62" />
	<path id="Layer" class="shp4" d="M578.72 514.06C578.72 514.06 575.66 512.84 576.89 510.41C576.89 510.41 570.2 512.42 569.18 506.16C568.17 499.91 574.68 501.62 574.68 501.62C574.68 501.62 571.34 497.41 575.84 494.5C580.37 491.6 583.26 499.35 583.26 499.35" />
	<path id="Layer" class="shp4" d="M567.16 531.25C567.16 531.25 566.45 528.94 567.81 526.82C567.81 526.82 561.52 526.61 562.28 521.19C563.03 515.78 570.22 519.28 571.73 510.08" />
	<path id="Layer" class="shp4" d="M561.12 533.8C561.12 533.8 555.04 536.12 553.18 532.24C551.33 528.36 554.46 525.85 554.46 525.85C554.46 525.85 550.05 524.39 552.01 519.96C553.98 515.54 560.93 517.58 562.59 519.7" />
	<path id="Layer" class="shp4" d="M565.28 517.68C565.28 517.68 558.96 516.22 562.51 510.97C562.51 510.97 558.87 507.7 561.76 504.48C564.64 501.26 569.13 505.5 569.13 505.5" />
	<path id="Layer" class="shp4" d="M596.31 487.13C596.31 487.13 592.71 483.48 596.89 479.41C596.89 479.41 594.9 476.58 597.98 473.28C601.01 469.99 605.39 475 605.39 475" />
	<path id="Layer" class="shp4" d="M586.37 496.91C586.37 496.91 580.96 494.33 585.83 489.49C585.83 489.49 580.54 488.85 582.53 484.17C584.52 479.5 588.14 481.99 588.14 481.99C588.14 481.99 585.57 477.94 589.42 475.6C593.23 473.25 596.48 475.63 596.48 475.63" />
	<path id="Layer" class="shp4" d="M566.88 560C566.88 560 564.43 566.92 560.94 564.82C557.45 562.73 558.69 559.28 558.69 559.28C558.69 559.28 552.66 560.97 552.79 554.95C552.93 548.92 562.1 551.61 561.99 538.76" />
	<path id="Layer" class="shp4" d="M552.78 554.99C552.78 554.99 547.87 558.4 544.79 555.08C541.68 551.73 544.78 547.79 544.78 547.79C544.78 547.79 540.69 546.04 541.85 542.89C543 539.75 547.68 539.65 547.68 539.65C547.68 539.65 549.38 545.13 554.59 543.21C554.59 543.21 554.74 549.06 559.8 547.2" />
	<path id="Layer" class="shp4" d="M552.82 531.19C552.82 531.19 546.37 532.49 547.69 539.61" />
	<path id="Layer" class="shp4" d="M547.9 535.55C540.8 531.73 545.89 527.06 545.89 527.06C545.89 527.06 542.78 525.04 544.24 521.47C545.73 517.91 552.06 519.94 552.06 519.94" />
	<path id="Layer" class="shp4" d="M653.73 588.58C653.73 588.58 653.29 592.59 650.36 592.57C647.43 592.56 646.98 588.98 647.8 586.98C647.8 586.98 644.76 584.99 645.98 581.57C647.21 578.16 651.03 580.57 651.03 580.57C651.03 580.57 654.64 576.38 656.61 580.69C658.59 584.97 653.73 588.58 653.73 588.58Z" />
	<path id="Layer" class="shp4" d="M619.69 567.86C619.69 567.86 618.2 571.93 614.91 570.95C611.63 569.97 612.25 566.73 613.74 563.56C613.74 563.56 611.64 560.6 613.27 558C614.91 555.4 617.23 558.46 617.23 558.46C617.23 558.46 618.83 555.63 621.02 557.59C623.2 559.56 620.57 562.24 620.57 562.24C620.57 562.24 625.16 561.94 624.71 564.49C624.24 567.07 619.69 567.86 619.69 567.86Z" />
	<path id="Layer" class="shp4" d="M619.28 589.92C619.28 589.92 619.63 594.22 617.05 594.27C614.46 594.32 614.45 591.91 614.45 591.91C614.45 591.91 610.85 593.12 610.44 589.04C610.03 584.97 614.47 585.76 614.47 585.76C614.47 585.76 614.14 582.4 616.09 582.38C618.08 582.38 618.25 584.81 618.25 584.81C618.25 584.81 621.27 583.79 621.86 585.41C622.46 587.08 619.28 589.92 619.28 589.92Z" />
	<path id="Layer" class="shp4" d="M592.38 576.07C592.38 576.07 592.12 580.46 587.84 579.78C583.57 579.11 585.17 574.35 586.05 572.89C586.05 572.89 582.34 571.04 584.16 568.61C585.94 566.16 588.93 568.77 588.93 568.77C588.93 568.77 592.73 565.13 594.87 569.04C596.94 572.89 592.38 576.07 592.38 576.07Z" />
	<path id="Layer" class="shp4" d="M535.5 563.56C535.5 563.56 534.75 568.25 530.71 568.01C526.66 567.78 529.08 563.76 529.08 563.76C529.08 563.76 525.73 563.35 526.04 560.66C526.35 557.97 529.82 558.29 529.82 558.29C529.82 558.29 529.21 553.19 532.94 553.68C536.66 554.2 534.96 558.27 534.96 558.27C534.96 558.27 539.06 559.09 538.48 561.23C537.89 563.38 535.5 563.56 535.5 563.56Z" />
	<path id="Layer" class="shp4" d="M537.07 541.01C537.07 541.01 535.79 545.77 532.48 545.26C529.16 544.77 530.83 540.35 530.83 540.35C530.83 540.35 525.57 539.34 526.63 535.73C527.69 532.11 531.43 533.29 531.43 533.29C531.43 533.29 530.1 529.16 532.97 529.41C535.82 529.64 535.62 532.68 535.62 532.68C535.62 532.68 540.87 531.38 540.75 535.01C540.6 538.63 537.07 541.01 537.07 541.01Z" />
	<path id="Layer" class="shp4" d="M671.52 530.46C671.52 530.46 674.79 531.47 673.56 533.99C672.33 536.5 669.88 534.08 669.88 534.08C669.88 534.08 668.8 538.24 666.27 536.64C663.73 535.04 666.36 531.03 666.36 531.03C666.36 531.03 665.05 528.15 667 526.93C668.89 525.73 671.98 528.21 671.52 530.46Z" />
	<path id="Layer" class="shp4" d="M512.13 548.27C512.13 548.27 514.46 550.17 512.55 552.22C510.63 554.27 508.88 551.25 508.88 551.25C508.88 551.25 503.43 554.27 502.35 550.63C501.26 547 505.55 546.01 505.55 546.01C505.55 546.01 508.63 540.3 510.86 543.14C513.1 545.99 512.13 548.27 512.13 548.27Z" />
	<path id="Layer" class="shp4" d="M549.19 485.64C549.15 492.95 542.71 489.25 542.71 489.25C542.71 489.25 540.15 493.89 536.14 490.93C532.13 487.97 536.22 484.03 536.22 484.03C536.22 484.03 532.46 479.33 535.6 476C538.73 472.68 543.47 480.06 543.47 480.06C543.47 480.06 546.77 478.26 549.5 480.08C552.24 481.9 549.29 485.17 549.29 485.17" />
	<path id="Layer" class="shp4" d="M522.99 488.76C523.09 489.02 523.46 490.98 523.68 491.03C520.19 490.05 516.46 494.83 516.46 494.83C511.8 495.1 505.03 493.01 505.26 487.37C505.49 481.73 510.35 484.33 510.35 484.33C510.35 484.33 509.06 476.92 515.56 479.06C517.7 479.81 519.96 480.87 521.2 482.9C521.57 483.52 521.85 484.25 522.05 484.98C522.4 486.24 522.59 487.61 522.99 488.76Z" />
	<path id="Layer" class="shp4" d="M520.56 482.02C520.43 481.33 520.97 480.53 521.32 479.95C522.85 477.52 524.65 475.25 527.73 475.8C530.2 476.26 532.44 477.86 534.34 479.49" />
	<path id="Layer" class="shp4" d="M546.83 490.2C546.83 490.2 552.91 495.2 551.33 500.4C549.75 505.59 545.06 501.86 545.06 501.86C545.06 501.86 545.61 508.95 540.97 509.06C536.35 509.14 537.25 501.52 537.25 501.52C537.25 501.52 531.83 503.35 532.1 497.72C532.37 492.06 536.16 490.98 536.16 490.98" />
	<path id="Layer" class="shp4" d="M523.65 491.1C523.65 491.1 527.72 493.53 529.73 489.6C529.73 489.6 530.15 493.76 532.56 494.96" />
	<path id="Layer" class="shp4" d="M533.75 501.47C535.45 505.24 532.6 508.77 528.58 509.4C524.53 509.98 523.62 503.98 523.62 503.98C523.62 503.98 520.59 508.08 517.05 504.46C513.52 500.85 516.43 494.9 516.43 494.9" />
	<path id="Layer" class="shp4" d="M516.34 503.56C516.34 503.56 514.48 510.77 508.55 510.2C502.63 509.59 503.77 502.71 503.77 502.71C503.77 502.71 500.18 501.99 499.25 497.35C498.33 492.71 506.52 491.38 506.52 491.38" />
	<path id="Layer" class="shp13" d="M647.53 195.12C645.6 199.3 641.51 202.18 636.71 202.18C631.92 202.18 627.79 199.3 625.89 195.12C629.16 195.46 632.85 195.62 636.71 195.62C640.58 195.62 644.26 195.43 647.53 195.12Z" />
	<path id="Layer" class="shp13" d="M648.65 189.86C648.65 191.74 648.24 193.51 647.49 195.12C644.22 195.46 640.54 195.62 636.67 195.62C632.81 195.62 629.13 195.43 625.86 195.12C625.11 193.51 624.7 191.74 624.7 189.86C624.7 188.55 624.89 187.29 625.26 186.13C626.78 181.14 631.32 177.54 636.67 177.54C642.03 177.54 646.53 181.14 648.05 186.13C648.46 187.29 648.65 188.55 648.65 189.86Z" />
	<path id="Layer" class="shp4" d="M624.74 189.86C624.74 191.74 625.15 193.51 625.89 195.12C617.71 194.31 612.1 192.59 612.1 190.59C612.1 188.63 617.45 186.98 625.3 186.13C624.96 187.29 624.74 188.55 624.74 189.86Z" />
	<path id="Layer" class="shp4" d="M661.32 190.59C661.32 192.59 655.71 194.31 647.53 195.12C648.27 193.51 648.68 191.74 648.68 189.86C648.68 188.55 648.5 187.29 648.13 186.13C655.97 186.94 661.32 188.63 661.32 190.59Z" />
	<path id="Layer" class="shp5" d="M594.11 147.21L587.75 147.51L584.44 153.08L582.17 146.94L576 145.4L580.95 141.29L580.5 134.73L585.82 138.34L591.69 135.84L590.02 142.18L594.11 147.21Z" />
	<path id="Layer" class="shp5" d="M585 239.27C585 235.64 587.84 232.7 591.36 232.7C594.87 232.7 597.71 235.64 597.71 239.27C597.71 242.89 594.87 245.83 591.36 245.83C587.84 245.83 585 242.89 585 239.27Z" />
	<path id="Layer" class="shp13" d="M667.87 227.18C667.87 225.03 669.55 223.3 671.62 223.3C673.7 223.3 675.38 225.03 675.38 227.18C675.38 229.32 673.7 231.05 671.62 231.05C669.55 231.05 667.87 229.32 667.87 227.18Z" />
	<path id="Layer" class="shp13" d="M686.72 142.29C686.72 137.71 690.31 134 694.75 134C699.18 134 702.78 137.71 702.78 142.29C702.78 146.87 699.18 150.59 694.75 150.59C690.31 150.59 686.72 146.87 686.72 142.29Z" />
	<path id="Layer" class="shp13" d="M717.61 228.33L712.15 224.95L706.38 227.67L707.8 221.26L703.52 216.43L709.84 215.85L712.96 210.17L715.46 216.19L721.66 217.5L716.87 221.8L717.61 228.33Z" />
	<path id="Layer" class="shp5" d="M750.7 171.93C750.7 170.06 752.16 168.55 753.97 168.55C755.78 168.55 757.24 170.06 757.24 171.93C757.24 173.8 755.78 175.31 753.97 175.31C752.16 175.31 750.7 173.8 750.7 171.93Z" />
</svg>