<svg width="1366" height="1143" viewBox="0 0 1366 1143" fill="none" xmlns="http://www.w3.org/2000/svg">
  <path fill-rule="evenodd" clip-rule="evenodd" d="M1345.61 504.112C1346.54 505.135 1346.46 506.716 1345.44 507.643L1150.46 684.447C1149.44 685.374 1147.86 685.297 1146.93 684.274V684.274C1146 683.251 1146.08 681.67 1147.1 680.743L1342.08 503.939C1343.1 503.012 1344.68 503.089 1345.61 504.112V504.112Z" fill="url(#paint0_linear_1:96)" />
  <path fill-rule="evenodd" clip-rule="evenodd" d="M294.091 499.518C294.946 500.602 294.76 502.174 293.675 503.029L-218.746 906.915C-219.83 907.77 -221.402 907.584 -222.257 906.499V906.499C-223.111 905.415 -222.925 903.843 -221.841 902.988L290.58 499.102C291.664 498.247 293.236 498.434 294.091 499.518V499.518Z" fill="url(#paint1_linear_1:96)" />
  <path d="M672.557 393.642L645.386 442.447L695.473 428.639L711.926 403.601L672.557 393.642Z" fill="#73B7EA" stroke="#2E1E00" stroke-width="1.5" stroke-miterlimit="10" stroke-linecap="round" stroke-linejoin="round" />
  <path d="M738.662 469.234C738.662 469.234 944.221 334.597 971.61 191.059L971.691 190.534C831.161 173.375 644.12 334.306 644.12 334.306C644.12 334.306 673.024 422.746 738.662 469.234Z" fill="#ADF0E7" stroke="#2E1E00" stroke-width="1.5" stroke-miterlimit="10" stroke-linecap="round" stroke-linejoin="round" />
  <path d="M589.941 301.405C589.941 301.405 662.11 306.63 688.21 328.145L644.12 334.306C644.12 334.306 623.396 315.877 589.941 301.405Z" fill="#73B7EA" stroke="#2E1E00" stroke-width="1.5" stroke-miterlimit="10" stroke-linecap="round" stroke-linejoin="round" />
  <path d="M723.069 528.365C723.069 528.365 766.158 468.025 767.284 433.484L734.145 464.272C734.224 464.227 734.237 492.58 723.069 528.365Z" fill="#73B7EA" stroke="#2E1E00" stroke-width="1.5" stroke-miterlimit="10" stroke-linecap="round" stroke-linejoin="round" />
  <path d="M744.219 373.458C755.638 376.804 767.58 369.947 770.892 358.142C774.204 346.336 767.632 334.053 756.213 330.707C744.794 327.36 732.852 334.218 729.54 346.023C726.228 357.828 732.8 370.111 744.219 373.458Z" stroke="#2E1E00" stroke-width="1.5" stroke-miterlimit="10" stroke-linecap="round" stroke-linejoin="round" />
  <path d="M866.164 316.046C860.98 322.215 854.346 326.929 846.929 329.698C842.245 331.483 837.241 332.281 832.301 332.138C828.09 332.002 821.391 330.794 817.385 329.689C802.415 325.301 789.861 322.24 775.14 316.965C770.137 315.155 764.967 313.229 760.389 310.377C758.297 309.077 754.56 306.541 755.432 303.433C756.838 298.422 761.627 298.864 765.625 299.761C783.712 303.689 801.69 308.477 819.234 314.58C819.295 314.598 819.418 314.634 819.479 314.652C818.822 314.39 817.513 310.3 817.121 309.567C816.216 307.586 815.329 305.541 814.362 303.542C812.153 298.639 809.882 293.717 807.672 288.814C805.218 283.358 802.747 277.966 800.294 272.511L798.118 267.96L802.484 268.965L812.645 271.325C813.701 263.535 827.143 257.041 827.143 257.041L827.15 252.993L827.091 245.63C831.193 246.627 835.132 249.154 838.725 252.678C844.731 258.488 849.979 265.106 854.575 272.15C857.48 276.708 859.988 281.493 862.62 286.314C865.207 291.054 868.147 295.485 870.972 300.088L873.673 305.136C873.691 305.072 871.497 309.578 866.164 316.046Z" fill="#FFDC38" stroke="#2E1E00" stroke-width="1.5" stroke-miterlimit="10" stroke-linecap="round" stroke-linejoin="round" />
  <path d="M806.153 284.524L825.801 274.838" stroke="#2E1E00" stroke-width="1.5" stroke-miterlimit="10" stroke-linecap="round" stroke-linejoin="round" />
  <path d="M834.849 265.546L821.467 272.538C821.467 272.538 827.964 278.492 834.232 275.318C840.501 272.144 834.849 265.546 834.849 265.546Z" fill="#2E1E00" stroke="#2E1E00" stroke-width="1.5" stroke-miterlimit="10" stroke-linecap="round" stroke-linejoin="round" />
  <path d="M842.479 262.016L853.918 256.033C853.918 256.033 854.556 263.701 849.306 266.556C843.977 269.456 842.479 262.016 842.479 262.016Z" fill="#2E1E00" stroke="#2E1E00" stroke-width="1.5" stroke-miterlimit="10" stroke-linecap="round" stroke-linejoin="round" />
  <path d="M837.611 268.483L845.233 264.745" stroke="#2E1E00" stroke-width="1.5" stroke-miterlimit="10" stroke-linecap="round" stroke-linejoin="round" />
  <path d="M843.307 277.291C844.289 277.579 845.317 276.989 845.602 275.973C845.887 274.957 845.321 273.9 844.339 273.612C843.356 273.324 842.328 273.914 842.043 274.93C841.758 275.946 842.324 277.003 843.307 277.291Z" fill="#2E1E00" />
  <path d="M836.428 279.325C836.428 279.325 839.339 284.571 845.059 282.404" stroke="#2E1E00" stroke-width="1.5" stroke-miterlimit="10" stroke-linecap="round" stroke-linejoin="round" />
  <path d="M808.729 290.016L820.57 286.622L812.42 297.687L808.729 290.016Z" fill="#2E1E00" stroke="#2E1E00" stroke-width="1.5" stroke-miterlimit="10" stroke-linecap="round" stroke-linejoin="round" />
  <path d="M814.291 301.668L823.035 298.19L816.485 306.155L814.291 301.668Z" fill="#2E1E00" stroke="#2E1E00" stroke-width="1.5" stroke-miterlimit="10" stroke-linecap="round" stroke-linejoin="round" />
  <path d="M662.748 411.566L682.213 410.818L671.805 395.138" fill="#2E1E00" />
  <path d="M662.748 411.566L682.213 410.818L671.805 395.138" stroke="#2E1E00" stroke-width="1.5" stroke-miterlimit="10" stroke-linecap="round" stroke-linejoin="round" />
  <path opacity="0.4" d="M821.442 315.227C842.586 321.424 864.698 308.727 870.831 286.867C876.963 265.008 864.794 242.265 843.65 236.068C822.507 229.872 800.395 242.569 794.262 264.428C788.13 286.287 800.299 309.031 821.442 315.227Z" fill="#FEFFFA" stroke="#2E1E00" stroke-width="1.5" stroke-miterlimit="10" stroke-linecap="round" stroke-linejoin="round" />
  <path d="M821.442 315.227C842.586 321.424 864.698 308.727 870.831 286.867C876.963 265.008 864.794 242.265 843.65 236.068C822.507 229.872 800.395 242.569 794.262 264.428C788.13 286.287 800.299 309.031 821.442 315.227Z" stroke="#2E1E00" stroke-width="1.5" stroke-miterlimit="10" stroke-linecap="round" stroke-linejoin="round" />
  <path opacity="0.15" d="M1080.79 270.178L210 981L796 1051L1359.48 157.208L1146.14 347.655L1080.79 270.178Z" fill="url(#paint2_linear_1:96)" />
  <path d="M258.5 934.5L1072.15 279.045C1077.63 274.634 1085.62 275.376 1090.19 280.72L1139.1 337.925C1143.89 343.52 1152.36 344.03 1157.78 339.05L1358.09 155.012" stroke="url(#paint3_linear_1:96)" stroke-width="5" stroke-linecap="round" />
  <path d="M1343.45 154.856L1358.09 155.012L1357.58 168.586" stroke="#F37E2A" stroke-width="5" stroke-linecap="round" />
  <path d="M568.924 472.808C568.649 473.284 568.261 473.627 567.734 473.696C567.042 473.864 566.112 473.589 565.022 472.989L564.555 472.701L564.457 473.255C564.284 474.201 563.93 475.494 563.01 476.33C562.299 476.958 561.372 477.194 560.298 477.07C559.95 477.004 559.652 476.917 559.369 476.794C558.625 476.472 558.246 475.967 558.05 475.627C557.477 474.57 557.654 473.2 557.877 472.233L558.026 471.658L557.434 471.785C556.621 471.943 555.439 471.984 554.52 471.373C553.58 470.71 553.101 469.524 553.132 467.793C553.131 466.558 553.575 465.559 554.415 464.816C556.016 463.425 558.713 463.445 559.801 463.534L560.007 463.538L560.151 463.388C560.309 463.201 560.503 463.03 560.768 462.889C562.365 461.921 564.526 462.135 565.972 463.4C567.933 465.144 567.949 467.789 567.853 468.854L567.851 469.066L568.014 469.179C568.366 469.544 569.875 470.964 568.924 472.808Z" fill="#FEFFFA" />
  <path d="M498.474 457.179C498.615 457.24 498.721 457.285 498.876 457.309C501.553 458.156 503.215 455.399 504.293 454.276C505.081 455.086 506.63 456.263 507.405 456.596C507.084 459.114 507.562 460.989 508.719 462.213C509.947 463.468 511.655 463.643 512.665 463.605C512.774 465.065 513.513 467.01 515.663 467.931C515.91 468.037 516.157 468.143 516.468 468.191C519.974 469.137 521.317 464.315 522.015 462.601C523.533 462.738 525.437 461.926 526.674 460.615C528.476 458.732 528.687 456.081 528.68 454.065C529.021 454.04 531.22 453.826 531.556 453.713C531.366 454.788 530.718 456.48 531.373 457.618C532.027 458.755 533.216 459.393 534.91 459.605C535.071 460.531 535.498 462.127 536.729 463.169C537.057 463.481 537.43 463.684 537.818 463.85C538.488 464.137 539.267 464.257 540.135 464.158C543.287 463.838 543.468 460.446 543.64 457.993C543.745 458.038 544.712 458.409 544.818 458.455C545.487 458.742 546.125 458.801 546.788 458.7C548.177 458.439 549.286 456.429 549.963 455.478C550.39 456.26 550.947 458.041 551.96 458.604C553.205 459.309 554.696 459.306 556.37 458.652C557.708 458.112 558.003 457.082 558.423 455.849C559.143 453.673 557.897 451.04 557.206 449.587C557.291 449.581 558.291 449.667 558.412 449.676C558.868 449.572 559.874 448.932 560.275 448.761C560.3 449.714 560.43 451.226 561.279 452.19C562.129 453.154 563.692 453.481 565.37 453.429C565.084 454.335 564.686 455.921 565.155 457.107C565.522 458.035 565.722 458.763 566.78 459.217C567.062 459.337 567.394 459.437 567.726 459.537C569.451 459.976 570.861 459.767 571.926 458.981C572.466 458.57 572.882 457.549 573.14 457.017C573.591 457.639 574.175 458.746 575.021 459.108C576.169 459.643 577.419 459.623 578.772 459.046C582.028 457.658 583.042 454.965 583.345 453.51C583.968 453.606 584.692 453.659 585.475 453.567C586.684 453.443 587.661 452.876 588.338 451.924C589.459 450.391 589.193 447.793 589.124 446.436C589.868 446.541 591.599 446.255 592.336 445.971C592.898 446.726 593.64 448.157 595.085 448.777C595.895 449.124 596.552 449.748 597.439 449.4C599.148 448.762 600.61 447.204 601.317 445.366C601.728 444.257 601.812 443.136 601.61 442.107L601.645 442.123C603.587 441.927 605.549 439.042 606.316 437.871C607.295 438.719 609.259 440.503 611.061 440.248C612.25 440.072 612.71 439.755 613.38 438.415C615.242 434.759 613.769 430.957 612.799 429.171C614.814 428.493 615.948 424.995 616.342 423.622C617.906 423.95 620.175 424.58 621.662 422.047C623.382 419.144 621.415 415.945 620.388 414.605C620.727 414.28 621.076 413.829 621.405 413.328C624.265 408.643 622.459 404.742 622.185 404.196C621.731 402.973 621.206 402.534 620.189 402.184C619.137 401.819 617.955 402.383 617.169 402.688C617.084 401.067 616.571 397.549 615 396.019C613.449 394.541 611.475 395.322 610.241 395.607C610.253 394.969 610.285 393.57 610.179 392.711C609.827 390.118 608.663 388.506 606.747 388.027C605.439 387.68 605.181 388.212 604.26 388.846C603.62 389.299 602.915 390.625 602.627 391.23C601.613 389.553 599.167 386.105 596.924 385.615C596.386 385.513 596.022 386 595.53 386.089C595.395 385.303 595.034 383.649 594.559 382.374C593.432 379.45 591.527 377.52 589.068 376.851C586.678 376.212 584.663 377.704 583.358 379.586C582.478 377.581 580.436 374.564 577.262 374.531C575.494 374.502 574.679 375.18 573.766 376.203C573.092 376.942 572.806 377.847 572.695 378.528C571.684 378.265 569.502 377.93 568.11 378.704C567.895 378.826 567.715 378.963 567.535 379.1C566.675 377.96 564.835 375.972 562.618 376.435C560.736 376.785 560.307 378.957 560.11 380.458C559.112 379.858 557.328 378.751 555.823 379.091C554.504 379.382 554.004 379.896 553.286 381.559C552.092 384.388 552.455 385.529 553.14 386.593L553.713 387.524C553.132 387.832 551.64 389.463 551.131 390.101C549.627 388.814 548.102 387.475 546.592 387.727C544.49 388.111 542.951 390.364 542.344 391.346C540.478 390.846 538.855 390.664 537.504 391.542C536.714 392.059 536.036 393.825 535.559 395.505C534.716 394.93 533.179 393.928 531.722 393.946C530.251 394.001 528.962 394.219 527.78 395.597C527.46 395.974 526.699 397.233 526.501 397.619C525.581 396.625 524.08 395.125 521.687 395.513C519.956 395.799 518.985 396.453 518.302 398.131C517.767 399.444 517.756 400.895 518.21 402.118C517.197 402.369 515.724 402.937 514.742 404.229C513.92 405.333 513.632 406.752 513.908 408.412C514.147 409.756 515.298 410.893 516.222 411.674C515.129 412.019 512.919 413.685 512.177 414.694C511.147 413.868 509.66 412.844 508.649 412.582C507.205 412.264 506.656 411.985 505.277 413.236C503.169 415.16 503.645 418.362 505.329 421.14C501.68 421.46 500.675 423.214 500.461 426.078C499.018 425.759 496.452 425.044 494.805 425.837C493.923 426.273 493.404 426.736 493.264 427.79C492.879 430.666 494.24 432.406 495.546 433.266C494.793 434.099 493.852 435.495 493.851 437.122C493.853 438.236 494.861 439.825 495.761 440.768C493.653 441.877 490.504 443.612 491.012 447.041C491.524 450.559 494.379 451.783 496.349 452.028C496.013 453.768 496.324 456.258 498.474 457.179Z" fill="#FEFFFA" />
  <path d="M539.387 508.683C539.88 508.895 539.852 509.268 540.47 509.276C541.685 509.24 542.737 508.791 543.52 507.885C544.753 506.486 545.262 503.406 545.344 501.985C546.266 502.466 547.429 503.778 548.707 503.384C549.9 502.995 550.728 501.98 551.226 500.351C552.502 496.101 549.163 492.1 547.501 490.488C548.581 489.666 549.155 488.156 549.193 486.03C549.193 486.03 549.208 485.994 549.173 485.979C549.507 485.565 550.793 483.932 550.597 482.177C550.506 481.282 549.994 480.506 549.137 479.967C546.848 478.472 544.625 479.661 543.488 480.115C542.566 478.821 539.894 475.319 537.412 475.112C536.412 475.026 535.987 475.358 535.248 476.155C534.524 476.916 534.305 478.064 534.119 478.926C532.48 477.667 530 476.133 527.868 475.776C524.505 475.191 522.465 477.657 520.943 480.175L520.899 480.284C520.744 480.561 520.472 481.129 520.303 481.442C518.965 480.355 517.483 479.42 516.205 479C514.157 478.337 512.571 478.47 511.502 479.469C510.268 480.567 509.996 483.064 510.024 484.318C509.169 484.079 508.059 483.347 507.033 483.935C505.942 484.581 505.372 485.879 505.303 487.777C505.26 489 505.503 490.132 506.046 491.136C504.426 491.556 501.454 492.552 500.119 494.507C499.492 495.437 499.282 496.461 499.489 497.578C500.24 501.326 502.623 502.69 503.766 503.137C503.682 504.258 503.711 506.626 505.007 508.424C505.569 509.179 506.255 509.73 507.101 510.092C507.7 510.349 508.344 510.497 509.053 510.586C513.314 510.999 515.236 506.383 516.32 503.721C517.437 504.842 519.31 506.545 520.59 506.451C521.7 506.37 523.043 505.104 523.678 504.562C524.174 506.189 524.803 508.814 526.459 509.524C527.058 509.781 527.767 509.87 528.585 509.793C531.014 509.42 532.723 507.968 533.716 506.038C534.312 504.88 534.433 503.261 534.2 502.005C534.717 502.055 536.771 501.994 537.177 501.911C537.151 503.399 536.887 506.284 538.272 507.863C538.7 508.132 538.929 508.487 539.387 508.683Z" fill="#FEFFFA" />
  <path d="M484.909 418.726C485.159 419.433 485.64 419.981 486.4 420.35C486.435 420.365 486.471 420.38 486.506 420.395C487.281 420.728 488.02 420.744 488.706 420.482C489.257 420.247 489.944 419.171 490.263 418.794C490.708 419.327 491.112 420.571 492.012 420.7C492.947 420.843 493.849 420.459 494.682 419.531C496.898 417.14 495.667 413.657 493.423 411.239C492.872 410.66 492.292 410.154 491.681 409.721C489.548 408.25 487.231 407.942 484.992 408.867C482.652 409.834 480.911 411.872 480.833 413.894C480.754 415.103 481.312 416.07 482.325 416.633C483.353 417.159 484.711 416.671 485.373 416.569C485.23 417.022 484.755 418.189 484.909 418.726Z" fill="#FEFFFA" />
  <path d="M510.478 400.774C510.97 399.871 510.953 398.793 510.469 397.643C509.155 394.467 505.701 394.614 503.815 395.176C503.281 394.862 502.048 394.333 500.749 394.676C499.686 394.948 498.841 395.7 498.181 396.916C497.336 398.481 497.599 399.665 497.97 400.381C498.752 401.915 500.579 402.613 501.761 402.862C501.69 403.646 501.753 404.915 502.426 405.803C502.614 406.055 502.922 406.315 503.344 406.497C503.626 406.618 504.009 406.696 504.42 406.701C505.244 406.711 505.946 406.412 506.51 405.84C507.313 404.985 507.507 403.698 507.548 402.987C508.32 402.718 509.772 402.099 510.478 400.774Z" fill="#FEFFFA" />
  <path d="M489.269 510.372C488.345 509.591 487.353 509.08 486.93 508.899C486.149 507.665 484.029 505.856 480.941 506.932C479.598 507.384 479.086 508.235 478.919 508.849C478.486 510.419 479.541 512.199 480.123 513.006C479.72 513.69 479.086 515.045 479.26 516.448C479.406 517.41 479.868 518.207 480.695 518.819C480.982 519.028 481.285 519.2 481.567 519.321C482.166 519.578 482.769 519.622 483.361 519.491C484.459 519.233 485.277 518.342 485.686 517.746C486.456 517.99 487.864 518.294 489.111 517.672C490.042 517.215 490.695 516.424 491.05 515.248C491.577 513.547 490.955 511.823 489.269 510.372Z" fill="#FEFFFA" />
  <path d="M534.53 379.43C535.101 380.06 535.871 380.305 536.494 380.401C536.316 381.652 536.592 383.312 538.248 384.022C540.011 384.778 541.465 383.645 542.252 382.526C543.623 383.328 545.857 383.943 547.649 382.184C548.603 381.265 548.748 380.299 548.724 379.646C548.667 378.465 547.953 377.474 547.438 376.91C547.672 376.539 547.95 376.059 548.138 375.497C548.756 373.877 548.476 372.43 547.371 371.485C546.083 370.376 544.714 369.875 543.284 370.033C541.377 370.243 539.933 371.552 539.354 372.16C537.566 372.079 534.556 372.759 533.908 376.079C533.64 377.549 533.847 378.666 534.53 379.43Z" fill="#FEFFFA" />
  <path d="M527.233 355.571C527.277 357.089 527.968 359.356 530.295 360.353C530.471 360.428 530.647 360.504 530.803 360.528C532.152 360.977 533.103 360.572 533.664 360.212C534.864 359.399 535.347 357.807 535.533 356.944C536.466 356.788 538.286 356.283 539.051 354.812C539.588 353.799 539.545 352.582 538.859 351.217C537.07 347.58 532.772 347.665 530.48 348.311C529.024 347.515 526.273 346.85 524.643 349.021C523.886 350.067 523.652 351.252 524.05 352.408C524.627 353.94 526 355.042 527.233 355.571Z" fill="#FEFFFA" />
  <path d="M503.371 367.402C502.857 367.952 502.245 368.846 502.146 370.003C502.053 371.248 502.557 372.45 503.674 373.571C504.148 374.031 504.653 374.419 505.146 374.63C505.745 374.887 506.334 374.968 506.925 374.836C508.215 374.618 509.158 372.709 509.726 371.924C510.392 372.424 511.475 373.831 512.464 373.741C513.111 373.675 513.692 373.368 514.136 372.787C515.212 371.363 514.168 369.759 513.489 368.783C514.658 367.742 516.362 366.202 515.444 364.695C514.354 362.9 510.936 363.363 509.597 363.602C508.925 363.015 507.256 361.828 505.67 361.962C504.851 362.039 504.156 362.427 503.632 363.102C502.934 364.002 502.634 364.944 502.745 365.891C502.869 366.501 503.123 366.995 503.371 367.402Z" fill="#FEFFFA" />
  <path d="M468.783 430.874L468.748 430.859C468.607 430.799 465.795 429.165 463.6 429.98C462.678 430.313 462.019 431.016 461.588 432.073C461.118 433.328 461.279 434.254 461.782 435.155C462.305 436.107 463.848 436.383 464.498 436.619C464.291 437.43 463.794 439.058 464.287 440.083C464.561 440.629 464.544 441.179 465.073 441.406C465.179 441.451 465.249 441.481 465.355 441.526C467.015 442.024 469.756 440.072 470.887 437.601C472.097 435.036 471.309 432.6 468.783 430.874Z" fill="#FEFFFA" />
  <path d="M482.24 453.433C482.546 452.579 483.515 450.81 483.107 449.778C482.918 449.226 482.499 448.832 482.006 448.621C480.37 447.962 479.069 448.818 478.434 449.36C478.434 449.36 478.434 449.36 478.399 449.345C476.778 448.65 473.978 448.307 472.291 450.924C471.589 452.037 471.409 452.988 471.771 453.828C472.188 454.735 473.75 454.762 474.499 454.955C474.065 456.225 473.38 458.416 475.003 459.411C475.129 459.508 475.27 459.568 475.411 459.629C476.961 460.294 478.357 459.307 479.17 458.328C479.891 458.894 481.141 459.687 482.416 459.505C483.028 459.425 483.88 459.062 484.576 457.861C485.163 456.827 485.258 455.883 484.911 455.006C484.468 453.959 482.945 453.735 482.24 453.433Z" fill="#FEFFFA" />
  <path d="M458.881 480.899C458.451 481.143 457.937 481.694 457.833 482.763C457.762 483.546 457.977 484.238 458.442 484.823C459.388 485.956 461.108 486.308 461.867 486.376C462.232 487.004 462.894 487.716 463.669 488.049C464.233 488.29 464.872 488.35 465.558 488.087C466.631 487.69 467.312 486.526 467.379 485.141C467.437 483.881 467.003 482.71 466.191 482.062C466.323 481.433 466.447 480.416 465.98 479.53C465.746 479.087 465.266 478.539 464.24 478.313C463.199 478.124 462.568 478.453 462.214 478.815C461.68 479.314 461.596 480.435 461.564 481.021C460.835 480.88 459.657 480.418 458.881 480.899Z" fill="#FEFFFA" />
  <path d="M557.077 361.681C556.323 362.515 554.419 364.14 554.394 365.929C554.387 367.168 554.921 368.296 555.991 369.226C556.48 369.65 556.929 369.971 557.423 370.182C558.128 370.484 558.801 370.559 559.493 370.384C560.692 370.084 561.566 368.446 562.099 367.646C562.998 368.589 564.641 370.45 567.091 370.129C568.706 369.922 569.84 368.866 570.173 367.338C570.5 365.722 569.404 363.839 568.147 362.657C569.039 361.584 570.98 359.46 570.903 357.414C570.857 356.409 570.425 355.539 569.613 354.89C567.135 352.843 564.068 353.97 562.407 355.1C560.632 353.868 557.465 352.596 555.42 354.975C554.732 355.75 554.431 356.692 554.477 357.697C554.512 359.34 556.338 360.851 557.077 361.681Z" fill="#FEFFFA" />
  <path d="M494.51 474.027C495.547 474.428 496.541 474.426 497.407 474.027C498.224 473.648 498.779 472.387 499.137 471.813C499.688 472.391 500.504 473.641 501.413 473.645C501.875 473.629 502.567 473.454 503.144 472.545C504.234 470.785 503.607 469.274 502.763 468.398C503.487 467.638 504.569 466.303 504.516 464.909C504.497 464.344 504.271 463.476 503.353 462.783C500.907 460.963 497.732 461.744 496.825 462.041C496.422 461.911 495.617 461.651 494.688 461.596C492.864 461.499 491.517 462.164 490.761 463.511C490.195 464.596 490.301 465.455 490.54 465.986C490.989 467.12 492.688 467.42 493.463 467.753C493.112 468.716 492.13 470.822 492.646 472.2C492.972 473.025 493.543 473.655 494.389 474.018L494.495 474.063L494.51 474.027Z" fill="#FEFFFA" />
  <path d="M525.452 380.679C525.949 379.864 527.057 378.668 526.891 377.654C526.781 377.008 526.372 376.49 525.752 376.181C523.641 375.062 520.926 377.154 519.982 377.948C518.347 377.59 515.611 377.702 514.582 380.431C514.127 381.65 514.144 382.727 514.631 383.665C515.312 384.941 516.844 385.855 519.334 386.451C519.66 387.276 520.489 389.002 522.18 389.727C522.568 389.894 523.021 390.002 523.503 390.037C524.709 390.126 525.364 389.636 525.698 389.222C526.286 388.489 526.376 387.457 526.311 386.701C526.873 386.642 527.615 386.446 528.165 385.91C528.569 385.527 529.037 384.785 528.974 383.516C528.934 382.599 528.542 381.832 527.927 381.311C527.367 380.857 526.075 380.774 525.452 380.679Z" fill="#FEFFFA" />
  <path d="M512.999 522.344C513.283 522.765 513.682 523.107 514.175 523.319C514.774 523.576 515.533 523.644 516.296 523.5C517.565 523.23 518.411 521.965 518.847 520.995C519.48 520.967 520.602 521.362 521.332 520.69C521.686 520.328 522.109 519.695 522.058 518.602C522.006 517.509 521.526 516.961 521.112 516.655C520.502 516.222 519.361 516.889 518.763 516.933C518.763 516.119 519 514.422 518.337 513.71C517.989 513.346 517.328 512.934 516.275 513.082C515.527 513.19 514.866 513.592 514.458 514.188C513.576 515.438 514.251 517.441 514.336 518.248C513.503 519.176 511.955 520.74 512.999 522.344Z" fill="#FEFFFA" />
  <path d="M452.396 522.537C451.243 523.842 448.59 523.647 447.64 523.54C447.115 523.914 445.815 524.77 444.397 524.591C444.121 524.558 443.859 524.489 443.612 524.383C443.049 524.141 442.524 523.702 442.108 523.096C441.582 522.356 441.461 521.533 441.667 520.722C442.095 519.064 444.177 517.814 445.123 517.321C444.964 516.695 444.647 515.746 445.094 514.952C445.358 514.508 445.857 513.994 446.911 513.846C448 513.714 448.675 514.089 449.074 514.431C449.745 515.019 449.971 515.886 450.075 516.445C450.8 516.799 452.238 517.843 452.845 520.417C453.118 521.476 452.765 522.138 452.396 522.537Z" fill="#FEFFFA" />
  <path d="M512.127 548.269C512.313 547.406 512.716 545.095 511.071 542.934C510.362 542.03 509.45 542.239 508.938 542.276C507.181 542.422 506.046 545.106 505.569 545.972C504.948 546.177 503.387 546.45 502.647 547.761C502.17 548.627 501.867 549.268 502.189 550.306C502.451 551.189 503.007 551.856 503.747 552.173C505.333 552.853 507.493 552.022 508.51 551.559C508.92 552.077 509.597 552.753 510.496 552.882C510.999 552.969 511.747 552.861 512.536 552.042C513.339 551.187 513.46 550.383 513.442 549.818C513.371 548.974 512.496 548.684 512.127 548.269Z" fill="#FEFFFA" />
  <path d="M538.351 559.81C537.793 558.842 536.205 558.676 535.329 558.386C535.52 557.611 535.888 556.099 535.38 555.11C534.933 554.276 534.097 553.789 532.971 553.606C531.639 553.42 530.813 553.923 530.379 554.379C529.445 555.35 529.506 557.132 529.496 558.07C528.131 558.17 526.114 558.548 525.865 560.583C525.645 562.545 527.413 563.388 528.691 563.808C528.394 564.537 527.789 565.819 528.241 566.742C528.495 567.236 528.859 567.563 529.423 567.805C529.811 567.971 530.263 568.079 530.796 568.093C533.911 568.272 535.043 565.288 535.515 563.52C536.328 563.354 538.085 563.208 538.571 561.403C538.709 560.863 538.64 560.319 538.351 559.81Z" fill="#FEFFFA" />
  <path d="M653.364 528.435C652.41 529.768 651.312 530.528 650.099 530.642C649.193 530.718 648.433 530.431 647.951 530.18L647.398 529.897L647.129 530.462C646.699 531.427 645.945 532.677 644.678 533.235C644.528 533.298 644.327 533.382 644.092 533.45L643.534 533.592L643.678 534.166C644.014 535.505 644.395 537.971 642.928 539.338C641.604 540.554 639.922 539.868 639.044 539.359L638.272 538.896L638.163 539.787C638.052 540.889 637.695 542.397 636.659 543.311C635.753 544.112 634.512 544.298 632.934 543.87C632.479 543.758 632.074 543.625 631.684 543.456C630.264 542.841 629.319 541.877 628.939 540.647L628.733 539.918L628.117 540.205C627.501 540.493 626.844 540.676 626.174 540.684L625.59 540.687L625.598 541.287C625.679 543.154 625.215 544.615 624.215 545.546C622.748 546.912 620.51 546.88 619.628 546.796L619.193 546.735L619.033 547.135C618.346 548.84 617.229 550.06 615.905 550.552C615.183 550.793 614.012 551.01 612.543 550.416L611.798 550.093L611.754 550.926C611.716 551.847 611.482 553.152 610.666 554.247C609.814 555.327 608.583 555.901 606.942 556.042C606.55 556.085 606.116 556.025 605.732 555.944L604.913 555.802L605.041 556.624C605.235 557.902 605.124 559.729 603.547 561.261C602.439 562.358 600.903 562.757 599.375 562.308C598.181 561.961 597.127 561.163 596.524 560.177L596.174 559.599L595.671 560.021C594.909 560.67 593.675 561.457 592.264 561.442C591.06 561.431 589.918 560.851 588.91 559.732C588.072 558.815 587.654 557.782 587.615 556.742L587.569 555.614L586.686 556.254C585.573 557.05 584.536 557.453 583.624 557.441L583.04 557.443L583.048 558.044C583.071 559.332 582.86 560.476 582.459 561.368C581.926 562.586 580.828 563.346 579.236 563.678C576.101 564.322 574.598 562.052 573.856 560.068L573.557 559.257L572.91 559.829C572.019 560.593 570.261 561.749 568.239 560.872C567.99 560.764 567.757 560.621 567.488 560.461L566.928 560.091L566.644 560.692C566.083 561.983 564.834 564.254 563.16 564.892C562.388 565.154 561.611 565.116 560.854 564.617C558.395 563.168 558.174 561.027 558.25 559.909L558.285 559.2L557.601 559.244C556.559 559.347 555.057 559.249 553.946 558.384C553.197 557.761 552.707 556.91 552.555 555.736L552.448 554.965L551.768 555.309C550.822 555.794 548.347 556.767 546.147 555.813C545.544 555.552 545.02 555.197 544.569 554.661C542.003 551.929 543.495 548.741 544.017 547.859L544.308 547.345L543.805 547.042C542.799 546.436 540.585 544.794 541.472 542.281C542.351 539.892 545.088 539.203 546.657 539.031L547.221 538.977L547.162 538.398C547.023 537.4 547.075 536.442 547.29 535.598L547.38 535.168L547.019 534.926C545.007 533.713 543.895 532.336 543.732 530.774C543.555 529.249 544.303 527.911 544.967 527.09L545.313 526.644L544.925 526.263C544.205 525.567 542.627 523.69 543.774 520.948C545.031 517.828 549.831 518.843 551.267 519.21L551.687 519.307L551.918 518.938C552.657 517.725 553.812 517.032 555.396 516.824C557.85 516.524 560.641 517.563 562.012 518.711L562.45 519.072L562.832 518.641C563.005 518.417 563.264 518.189 563.544 518.012L564.348 517.465L563.49 517.008C562.688 516.618 561.655 515.872 561.232 514.751C560.829 513.681 561.019 512.485 561.782 511.111L562.013 510.743L561.732 510.407C561.189 509.789 560.275 508.54 560.204 507.061C560.129 506.005 560.539 504.99 561.332 504.055C563.465 501.656 566.577 503.345 567.823 504.184L568.545 504.667L568.689 503.792C568.84 503.005 569.124 502.404 569.606 501.931C570.541 501.058 571.925 500.933 572.908 500.976L573.841 501.039L573.451 500.146C573.18 499.474 572.833 498.472 573.015 497.4C573.199 496.116 574.015 495.021 575.414 494.135C576.483 493.448 577.589 493.288 578.647 493.662C580.621 494.347 582.009 496.696 582.687 498.012L583.065 498.73L583.691 498.107C583.756 498.05 583.77 498.013 583.835 497.956C584.158 497.67 584.467 497.421 584.883 497.217L585.592 496.8L584.935 496.26C584.349 495.75 583.566 494.899 583.364 493.746C583.182 492.645 583.544 491.438 584.54 490.207L585.045 489.574L584.285 489.287C583.525 489.001 582.49 488.467 581.958 487.512C581.426 486.556 581.445 485.371 582.001 483.993C582.614 482.469 583.543 481.508 584.637 481.172C585.159 481.015 585.708 480.997 586.284 481.119L587.173 481.291L586.954 480.387C586.741 479.57 586.685 478.779 586.842 478.08C587.074 476.987 587.781 476.058 588.921 475.401C591.739 473.682 594.254 474.474 595.502 475.1L595.984 475.352L596.224 474.859C596.494 474.294 596.884 473.739 597.395 473.193C598.13 472.404 598.996 472.012 599.994 472.019C601.733 472.048 603.444 473.386 604.291 474.18L604.842 474.674L605.191 474.016C605.525 473.393 605.986 472.869 606.546 472.515L606.89 472.28L606.809 471.862C606.473 470.523 605.879 467.24 607.866 465.928C609.279 465.006 611.206 464.776 612.911 465.302C613.913 465.608 614.741 466.138 615.346 466.911L615.761 467.432L616.223 466.908L616.237 466.871C617.434 465.557 619.7 465.517 620.961 465.595L621.602 465.659L621.573 465.008C621.521 463.792 621.607 461.613 622.794 460.423C623.5 459.706 624.529 459.428 625.802 459.682C629.494 460.344 631.449 463.664 632.271 465.554L632.557 466.189L633.131 465.799C634.738 464.706 637.274 465.549 638.318 465.959L638.814 466.174L639.055 465.682C639.506 464.769 640.867 462.632 643.778 462.956C646.761 463.311 647.967 466.732 648.33 468.21L648.453 468.732L648.981 468.663C649.423 468.599 649.937 468.566 650.456 468.621C655.632 469.117 657.412 472.872 657.579 473.285L657.6 473.337C658.153 474.343 658.322 475.269 658.042 476.17C657.733 477.144 656.956 477.831 656.382 478.221L655.743 478.669L656.33 479.178C657.432 480.167 659.322 482.095 659.537 484.148C659.704 486.01 658.564 487.391 657.608 488.213L656.99 488.712L657.641 489.165C658.058 489.474 658.695 489.962 659.323 490.576C660.959 492.308 661.476 494.023 660.768 495.677C660.301 496.838 659.595 497.555 658.637 497.864C658.101 498.058 657.466 498.081 656.819 497.928L655.824 497.71L656.184 498.676C656.746 500.283 657.592 503.249 656.653 505.271C656.442 505.691 656.16 506.08 655.837 506.366L655.384 506.767L655.793 507.2C656.314 507.767 657.047 508.638 657.712 509.779C659.219 512.35 659.557 514.925 658.621 517.247C657.759 519.388 656.072 520.574 654.056 520.51L653.073 520.467L653.549 521.355C654.346 522.894 655.286 525.731 653.364 528.435Z" fill="#FEFFFA" />
  <path d="M620.212 568.21L620.027 568.257L619.954 568.439C619.655 569.076 618.027 572.29 614.881 571.309C614.689 571.269 614.512 571.192 614.335 571.115C613.448 570.731 612.841 570.169 612.493 569.379C611.9 568.058 612.147 566.205 613.226 563.733L613.299 563.552L613.201 563.382C612.669 562.427 611.518 560.011 612.923 557.765C613.524 556.79 614.231 556.586 614.694 556.574C615.036 556.551 615.37 556.654 615.689 556.792C616.15 556.992 616.567 557.3 616.864 557.599L617.139 557.846L617.377 557.566C617.73 557.208 618.297 556.73 619.025 556.577C619.518 556.492 620.329 556.545 621.212 557.354C621.854 557.931 622.196 558.633 622.217 559.409C622.225 560.009 622.083 560.671 621.685 561.35L621.394 561.864L621.985 561.949C623.251 562.115 624.188 562.478 624.674 563.03C625.047 563.447 625.191 564.021 625.064 564.647C624.698 567.002 621.226 567.968 620.212 568.21Z" fill="#FEFFFA" />
  <path d="M592.751 576.499C592.688 577.068 592.346 578.539 591.24 579.423C590.363 580.151 589.228 580.383 587.82 580.156C586.411 579.929 585.435 579.25 584.947 578.186C584.11 576.332 585.046 574.011 585.323 573.322L585.455 572.996L585.2 572.8C584.57 572.399 583.546 571.529 583.258 570.382C583.12 569.896 583.135 569.135 583.742 568.248C584.227 567.564 584.886 567.168 585.671 567.082C586.32 567.022 586.966 567.175 587.534 567.421C587.995 567.621 588.356 567.862 588.625 568.022L588.859 568.165L589.088 568.009C589.806 567.468 591.24 566.599 592.698 566.805C593.708 566.987 594.528 567.641 595.158 568.766C597.271 572.621 593.335 575.772 592.912 576.1L592.797 576.178L592.751 576.499Z" fill="#FEFFFA" />
  <path d="M532.404 545.139C533.891 545.348 535.239 544.684 536.254 543.106C536.787 542.306 537.078 541.489 537.206 541.072C537.976 540.503 540.485 538.409 540.562 535.272C540.59 534.085 540.084 533.397 539.65 533.039C538.6 532.161 536.923 532.213 535.919 532.34C535.742 531.15 534.98 529.667 532.965 529.531C531.93 529.43 531.375 529.878 531.056 530.255C530.517 530.966 530.773 532.575 530.908 533.361C530.255 533.338 529.127 532.855 528.366 533.3C527.505 533.787 526.938 534.572 526.613 535.675C526.347 536.632 526.438 537.527 526.914 538.288C527.68 539.559 529.888 540.034 530.834 540.354C530.613 541.201 529.818 542.746 530.417 543.816C530.63 544.207 530.999 544.623 531.634 544.895C531.83 545.022 532.092 545.091 532.404 545.139Z" fill="#FEFFFA" />
  <path d="M673.911 534.246C673.446 535.194 672.816 535.517 672.338 535.566C671.624 535.683 670.88 535.36 670.412 535.072L670.052 534.83L669.891 535.229C669.549 535.976 668.998 536.929 668.111 537.269C667.76 537.415 667.183 537.506 666.473 537.198C666.332 537.137 666.154 537.06 666.027 536.962C665.362 536.546 664.94 535.937 664.784 535.188C664.45 533.638 665.337 531.85 665.751 531.134L665.859 530.968L665.797 530.814C665.623 530.313 664.808 527.787 666.701 526.605C667.475 526.131 668.436 526.122 669.358 526.522C669.642 526.645 669.911 526.804 670.166 527C671.234 527.761 671.863 528.886 671.924 529.977L671.907 530.225L672.12 530.317C672.652 530.548 673.622 531.139 673.997 532.068C674.255 532.563 674.376 533.297 673.911 534.246Z" fill="#FEFFFA" />
  <path d="M656.636 548.726C655.426 550.075 652.402 549.829 651.534 549.708L651.378 549.683L651.263 549.761C650.725 550.167 649.327 551.052 647.834 550.83C646.916 550.73 646.103 550.165 645.471 549.252C644.937 548.51 644.775 547.673 645.011 546.881C645.484 545.084 647.606 543.747 648.515 543.246L648.78 543.106L648.691 542.811C648.582 542.253 648.407 541.241 648.864 540.416C649.11 540.012 649.607 539.503 650.662 539.365C651.311 539.305 651.816 539.396 652.206 539.565C652.489 539.688 652.687 539.817 652.835 539.966C653.513 540.558 653.747 541.426 653.84 542.02L653.888 542.211L654.066 542.288C654.902 542.693 656.372 543.799 657.085 546.578C657.218 547.488 657.097 548.202 656.636 548.726Z" fill="#FEFFFA" />
  <path d="M619.703 590.286C619.738 591.025 619.698 592.882 618.776 593.931C618.329 594.418 617.764 594.685 617.094 594.692C616.168 594.717 615.444 594.446 614.873 593.9C614.577 593.601 614.325 593.194 614.208 592.76L614.118 592.465L613.812 592.503C613.198 592.578 612.301 592.53 611.544 592.031C610.731 591.465 610.199 590.511 610.049 589.125C609.926 587.88 610.185 586.927 610.861 586.283C611.666 585.525 612.807 585.38 613.633 585.398L614.011 585.391L614.036 585.019C614.072 584.31 614.224 583.311 614.729 582.678C615.061 582.268 615.511 582.08 616.045 582.099C617.591 582.087 618.212 583.336 618.454 584.08L618.565 584.426L618.886 584.352C619.7 584.194 621.66 583.979 622.194 585.446C622.79 587.067 620.516 589.403 619.826 590.084L619.696 590.198L619.703 590.286Z" fill="#FEFFFA" />
  <path d="M654.119 588.965C654.044 589.358 653.373 592.989 650.43 592.949C649.31 592.933 648.381 592.445 647.764 591.495C646.914 590.189 646.946 588.455 647.278 587.321L647.33 587.087L647.146 586.923C646.524 586.397 644.506 584.371 645.584 581.386C646.031 580.173 646.77 579.683 647.356 579.469C648.415 579.118 649.609 579.465 650.39 579.803C650.497 579.849 650.603 579.895 650.709 579.942L650.958 580.049L651.152 579.878C651.829 579.233 653.165 578.193 654.589 578.383C655.579 578.514 656.37 579.241 656.977 580.527C658.981 584.763 654.761 588.305 654.272 588.69L654.157 588.768L654.119 588.965Z" fill="#FEFFFA" />
  <path d="M609.952 395.911C609.952 395.911 610.969 389.451 607.066 388.463C603.162 387.476 602.61 391.779 602.61 391.779C602.61 391.779 598.52 382.916 593.959 387C589.397 391.084 594.379 396.132 597.058 396.467C597.058 396.467 593.837 403.867 598.864 404.737C603.856 405.592 603.251 402.505 603.251 402.505C603.251 402.505 604.162 407.179 607.691 406.85C607.691 406.85 607.369 404.185 609.973 404.701C609.923 404.723 605.639 399.588 609.952 395.911Z" stroke="#2E1E00" stroke-width="1.5" stroke-miterlimit="10" stroke-linecap="round" stroke-linejoin="round" />
  <path d="M609.952 395.911C609.952 395.911 613.097 394.39 615.143 396.38C617.188 398.371 616.95 403.023 616.95 403.023C616.95 403.023 620.813 400.653 622.251 404.439C622.251 404.439 624.378 408.263 621.533 412.912C618.687 417.56 615.908 412.085 615.908 412.085C615.908 412.085 608.028 414.661 607.676 406.886" stroke="#2E1E00" stroke-width="1.5" stroke-miterlimit="10" stroke-linecap="round" stroke-linejoin="round" />
  <path d="M596.677 403.499C596.677 403.499 593.332 404.293 592.327 408.488C591.322 412.683 596.301 413.061 596.301 413.061C596.301 413.061 590.728 414.955 593.405 420.172C596.068 425.426 599.73 424.768 599.73 424.768C599.73 424.768 604.163 421.914 607.461 424.998C607.461 424.998 607.574 420.249 609.926 420.572C609.926 420.572 604.024 416.157 608.539 410.255" stroke="#2E1E00" stroke-width="1.5" stroke-miterlimit="10" stroke-linecap="round" stroke-linejoin="round" />
  <path d="M595.044 386.266C595.044 386.266 594.633 378.637 589.069 377.151C583.521 375.63 580.981 382.679 584.417 386.337C584.417 386.337 578.792 387.952 580.723 393.577C582.655 399.202 587.665 395.439 587.665 395.439C587.665 395.439 591.852 402.031 595.14 395.687" stroke="#2E1E00" stroke-width="1.5" stroke-miterlimit="10" stroke-linecap="round" stroke-linejoin="round" />
  <path d="M592.558 411.071C592.558 411.071 583.583 414.506 583.306 404.921C583.306 404.921 573.294 401.143 581.064 394.365" stroke="#2E1E00" stroke-width="1.5" stroke-miterlimit="10" stroke-linecap="round" stroke-linejoin="round" />
  <path d="M620.035 414.454C620.035 414.454 623.714 418.43 621.795 421.719C619.876 425.008 616.307 423.607 616.307 423.607C616.307 423.607 614.274 434.086 607.455 424.91" stroke="#2E1E00" stroke-width="1.5" stroke-miterlimit="10" stroke-linecap="round" stroke-linejoin="round" />
  <path d="M597.986 424.577C597.986 424.577 594.977 429.627 600.719 431.488C600.719 431.488 595.256 435.143 598.991 440C602.726 444.856 606.251 437.929 606.251 437.929C606.251 437.929 610.976 442.996 613.345 438.4C615.693 433.753 612.153 428.723 612.153 428.723" stroke="#2E1E00" stroke-width="1.5" stroke-miterlimit="10" stroke-linecap="round" stroke-linejoin="round" />
  <path d="M579.383 402.254C579.383 402.254 574.797 408.127 570.88 402.293C570.88 402.293 564.926 403.596 564.551 398.724C564.191 393.815 569.17 388.196 569.17 388.196C569.17 388.196 570.633 390.194 573.485 389.189C573.485 389.189 572.49 396.815 578.531 397.434" stroke="#2E1E00" stroke-width="1.5" stroke-miterlimit="10" stroke-linecap="round" stroke-linejoin="round" />
  <path d="M588.649 411.623C588.649 411.623 587.104 421.412 580.646 416.331C580.646 416.331 576.233 419.237 573.701 413.054C572.04 409.001 574.728 404.842 574.728 404.842" stroke="#2E1E00" stroke-width="1.5" stroke-miterlimit="10" stroke-linecap="round" stroke-linejoin="round" />
  <path d="M583.167 380.361C583.167 380.361 582.1 374.849 577.278 374.796C572.456 374.742 572.752 378.895 572.752 378.895C572.752 378.895 567.435 376.702 566.417 382.048C565.661 385.835 569.17 388.196 569.17 388.196" stroke="#2E1E00" stroke-width="1.5" stroke-miterlimit="10" stroke-linecap="round" stroke-linejoin="round" />
  <path d="M585.183 417.59C585.183 417.59 582.506 422.739 586.127 426.861C589.747 430.983 597.274 428.256 597.274 428.256" stroke="#2E1E00" stroke-width="1.5" stroke-miterlimit="10" stroke-linecap="round" stroke-linejoin="round" />
  <path d="M567.358 379.838C567.358 379.838 565.207 376.175 562.599 376.684C559.99 377.194 560.319 381.061 560.319 381.061C560.319 381.061 555.406 376.557 553.123 381.96C550.839 387.363 555.22 389.413 558.825 389.202C558.825 389.202 558.677 393.122 565.324 394.386" stroke="#2E1E00" stroke-width="1.5" stroke-miterlimit="10" stroke-linecap="round" stroke-linejoin="round" />
  <path d="M564.566 398.687C564.566 398.687 559.741 398.032 559.089 401.565C558.436 405.097 561.239 406.856 561.239 406.856C561.239 406.856 555.709 411.081 561.802 416.349C561.802 416.349 565.892 419.216 568.35 415.215C569.066 414.066 569.979 413.043 571.156 412.391C571.966 411.925 572.738 411.656 573.022 412.078" stroke="#2E1E00" stroke-width="1.5" stroke-miterlimit="10" stroke-linecap="round" stroke-linejoin="round" />
  <path d="M567.717 416.057C567.717 416.057 565.251 422.11 572.339 424.935C572.339 424.935 575.998 422.862 576.858 425.63C576.858 425.63 579.986 419.475 584.599 424.107" stroke="#2E1E00" stroke-width="1.5" stroke-miterlimit="10" stroke-linecap="round" stroke-linejoin="round" />
  <path d="M590.811 429.083C590.811 429.083 588.746 433.338 592.79 436.014C592.79 436.014 586.691 436.655 586.467 441.271C586.279 445.901 589.863 447.266 592.251 445.977C592.251 445.977 594.947 450.131 597.608 449.087C600.268 448.043 602.442 444.434 600.973 441.535" stroke="#2E1E00" stroke-width="1.5" stroke-miterlimit="10" stroke-linecap="round" stroke-linejoin="round" />
  <path d="M572.339 424.935C572.339 424.935 568.312 427.706 572.268 433.342C574.927 437.181 577.601 436.613 579.007 435.803C580.334 435.086 581.844 434.834 583.273 435.19C584.757 435.612 586.38 436.607 587.142 438.904" stroke="#2E1E00" stroke-width="1.5" stroke-miterlimit="10" stroke-linecap="round" stroke-linejoin="round" />
  <path d="M554.071 387.763C554.071 387.763 550.313 388.551 550.503 392.659C550.693 396.767 552.213 400.759 559.025 402.737" stroke="#2E1E00" stroke-width="1.5" stroke-miterlimit="10" stroke-linecap="round" stroke-linejoin="round" />
  <path d="M561.837 416.364C561.837 416.364 555.996 418.101 556.815 423.206C557.654 428.363 561.778 427.689 561.778 427.689C561.778 427.689 555.254 431.917 559.223 434.775C563.157 437.618 564.858 432.222 564.858 432.222C564.858 432.222 567.568 439.595 572.338 433.372" stroke="#2E1E00" stroke-width="1.5" stroke-miterlimit="10" stroke-linecap="round" stroke-linejoin="round" />
  <path d="M553.751 400.134C553.751 400.134 551.819 404.574 548.712 402.342C548.712 402.342 547.349 407.112 543.179 404.34C543.179 404.34 541.745 403.896 541.544 400.426C541.544 400.426 534.977 399.881 535.39 395.818C535.812 391.63 539.094 390.381 542.446 391.604C542.446 391.604 545.656 384.842 550.961 390.114" stroke="#2E1E00" stroke-width="1.5" stroke-miterlimit="10" stroke-linecap="round" stroke-linejoin="round" />
  <path d="M535.39 395.818C535.39 395.818 531.437 391.597 527.796 395.861C526.868 396.92 526.43 398.402 526.81 399.807C527.129 401.058 528.121 402.382 530.633 402.517C530.633 402.517 526.25 405.35 530.339 409.03C534.429 412.711 536.662 408.143 536.662 408.143C536.662 408.143 541.743 411.22 543.693 404.603" stroke="#2E1E00" stroke-width="1.5" stroke-miterlimit="10" stroke-linecap="round" stroke-linejoin="round" />
  <path d="M546.978 404.769C546.978 404.769 544.085 408.926 546.844 412.721C549.589 416.553 552.953 414.697 552.953 414.697C552.953 414.697 553.575 418.862 557.322 419.826" stroke="#2E1E00" stroke-width="1.5" stroke-miterlimit="10" stroke-linecap="round" stroke-linejoin="round" />
  <path d="M568.189 435.834C568.189 435.834 563.001 439.221 565.1 443.419C567.199 447.617 572.201 446.72 574.021 446.215C574.021 446.215 574.98 440.201 579.382 441.489C579.382 441.489 576.229 438.253 577.619 436.364" stroke="#2E1E00" stroke-width="1.5" stroke-miterlimit="10" stroke-linecap="round" stroke-linejoin="round" />
  <path d="M557.949 432.516C557.949 432.516 553.611 430.056 551.263 433.076C548.9 436.133 550.077 439.85 553.834 440.689C553.834 440.689 549.246 444.634 553.707 448.216C558.168 451.799 563.058 447.213 565.185 443.413" stroke="#2E1E00" stroke-width="1.5" stroke-miterlimit="10" stroke-linecap="round" stroke-linejoin="round" />
  <path d="M547.861 413.885C547.861 413.885 542.036 412.331 540.725 416.566C539.449 420.816 541.222 422.561 544.516 424.231C544.516 424.231 539.657 427.116 542.627 431.002C545.584 434.925 550.288 434.757 550.288 434.757" stroke="#2E1E00" stroke-width="1.5" stroke-miterlimit="10" stroke-linecap="round" stroke-linejoin="round" />
  <path d="M526.69 398.171C526.69 398.171 525.013 394.968 521.551 395.54C518.089 396.112 517.125 400.411 518.699 402.542C518.699 402.542 512.996 402.924 513.926 408.163C514.856 413.401 521.044 411.728 521.044 411.728C521.044 411.728 520.341 415.282 524.934 416.608C529.492 417.919 531.651 409.978 531.651 409.978" stroke="#2E1E00" stroke-width="1.5" stroke-miterlimit="10" stroke-linecap="round" stroke-linejoin="round" />
  <path d="M540.608 420.714C540.608 420.714 532.704 423.451 529.764 414.609" stroke="#2E1E00" stroke-width="1.5" stroke-miterlimit="10" stroke-linecap="round" stroke-linejoin="round" />
  <path d="M517.363 411.82C517.363 411.82 512.207 412.18 511.9 415.475C511.628 418.785 512.451 420.423 515.993 422.198C515.993 422.198 512.379 427.716 518.06 430.537C523.742 433.358 528.646 427.622 528.646 427.622C528.646 427.622 522.72 420.113 531.715 418.358" stroke="#2E1E00" stroke-width="1.5" stroke-miterlimit="10" stroke-linecap="round" stroke-linejoin="round" />
  <path d="M541.973 429.865C541.973 429.865 534.86 428.829 534.929 433.742C534.929 433.742 534.44 436.06 537.431 437.256C537.431 437.256 534.469 440.869 536.691 442.935C538.913 445.001 542.796 444.31 542.796 444.31C542.796 444.31 546.621 438.882 552.13 443.043" stroke="#2E1E00" stroke-width="1.5" stroke-miterlimit="10" stroke-linecap="round" stroke-linejoin="round" />
  <path d="M512.056 414.685C511.071 413.749 509.851 412.883 508.528 412.573C507.17 412.248 505.938 412.834 504.934 413.774C502.451 416.008 503.361 418.754 505.243 421.146C505.243 421.146 500.563 421.152 500.356 425.218C500.134 429.321 504.477 429.127 504.512 429.142C503.915 429.185 503.795 431.918 503.867 432.249C504.147 433.697 505.373 434.651 506.636 435.107C507.814 435.569 509.695 436.032 510.41 434.583C510.792 433.847 510.602 432.994 510.672 432.211C510.767 431.266 511.048 430.273 511.404 429.398C512.102 427.684 513.422 426.579 515.165 427.583" stroke="#2E1E00" stroke-width="1.5" stroke-miterlimit="10" stroke-linecap="round" stroke-linejoin="round" />
  <path d="M526.697 429.357C526.697 429.357 527.747 437.045 534.955 434.695" stroke="#2E1E00" stroke-width="1.5" stroke-miterlimit="10" stroke-linecap="round" stroke-linejoin="round" />
  <path d="M509.786 435.3C509.786 435.3 510.602 438.991 514.312 438.825C514.312 438.825 512.047 444.793 515.788 446.483C519.58 448.151 522.555 443.387 522.555 443.387C522.555 443.387 519.057 434.391 528.382 433.249" stroke="#2E1E00" stroke-width="1.5" stroke-miterlimit="10" stroke-linecap="round" stroke-linejoin="round" />
  <path d="M542.761 444.295C542.761 444.295 541.836 447.582 544.435 448.011C544.435 448.011 538.84 452.294 542.991 456.943C547.156 461.556 549.791 455.189 549.791 455.189C549.791 455.189 550.982 460.497 555.953 458.559C560.923 456.621 556.753 449.479 556.753 449.479" stroke="#2E1E00" stroke-width="1.5" stroke-miterlimit="10" stroke-linecap="round" stroke-linejoin="round" />
  <path d="M522.57 443.35C522.57 443.35 523.913 445.339 526.325 445.516C526.325 445.516 522.664 450.843 527.305 453.475C531.932 456.144 533.587 448.115 541.558 452.431" stroke="#2E1E00" stroke-width="1.5" stroke-miterlimit="10" stroke-linecap="round" stroke-linejoin="round" />
  <path d="M516.955 446.769C516.955 446.769 511.472 450.372 513.328 454.251C515.184 458.131 519.01 457.072 519.01 457.072C519.01 457.072 517.459 461.591 522.036 462.653C526.612 463.715 529.278 456.763 528.665 454.101" stroke="#2E1E00" stroke-width="1.5" stroke-miterlimit="10" stroke-linecap="round" stroke-linejoin="round" />
  <path d="M531.793 453.129C531.793 453.129 529.072 459.201 535.246 459.492C535.246 459.492 535.526 464.495 539.753 464.079C543.979 463.664 543.43 457.389 543.43 457.389" stroke="#2E1E00" stroke-width="1.5" stroke-miterlimit="10" stroke-linecap="round" stroke-linejoin="round" />
  <path d="M574.071 446.194C574.071 446.194 574.689 451.385 580.339 450.423C580.339 450.423 581.302 453.748 585.679 453.269C590.056 452.789 588.867 446.154 588.867 446.154" stroke="#2E1E00" stroke-width="1.5" stroke-miterlimit="10" stroke-linecap="round" stroke-linejoin="round" />
  <path d="M560.529 448.442C560.529 448.442 559.243 454.444 565.882 453.392C565.882 453.392 563.127 458.122 567.935 459.327C572.744 460.531 573.009 456.019 573.009 456.019C573.009 456.019 574.547 460.576 578.675 458.876C582.804 457.176 582.955 453.043 582.955 453.043" stroke="#2E1E00" stroke-width="1.5" stroke-miterlimit="10" stroke-linecap="round" stroke-linejoin="round" />
  <path d="M500.361 426.12C500.361 426.12 493.588 423.945 493.04 428.036C492.511 432.179 495.923 433.256 495.923 433.256C495.923 433.256 490.974 437.174 495.64 440.759C500.322 444.308 503.859 435.115 513.634 443.032" stroke="#2E1E00" stroke-width="1.5" stroke-miterlimit="10" stroke-linecap="round" stroke-linejoin="round" />
  <path d="M495.64 440.759C495.64 440.759 490.037 442.726 490.737 447.309C491.401 451.877 496.333 451.764 496.333 451.764C496.333 451.764 495.188 456.199 498.283 457.14C501.412 458.096 504.313 454.328 504.313 454.328C504.313 454.328 501.151 449.589 505.774 446.473C505.774 446.473 501.393 442.796 505.9 439.76" stroke="#2E1E00" stroke-width="1.5" stroke-miterlimit="10" stroke-linecap="round" stroke-linejoin="round" />
  <path d="M513.866 455.167C513.866 455.167 508.955 459.702 504.293 454.277" stroke="#2E1E00" stroke-width="1.5" stroke-miterlimit="10" stroke-linecap="round" stroke-linejoin="round" />
  <path d="M522.036 462.653C522.036 462.653 519.733 469.119 516.107 468.164C512.48 467.209 512.839 463.38 512.839 463.38C512.839 463.38 506.167 464.717 507.576 456.583" stroke="#2E1E00" stroke-width="1.5" stroke-miterlimit="10" stroke-linecap="round" stroke-linejoin="round" />
  <path d="M567.285 469.156C567.285 469.156 567.972 465.639 565.665 463.579C564.358 462.419 562.408 462.226 560.921 463.13C560.591 463.332 560.331 463.563 560.198 463.891C560.198 463.891 553.623 462.957 553.531 467.758C553.453 473.336 558.722 470.969 558.722 470.969C558.722 470.969 556.407 476.144 560.318 476.707C564.229 477.27 564.203 471.947 564.203 471.947C564.203 471.947 567.473 474.591 568.581 472.582C569.618 470.542 567.285 469.156 567.285 469.156Z" stroke="#2E1E00" stroke-width="1.5" stroke-miterlimit="10" stroke-linecap="round" stroke-linejoin="round" />
  <path d="M562.329 355.495C562.329 355.495 557.918 351.891 555.344 354.857C552.805 357.837 557.041 361.666 557.041 361.666C557.041 361.666 552.109 365.848 555.906 369.232C559.702 372.616 561.856 367.328 561.856 367.328C561.856 367.328 563.747 370.409 567.371 369.949C570.994 369.489 570.831 364.707 567.852 362.873C567.852 362.873 572.953 357.565 569.713 354.848C566.473 352.131 562.329 355.495 562.329 355.495Z" stroke="#2E1E00" stroke-width="1.5" stroke-miterlimit="10" stroke-linecap="round" stroke-linejoin="round" />
  <path d="M530.306 348.536C530.306 348.536 526.505 346.178 524.482 348.909C522.459 351.64 525.248 354.549 527.603 355.172C527.603 355.172 527.215 359.376 531.065 360.597C534.914 361.819 535.441 356.562 535.441 356.562C535.441 356.562 541.565 356.06 539.206 351.28C536.848 346.5 530.306 348.536 530.306 348.536Z" stroke="#2E1E00" stroke-width="1.5" stroke-miterlimit="10" stroke-linecap="round" stroke-linejoin="round" />
  <path d="M539.391 372.476C539.391 372.476 534.516 371.842 533.657 376.186C532.799 380.53 536.864 380.002 536.864 380.002C536.864 380.002 535.707 383.147 538.104 384.174C540.5 385.202 542.119 382.041 542.119 382.041C542.119 382.041 545.359 384.757 547.961 382.232C550.513 379.728 547.152 377.002 547.152 377.002C547.152 377.002 550.064 373.41 547.692 371.408C543.164 367.583 539.391 372.476 539.391 372.476Z" stroke="#2E1E00" stroke-width="1.5" stroke-miterlimit="10" stroke-linecap="round" stroke-linejoin="round" />
  <path d="M519.954 378.322C519.954 378.322 515.687 377.007 514.382 380.516C513.076 384.026 516.104 385.538 519.634 386.323C519.634 386.323 520.675 390.068 523.811 390.298C526.946 390.528 525.958 386.55 525.958 386.55C525.958 386.55 529.296 386.995 529.096 383.826C528.897 380.656 525.038 381.187 525.038 381.187C525.038 381.187 528.245 377.378 525.852 376.139C523.509 374.877 519.954 378.322 519.954 378.322Z" stroke="#2E1E00" stroke-width="1.5" stroke-miterlimit="10" stroke-linecap="round" stroke-linejoin="round" />
  <path d="M509.513 363.909C509.513 363.909 505.72 360.313 503.721 362.883C501.722 365.453 503.963 367.27 503.963 367.27C503.963 367.27 500.122 369.992 503.668 373.483C507.214 376.973 509.791 371.867 509.791 371.867C509.791 371.867 512.73 374.712 514.2 372.729C515.67 370.746 513.554 368.725 513.554 368.725C513.554 368.725 516.77 366.42 515.659 364.573C514.554 362.815 509.513 363.909 509.513 363.909Z" stroke="#2E1E00" stroke-width="1.5" stroke-miterlimit="10" stroke-linecap="round" stroke-linejoin="round" />
  <path d="M503.585 395.335C503.585 395.335 500.07 392.886 497.984 396.789C495.883 400.728 500.507 402.282 502.181 402.443C502.181 402.443 501.346 406.625 504.33 406.619C507.298 406.649 507.093 402.578 507.093 402.578C507.093 402.578 512.195 401.638 510.499 397.57C508.803 393.502 503.585 395.335 503.585 395.335Z" stroke="#2E1E00" stroke-width="1.5" stroke-miterlimit="10" stroke-linecap="round" stroke-linejoin="round" />
  <path d="M491.522 409.91C489.585 408.566 487.292 408.097 484.917 409.049C481.054 410.606 479.567 414.765 482.051 416.087C484.534 417.409 485.746 415.958 485.746 415.958C485.746 415.958 484.057 419.089 486.495 420.219C488.932 421.35 490.061 418.578 490.061 418.578C490.061 418.578 491.997 422.364 494.662 419.48C496.942 417.031 495.144 413.518 493.269 411.515C492.748 410.864 492.132 410.343 491.522 409.91Z" stroke="#2E1E00" stroke-width="1.5" stroke-miterlimit="10" stroke-linecap="round" stroke-linejoin="round" />
  <path d="M468.594 431.136C468.594 431.136 463.398 428.137 461.894 432.033C460.39 435.929 464.497 436.619 464.497 436.619C464.497 436.619 463.114 440.523 465.579 441.28C468.01 442.022 474.861 435.364 468.594 431.136Z" stroke="#2E1E00" stroke-width="1.5" stroke-miterlimit="10" stroke-linecap="round" stroke-linejoin="round" />
  <path d="M478.562 449.757C478.562 449.757 474.511 447.507 472.226 450.982C469.941 454.457 474.479 454.903 474.479 454.903C474.479 454.903 472.764 457.895 475.012 459.287C477.26 460.679 479.09 457.608 479.09 457.608C479.09 457.608 482.627 461.223 484.506 457.831C486.384 454.438 482.219 453.381 482.219 453.381C482.219 453.381 484.085 449.512 482.061 448.687C480.058 447.914 478.562 449.757 478.562 449.757Z" stroke="#2E1E00" stroke-width="1.5" stroke-miterlimit="10" stroke-linecap="round" stroke-linejoin="round" />
  <path d="M496.801 462.202C496.801 462.202 492.38 460.35 490.736 463.371C489.091 466.393 493.478 467.716 493.478 467.716C493.478 467.716 491.061 472.634 494.475 474.011C497.888 475.389 499.241 471.557 499.241 471.557C499.241 471.557 501.578 475.172 503.135 472.67C504.692 470.167 502.222 468.509 502.222 468.509C502.222 468.509 506.425 464.999 503.565 462.874C500.755 460.727 496.801 462.202 496.801 462.202Z" stroke="#2E1E00" stroke-width="1.5" stroke-miterlimit="10" stroke-linecap="round" stroke-linejoin="round" />
  <path d="M465.725 482.291C465.725 482.291 466.956 478.963 464.266 478.453C461.576 477.942 461.933 481.436 461.933 481.436C461.933 481.436 458.091 479.79 457.753 482.857C457.414 485.924 462.112 486.182 462.112 486.182C462.112 486.182 463.489 488.999 465.649 488.169C467.774 487.324 467.76 483.291 465.725 482.291Z" stroke="#2E1E00" stroke-width="1.5" stroke-miterlimit="10" stroke-linecap="round" stroke-linejoin="round" />
  <path d="M518.847 520.995C518.847 520.995 522.27 521.435 522.108 518.581C521.981 515.742 518.748 516.97 518.748 516.97C518.748 516.97 519.407 512.711 516.466 513.121C513.51 513.568 514.321 518.284 514.321 518.284C514.321 518.284 511.983 520.366 513.27 522.288C514.557 524.211 518.353 523.225 518.847 520.995Z" stroke="#2E1E00" stroke-width="1.5" stroke-miterlimit="10" stroke-linecap="round" stroke-linejoin="round" />
  <path d="M486.694 508.969C486.694 508.969 484.816 505.551 480.801 506.871C476.785 508.191 480.595 512.865 480.595 512.865C480.595 512.865 477.844 516.569 480.725 518.746C483.605 520.923 485.538 517.297 485.538 517.297C485.538 517.297 489.863 519.28 491.085 515.263C492.272 511.232 486.694 508.969 486.694 508.969Z" stroke="#2E1E00" stroke-width="1.5" stroke-miterlimit="10" stroke-linecap="round" stroke-linejoin="round" />
  <path d="M449.698 516.455C449.698 516.455 449.675 513.361 446.92 513.722C444.165 514.083 445.449 517.332 445.449 517.332C445.449 517.332 439.82 519.973 441.952 523.072C444.085 526.171 447.433 523.237 447.433 523.237C447.433 523.237 453.666 524.195 452.842 520.629C452.017 517.063 449.698 516.455 449.698 516.455Z" stroke="#2E1E00" stroke-width="1.5" stroke-miterlimit="10" stroke-linecap="round" stroke-linejoin="round" />
  <path d="M653.487 542.515C653.487 542.515 653.464 539.421 650.709 539.782C647.954 540.143 649.238 543.392 649.238 543.392C649.238 543.392 643.609 546.033 645.741 549.132C647.874 552.23 651.222 549.297 651.222 549.297C651.222 549.297 657.455 550.255 656.63 546.689C655.806 543.123 653.487 542.515 653.487 542.515Z" stroke="#2E1E00" stroke-width="1.5" stroke-miterlimit="10" stroke-linecap="round" stroke-linejoin="round" />
  <path d="M656.654 488.189C656.654 488.189 662.231 491.266 660.587 495.101C658.942 498.936 655.323 496.742 655.323 496.742C655.323 496.742 659.593 505.469 653.724 506.765C647.856 508.062 647.01 500.889 648.332 498.457C648.332 498.457 640.722 496.609 643.07 491.961C645.454 487.329 647.422 489.715 647.422 489.715C647.422 489.715 644.417 486.114 646.787 483.446C646.787 483.446 648.621 485.346 649.802 482.854C649.887 482.847 651.197 489.491 656.654 488.189Z" stroke="#2E1E00" stroke-width="1.5" stroke-miterlimit="10" stroke-linecap="round" stroke-linejoin="round" />
  <path d="M656.654 488.189C656.654 488.189 659.723 486.549 659.455 483.65C659.186 480.751 655.49 478.139 655.49 478.139C655.49 478.139 659.668 476.418 657.614 472.924C657.614 472.924 656.003 468.85 650.691 468.372C645.38 467.894 647.894 473.512 647.894 473.512C647.894 473.512 641.137 478.412 646.872 483.44" stroke="#2E1E00" stroke-width="1.5" stroke-miterlimit="10" stroke-linecap="round" stroke-linejoin="round" />
  <path d="M642.784 494.494C642.784 494.494 640.13 496.74 636.303 495.057C632.476 493.374 635.203 489.017 635.203 489.017C635.203 489.017 630.362 492.468 628 487.086C625.638 481.705 628.355 479.1 628.355 479.1C628.355 479.1 633.24 477.168 632.902 472.611C632.902 472.611 636.61 475.4 637.813 473.26C637.813 473.26 637.586 480.83 644.862 480.651" stroke="#2E1E00" stroke-width="1.5" stroke-miterlimit="10" stroke-linecap="round" stroke-linejoin="round" />
  <path d="M654.982 506.319C654.982 506.319 660.576 511.287 658.333 516.793C656.105 522.263 649.177 520.064 648.499 515.02C648.499 515.02 643.825 518.67 640.696 513.645C637.568 508.621 643.489 506.79 643.489 506.79C643.489 506.79 640.979 499.332 647.826 500.511" stroke="#2E1E00" stroke-width="1.5" stroke-miterlimit="10" stroke-linecap="round" stroke-linejoin="round" />
  <path d="M634.46 493.282C634.46 493.282 626.375 498.597 633.562 504.633C633.562 504.633 630.385 515.179 640.29 512.914" stroke="#2E1E00" stroke-width="1.5" stroke-miterlimit="10" stroke-linecap="round" stroke-linejoin="round" />
  <path d="M648.563 468.616C648.563 468.616 647.758 463.174 644.079 462.753C640.35 462.354 639.282 466.094 639.282 466.094C639.282 466.094 630.019 461.395 632.917 472.575" stroke="#2E1E00" stroke-width="1.5" stroke-miterlimit="10" stroke-linecap="round" stroke-linejoin="round" />
  <path d="M627.404 480.62C627.404 480.62 621.69 480.013 623.776 474.182C623.776 474.182 617.662 476.487 616.2 470.42C614.723 464.39 622.194 465.665 622.194 465.665C622.194 465.665 621.224 458.696 626.166 459.572C631.108 460.449 632.82 466.408 632.82 466.408" stroke="#2E1E00" stroke-width="1.5" stroke-miterlimit="10" stroke-linecap="round" stroke-linejoin="round" />
  <path d="M633.199 509.489C633.199 509.489 625.922 509.668 627.996 516.468C627.996 516.468 623.385 520.574 626.9 523.837C630.414 527.099 637.763 526.437 637.763 526.437C637.763 526.437 637.131 524.025 639.627 522.268C639.627 522.268 633.196 518.44 636.374 513.077" stroke="#2E1E00" stroke-width="1.5" stroke-miterlimit="10" stroke-linecap="round" stroke-linejoin="round" />
  <path d="M631.639 496.142C631.639 496.142 623.199 491.453 623.163 499.876C623.163 499.876 618.272 501.72 621.435 507.573C623.512 511.419 628.35 511.737 628.35 511.737" stroke="#2E1E00" stroke-width="1.5" stroke-miterlimit="10" stroke-linecap="round" stroke-linejoin="round" />
  <path d="M652.273 519.679C652.273 519.679 655.849 523.91 652.929 527.927C650.045 531.959 647.055 529.135 647.055 529.135C647.055 529.135 645.512 534.856 640.782 532.443C637.452 530.758 637.763 526.437 637.763 526.437" stroke="#2E1E00" stroke-width="1.5" stroke-miterlimit="10" stroke-linecap="round" stroke-linejoin="round" />
  <path d="M624.99 495.391C624.99 495.391 619.41 494.455 618.449 488.989C617.502 483.486 624.181 478.981 624.181 478.981" stroke="#2E1E00" stroke-width="1.5" stroke-miterlimit="10" stroke-linecap="round" stroke-linejoin="round" />
  <path d="M643.03 533.021C643.03 533.021 644.515 536.998 642.557 538.858C640.599 540.717 637.826 538.072 637.826 538.072C637.826 538.072 638.303 544.83 632.78 543.448C627.272 542.029 628.339 537.175 630.698 534.331C630.698 534.331 627.606 532.063 630.678 525.842" stroke="#2E1E00" stroke-width="1.5" stroke-miterlimit="10" stroke-linecap="round" stroke-linejoin="round" />
  <path d="M626.899 523.837C626.899 523.837 624.464 528.19 621.361 526.559C618.257 524.929 618.629 521.577 618.629 521.577C618.629 521.577 612.032 523.546 611.737 515.324C611.737 515.324 612.034 510.226 616.586 510.635C617.898 510.769 619.243 510.617 620.46 510.068C621.312 509.705 621.967 509.215 621.834 508.729" stroke="#2E1E00" stroke-width="1.5" stroke-miterlimit="10" stroke-linecap="round" stroke-linejoin="round" />
  <path d="M615.492 510.68C615.492 510.68 609.335 509.026 611.536 501.488C611.536 501.488 615.367 499.704 613.746 497.382C613.746 497.382 620.388 498.558 619.596 491.965" stroke="#2E1E00" stroke-width="1.5" stroke-miterlimit="10" stroke-linecap="round" stroke-linejoin="round" />
  <path d="M619.578 483.776C619.578 483.776 615.063 482.869 615.491 477.955C615.491 477.955 611.289 482.579 607.607 479.93C603.925 477.281 605.058 473.483 607.522 472.312C607.522 472.312 605.973 467.579 608.394 466.004C610.816 464.429 614.907 464.855 616.21 467.855" stroke="#2E1E00" stroke-width="1.5" stroke-miterlimit="10" stroke-linecap="round" stroke-linejoin="round" />
  <path d="M611.536 501.488C611.536 501.488 606.99 503.095 605.027 496.428C603.695 491.874 605.758 490.06 607.241 489.367C608.588 488.703 609.722 487.647 610.301 486.224C610.91 484.729 611.115 482.804 609.822 480.794" stroke="#2E1E00" stroke-width="1.5" stroke-miterlimit="10" stroke-linecap="round" stroke-linejoin="round" />
  <path d="M628.873 539.117C628.873 539.117 625.985 541.734 622.956 539.108C619.907 536.43 617.806 532.746 620.413 525.939" stroke="#2E1E00" stroke-width="1.5" stroke-miterlimit="10" stroke-linecap="round" stroke-linejoin="round" />
  <path d="M611.687 515.346C611.687 515.346 606.798 519.118 603.385 515.299C599.973 511.481 602.974 508.484 602.974 508.484C602.974 508.484 595.793 511.274 595.995 506.306C596.197 501.338 601.356 503.207 601.356 503.207C601.356 503.207 597.348 496.478 605.007 496.377" stroke="#2E1E00" stroke-width="1.5" stroke-miterlimit="10" stroke-linecap="round" stroke-linejoin="round" />
  <path d="M619.242 531.862C619.242 531.862 614.66 530.712 614.498 534.668C614.498 534.668 610.033 532.926 609.58 538C609.58 538 609.071 539.453 611.581 541.728C611.581 541.728 608.013 547.437 611.356 549.598C614.804 551.805 617.751 549.855 618.885 546.358C618.885 546.358 626.026 547.834 625.188 540.236" stroke="#2E1E00" stroke-width="1.5" stroke-miterlimit="10" stroke-linecap="round" stroke-linejoin="round" />
  <path d="M611.356 549.598C611.356 549.598 612.184 555.393 606.707 555.829C605.306 555.914 603.937 555.413 603.091 554.237C602.322 553.179 601.931 551.598 603.34 549.46C603.34 549.46 598.519 551.335 598.185 545.752C597.866 540.132 602.728 541.103 602.728 541.103C602.728 541.103 603.461 535.035 609.718 537.46" stroke="#2E1E00" stroke-width="1.5" stroke-miterlimit="10" stroke-linecap="round" stroke-linejoin="round" />
  <path d="M611.58 534.617C611.58 534.617 606.632 534.466 605.385 529.905C604.137 525.344 607.583 523.695 607.583 523.695C607.583 523.695 604.768 520.646 606.303 516.978" stroke="#2E1E00" stroke-width="1.5" stroke-miterlimit="10" stroke-linecap="round" stroke-linejoin="round" />
  <path d="M600.684 498.25C600.684 498.25 594.941 500.457 592.992 496.195C591.044 491.933 594.794 488.315 596.264 487.146C596.264 487.146 601.469 490.02 603.131 485.635C603.131 485.635 603.675 490.194 605.99 490.202" stroke="#2E1E00" stroke-width="1.5" stroke-miterlimit="10" stroke-linecap="round" stroke-linejoin="round" />
  <path d="M596.988 508.745C596.988 508.745 596.245 513.823 592.479 513.922C588.712 514.021 586.589 510.798 588.23 507.175C588.23 507.175 582.417 508.539 582.393 502.703C582.369 496.867 588.84 495.615 593.042 496.174" stroke="#2E1E00" stroke-width="1.5" stroke-miterlimit="10" stroke-linecap="round" stroke-linejoin="round" />
  <path d="M605.099 528.37C605.099 528.37 602.717 534.116 598.695 532.606C594.674 531.097 594.413 528.586 595.154 524.835C595.154 524.835 590.015 527.086 588.821 522.292C587.628 517.497 590.629 513.686 590.629 513.686" stroke="#2E1E00" stroke-width="1.5" stroke-miterlimit="10" stroke-linecap="round" stroke-linejoin="round" />
  <path d="M604.308 555.315C604.308 555.315 605.734 558.625 603.217 561.144C600.666 563.648 596.813 561.825 596.135 559.222C596.135 559.222 592.369 563.69 588.93 559.732C585.492 555.773 590.536 551.725 590.536 551.725C590.536 551.725 587.382 550.116 589.154 545.564C590.925 541.012 598.336 544.06 598.336 544.06" stroke="#2E1E00" stroke-width="1.5" stroke-miterlimit="10" stroke-linecap="round" stroke-linejoin="round" />
  <path d="M595.472 530.154C595.472 530.154 588.574 534.993 593.557 542.783" stroke="#2E1E00" stroke-width="1.5" stroke-miterlimit="10" stroke-linecap="round" stroke-linejoin="round" />
  <path d="M588.153 554.73C588.153 554.73 584.736 558.748 582.054 556.998C579.372 555.249 578.613 553.553 579.424 549.531C579.424 549.531 573.003 549.135 574.281 542.744C575.559 536.353 582.949 535.794 582.949 535.794C582.949 535.794 585.104 545.242 591.907 538.906" stroke="#2E1E00" stroke-width="1.5" stroke-miterlimit="10" stroke-linecap="round" stroke-linejoin="round" />
  <path d="M589.29 523.478C589.29 523.478 585.773 529.98 582.048 526.927C582.048 526.927 579.998 525.963 580.858 522.733C580.858 522.733 576.294 522.961 576.051 519.901C575.842 516.856 578.683 514.048 578.683 514.048C578.683 514.048 585.158 514.211 585.347 507.139" stroke="#2E1E00" stroke-width="1.5" stroke-miterlimit="10" stroke-linecap="round" stroke-linejoin="round" />
  <path d="M582.709 557.322C582.812 558.694 582.721 560.239 582.151 561.537C581.566 562.871 580.369 563.472 579.05 563.763C575.835 564.441 574.258 562.009 573.608 559.032C573.608 559.032 570.763 562.866 567.515 560.575C564.267 558.283 567.049 554.807 567.049 554.807C566.65 555.278 564.512 553.719 564.254 553.437C563.293 552.34 563.364 550.743 563.743 549.406C564.127 548.157 564.885 546.298 566.413 546.61C567.228 546.745 567.734 547.433 568.395 547.845C569.196 548.317 570.112 548.71 571.003 548.963C572.748 549.454 574.368 549.035 574.667 546.979" stroke="#2E1E00" stroke-width="1.5" stroke-miterlimit="10" stroke-linecap="round" stroke-linejoin="round" />
  <path d="M580.396 536.37C580.396 536.37 575.16 530.828 581.341 526.324" stroke="#2E1E00" stroke-width="1.5" stroke-miterlimit="10" stroke-linecap="round" stroke-linejoin="round" />
  <path d="M565.56 546.673C565.56 546.673 563.233 543.748 565.621 540.831C565.621 540.831 559.665 539.091 560.69 534.948C561.715 530.804 567.162 531.254 567.162 531.254C567.162 531.254 571.907 539.628 578.445 532.621" stroke="#2E1E00" stroke-width="1.5" stroke-miterlimit="10" stroke-linecap="round" stroke-linejoin="round" />
  <path d="M578.718 514.063C578.718 514.063 575.657 512.837 576.894 510.411C576.894 510.411 570.196 512.423 569.185 506.164C568.174 499.906 574.678 501.623 574.678 501.623C574.678 501.623 571.343 497.409 575.841 494.497C580.374 491.6 583.263 499.349 583.263 499.349" stroke="#2E1E00" stroke-width="1.5" stroke-miterlimit="10" stroke-linecap="round" stroke-linejoin="round" />
  <path d="M567.162 531.254C567.162 531.254 566.45 528.936 567.809 526.82C567.809 526.82 561.52 526.608 562.277 521.193C563.033 515.778 570.216 519.285 571.729 510.082" stroke="#2E1E00" stroke-width="1.5" stroke-miterlimit="10" stroke-linecap="round" stroke-linejoin="round" />
  <path d="M561.115 533.802C561.115 533.802 555.037 536.122 553.181 532.243C551.325 528.363 554.459 525.852 554.459 525.852C554.459 525.852 550.046 524.389 552.014 519.964C553.982 515.539 560.935 517.577 562.594 519.702" stroke="#2E1E00" stroke-width="1.5" stroke-miterlimit="10" stroke-linecap="round" stroke-linejoin="round" />
  <path d="M565.279 517.683C565.279 517.683 558.963 516.218 562.508 510.97C562.508 510.97 558.873 507.698 561.757 504.48C564.641 501.261 569.125 505.497 569.125 505.497" stroke="#2E1E00" stroke-width="1.5" stroke-miterlimit="10" stroke-linecap="round" stroke-linejoin="round" />
  <path d="M596.314 487.125C596.314 487.125 592.707 483.48 596.891 479.406C596.891 479.406 594.896 476.58 597.98 473.276C601.015 469.994 605.394 474.997 605.394 474.997" stroke="#2E1E00" stroke-width="1.5" stroke-miterlimit="10" stroke-linecap="round" stroke-linejoin="round" />
  <path d="M586.367 496.911C586.367 496.911 580.958 494.335 585.831 489.485C585.831 489.485 580.544 488.846 582.53 484.172C584.517 479.498 588.138 481.993 588.138 481.993C588.138 481.993 585.568 477.936 589.416 475.602C593.229 473.253 596.483 475.633 596.483 475.633" stroke="#2E1E00" stroke-width="1.5" stroke-miterlimit="10" stroke-linecap="round" stroke-linejoin="round" />
  <path d="M566.879 560.002C566.879 560.002 564.433 566.921 560.941 564.824C557.448 562.727 558.688 559.276 558.688 559.276C558.688 559.276 552.656 560.973 552.792 554.949C552.927 548.925 562.099 551.614 561.993 538.762" stroke="#2E1E00" stroke-width="1.5" stroke-miterlimit="10" stroke-linecap="round" stroke-linejoin="round" />
  <path d="M552.777 554.985C552.777 554.985 547.865 558.405 544.792 555.075C541.684 551.729 544.779 547.788 544.779 547.788C544.779 547.788 540.691 546.036 541.848 542.891C543.004 539.746 547.68 539.651 547.68 539.651C547.68 539.651 549.379 545.134 554.591 543.213C554.591 543.213 554.736 549.058 559.798 547.201" stroke="#2E1E00" stroke-width="1.5" stroke-miterlimit="10" stroke-linecap="round" stroke-linejoin="round" />
  <path d="M552.823 531.19C552.823 531.19 546.372 532.494 547.694 539.614" stroke="#2E1E00" stroke-width="1.5" stroke-miterlimit="10" stroke-linecap="round" stroke-linejoin="round" />
  <path d="M552.064 519.942C552.064 519.942 545.729 517.912 544.238 521.471C542.783 525.044 545.893 527.063 545.893 527.063C545.893 527.063 540.803 531.734 547.902 535.548" stroke="#2E1E00" stroke-width="1.5" stroke-miterlimit="10" stroke-linecap="round" stroke-linejoin="round" />
  <path d="M653.727 588.578C653.727 588.578 653.294 592.589 650.361 592.574C647.427 592.559 646.979 588.983 647.796 586.978C647.796 586.978 644.756 584.989 645.982 581.574C647.207 578.159 651.028 580.567 651.028 580.567C651.028 580.567 654.64 576.376 656.609 580.689C658.593 584.966 653.727 588.578 653.727 588.578Z" stroke="#2E1E00" stroke-width="1.5" stroke-miterlimit="10" stroke-linecap="round" stroke-linejoin="round" />
  <path d="M619.69 567.862C619.69 567.862 618.197 571.934 614.911 570.954C611.626 569.974 612.245 566.727 613.743 563.557C613.743 563.557 611.636 560.598 613.274 558.002C614.911 555.405 617.229 558.455 617.229 558.455C617.229 558.455 618.834 555.631 621.016 557.594C623.197 559.557 620.571 562.243 620.571 562.243C620.571 562.243 625.164 561.942 624.707 564.488C624.235 567.069 619.69 567.862 619.69 567.862Z" stroke="#2E1E00" stroke-width="1.5" stroke-miterlimit="10" stroke-linecap="round" stroke-linejoin="round" />
  <path d="M619.277 589.916C619.277 589.916 619.633 594.223 617.047 594.271C614.461 594.319 614.447 591.914 614.447 591.914C614.447 591.914 610.853 593.115 610.442 589.041C610.031 584.968 614.471 585.757 614.471 585.757C614.471 585.757 614.14 582.403 616.093 582.383C618.082 582.379 618.252 584.808 618.252 584.808C618.252 584.808 621.275 583.79 621.857 585.41C622.459 587.082 619.277 589.916 619.277 589.916Z" stroke="#2E1E00" stroke-width="1.5" stroke-miterlimit="10" stroke-linecap="round" stroke-linejoin="round" />
  <path d="M592.376 576.072C592.376 576.072 592.121 580.46 587.843 579.782C583.565 579.105 585.169 574.353 586.055 572.891C586.055 572.891 582.337 571.04 584.156 568.608C585.94 566.16 588.933 568.771 588.933 568.771C588.933 568.771 592.734 565.131 594.866 569.044C596.943 572.889 592.376 576.072 592.376 576.072Z" stroke="#2E1E00" stroke-width="1.5" stroke-miterlimit="10" stroke-linecap="round" stroke-linejoin="round" />
  <path d="M535.5 563.557C535.5 563.557 534.749 568.246 530.705 568.012C526.66 567.777 529.083 563.761 529.083 563.761C529.083 563.761 525.73 563.352 526.041 560.658C526.352 557.965 529.819 558.294 529.819 558.294C529.819 558.294 529.207 553.192 532.941 553.679C536.661 554.202 534.962 558.272 534.962 558.272C534.962 558.272 539.06 559.086 538.475 561.234C537.89 563.382 535.5 563.557 535.5 563.557Z" stroke="#2E1E00" stroke-width="1.5" stroke-miterlimit="10" stroke-linecap="round" stroke-linejoin="round" />
  <path d="M537.065 541.012C537.065 541.012 535.788 545.775 532.48 545.257C529.157 544.775 530.834 540.354 530.834 540.354C530.834 540.354 525.574 539.342 526.633 535.726C527.692 532.111 531.435 533.287 531.435 533.287C531.435 533.287 530.095 529.158 532.974 529.407C535.818 529.641 535.615 532.68 535.615 532.68C535.615 532.68 540.866 531.376 540.752 535.011C540.602 538.63 537.065 541.012 537.065 541.012Z" stroke="#2E1E00" stroke-width="1.5" stroke-miterlimit="10" stroke-linecap="round" stroke-linejoin="round" />
  <path d="M671.522 530.457C671.522 530.457 674.792 531.473 673.561 533.987C672.331 536.5 669.881 534.079 669.881 534.079C669.881 534.079 668.805 538.244 666.27 536.643C663.734 535.042 666.362 531.029 666.362 531.029C666.362 531.029 665.049 528.153 666.996 526.932C668.892 525.732 671.981 528.212 671.522 530.457Z" stroke="#2E1E00" stroke-width="1.5" stroke-miterlimit="10" stroke-linecap="round" stroke-linejoin="round" />
  <path d="M512.127 548.269C512.127 548.269 514.458 550.168 512.547 552.218C510.635 554.269 508.885 551.248 508.885 551.248C508.885 551.248 503.433 554.266 502.347 550.63C501.261 546.995 505.554 546.009 505.554 546.009C505.554 546.009 508.625 540.3 510.861 543.143C513.098 545.987 512.127 548.269 512.127 548.269Z" stroke="#2E1E00" stroke-width="1.5" stroke-miterlimit="10" stroke-linecap="round" stroke-linejoin="round" />
  <path d="M549.293 485.174C549.293 485.174 552.242 481.897 549.505 480.081C546.767 478.265 543.468 480.064 543.468 480.064C543.468 480.064 538.733 472.68 535.599 476.005C532.464 479.331 536.224 484.026 536.224 484.026C536.224 484.026 532.133 487.969 536.144 490.931C540.154 493.892 542.708 489.247 542.708 489.247C542.708 489.247 549.148 492.95 549.186 485.641" stroke="#2E1E00" stroke-width="1.5" stroke-miterlimit="10" stroke-linecap="round" stroke-linejoin="round" />
  <path d="M522.051 484.976C521.851 484.247 521.565 483.525 521.2 482.897C519.958 480.866 517.697 479.811 515.558 479.065C509.061 476.923 510.35 484.329 510.35 484.329C510.35 484.329 505.488 481.731 505.26 487.373C505.032 493.015 511.8 495.102 516.464 494.831C516.464 494.831 520.192 490.047 523.684 491.029C523.457 490.975 523.094 489.021 522.992 488.763C522.594 487.607 522.405 486.241 522.051 484.976Z" stroke="#2E1E00" stroke-width="1.5" stroke-miterlimit="10" stroke-linecap="round" stroke-linejoin="round" />
  <path d="M534.344 479.494C532.441 477.864 530.197 476.26 527.733 475.803C524.646 475.251 522.851 477.523 521.324 479.952C520.965 480.527 520.433 481.326 520.562 482.024" stroke="#2E1E00" stroke-width="1.5" stroke-miterlimit="10" stroke-linecap="round" stroke-linejoin="round" />
  <path d="M536.164 490.982C536.164 490.982 532.373 492.056 532.095 497.719C531.832 503.346 537.255 501.516 537.255 501.516C537.255 501.516 536.346 509.136 540.971 509.062C545.611 508.952 545.062 501.864 545.062 501.864C545.062 501.864 549.755 505.589 551.331 500.396C552.908 495.204 546.832 490.201 546.832 490.201" stroke="#2E1E00" stroke-width="1.5" stroke-miterlimit="10" stroke-linecap="round" stroke-linejoin="round" />
  <path d="M523.654 491.103C523.654 491.103 527.716 493.529 529.732 489.596C529.732 489.596 530.149 493.758 532.556 494.961" stroke="#2E1E00" stroke-width="1.5" stroke-miterlimit="10" stroke-linecap="round" stroke-linejoin="round" />
  <path d="M516.434 494.904C516.434 494.904 513.516 500.849 517.053 504.464C520.59 508.079 523.624 503.982 523.624 503.982C523.624 503.982 524.533 509.983 528.578 509.404C532.602 508.773 535.449 505.239 533.755 501.472" stroke="#2E1E00" stroke-width="1.5" stroke-miterlimit="10" stroke-linecap="round" stroke-linejoin="round" />
  <path d="M506.524 491.384C506.524 491.384 498.326 492.71 499.252 497.347C500.178 501.985 503.773 502.712 503.773 502.712C503.773 502.712 502.629 509.589 508.548 510.199C514.483 510.772 516.344 503.56 516.344 503.56" stroke="#2E1E00" stroke-width="1.5" stroke-miterlimit="10" stroke-linecap="round" stroke-linejoin="round" />
  <path d="M647.531 195.119C645.598 199.303 641.508 202.183 636.712 202.183C631.916 202.183 627.789 199.303 625.893 195.119C629.165 195.464 632.845 195.618 636.712 195.618C640.579 195.618 644.259 195.426 647.531 195.119Z" fill="#FEFFFA" stroke="#2E1E00" stroke-width="1.5" stroke-miterlimit="10" stroke-linecap="round" stroke-linejoin="round" />
  <path d="M648.646 189.859C648.646 191.74 648.237 193.506 647.494 195.119C644.222 195.464 640.541 195.618 636.675 195.618C632.808 195.618 629.128 195.426 625.856 195.119C625.112 193.506 624.703 191.74 624.703 189.859C624.703 188.554 624.889 187.287 625.261 186.135C626.785 181.144 631.321 177.536 636.675 177.536C642.028 177.536 646.527 181.144 648.051 186.135C648.46 187.287 648.646 188.554 648.646 189.859Z" fill="#FEFFFA" stroke="#2E1E00" stroke-width="1.5" stroke-miterlimit="10" stroke-linecap="round" stroke-linejoin="round" />
  <path d="M624.741 189.859C624.741 191.74 625.149 193.506 625.893 195.119C617.714 194.312 612.1 192.585 612.1 190.589C612.1 188.631 617.454 186.98 625.298 186.135C624.964 187.287 624.741 188.554 624.741 189.859Z" stroke="#2E1E00" stroke-width="1.5" stroke-miterlimit="10" stroke-linecap="round" stroke-linejoin="round" />
  <path d="M661.324 190.589C661.324 192.585 655.71 194.312 647.531 195.119C648.274 193.506 648.683 191.74 648.683 189.859C648.683 188.554 648.497 187.287 648.126 186.135C655.97 186.941 661.324 188.631 661.324 190.589Z" stroke="#2E1E00" stroke-width="1.5" stroke-miterlimit="10" stroke-linecap="round" stroke-linejoin="round" />
  <path d="M594.106 147.206L587.748 147.514L584.439 153.08L582.172 146.938L576 145.402L580.945 141.294L580.498 134.729L585.815 138.338L591.689 135.843L590.016 142.177L594.106 147.206Z" fill="#FFDC38" stroke="#2E1E00" stroke-width="1.5" stroke-miterlimit="10" stroke-linecap="round" stroke-linejoin="round" />
  <path d="M591.355 245.833C594.866 245.833 597.712 242.894 597.712 239.269C597.712 235.643 594.866 232.704 591.355 232.704C587.843 232.704 584.997 235.643 584.997 239.269C584.997 242.894 587.843 245.833 591.355 245.833Z" fill="#FFDC38" stroke="#2E1E00" stroke-width="1.5" stroke-miterlimit="10" stroke-linecap="round" stroke-linejoin="round" />
  <path d="M671.622 231.053C673.696 231.053 675.377 229.317 675.377 227.175C675.377 225.034 673.696 223.298 671.622 223.298C669.548 223.298 667.867 225.034 667.867 227.175C667.867 229.317 669.548 231.053 671.622 231.053Z" fill="#FEFFFA" stroke="#2E1E00" stroke-width="1.5" stroke-miterlimit="10" stroke-linecap="round" stroke-linejoin="round" />
  <path d="M694.747 150.585C699.182 150.585 702.778 146.872 702.778 142.292C702.778 137.713 699.182 134 694.747 134C690.312 134 686.717 137.713 686.717 142.292C686.717 146.872 690.312 150.585 694.747 150.585Z" fill="#FEFFFA" stroke="#2E1E00" stroke-width="1.5" stroke-miterlimit="10" stroke-linecap="round" stroke-linejoin="round" />
  <path d="M717.612 228.327L712.146 224.949L706.384 227.674L707.797 221.263L703.521 216.426L709.841 215.85L712.964 210.168L715.455 216.195L721.664 217.501L716.868 221.8L717.612 228.327Z" fill="#FEFFFA" stroke="#2E1E00" stroke-width="1.5" stroke-miterlimit="10" stroke-linecap="round" stroke-linejoin="round" />
  <path d="M753.972 175.309C755.779 175.309 757.244 173.796 757.244 171.93C757.244 170.065 755.779 168.552 753.972 168.552C752.165 168.552 750.7 170.065 750.7 171.93C750.7 173.796 752.165 175.309 753.972 175.309Z" fill="#FFDC38" stroke="#2E1E00" stroke-width="1.5" stroke-miterlimit="10" stroke-linecap="round" stroke-linejoin="round" />
  <defs>
    <linearGradient id="paint0_linear_1:96" x1="1348.27" y1="559.393" x2="1219.17" y2="673.328" gradientUnits="userSpaceOnUse">
      <stop stop-color="#F4AF50" />
      <stop offset="0.891556" stop-color="#E9E241" stop-opacity="0" />
    </linearGradient>
    <linearGradient id="paint1_linear_1:96" x1="252.859" y1="586.44" x2="-218.401" y2="973.64" gradientUnits="userSpaceOnUse">
      <stop stop-color="#F4AF50" />
      <stop offset="0.891556" stop-color="#E9E241" stop-opacity="0" />
    </linearGradient>
    <linearGradient id="paint2_linear_1:96" x1="1076.15" y1="113.094" x2="997.688" y2="617.023" gradientUnits="userSpaceOnUse">
      <stop stop-color="#E94622" />
      <stop offset="1" stop-color="#F15D0A" stop-opacity="0" />
    </linearGradient>
    <linearGradient id="paint3_linear_1:96" x1="876.971" y1="83.3946" x2="-115.5" y2="1052.5" gradientUnits="userSpaceOnUse">
      <stop stop-color="#F37E2A" />
      <stop offset="1" stop-color="#E9E241" stop-opacity="0" />
    </linearGradient>
  </defs>
</svg>