<svg width="1920" height="1393" viewBox="0 0 1920 1393" fill="none" xmlns="http://www.w3.org/2000/svg" xmlns:xlink="http://www.w3.org/1999/xlink">
  <linearGradient id="a">
    <stop offset="0" stop-color="#f4af50" />
    <stop offset=".891556" stop-color="#e9e241" stop-opacity="0" />
  </linearGradient>
  <linearGradient id="b" gradientUnits="userSpaceOnUse" x1="1348.27" x2="1219.17" xlink:href="#a" y1="559.393" y2="673.328" />
  <linearGradient id="c" gradientUnits="userSpaceOnUse" x1="252.859" x2="-218.401" xlink:href="#a" y1="586.44" y2="973.64" />
  <linearGradient id="d" gradientUnits="userSpaceOnUse" x1="1076.15" x2="997.688" y1="113.094" y2="617.023">
    <stop offset="0" stop-color="#e94622" />
    <stop offset="1" stop-color="#f15d0a" stop-opacity="0" />
  </linearGradient>
  <linearGradient id="e" gradientUnits="userSpaceOnUse" x1="876.971" x2="-115.5" y1="83.3946" y2="1052.5">
    <stop offset="0" stop-color="#f37e2a" />
    <stop offset="1" stop-color="#e9e241" stop-opacity="0" />
  </linearGradient>
  <path d="m-1.08203 856.418v-856.418h1920.00203v853.433c-293.82 110.193-620.22 171.567-964.002 171.567-340.664 0-664.267-60.266-956.00003-168.582z" fill="#fdeaa7" />
  <path d="m1806.03 849.032s-23.47-36.467-71.75.67c0 0-13.31-5.772-31.94 1.009-.02.007-.04.016-.06.024-11.2 4.092-24.32 12.718-37.62 29.843 0 0-9.92-4.525-16.17 4.723-2.71 4.021-4.94 11.062-5.24 20.611-.42 12.434 2.42 29.119 11.65 48.917l-4.72 8.547-12.23 22.188-28.65 51.906 22.65-13.61s14.38 15.99 36.6 13.45l5.83 27.24 25.47-54.24s1.73.01 4.66-.22c34.52-2.75 63.19-27.9 70.57-61.734 1.57-7.175 2.31-14.705 1.22-21.455 0 0 13.28-10.865 23.35-26.517 2.88-4.47 5.49-9.335 7.45-14.453 4.45-11.573 5.59-24.426-1.07-36.899zm-36.26 36.971c-3.99-13.151-17.52-22.29-17.52-22.29s15.42-14.043 26.73-2.097c10.91 11.528-9.21 24.387-9.21 24.387z" fill="#f89a5f" />
  <path d="m1674.38 1065.34c-.03 0-.06 0-.09 0-.33-.04-.61-.29-.68-.62l-5.69-26.55c-19.79 1.93-33.48-10.68-36.1-13.31l-22.11 13.29c-.31.18-.7.13-.96-.11-.25-.25-.31-.64-.14-.95l28.65-51.906 16.75-30.384c-10.16-21.963-11.9-38.711-11.55-48.913.28-8.711 2.24-16.375 5.37-21.025 5.66-8.365 14.26-6.048 16.57-5.229 11.57-14.777 24.23-24.748 37.61-29.638 0-.002.07-.028.08-.03 17.05-6.205 29.57-2.112 32.07-1.162 17.14-13.093 33.1-18.472 47.43-15.988 16.63 2.88 24.77 15.264 25.11 15.79.01.018.02.036.03.056 5.99 11.241 6.37 23.876 1.1 37.554-1.81 4.747-4.34 9.659-7.52 14.596-9.12 14.168-20.99 24.562-23.16 26.407.9 6.047.47 13.212-1.3 21.305-3.66 16.776-12.43 31.629-25.36 42.949-12.94 11.328-28.82 18.048-45.92 19.408-2.04.16-3.5.2-4.22.21l-25.26 53.8c-.12.28-.41.45-.71.45zm-5.83-28.82c.36 0 .69.26.77.63l5.34 24.95 24.48-52.13c.13-.28.41-.42.72-.45.02 0 1.73.01 4.59-.21 16.75-1.34 32.32-7.91 45-19.023 12.68-11.097 21.27-25.654 24.86-42.101 1.77-8.097 2.18-15.216 1.21-21.159-.04-.278.06-.559.28-.737.13-.107 13.3-10.973 23.18-26.333 3.12-4.846 5.61-9.661 7.38-14.308 5.09-13.221 4.75-25.404-1-36.217-.42-.615-8.46-12.379-24.06-15.07-13.98-2.412-29.63 2.96-46.54 15.963-.22.175-.53.21-.79.098-.13-.056-13.27-5.555-31.36 1.027 0 .001-.07.027-.07.028-13.23 4.833-25.77 14.787-37.26 29.582-.22.289-.61.385-.95.234-.38-.172-9.39-4.124-15.19 4.447-2.97 4.411-4.84 11.772-5.11 20.194-.34 10.088 1.4 26.7 11.58 48.558.11.229.1.494-.02.715l-44.18 80.072 20.14-12.1c.32-.19.74-.13.99.15.14.16 14.38 15.66 35.92 13.19zm101.22-149.728c-.09 0-.18-.017-.27-.049-.23-.085-.41-.274-.48-.51-3.86-12.724-17.08-21.776-17.21-21.866-.2-.136-.33-.355-.34-.596-.02-.242.07-.478.25-.641.16-.145 16.12-14.422 27.83-2.056 2.66 2.803 3.79 5.93 3.38 9.292-1.08 8.756-12.26 15.998-12.73 16.302-.13.082-.28.124-.43.124zm-16.23-23.13c2.98 2.197 12.88 10.118 16.66 21.094 2.6-1.857 10.34-7.894 11.16-14.584.35-2.873-.64-5.57-2.95-8.014-4.45-4.689-10.07-5.784-16.72-3.251-3.75 1.428-6.8 3.668-8.15 4.755z" fill="#010101" />
  <path d="m1702.34 850.711c-.02.011-.04.016-.07.026-11.19 4.089-24.31 12.714-37.61 29.844 0 0-9.92-4.529-16.17 4.718-2.71 4.021-4.94 11.064-5.25 20.614-9.07 1.064-18.51-1.522-7.54-21.71 18.01-33.162 47.14-43.577 57.07-42.145 5.73.831 8.37 5.153 9.57 8.653z" fill="#f89a5f" />
  <path d="m1640.01 906.905c-4.24 0-7.18-1.174-8.75-3.506-2.57-3.795-1.35-10.198 3.75-19.573 17.89-32.945 46.99-44.113 57.87-42.547 6.14.889 8.94 5.481 10.21 9.176.14.396-.06.83-.45.986-.01.005-.06.023-.07.028-13.26 4.843-25.79 14.797-37.29 29.595-.22.288-.61.385-.95.234-.38-.173-9.39-4.128-15.18 4.442-2.98 4.412-4.85 11.774-5.12 20.197-.01.391-.31.712-.7.758-1.18.141-2.29.21-3.32.21zm50.8-64.187c-5.17 0-13.74 2.386-23.14 8.113-8.83 5.387-21.43 15.615-31.28 33.748-4.72 8.686-6 14.722-3.83 17.937 1.88 2.778 6.3 3.029 9.92 2.686.36-8.427 2.3-15.813 5.36-20.343 5.65-8.363 14.24-6.045 16.56-5.224 11.38-14.533 23.81-24.416 36.93-29.388-1.23-3.13-3.71-6.688-8.67-7.407-.56-.08-1.18-.122-1.85-.122z" fill="#010101" />
  <path d="m1650.18 963.376-12.24 22.19c-44.9-35.052-44.11-95.298-28.71-96.286 16.03-1.028 15.27 14.621 19.3 37.151 3.1 17.396 15.95 31.453 21.65 36.945z" fill="#f89a5f" />
  <path d="m1637.94 986.354c-.17 0-.34-.057-.48-.166-36.5-28.492-41.99-71.631-36.82-88.395 1.78-5.757 4.81-9.06 8.54-9.299 14.16-.898 15.86 10.375 18.46 27.453.5 3.297 1.01 6.706 1.66 10.346 3.09 17.282 16.01 31.293 21.42 36.516.26.248.32.636.15.948l-12.24 22.189c-.11.201-.3.346-.53.391-.05.012-.1.017-.16.017zm-27.27-96.332c-.45 0-.91.016-1.39.046-3.03.193-5.56 3.102-7.13 8.189-5.03 16.291.31 58.094 35.55 86.113l11.5-20.85c-5.75-5.633-18.36-19.664-21.45-36.952-.65-3.66-1.17-7.08-1.67-10.387-2.46-16.161-3.98-26.159-15.41-26.159z" fill="#010101" />
  <path d="m1864.56 921.911c-.93-2.157-2.71-3.942-5.1-4.795-4.57-1.634-9.61.748-11.24 5.322-1.38 3.854.1 8.025 3.34 10.223-.85.875-1.54 1.937-1.98 3.161-1.63 4.574.75 9.605 5.33 11.239 4.57 1.635 9.6-.748 11.24-5.322.4-1.142.56-2.312.5-3.451 4.28.976 8.71-1.375 10.22-5.612 1.64-4.573-.75-9.605-5.32-11.241-2.39-.852-4.9-.602-6.99.476z" fill="#fff" />
  <path d="m1857.87 948.368c-1.08 0-2.17-.187-3.23-.564-2.41-.861-4.34-2.61-5.44-4.923-1.09-2.312-1.22-4.915-.36-7.325.36-1.012.89-1.944 1.56-2.778-3.09-2.545-4.29-6.782-2.92-10.606 1.77-4.976 7.27-7.576 12.24-5.799 2.27.81 4.1 2.391 5.22 4.496 2.2-.918 4.61-.983 6.88-.175 2.41.862 4.34 2.609 5.43 4.923 1.1 2.313 1.23 4.915.37 7.325-1.52 4.251-5.78 6.826-10.18 6.284-.04.944-.23 1.875-.55 2.779-.86 2.41-2.61 4.341-4.92 5.436-1.31.618-2.7.927-4.1.927zm-1.36-30.978c-3.29 0-6.38 2.043-7.55 5.312-1.23 3.431.03 7.257 3.04 9.306.19.131.32.341.34.573.03.232-.05.462-.22.629-.8.832-1.41 1.8-1.79 2.877-.72 2.014-.61 4.187.3 6.12.92 1.933 2.53 3.392 4.54 4.112 2.02.72 4.19.612 6.12-.303 1.93-.916 3.4-2.528 4.11-4.542.37-1.017.52-2.074.46-3.141-.01-.248.09-.488.28-.648.19-.161.44-.221.68-.167 3.95.9 7.95-1.295 9.31-5.108.72-2.014.61-4.187-.3-6.119-.92-1.933-2.53-3.394-4.54-4.113-2.11-.752-4.37-.598-6.36.433-.2.1-.43.115-.63.043-.21-.074-.37-.229-.46-.43-.89-2.064-2.54-3.615-4.65-4.367-.88-.317-1.79-.467-2.68-.467z" fill="#010101" />
  <path d="m1734.56 1086.64-.21 1.17 1.15-.31c.45-.13.92-.2 1.41-.2 2.96 0 5.36 2.41 5.36 5.37 0 2.96-2.4 5.37-5.37 5.37-.85 0-1.66-.21-2.38-.57l-1.34-.66.27 1.47c.11.58.17 1.17.17 1.76 0 5.39-4.37 9.75-9.76 9.75-5.38 0-9.75-4.36-9.75-9.75 0-1.56.38-3.03 1.03-4.33l.37-.75-.78-.29c-3.29-1.24-5.63-4.4-5.63-8.12 0-4.79 3.89-8.68 8.68-8.68 2.35 0 4.49.94 6.05 2.47l.93.91.32-1.26c.43-1.69 1.13-3.08 1.96-4.03.83-.96 1.75-1.43 2.67-1.43 1.24 0 2.5.87 3.49 2.57.98 1.68 1.61 4.05 1.61 6.71 0 .99-.09 1.94-.25 2.83z" fill="#fff" stroke="#000" stroke-width="1.5" />
  <path d="m1552.17 993.672c-.2.519-.32 1.047-.38 1.574-.81-.496-1.7-.941-2.66-1.316-5.17-2.005-10.3-1.189-11.47 1.822-.87 2.236.7 5.048 3.67 7.178-2.15.98-3.95 2.77-4.87 5.16-1.89 4.85.52 10.32 5.37 12.2 3.77 1.46 7.89.34 10.44-2.51 1.06 1.16 2.38 2.11 3.95 2.72 5.41 2.1 11.49-.58 13.59-5.99 2.1-5.4-.58-11.49-5.99-13.59-.6-.23-1.21-.4-1.83-.52.68-.615 1.23-1.388 1.59-2.298 1.22-3.149-.34-6.694-3.49-7.918-3.15-1.222-6.7.339-7.92 3.488z" fill="#fff" />
  <path d="m1560.02 1022.01c-1.38 0-2.76-.26-4.09-.77-1.37-.53-2.6-1.32-3.66-2.33-2.84 2.69-7.05 3.54-10.73 2.12-5.25-2.04-7.86-7.98-5.82-13.23.82-2.1 2.27-3.84 4.17-5-2.68-2.29-3.84-5.078-2.96-7.334 1.34-3.469 6.83-4.467 12.48-2.271.62.242 1.23.518 1.81.822.06-.215.13-.426.21-.631 1.38-3.55 5.39-5.316 8.94-3.937s5.32 5.389 3.94 8.937c-.22.563-.51 1.087-.86 1.568.22.066.44.146.66.226 2.81 1.1 5.03 3.22 6.24 5.98 1.22 2.76 1.29 5.83.2 8.64-1.1 2.81-3.22 5.03-5.98 6.24-1.45.65-3 .97-4.55.97zm-7.75-5.02c.22 0 .43.1.58.26 1.03 1.13 2.25 1.97 3.65 2.52 2.42.93 5.06.88 7.44-.17 2.37-1.04 4.2-2.95 5.14-5.37s.88-5.06-.17-7.44c-1.04-2.37-2.95-4.2-5.37-5.14-.53-.2-1.08-.36-1.69-.47-.3-.06-.53-.28-.62-.57-.08-.28.01-.59.23-.792.62-.562 1.08-1.235 1.38-2.001 1.06-2.74-.3-5.834-3.04-6.897s-5.83.3-6.89 3.037v.001c-.17.426-.28.888-.33 1.372-.03.268-.19.504-.44.624-.24.118-.52.106-.76-.036-.79-.483-1.64-.905-2.54-1.253-4.67-1.813-9.45-1.185-10.44 1.372-.7 1.791.67 4.303 3.39 6.253.23.16.36.43.33.71s-.2.53-.46.64c-2.06.95-3.65 2.63-4.47 4.73-1.72 4.44.49 9.46 4.93 11.19 3.33 1.29 7.17.37 9.56-2.3.15-.17.36-.27.58-.27zm-.1-23.318h.01z" fill="#010101" />
  <path d="m1701.94 964.258c-.17 0-.35-.058-.49-.174-.28-.224-27.81-22.66-28.11-50.532-.3-27.26-8.96-32.227-9.05-32.273-.38-.205-.53-.68-.33-1.063.21-.382.67-.534 1.06-.337.39.201 9.59 5.239 9.9 33.657.29 27.134 27.24 49.099 27.51 49.318.34.272.4.769.12 1.108-.15.195-.38.296-.61.296z" fill="#010101" />
  <path d="m1674.13 914.333c-.2 0-.4-.075-.55-.224-.32-.305-.32-.804-.02-1.115l34-34.839c.31-.312.81-.317 1.12-.013s.31.802.01 1.115l-34 34.838c-.15.158-.36.238-.56.238z" fill="#010101" />
  <path d="m1681.26 990.191c-.16 0-.31-.045-.45-.138-7.76-5.315-14.59-14.526-18.95-21.317-4.71-7.335-7.65-13.512-7.68-13.573-.18-.394-.01-.863.38-1.05.4-.184.86-.017 1.05.377.11.242 11.63 24.355 26.09 34.263.36.245.45.736.21 1.096-.16.223-.4.342-.65.342z" fill="#010101" />
  <path d="m1642.56 977.195 8.71 11.923-14.35-1.689z" fill="#010101" />
  <path d="m1651.27 989.906c-.03 0-.06-.002-.09-.006l-14.36-1.689c-.26-.031-.49-.188-.6-.423-.13-.233-.12-.511.01-.74l5.64-10.233c.13-.235.37-.39.64-.406.26-.02.53.104.69.322l8.71 11.922c.18.254.2.593.04.864-.14.242-.4.389-.68.389zm-13.1-3.125 11.4 1.343-6.92-9.465z" fill="#010101" />
  <path d="m1635.37 990.232 6.85 7.1-10.37-.726 2.91-5.099" fill="#010101" />
  <path d="m1642.22 998.121c-.02 0-.03-.002-.05-.002l-10.37-.726c-.27-.02-.52-.176-.64-.415-.13-.239-.13-.526.01-.762l2.9-5.1c.14-.253.4-.396.68-.399-.25-.313-.22-.77.07-1.053.31-.303.81-.293 1.11.02l6.86 7.1c.23.234.28.585.14.881-.12.278-.4.456-.71.456zm-9.06-2.214 7.07.495-4.69-4.854c0 .118-.04.238-.1.349z" fill="#010101" />
  <path d="m1752.76 936.714c-1.32 0-2.61-.137-3.84-.444-3.37-.847-5.91-2.901-7.56-6.106-5.99-11.656 4.86-25.203 15.01-34.515 6.65-6.104 12.9-10.262 12.96-10.302.37-.241.86-.142 1.1.221.24.364.14.853-.23 1.093-.06.04-6.21 4.134-12.77 10.15-9.74 8.941-20.2 21.859-14.67 32.632 1.44 2.783 3.63 4.565 6.54 5.296 10.32 2.595 26.39-8.376 26.55-8.487.36-.247.85-.157 1.1.202.25.358.16.85-.2 1.097-.61.417-13.42 9.163-23.99 9.163z" fill="#010101" />
  <path d="m1752.25 864.5c-.17 0-.35-.055-.49-.171-4.16-3.312-10.22-5.058-10.28-5.075-.42-.119-.66-.554-.55-.974.12-.419.56-.661.98-.543.26.074 6.42 1.846 10.83 5.358.34.271.4.767.13 1.107-.16.197-.39.298-.62.298z" fill="#010101" />
  <path d="m1661.87 1007.85c-.04 0-.07 0-.11-.01-.43-.06-.73-.46-.67-.89.92-6.2-5.07-8.687-5.32-8.789-.4-.163-.6-.621-.44-1.025s.62-.6 1.02-.439c.08.029 7.41 3.035 6.3 10.483-.06.39-.39.67-.78.67z" fill="#010101" />
  <path d="m1652.01 1003.81c-.33 1.6-1.89 2.62-3.48 2.29s-2.61-1.89-2.29-3.48c.33-1.59 1.89-2.61 3.48-2.28s2.62 1.88 2.29 3.47z" fill="#010101" />
  <path d="m1661.2 1013.74c-.18.91-1.08 1.5-1.99 1.31-.92-.19-1.5-1.08-1.32-2 .19-.91 1.09-1.5 2-1.31.92.19 1.5 1.08 1.31 2z" fill="#010101" />
  <path d="m1641.4 1005.26c-.2.92-1.1 1.52-2.03 1.33-.92-.2-1.52-1.1-1.33-2.03.19-.92 1.1-1.52 2.03-1.33.92.19 1.52 1.1 1.33 2.03z" fill="#010101" />
  <path d="m1670.3 1023.55c.59 1.8-1.86 4.23-5.49 5.43-3.62 1.2-7.05.72-7.64-1.08-.6-1.8 1.86-4.23 5.49-5.43 3.62-1.2 7.04-.72 7.64 1.08z" fill="#010101" />
  <path d="m1630.85 1008.07c-1.58 1.04-1.16 4.47.94 7.66s5.08 4.93 6.66 3.89 1.16-4.47-.94-7.66c-2.09-3.19-5.08-4.93-6.66-3.89z" fill="#010101" />
  <path d="m1699.85 1010.3-17.57-7.45 12.68 17.86z" fill="#010101" />
  <path d="m1694.96 1021.5c-.25 0-.49-.12-.64-.33l-12.69-17.87c-.2-.29-.19-.67.03-.95.22-.27.6-.37.92-.23l17.58 7.46c.19.08.35.24.43.44.07.2.06.43-.03.62l-4.88 10.41c-.12.25-.37.42-.65.45-.02 0-.04 0-.07 0zm-10.43-16.84 10.3 14.49 3.96-8.44z" fill="#010101" />
  <path d="m1692.8 1025.31-13.58-5 9.64 13.41z" fill="#010101" />
  <path d="m1688.86 1034.51c-.25 0-.49-.12-.64-.33l-9.64-13.41c-.2-.28-.2-.66.01-.94.21-.27.58-.38.9-.26l13.59 5.01c.2.07.37.23.45.44.09.2.08.43-.01.63l-3.95 8.41c-.12.25-.36.42-.64.45-.02 0-.05 0-.07 0zm-7.5-12.57 7.35 10.23 3.02-6.41z" fill="#010101" />
  <path d="m1756.9 896.23 22.11 8.811-10.5-18.169z" fill="#010101" />
  <path d="m1779.01 905.829c-.1 0-.2-.018-.3-.057l-22.1-8.81c-.26-.104-.45-.338-.49-.616-.04-.276.07-.555.29-.73l11.6-9.359c.18-.144.42-.204.64-.161.23.042.43.181.54.381l10.5 18.169c.17.291.13.656-.09.91-.15.178-.37.273-.59.273zm-20.56-9.832 18.74 7.47-8.9-15.404z" fill="#010101" />
  <path d="m1807.1 885.932c-1.96 5.118-4.57 9.98-7.45 14.458l-13.97-18.883c0-.001 15.98 3.3 21.42 4.425z" fill="#010101" />
  <path d="m1799.65 901.178c-.25 0-.49-.119-.64-.319l-13.96-18.883c-.2-.263-.21-.618-.03-.894.17-.274.5-.413.82-.347l21.42 4.426c.23.047.42.191.53.393.11.204.13.444.05.661-1.82 4.755-4.36 9.668-7.53 14.602-.14.218-.38.353-.64.361-.01 0-.02 0-.02 0zm-12.11-18.483 12.06 16.301c2.64-4.217 4.8-8.407 6.43-12.481z" fill="#010101" />
  <path d="m1771.75 929.678-6.5-15.97 17.83 6.929s-5.44 6.1-11.33 9.041z" fill="#010101" />
  <path d="m1771.75 930.465c-.09 0-.19-.017-.28-.051-.2-.077-.37-.237-.45-.44l-6.5-15.969c-.12-.292-.05-.625.17-.851.22-.224.56-.295.85-.181l17.83 6.93c.24.093.42.3.48.55.06.251-.01.517-.18.709-.22.253-5.61 6.247-11.56 9.22-.12.056-.24.083-.36.083zm-5.08-15.36 5.48 13.471c4.13-2.263 7.96-5.976 9.56-7.627z" fill="#010101" />
  <path d="m1821.53 1031.86c0-1.5-.97-2.78-2.32-3.25.24-.68.38-1.4.38-2.17 0-3.58-2.91-6.48-6.49-6.48-1.85 0-3.52.78-4.7 2.03-.57-.16-1.17-.25-1.78-.25-3.69 0-6.68 2.99-6.68 6.68 0 2.99 1.97 5.53 4.7 6.37-.09.44-.14.9-.14 1.36 0 3.78 3.06 6.84 6.84 6.84s6.85-3.06 6.85-6.84c0-.28-.02-.56-.06-.84 1.88-.03 3.4-1.56 3.4-3.45z" fill="#fff" />
  <path d="m1811.34 1043.78c-4.2 0-7.63-3.42-7.63-7.63 0-.28.02-.56.05-.84-2.78-1.14-4.61-3.83-4.61-6.9 0-4.11 3.35-7.46 7.47-7.46.51 0 1.02.05 1.54.17 1.35-1.26 3.09-1.95 4.94-1.95 4.01 0 7.28 3.26 7.28 7.27 0 .58-.07 1.17-.22 1.74 1.32.74 2.16 2.14 2.16 3.68 0 2.02-1.44 3.73-3.34 4.14v.15c0 4.21-3.43 7.63-7.64 7.63zm-4.73-21.26c-3.24 0-5.88 2.65-5.88 5.89 0 2.6 1.66 4.86 4.14 5.63.38.12.62.51.54.91-.08.39-.12.8-.12 1.2 0 3.34 2.72 6.05 6.05 6.05 3.34 0 6.06-2.71 6.06-6.05 0-.25-.02-.5-.05-.74-.03-.23.04-.45.19-.62.15-.16.36-.26.58-.27 1.44-.02 2.62-1.21 2.62-2.66 0-1.13-.72-2.14-1.79-2.51-.2-.07-.36-.21-.45-.4s-.1-.41-.03-.6c.22-.63.33-1.27.33-1.91 0-3.14-2.56-5.69-5.7-5.69-1.57 0-3.04.63-4.13 1.78-.2.21-.5.29-.78.22-.53-.15-1.06-.23-1.58-.23z" fill="#010101" />
  <path clip-rule="evenodd" d="m1345.61 504.112c.93 1.023.85 2.604-.17 3.531l-194.98 176.804c-1.02.927-2.6.85-3.53-.173s-.85-2.604.17-3.531l194.98-176.804c1.02-.927 2.6-.85 3.53.173z" fill="url(#b)" fill-rule="evenodd" />
  <path clip-rule="evenodd" d="m294.091 499.518c.855 1.084.669 2.656-.416 3.511l-512.421 403.886c-1.084.855-2.656.669-3.511-.416-.854-1.084-.668-2.656.416-3.511l512.421-403.886c1.084-.855 2.656-.668 3.511.416z" fill="url(#c)" fill-rule="evenodd" />
  <path d="m672.557 393.642-27.171 48.805 50.087-13.808 16.453-25.038z" style="fill:#73b7ea;stroke:#2e1e00;stroke-width:1.5;stroke-miterlimit:10;stroke-linecap:round;stroke-linejoin:round" />
  <path d="m738.662 469.234s205.559-134.637 232.948-278.175l.081-.525c-140.53-17.159-327.571 143.772-327.571 143.772s28.904 88.44 94.542 134.928z" style="fill:#adf0e7;stroke:#2e1e00;stroke-width:1.5;stroke-miterlimit:10;stroke-linecap:round;stroke-linejoin:round" />
  <path d="m589.941 301.405s72.169 5.225 98.269 26.74l-44.09 6.161s-20.724-18.429-54.179-32.901z" style="fill:#73b7ea;stroke:#2e1e00;stroke-width:1.5;stroke-miterlimit:10;stroke-linecap:round;stroke-linejoin:round" />
  <path d="m723.069 528.366s43.089-60.341 44.215-94.882l-33.139 30.788c.079-.045.092 28.308-11.076 64.094z" style="fill:#73b7ea;stroke:#2e1e00;stroke-width:1.5;stroke-miterlimit:10;stroke-linecap:round;stroke-linejoin:round" />
  <path d="m744.219 373.458c11.419 3.346 23.361-3.511 26.673-15.316 3.312-11.806-3.26-24.089-14.679-27.435-11.419-3.347-23.361 3.511-26.673 15.316s3.26 24.088 14.679 27.435z" stroke="#2e1e00" stroke-linecap="round" stroke-linejoin="round" stroke-miterlimit="10" stroke-width="1.5" />
  <path d="m866.164 316.046c-5.184 6.169-11.818 10.883-19.235 13.652-4.684 1.785-9.688 2.583-14.628 2.44-4.211-.136-10.91-1.344-14.916-2.449-14.97-4.388-27.524-7.449-42.245-12.724-5.003-1.81-10.173-3.736-14.751-6.588-2.092-1.3-5.829-3.836-4.957-6.944 1.406-5.011 6.195-4.569 10.193-3.672 18.087 3.928 36.065 8.716 53.609 14.819.061.018.184.054.245.072-.657-.262-1.966-4.352-2.358-5.085-.905-1.981-1.792-4.026-2.759-6.025-2.209-4.903-4.48-9.825-6.69-14.728-2.454-5.456-4.925-10.848-7.378-16.303l-2.176-4.551 4.366 1.005 10.161 2.36c1.056-7.79 14.498-14.284 14.498-14.284l.007-4.048-.059-7.363c4.102.997 8.041 3.524 11.634 7.048 6.006 5.81 11.254 12.428 15.85 19.472 2.905 4.558 5.413 9.343 8.045 14.164 2.587 4.74 5.527 9.171 8.352 13.774l2.701 5.048c.018-.064-2.176 4.442-7.509 10.91z" style="fill:#ffdc38;stroke:#2e1e00;stroke-width:1.5;stroke-miterlimit:10;stroke-linecap:round;stroke-linejoin:round" />
  <path d="m806.153 284.524 19.648-9.686" stroke="#2e1e00" stroke-linecap="round" stroke-linejoin="round" stroke-miterlimit="10" stroke-width="1.5" />
  <path d="m834.849 265.546-13.382 6.992s6.497 5.954 12.765 2.78c6.269-3.174.617-9.772.617-9.772z" style="fill:#2e1e00;stroke:#2e1e00;stroke-width:1.5;stroke-miterlimit:10;stroke-linecap:round;stroke-linejoin:round" />
  <path d="m842.479 262.016 11.439-5.983s.638 7.668-4.612 10.523c-5.329 2.9-6.827-4.54-6.827-4.54z" style="fill:#2e1e00;stroke:#2e1e00;stroke-width:1.5;stroke-miterlimit:10;stroke-linecap:round;stroke-linejoin:round" />
  <path d="m837.611 268.483 7.622-3.738" stroke="#2e1e00" stroke-linecap="round" stroke-linejoin="round" stroke-miterlimit="10" stroke-width="1.5" />
  <path d="m843.307 277.291c.982.288 2.01-.302 2.295-1.318s-.281-2.073-1.263-2.361c-.983-.288-2.011.302-2.296 1.318s.281 2.073 1.264 2.361z" fill="#2e1e00" />
  <path d="m836.428 279.325s2.911 5.246 8.631 3.079" stroke="#2e1e00" stroke-linecap="round" stroke-linejoin="round" stroke-miterlimit="10" stroke-width="1.5" />
  <path d="m808.729 290.016 11.841-3.394-8.15 11.065z" style="fill:#2e1e00;stroke:#2e1e00;stroke-width:1.5;stroke-miterlimit:10;stroke-linecap:round;stroke-linejoin:round" />
  <path d="m814.291 301.668 8.744-3.478-6.55 7.965z" style="fill:#2e1e00;stroke:#2e1e00;stroke-width:1.5;stroke-miterlimit:10;stroke-linecap:round;stroke-linejoin:round" />
  <path d="m662.748 411.566 19.465-.747-10.408-15.681" fill="#2e1e00" />
  <path d="m662.748 411.566 19.465-.747-10.408-15.681" stroke="#2e1e00" stroke-linecap="round" stroke-linejoin="round" stroke-miterlimit="10" stroke-width="1.5" />
  <path d="m821.442 315.227c21.144 6.197 43.256-6.5 49.389-28.36 6.132-21.859-6.037-44.602-27.181-50.799-21.143-6.196-43.255 6.501-49.388 28.36-6.132 21.859 6.037 44.603 27.18 50.799z" style="opacity:.4;fill:#fefffa;stroke:#2e1e00;stroke-width:1.5;stroke-miterlimit:10;stroke-linecap:round;stroke-linejoin:round" />
  <path d="m821.442 315.227c21.144 6.197 43.256-6.5 49.389-28.36 6.132-21.859-6.037-44.602-27.181-50.799-21.143-6.196-43.255 6.501-49.388 28.36-6.132 21.859 6.037 44.603 27.18 50.799z" stroke="#2e1e00" stroke-linecap="round" stroke-linejoin="round" stroke-miterlimit="10" stroke-width="1.5" />
  <path d="m1080.79 270.178-870.79 710.822 586 70 563.48-893.792-213.34 190.447z" fill="url(#d)" opacity=".15" />
  <path d="m258.5 934.5 813.65-655.455c5.48-4.411 13.47-3.669 18.04 1.675l48.91 57.205c4.79 5.595 13.26 6.105 18.68 1.125l200.31-184.038" stroke="url(#e)" stroke-linecap="round" stroke-width="5" />
  <path d="m1343.45 154.856 14.64.156-.51 13.574" stroke="#f37e2a" stroke-linecap="round" stroke-width="5" />
  <path d="m568.924 472.808c-.275.476-.663.819-1.19.888-.692.168-1.622-.107-2.712-.707l-.467-.287-.098.553c-.173.946-.527 2.239-1.447 3.075-.711.628-1.638.864-2.712.74-.348-.066-.646-.153-.929-.276-.744-.322-1.123-.827-1.319-1.167-.573-1.057-.396-2.427-.173-3.394l.149-.574-.592.126c-.813.158-1.995.199-2.914-.412-.94-.663-1.419-1.849-1.388-3.58-.001-1.235.443-2.234 1.283-2.977 1.601-1.391 4.298-1.371 5.386-1.282l.206.004.144-.15c.158-.187.352-.358.617-.499 1.597-.967 3.758-.754 5.204.511 1.961 1.744 1.977 4.389 1.881 5.454l-.002.212.163.113c.352.365 1.861 1.785.91 3.629z" fill="#fefffa" />
  <path d="m498.474 457.179c.141.061.247.106.402.13 2.677.847 4.339-1.91 5.417-3.033.788.809 2.337 1.987 3.112 2.32-.321 2.517.157 4.393 1.314 5.617 1.228 1.255 2.936 1.43 3.946 1.392.109 1.46.848 3.405 2.998 4.326.247.106.494.212.805.26 3.506.946 4.849-3.876 5.547-5.59 1.518.137 3.422-.675 4.659-1.986 1.802-1.883 2.013-4.534 2.006-6.55.341-.025 2.54-.239 2.876-.353-.19 1.076-.838 2.768-.183 3.905.654 1.138 1.843 1.776 3.537 1.988.161.926.588 2.522 1.819 3.564.328.312.701.514 1.089.681.67.287 1.449.407 2.317.308 3.152-.32 3.333-3.712 3.505-6.165.105.045 1.072.416 1.178.462.669.287 1.307.346 1.97.245 1.389-.261 2.498-2.271 3.175-3.222.427.782.984 2.563 1.997 3.126 1.245.705 2.736.702 4.41.048 1.338-.54 1.633-1.57 2.053-2.803.72-2.176-.526-4.809-1.217-6.262.085-.006 1.085.08 1.206.089.456-.104 1.462-.744 1.863-.915.025.953.155 2.465 1.004 3.429.85.964 2.413 1.291 4.091 1.239-.286.906-.684 2.492-.215 3.678.367.928.567 1.656 1.625 2.11.282.12.614.22.946.319 1.725.44 3.135.231 4.2-.555.54-.411.956-1.432 1.214-1.964.451.622 1.035 1.729 1.881 2.091 1.148.535 2.398.514 3.751-.062 3.256-1.388 4.27-4.081 4.573-5.536.623.096 1.347.149 2.13.057 1.209-.124 2.186-.691 2.863-1.643 1.121-1.533.855-4.131.786-5.488.744.105 2.475-.181 3.212-.465.562.754 1.304 2.186 2.749 2.805.81.348 1.467.972 2.354.624 1.709-.638 3.171-2.196 3.878-4.034.411-1.109.495-2.23.293-3.259l.035.015c1.942-.195 3.904-3.08 4.671-4.251.979.848 2.943 2.632 4.745 2.377 1.189-.176 1.649-.493 2.319-1.833 1.862-3.657.389-7.458-.581-9.244 2.015-.679 3.149-4.176 3.543-5.549 1.564.328 3.833.958 5.32-1.575 1.72-2.903-.247-6.102-1.274-7.442.339-.326.688-.776 1.017-1.277 2.86-4.685 1.054-8.586.78-9.132-.454-1.223-.979-1.662-1.996-2.012-1.052-.365-2.234.199-3.02.504-.085-1.621-.598-5.139-2.169-6.669-1.551-1.478-3.525-.697-4.759-.412.012-.638.044-2.037-.062-2.896-.352-2.593-1.516-4.206-3.432-4.684-1.308-.347-1.566.185-2.487.819-.64.453-1.345 1.779-1.633 2.383-1.014-1.676-3.46-5.124-5.703-5.614-.538-.102-.902.385-1.394.474-.135-.786-.496-2.44-.971-3.715-1.127-2.924-3.032-4.854-5.491-5.523-2.39-.639-4.405.853-5.71 2.735-.88-2.005-2.922-5.022-6.096-5.055-1.768-.029-2.583.649-3.496 1.671-.674.74-.96 1.645-1.071 2.325-1.011-.262-3.193-.597-4.585.177-.215.122-.395.259-.575.396-.86-1.14-2.7-3.128-4.917-2.665-1.882.35-2.311 2.522-2.508 4.022-.998-.599-2.782-1.706-4.287-1.366-1.319.291-1.819.805-2.537 2.468-1.194 2.829-.831 3.97-.146 5.034l.573.931c-.581.308-2.073 1.939-2.582 2.577-1.504-1.287-3.029-2.626-4.539-2.374-2.102.384-3.641 2.637-4.248 3.619-1.866-.5-3.489-.682-4.84.196-.79.517-1.468 2.283-1.945 3.963-.843-.575-2.38-1.577-3.837-1.559-1.471.055-2.76.273-3.942 1.651-.32.377-1.081 1.636-1.279 2.022-.92-.994-2.421-2.494-4.814-2.106-1.731.286-2.702.94-3.385 2.618-.535 1.313-.546 2.764-.092 3.987-1.013.251-2.486.819-3.468 2.111-.822 1.104-1.11 2.522-.834 4.183.239 1.344 1.39 2.48 2.314 3.262-1.093.345-3.303 2.011-4.045 3.02-1.03-.826-2.517-1.85-3.528-2.112-1.444-.318-1.993-.597-3.372.654-2.108 1.923-1.632 5.126.052 7.903-3.649.321-4.654 2.075-4.868 4.938-1.443-.318-4.009-1.033-5.656-.24-.882.436-1.401.899-1.541 1.953-.385 2.876.976 4.616 2.282 5.475-.753.834-1.694 2.23-1.695 3.857.002 1.114 1.01 2.703 1.91 3.646-2.108 1.109-5.257 2.843-4.749 6.273.512 3.518 3.367 4.742 5.337 4.987-.336 1.74-.025 4.23 2.125 5.151z" fill="#fefffa" />
  <path d="m539.387 508.683c.493.212.465.585 1.083.593 1.215-.036 2.267-.485 3.05-1.391 1.233-1.399 1.742-4.479 1.824-5.9.922.481 2.085 1.793 3.363 1.399 1.193-.389 2.021-1.404 2.519-3.033 1.276-4.25-2.063-8.251-3.725-9.863 1.08-.822 1.654-2.332 1.692-4.458 0 0 .015-.036-.02-.051.334-.414 1.62-2.047 1.424-3.802-.091-.895-.603-1.671-1.46-2.21-2.289-1.495-4.512-.306-5.649.148-.922-1.294-3.594-4.796-6.076-5.003-1-.086-1.425.246-2.164 1.043-.724.761-.943 1.909-1.129 2.771-1.639-1.259-4.119-2.793-6.251-3.15-3.363-.585-5.403 1.881-6.925 4.399l-.044.109c-.155.277-.427.845-.596 1.158-1.338-1.087-2.82-2.022-4.098-2.442-2.048-.663-3.634-.53-4.703.469-1.234 1.098-1.506 3.595-1.478 4.849-.855-.239-1.965-.971-2.991-.383-1.091.646-1.661 1.944-1.73 3.842-.043 1.223.2 2.355.743 3.359-1.62.42-4.592 1.416-5.927 3.371-.627.93-.837 1.954-.63 3.071.751 3.748 3.134 5.112 4.277 5.559-.084 1.121-.055 3.489 1.241 5.287.562.755 1.248 1.306 2.094 1.668.599.257 1.243.405 1.952.494 4.261.413 6.183-4.203 7.267-6.865 1.117 1.121 2.99 2.824 4.27 2.73 1.11-.081 2.453-1.347 3.088-1.889.496 1.627 1.125 4.252 2.781 4.962.599.257 1.308.346 2.126.269 2.429-.373 4.138-1.825 5.131-3.755.596-1.158.717-2.777.484-4.033.517.05 2.571-.011 2.977-.094-.026 1.488-.29 4.373 1.095 5.952.428.269.657.624 1.115.82z" fill="#fefffa" />
  <path d="m484.909 418.726c.25.707.731 1.255 1.491 1.624.035.015.071.03.106.045.775.333 1.514.349 2.2.087.551-.235 1.238-1.311 1.557-1.689.445.534.849 1.778 1.749 1.907.935.143 1.837-.241 2.67-1.169 2.216-2.391.985-5.874-1.259-8.292-.551-.579-1.131-1.085-1.742-1.518-2.133-1.471-4.45-1.779-6.689-.854-2.34.967-4.081 3.005-4.159 5.027-.079 1.209.479 2.176 1.492 2.739 1.028.526 2.386.037 3.048-.064-.143.453-.618 1.62-.464 2.157z" fill="#fefffa" />
  <path d="m510.478 400.774c.492-.903.475-1.981-.009-3.131-1.314-3.176-4.768-3.029-6.654-2.466-.534-.315-1.767-.844-3.066-.501-1.063.272-1.908 1.024-2.568 2.24-.845 1.565-.582 2.749-.211 3.465.782 1.534 2.609 2.232 3.791 2.482-.071.783-.008 2.052.665 2.94.188.252.496.512.918.694.282.121.665.199 1.076.204.824.01 1.526-.289 2.09-.861.803-.854.997-2.142 1.038-2.853.772-.269 2.224-.888 2.93-2.213z" fill="#fefffa" />
  <path d="m489.269 510.373c-.924-.782-1.916-1.293-2.339-1.474-.781-1.234-2.901-3.043-5.989-1.967-1.343.452-1.855 1.303-2.022 1.917-.433 1.57.622 3.35 1.204 4.157-.403.684-1.037 2.039-.863 3.442.146.962.608 1.76 1.435 2.371.287.209.59.381.872.502.599.257 1.202.301 1.794.17 1.098-.258 1.916-1.149 2.325-1.745.77.244 2.178.548 3.425-.074.931-.457 1.584-1.248 1.939-2.424.527-1.701-.095-3.425-1.781-4.875z" fill="#fefffa" />
  <path d="m534.53 379.43c.571.63 1.341.875 1.964.971-.178 1.251.098 2.911 1.754 3.621 1.763.756 3.217-.377 4.004-1.496 1.371.802 3.605 1.417 5.397-.342.954-.919 1.099-1.885 1.075-2.538-.057-1.181-.771-2.172-1.286-2.736.234-.371.512-.851.7-1.413.618-1.62.338-3.067-.767-4.012-1.288-1.109-2.657-1.61-4.087-1.452-1.907.21-3.351 1.519-3.93 2.127-1.788-.081-4.798.599-5.446 3.919-.268 1.471-.061 2.587.622 3.351z" fill="#fefffa" />
  <path d="m527.233 355.571c.044 1.518.735 3.785 3.062 4.782.176.075.352.151.508.175 1.349.449 2.3.044 2.861-.316 1.2-.813 1.683-2.405 1.869-3.268.933-.157 2.753-.661 3.518-2.132.537-1.013.494-2.23-.192-3.595-1.789-3.637-6.087-3.552-8.379-2.906-1.456-.796-4.207-1.461-5.837.71-.757 1.046-.991 2.231-.593 3.387.577 1.532 1.95 2.634 3.183 3.163z" fill="#fefffa" />
  <path d="m503.371 367.401c-.514.551-1.126 1.445-1.225 2.602-.093 1.245.411 2.446 1.528 3.567.474.461.979.849 1.472 1.06.599.257 1.188.338 1.779.206 1.29-.218 2.233-2.127 2.801-2.912.666.5 1.749 1.907 2.738 1.816.647-.065 1.228-.373 1.672-.953 1.076-1.424.032-3.028-.647-4.004 1.169-1.041 2.873-2.581 1.955-4.088-1.09-1.795-4.508-1.332-5.847-1.093-.672-.587-2.341-1.774-3.927-1.64-.819.077-1.514.464-2.038 1.14-.698.9-.998 1.842-.887 2.789.124.61.378 1.104.626 1.51z" fill="#fefffa" />
  <path d="m468.783 430.874-.035-.015c-.141-.06-2.953-1.694-5.148-.879-.922.333-1.581 1.036-2.012 2.093-.47 1.255-.309 2.181.194 3.082.523.952 2.066 1.228 2.716 1.464-.207.811-.704 2.439-.211 3.464.274.546.257 1.096.786 1.323.106.045.176.075.282.12 1.66.498 4.401-1.454 5.532-3.925 1.21-2.565.422-5.001-2.104-6.727z" fill="#fefffa" />
  <path d="m482.24 453.433c.306-.854 1.275-2.623.867-3.655-.189-.552-.608-.946-1.101-1.157-1.636-.659-2.937.197-3.572.739 0 0 0 0-.035-.015-1.621-.695-4.421-1.038-6.108 1.579-.702 1.113-.882 2.064-.52 2.904.417.907 1.979.934 2.728 1.127-.434 1.27-1.119 3.461.504 4.456.126.097.267.157.408.218 1.55.665 2.946-.322 3.759-1.301.721.566 1.971 1.359 3.246 1.177.612-.08 1.464-.443 2.16-1.644.587-1.034.682-1.978.335-2.855-.443-1.047-1.966-1.271-2.671-1.573z" fill="#fefffa" />
  <path d="m458.881 480.899c-.43.244-.944.795-1.048 1.864-.071.783.144 1.475.609 2.06.946 1.134 2.666 1.485 3.425 1.554.365.627 1.027 1.339 1.802 1.672.564.241 1.203.301 1.889.038 1.073-.397 1.754-1.561 1.821-2.946.058-1.26-.376-2.431-1.188-3.079.132-.629.256-1.646-.211-2.532-.234-.443-.714-.991-1.74-1.217-1.041-.189-1.672.14-2.026.502-.534.5-.618 1.62-.65 2.206-.729-.141-1.907-.603-2.683-.122z" fill="#fefffa" />
  <path d="m557.077 361.681c-.754.834-2.658 2.459-2.683 4.248-.007 1.238.527 2.367 1.597 3.297.489.424.938.745 1.432.956.705.302 1.378.377 2.07.202 1.199-.3 2.073-1.938 2.606-2.738.899.943 2.542 2.804 4.992 2.483 1.615-.207 2.749-1.263 3.082-2.791.327-1.616-.769-3.499-2.026-4.681.892-1.073 2.833-3.197 2.756-5.243-.046-1.005-.478-1.876-1.29-2.524-2.478-2.047-5.545-.92-7.206.21-1.775-1.232-4.942-2.504-6.987-.125-.688.775-.989 1.717-.943 2.722.035 1.643 1.861 3.154 2.6 3.984z" fill="#fefffa" />
  <path d="m494.51 474.027c1.037.401 2.031.399 2.897 0 .817-.379 1.372-1.64 1.73-2.214.551.578 1.367 1.828 2.276 1.832.462-.016 1.154-.191 1.731-1.1 1.09-1.76.463-3.271-.381-4.147.724-.76 1.806-2.095 1.753-3.489-.019-.565-.245-1.433-1.163-2.126-2.446-1.82-5.621-1.039-6.528-.742-.403-.13-1.208-.389-2.137-.445-1.824-.097-3.171.568-3.927 1.915-.566 1.085-.46 1.944-.221 2.475.449 1.134 2.148 1.434 2.923 1.767-.351.963-1.333 3.069-.817 4.447.326.825.897 1.455 1.743 1.818l.106.045z" fill="#fefffa" />
  <path d="m525.452 380.678c.497-.814 1.605-2.01 1.439-3.024-.11-.646-.519-1.164-1.139-1.473-2.111-1.119-4.826.973-5.77 1.767-1.635-.358-4.371-.246-5.4 2.483-.455 1.218-.438 2.296.049 3.233.681 1.277 2.213 2.191 4.703 2.787.326.825 1.155 2.551 2.846 3.276.388.167.841.275 1.323.31 1.206.089 1.861-.401 2.195-.815.588-.733.678-1.765.613-2.521.562-.059 1.304-.255 1.854-.791.404-.383.872-1.125.809-2.394-.04-.917-.432-1.684-1.047-2.205-.56-.454-1.852-.537-2.475-.633z" fill="#fefffa" />
  <path d="m512.999 522.344c.284.421.683.763 1.176.975.599.257 1.358.325 2.121.181 1.269-.27 2.115-1.535 2.551-2.505.633-.028 1.755.367 2.485-.305.354-.362.777-.995.726-2.088-.052-1.093-.532-1.641-.946-1.947-.61-.433-1.751.234-2.349.278 0-.814.237-2.511-.426-3.224-.348-.363-1.009-.775-2.062-.627-.748.108-1.409.51-1.817 1.106-.882 1.25-.207 3.252-.122 4.06-.833.928-2.381 2.492-1.337 4.096z" fill="#fefffa" />
  <path d="m452.396 522.537c-1.153 1.305-3.806 1.11-4.756 1.003-.525.374-1.825 1.23-3.243 1.051-.276-.033-.538-.102-.785-.208-.563-.242-1.088-.681-1.504-1.287-.526-.74-.647-1.563-.441-2.374.428-1.658 2.51-2.908 3.456-3.402-.159-.625-.476-1.574-.029-2.368.264-.444.763-.958 1.817-1.106 1.089-.133 1.764.243 2.163.585.671.587.897 1.455 1.001 2.014.725.354 2.163 1.398 2.77 3.972.273 1.059-.08 1.721-.449 2.12z" fill="#fefffa" />
  <path d="m512.127 548.269c.186-.863.589-3.174-1.056-5.336-.709-.903-1.621-.694-2.133-.657-1.757.146-2.892 2.83-3.369 3.696-.621.205-2.182.478-2.922 1.788-.477.867-.78 1.508-.458 2.546.262.883.818 1.55 1.558 1.867 1.586.68 3.746-.151 4.763-.614.41.518 1.087 1.194 1.986 1.322.503.087 1.251-.02 2.04-.839.803-.855.924-1.659.906-2.224-.071-.844-.946-1.134-1.315-1.549z" fill="#fefffa" />
  <path d="m538.351 559.81c-.558-.967-2.146-1.134-3.022-1.424.191-.774.559-2.287.051-3.276-.447-.834-1.283-1.321-2.409-1.504-1.332-.185-2.158.317-2.592.774-.934.97-.873 2.752-.883 3.69-1.365.101-3.382.478-3.631 2.513-.22 1.962 1.548 2.805 2.826 3.225-.297.729-.902 2.012-.45 2.934.254.494.618.821 1.182 1.063.388.166.84.274 1.373.289 3.115.178 4.247-2.806 4.719-4.574.813-.165 2.57-.312 3.056-2.116.138-.541.069-1.084-.22-1.594z" fill="#fefffa" />
  <path d="m653.364 528.435c-.954 1.333-2.052 2.093-3.265 2.207-.906.076-1.666-.211-2.148-.462l-.553-.283-.269.565c-.43.965-1.184 2.215-2.451 2.773-.15.063-.351.147-.586.215l-.558.142.144.574c.336 1.338.717 3.805-.75 5.172-1.324 1.216-3.006.53-3.884.021l-.772-.463-.109.891c-.111 1.102-.468 2.61-1.504 3.524-.906.801-2.147.987-3.725.559-.455-.112-.86-.245-1.25-.414-1.42-.615-2.365-1.579-2.745-2.809l-.206-.729-.616.287c-.616.287-1.273.471-1.943.479l-.584.003.008.6c.081 1.867-.383 3.328-1.383 4.259-1.467 1.366-3.705 1.334-4.587 1.25l-.435-.061-.16.4c-.687 1.705-1.804 2.925-3.128 3.417-.722.241-1.893.458-3.362-.136l-.745-.323-.044.833c-.038.921-.272 2.226-1.088 3.321-.852 1.08-2.083 1.654-3.724 1.795-.392.043-.826-.017-1.21-.098l-.819-.142.128.822c.194 1.278.083 3.104-1.494 4.637-1.108 1.097-2.644 1.496-4.172 1.047-1.194-.347-2.248-1.145-2.851-2.131l-.35-.578-.503.422c-.762.649-1.996 1.436-3.407 1.421-1.204-.011-2.346-.591-3.354-1.71-.838-.917-1.256-1.95-1.295-2.99l-.046-1.128-.883.64c-1.113.796-2.15 1.199-3.062 1.187l-.584.002.008.601c.023 1.288-.188 2.432-.589 3.324-.533 1.218-1.631 1.978-3.223 2.31-3.135.644-4.638-1.626-5.38-3.61l-.299-.811-.647.572c-.891.764-2.649 1.92-4.671 1.043-.249-.108-.482-.252-.751-.411l-.56-.37-.284.601c-.561 1.291-1.81 3.562-3.484 4.2-.772.262-1.549.224-2.306-.275-2.459-1.449-2.68-3.59-2.604-4.708l.035-.709-.684.044c-1.042.103-2.544.005-3.655-.86-.749-.623-1.239-1.474-1.391-2.648l-.107-.771-.68.344c-.946.485-3.421 1.458-5.621.504-.603-.261-1.127-.616-1.578-1.152-2.566-2.732-1.074-5.92-.552-6.802l.291-.514-.503-.303c-1.006-.606-3.22-2.248-2.333-4.761.879-2.389 3.616-3.078 5.185-3.25l.564-.054-.059-.579c-.139-.998-.087-1.956.128-2.8l.09-.43-.361-.242c-2.012-1.213-3.124-2.59-3.287-4.152-.177-1.525.571-2.863 1.235-3.684l.346-.446-.388-.381c-.72-.696-2.298-2.573-1.151-5.315 1.257-3.12 6.057-2.105 7.493-1.738l.42.097.231-.369c.739-1.213 1.894-1.906 3.478-2.115 2.454-.299 5.245.74 6.616 1.888l.438.36.382-.431c.173-.223.432-.451.712-.629l.804-.546-.858-.457c-.802-.39-1.835-1.136-2.258-2.257-.403-1.07-.213-2.266.55-3.64l.231-.368-.281-.336c-.543-.618-1.457-1.867-1.528-3.346-.075-1.056.335-2.071 1.128-3.006 2.133-2.399 5.245-.71 6.491.129l.722.483.144-.875c.151-.787.435-1.388.917-1.861.935-.873 2.319-.998 3.302-.955l.933.063-.39-.893c-.271-.672-.618-1.674-.436-2.746.184-1.284 1-2.379 2.399-3.265 1.069-.687 2.175-.847 3.233-.473 1.974.685 3.362 3.034 4.04 4.35l.378.718.626-.623c.065-.058.079-.094.144-.151.323-.286.632-.536 1.048-.739l.709-.417-.657-.54c-.586-.51-1.369-1.361-1.571-2.514-.182-1.101.18-2.308 1.176-3.539l.505-.633-.76-.287c-.76-.287-1.795-.82-2.327-1.776-.532-.955-.513-2.14.043-3.518.613-1.524 1.542-2.485 2.636-2.821.522-.157 1.071-.175 1.647-.053l.889.172-.219-.904c-.213-.817-.269-1.608-.112-2.307.232-1.093.939-2.022 2.079-2.679 2.818-1.719 5.333-.927 6.581-.301l.482.252.24-.493c.27-.565.66-1.12 1.171-1.666.735-.789 1.601-1.181 2.599-1.174 1.739.029 3.45 1.367 4.297 2.161l.551.494.349-.659c.334-.622.795-1.146 1.355-1.5l.344-.235-.081-.418c-.336-1.339-.93-4.623 1.057-5.935 1.413-.921 3.34-1.151 5.045-.625 1.002.306 1.83.836 2.435 1.609l.415.521.462-.524.014-.037c1.197-1.314 3.463-1.354 4.724-1.276l.641.064-.029-.651c-.052-1.216.034-3.395 1.221-4.585.706-.717 1.735-.995 3.008-.741 3.692.662 5.647 3.981 6.469 5.872l.286.635.574-.39c1.607-1.093 4.143-.25 5.187.16l.496.215.241-.492c.451-.913 1.812-3.05 4.723-2.726 2.983.355 4.189 3.776 4.552 5.254l.123.522.528-.069c.442-.064.956-.097 1.475-.042 5.176.496 6.956 4.251 7.123 4.664l.021.052c.553 1.006.722 1.932.442 2.833-.309.974-1.086 1.661-1.66 2.051l-.639.448.587.509c1.102.989 2.992 2.917 3.207 4.97.167 1.862-.973 3.243-1.929 4.065l-.618.499.651.453c.417.308 1.054.797 1.682 1.411 1.636 1.732 2.153 3.447 1.445 5.101-.467 1.161-1.173 1.878-2.131 2.187-.536.193-1.171.217-1.818.064l-.995-.218.36.966c.562 1.607 1.408 4.573.469 6.595-.211.42-.493.809-.816 1.095l-.453.401.409.433c.521.567 1.254 1.438 1.919 2.579 1.507 2.571 1.845 5.146.909 7.468-.862 2.14-2.549 3.327-4.565 3.263l-.983-.043.476.888c.797 1.539 1.737 4.376-.185 7.08z" fill="#fefffa" />
  <path d="m620.212 568.21-.185.047-.073.182c-.299.637-1.927 3.851-5.073 2.87-.192-.04-.369-.117-.546-.194-.887-.384-1.494-.946-1.842-1.736-.593-1.321-.346-3.174.733-5.646l.073-.181-.098-.17c-.532-.955-1.683-3.371-.278-5.617.601-.975 1.308-1.179 1.771-1.191.342-.023.676.08.995.218.461.2.878.508 1.175.807l.275.247.238-.28c.353-.358.92-.836 1.648-.989.493-.085 1.304-.032 2.187.777.642.577.984 1.279 1.005 2.055.008.6-.134 1.262-.532 1.941l-.291.514.591.085c1.266.166 2.203.529 2.689 1.081.373.417.517.991.39 1.617-.366 2.355-3.838 3.321-4.852 3.563z" fill="#fefffa" />
  <path d="m592.751 576.499c-.063.569-.405 2.04-1.511 2.924-.877.728-2.012.96-3.42.733-1.409-.227-2.385-.906-2.873-1.97-.837-1.854.099-4.175.376-4.864l.132-.326-.255-.196c-.63-.401-1.654-1.271-1.942-2.418-.138-.486-.123-1.247.484-2.134.485-.684 1.144-1.08 1.929-1.166.649-.06 1.295.093 1.863.339.461.2.822.441 1.091.601l.234.143.229-.156c.718-.541 2.152-1.41 3.61-1.204 1.01.182 1.83.836 2.46 1.961 2.113 3.855-1.823 7.006-2.246 7.334l-.115.078z" fill="#fefffa" />
  <path d="m532.404 545.139c1.487.209 2.835-.455 3.85-2.033.533-.8.824-1.617.952-2.034.77-.569 3.279-2.663 3.356-5.8.028-1.187-.478-1.875-.912-2.233-1.05-.878-2.727-.826-3.731-.699-.177-1.19-.939-2.673-2.954-2.809-1.035-.101-1.59.347-1.909.724-.539.712-.283 2.32-.148 3.106-.653-.023-1.781-.506-2.542-.061-.861.487-1.428 1.272-1.753 2.375-.266.957-.175 1.852.301 2.613.766 1.271 2.974 1.746 3.92 2.066-.221.848-1.016 2.392-.417 3.462.213.391.582.807 1.217 1.079.196.127.458.196.77.244z" fill="#fefffa" />
  <path d="m673.911 534.246c-.465.948-1.095 1.271-1.573 1.32-.714.117-1.458-.206-1.926-.494l-.36-.242-.161.399c-.342.747-.893 1.7-1.78 2.04-.351.147-.928.237-1.638-.071-.141-.061-.319-.138-.446-.236-.665-.416-1.087-1.025-1.243-1.774-.334-1.55.553-3.338.967-4.053l.108-.166-.062-.155c-.174-.501-.989-3.027.904-4.209.774-.474 1.735-.483 2.657-.083.284.123.553.282.808.478 1.068.761 1.697 1.886 1.758 2.977l-.017.248.213.092c.532.231 1.502.822 1.877 1.751.258.496.379 1.229-.086 2.178z" fill="#fefffa" />
  <path d="m656.636 548.726c-1.21 1.349-4.234 1.103-5.102.982l-.156-.025-.115.078c-.538.406-1.936 1.291-3.429 1.069-.918-.1-1.731-.665-2.363-1.578-.534-.742-.696-1.579-.46-2.372.473-1.796 2.595-3.134 3.504-3.634l.265-.14-.089-.295c-.109-.558-.284-1.571.173-2.395.246-.404.743-.913 1.798-1.052.649-.059 1.154.032 1.544.201.283.123.481.251.629.401.678.592.912 1.459 1.005 2.054l.048.191.178.077c.836.405 2.306 1.511 3.019 4.29.133.909.012 1.624-.449 2.148z" fill="#fefffa" />
  <path d="m619.703 590.286c.035.739-.005 2.596-.927 3.644-.447.488-1.012.754-1.682.762-.926.025-1.65-.246-2.221-.792-.296-.299-.548-.706-.665-1.14l-.09-.295-.306.038c-.614.075-1.511.026-2.268-.472-.813-.566-1.345-1.52-1.495-2.906-.123-1.245.136-2.198.812-2.842.805-.758 1.946-.903 2.772-.885l.378-.007.025-.373c.036-.708.188-1.707.693-2.34.332-.41.782-.598 1.316-.579 1.546-.012 2.167 1.237 2.409 1.981l.111.346.321-.074c.814-.158 2.774-.373 3.308 1.093.596 1.622-1.678 3.958-2.368 4.639l-.13.114z" fill="#fefffa" />
  <path d="m654.12 588.965c-.076.393-.747 4.024-3.69 3.984-1.119-.016-2.049-.504-2.666-1.453-.85-1.307-.818-3.04-.486-4.175l.052-.233-.184-.165c-.622-.526-2.64-2.552-1.562-5.537.447-1.213 1.186-1.703 1.772-1.917 1.059-.351 2.253-.004 3.034.334.107.046.213.093.319.139l.249.107.194-.171c.677-.645 2.013-1.685 3.437-1.494.99.13 1.781.857 2.388 2.143 2.004 4.236-2.216 7.778-2.705 8.163l-.115.078z" fill="#fefffa" />
  <g stroke="#2e1e00" stroke-linecap="round" stroke-linejoin="round" stroke-miterlimit="10" stroke-width="1.5">
    <path d="m609.952 395.911s1.017-6.46-2.886-7.448c-3.904-.987-4.456 3.316-4.456 3.316s-4.09-8.863-8.651-4.779c-4.562 4.084.42 9.132 3.099 9.467 0 0-3.221 7.4 1.806 8.27 4.992.855 4.387-2.232 4.387-2.232s.911 4.674 4.44 4.345c0 0-.322-2.665 2.282-2.149-.05.022-4.334-5.113-.021-8.79z" />
    <path d="m609.952 395.911s3.145-1.521 5.191.469c2.045 1.991 1.807 6.643 1.807 6.643s3.863-2.371 5.301 1.416c0 0 2.127 3.824-.718 8.472-2.846 4.649-5.625-.826-5.625-.826s-7.88 2.576-8.232-5.199" />
    <path d="m596.677 403.499s-3.345.794-4.35 4.989 3.974 4.573 3.974 4.573-5.573 1.894-2.896 7.111c2.663 5.253 6.325 4.596 6.325 4.596s4.433-2.854 7.731.23c0 0 .113-4.749 2.465-4.426 0 0-5.902-4.415-1.387-10.317" />
    <path d="m595.044 386.266s-.411-7.629-5.975-9.115c-5.548-1.521-8.088 5.528-4.652 9.186 0 0-5.625 1.615-3.694 7.24 1.932 5.625 6.942 1.862 6.942 1.862s4.187 6.592 7.475.248" />
    <path d="m592.558 411.071s-8.975 3.435-9.252-6.15c0 0-10.012-3.778-2.242-10.556" />
    <path d="m620.035 414.454s3.679 3.976 1.76 7.265c-1.919 3.29-5.488 1.888-5.488 1.888s-2.033 10.48-8.852 1.303" />
    <path d="m597.986 424.578s-3.009 5.049 2.733 6.91c0 0-5.463 3.655-1.728 8.512 3.735 4.856 7.26-2.071 7.26-2.071s4.725 5.067 7.094.471c2.348-4.647-1.192-9.677-1.192-9.677" />
    <path d="m579.383 402.254s-4.586 5.873-8.503.039c0 0-5.954 1.303-6.329-3.57-.36-4.909 4.619-10.527 4.619-10.527s1.463 1.998 4.315.993c0 0-.995 7.626 5.046 8.245" />
    <path d="m588.649 411.623s-1.545 9.789-8.003 4.708c0 0-4.413 2.906-6.945-3.277-1.661-4.053 1.027-8.212 1.027-8.212" />
    <path d="m583.167 380.361s-1.067-5.512-5.889-5.566c-4.822-.053-4.526 4.1-4.526 4.1s-5.317-2.194-6.335 3.152c-.756 3.788 2.753 6.149 2.753 6.149" />
    <path d="m585.183 417.59s-2.677 5.149.944 9.271c3.62 4.122 11.147 1.395 11.147 1.395" />
    <path d="m567.358 379.838s-2.151-3.663-4.759-3.154c-2.609.51-2.28 4.377-2.28 4.377s-4.913-4.504-7.196.899c-2.284 5.403 2.097 7.453 5.702 7.242 0 0-.148 3.92 6.499 5.184" />
    <path d="m564.566 398.687s-4.825-.655-5.477 2.878c-.653 3.532 2.15 5.29 2.15 5.29s-5.53 4.226.563 9.494c0 0 4.09 2.867 6.548-1.134.716-1.15 1.629-2.172 2.806-2.824.81-.466 1.582-.735 1.866-.313" />
    <path d="m567.717 416.057s-2.466 6.054 4.622 8.878c0 0 3.659-2.073 4.519.695 0 0 3.128-6.155 7.741-1.523" />
    <path d="m590.811 429.083s-2.065 4.255 1.979 6.931c0 0-6.099.641-6.323 5.257-.188 4.63 3.396 5.995 5.784 4.706 0 0 2.696 4.154 5.357 3.11 2.66-1.044 4.834-4.652 3.365-7.552" />
    <path d="m572.339 424.934s-4.027 2.772-.071 8.408c2.659 3.838 5.333 3.271 6.739 2.461 1.327-.717 2.837-.969 4.266-.614 1.484.422 3.107 1.418 3.869 3.715" />
    <path d="m554.071 387.763s-3.758.788-3.568 4.896 1.71 8.1 8.522 10.078" />
    <path d="m561.837 416.364s-5.841 1.737-5.022 6.842c.839 5.157 4.963 4.483 4.963 4.483s-6.524 4.228-2.555 7.086c3.934 2.843 5.635-2.553 5.635-2.553s2.71 7.373 7.48 1.151" />
    <path d="m553.751 400.134s-1.932 4.44-5.039 2.208c0 0-1.363 4.77-5.533 1.998 0 0-1.434-.444-1.635-3.914 0 0-6.567-.545-6.154-4.608.422-4.188 3.704-5.437 7.056-4.214 0 0 3.21-6.762 8.515-1.49" />
    <path d="m535.39 395.818s-3.953-4.221-7.594.043c-.928 1.059-1.366 2.541-.986 3.946.319 1.251 1.311 2.575 3.823 2.71 0 0-4.383 2.833-.294 6.513 4.09 3.681 6.323-.887 6.323-.887s5.081 3.077 7.031-3.54" />
    <path d="m546.978 404.769s-2.893 4.157-.134 7.952c2.745 3.832 6.109 1.976 6.109 1.976s.622 4.165 4.369 5.129" />
    <path d="m568.189 435.834s-5.188 3.387-3.089 7.585 7.101 3.301 8.921 2.796c0 0 .959-6.014 5.361-4.726 0 0-3.153-3.236-1.763-5.125" />
    <path d="m557.949 432.516s-4.338-2.46-6.686.56c-2.363 3.057-1.186 6.774 2.571 7.613 0 0-4.588 3.944-.127 7.527s9.351-1.003 11.478-4.803" />
    <path d="m547.861 413.885s-5.825-1.555-7.136 2.681c-1.276 4.25.497 5.995 3.791 7.665 0 0-4.859 2.885-1.889 6.771 2.957 3.923 7.661 3.755 7.661 3.755" />
    <path d="m526.69 398.171s-1.677-3.203-5.139-2.631-4.426 4.87-2.852 7.002c0 0-5.703.382-4.773 5.621.93 5.238 7.118 3.565 7.118 3.565s-.703 3.553 3.89 4.88c4.558 1.311 6.717-6.63 6.717-6.63" />
    <path d="m540.608 420.714s-7.904 2.737-10.844-6.105" />
    <path d="m517.363 411.82s-5.156.36-5.463 3.655c-.272 3.31.551 4.948 4.093 6.723 0 0-3.614 5.519 2.067 8.339 5.682 2.821 10.586-2.915 10.586-2.915s-5.926-7.509 3.069-9.264" />
    <path d="m541.973 429.865s-7.113-1.036-7.044 3.877c0 0-.489 2.318 2.502 3.514 0 0-2.962 3.613-.74 5.679s6.105 1.375 6.105 1.375 3.825-5.428 9.334-1.267" />
    <path d="m512.056 414.685c-.985-.936-2.205-1.802-3.528-2.112-1.358-.325-2.59.261-3.594 1.201-2.483 2.234-1.573 4.98.309 7.372 0 0-4.68.006-4.887 4.072-.222 4.103 4.121 3.909 4.156 3.924-.597.043-.717 2.776-.645 3.107.28 1.448 1.506 2.402 2.769 2.858 1.178.462 3.059.925 3.774-.524.382-.736.192-1.589.262-2.372.095-.945.376-1.938.732-2.813.698-1.714 2.018-2.819 3.761-1.815" />
    <path d="m526.697 429.357s1.05 7.688 8.258 5.338" />
    <path d="m509.786 435.3s.816 3.691 4.526 3.525c0 0-2.265 5.968 1.476 7.658 3.792 1.668 6.767-3.096 6.767-3.096s-3.498-8.996 5.827-10.138" />
    <path d="m542.761 444.295s-.925 3.287 1.674 3.716c0 0-5.595 4.284-1.444 8.933 4.165 4.612 6.8-1.754 6.8-1.754s1.191 5.308 6.162 3.369c4.97-1.938.8-9.08.8-9.08" />
    <path d="m522.57 443.35s1.343 1.989 3.755 2.166c0 0-3.661 5.327.98 7.959 4.627 2.669 6.282-5.36 14.253-1.044" />
    <path d="m516.955 446.769s-5.483 3.603-3.627 7.482c1.856 3.88 5.682 2.821 5.682 2.821s-1.551 4.519 3.026 5.581c4.576 1.062 7.242-5.89 6.629-8.552" />
    <path d="m531.793 453.129s-2.721 6.072 3.453 6.363c0 0 .28 5.003 4.507 4.587 4.226-.415 3.677-6.69 3.677-6.69" />
    <path d="m574.071 446.194s.618 5.191 6.268 4.229c0 0 .963 3.325 5.34 2.846 4.377-.48 3.188-7.115 3.188-7.115" />
    <path d="m560.529 448.442s-1.286 6.002 5.353 4.95c0 0-2.755 4.73 2.053 5.935 4.809 1.204 5.074-3.308 5.074-3.308s1.538 4.557 5.666 2.857c4.129-1.7 4.28-5.832 4.28-5.832" />
    <path d="m500.361 426.12s-6.773-2.175-7.321 1.916c-.529 4.143 2.883 5.22 2.883 5.22s-4.949 3.918-.283 7.503c4.682 3.549 8.219-5.643 17.994 2.273" />
    <path d="m495.64 440.759s-5.603 1.967-4.903 6.55c.664 4.568 5.596 4.455 5.596 4.455s-1.145 4.435 1.95 5.376c3.129.956 6.03-2.812 6.03-2.812s-3.162-4.739 1.461-7.855c0 0-4.381-3.677.126-6.713" />
    <path d="m513.866 455.167s-4.911 4.535-9.573-.891" />
    <path d="m522.036 462.653s-2.303 6.466-5.929 5.511c-3.627-.955-3.268-4.784-3.268-4.784s-6.672 1.337-5.263-6.797" />
    <path d="m567.285 469.156s.687-3.517-1.62-5.577c-1.307-1.16-3.257-1.353-4.744-.449-.33.202-.59.433-.723.761 0 0-6.575-.934-6.667 3.867-.078 5.578 5.191 3.211 5.191 3.211s-2.315 5.175 1.596 5.738 3.885-4.76 3.885-4.76 3.27 2.644 4.378.635c1.037-2.04-1.296-3.426-1.296-3.426z" />
    <path d="m562.329 355.495s-4.411-3.604-6.985-.639c-2.539 2.981 1.697 6.81 1.697 6.81s-4.932 4.182-1.135 7.566c3.796 3.384 5.95-1.904 5.95-1.904s1.891 3.081 5.515 2.621c3.623-.46 3.46-5.242.481-7.076 0 0 5.101-5.309 1.861-8.025-3.24-2.717-7.384.647-7.384.647z" />
    <path d="m530.306 348.536s-3.801-2.358-5.824.373.766 5.64 3.121 6.263c0 0-.388 4.204 3.462 5.425 3.849 1.222 4.376-4.035 4.376-4.035s6.124-.502 3.765-5.282c-2.358-4.78-8.9-2.744-8.9-2.744z" />
    <path d="m539.391 372.476s-4.875-.634-5.734 3.71c-.858 4.344 3.207 3.816 3.207 3.816s-1.157 3.145 1.24 4.172c2.396 1.028 4.015-2.134 4.015-2.134s3.24 2.717 5.842.192c2.552-2.504-.809-5.23-.809-5.23s2.912-3.592.54-5.594c-4.528-3.825-8.301 1.068-8.301 1.068z" />
    <path d="m519.954 378.322s-4.267-1.315-5.572 2.194c-1.306 3.51 1.722 5.022 5.252 5.807 0 0 1.041 3.745 4.177 3.975 3.135.23 2.147-3.748 2.147-3.748s3.338.445 3.138-2.724c-.199-3.17-4.058-2.639-4.058-2.639s3.207-3.809.814-5.048c-2.343-1.262-5.898 2.183-5.898 2.183z" />
    <path d="m509.513 363.909s-3.793-3.596-5.792-1.026.242 4.387.242 4.387-3.841 2.722-.295 6.213c3.546 3.49 6.123-1.616 6.123-1.616s2.939 2.845 4.409.862-.646-4.003-.646-4.003 3.216-2.306 2.105-4.152c-1.105-1.759-6.146-.665-6.146-.665z" />
    <path d="m503.585 395.335s-3.515-2.449-5.601 1.454c-2.101 3.939 2.523 5.493 4.197 5.654 0 0-.835 4.182 2.149 4.176 2.968.03 2.763-4.041 2.763-4.041s5.102-.94 3.406-5.008-6.914-2.235-6.914-2.235z" />
    <path d="m491.522 409.91c-1.937-1.344-4.23-1.813-6.605-.861-3.863 1.557-5.35 5.716-2.866 7.038 2.483 1.322 3.695-.129 3.695-.129s-1.689 3.131.749 4.261c2.437 1.131 3.566-1.641 3.566-1.641s1.936 3.786 4.601.902c2.28-2.449.482-5.962-1.393-7.965-.521-.651-1.137-1.172-1.747-1.605z" />
    <path d="m468.594 431.136s-5.196-2.998-6.7.897c-1.504 3.896 2.603 4.586 2.603 4.586s-1.383 3.904 1.082 4.661c2.431.742 9.282-5.916 3.015-10.144z" />
    <path d="m478.562 449.758s-4.051-2.251-6.336 1.224c-2.285 3.476 2.253 3.921 2.253 3.921s-1.715 2.992.533 4.384 4.078-1.679 4.078-1.679 3.537 3.615 5.416.223c1.878-3.393-2.287-4.45-2.287-4.45s1.866-3.869-.158-4.693c-2.003-.774-3.499 1.07-3.499 1.07z" />
    <path d="m496.801 462.201s-4.421-1.852-6.065 1.17c-1.645 3.021 2.742 4.345 2.742 4.345s-2.417 4.918.997 6.295c3.413 1.378 4.766-2.454 4.766-2.454s2.337 3.615 3.894 1.112c1.557-2.502-.913-4.16-.913-4.16s4.203-3.51 1.343-5.635c-2.81-2.147-6.764-.673-6.764-.673z" />
    <path d="m465.725 482.291s1.231-3.328-1.459-3.838c-2.69-.511-2.333 2.983-2.333 2.983s-3.842-1.646-4.18 1.421c-.339 3.067 4.359 3.325 4.359 3.325s1.377 2.817 3.537 1.987c2.125-.845 2.111-4.878.076-5.878z" />
    <path d="m518.847 520.995s3.423.439 3.261-2.414c-.127-2.839-3.36-1.612-3.36-1.612s.659-4.258-2.282-3.848c-2.956.447-2.145 5.163-2.145 5.163s-2.338 2.082-1.051 4.004c1.287 1.923 5.083.937 5.577-1.293z" />
    <path d="m486.694 508.969s-1.878-3.418-5.893-2.098c-4.016 1.32-.206 5.994-.206 5.994s-2.751 3.704.13 5.881c2.88 2.177 4.813-1.449 4.813-1.449s4.325 1.983 5.547-2.034c1.187-4.031-4.391-6.294-4.391-6.294z" />
    <path d="m449.698 516.455s-.023-3.094-2.778-2.733-1.471 3.61-1.471 3.61-5.629 2.641-3.497 5.74c2.133 3.098 5.481.165 5.481.165s6.233.958 5.409-2.608c-.825-3.566-3.144-4.174-3.144-4.174z" />
    <path d="m653.487 542.515s-.023-3.094-2.778-2.733-1.471 3.61-1.471 3.61-5.629 2.641-3.497 5.74c2.133 3.099 5.481.165 5.481.165s6.233.958 5.408-2.608c-.824-3.566-3.143-4.174-3.143-4.174z" />
    <path d="m656.654 488.189s5.577 3.077 3.933 6.912c-1.645 3.835-5.264 1.641-5.264 1.641s4.27 8.727-1.599 10.023c-5.868 1.297-6.714-5.876-5.392-8.308 0 0-7.61-1.848-5.262-6.496 2.384-4.632 4.352-2.246 4.352-2.246s-3.005-3.601-.635-6.269c0 0 1.834 1.9 3.015-.592.085-.007 1.395 6.637 6.852 5.335z" />
    <path d="m656.654 488.189s3.069-1.639 2.801-4.539c-.269-2.899-3.965-5.511-3.965-5.511s4.178-1.721 2.124-5.215c0 0-1.611-4.074-6.923-4.552-5.311-.478-2.797 5.14-2.797 5.14s-6.757 4.9-1.022 9.928" />
    <path d="m642.784 494.494s-2.654 2.247-6.481.563c-3.827-1.683-1.1-6.039-1.1-6.039s-4.841 3.45-7.203-1.932c-2.362-5.381.355-7.986.355-7.986s4.885-1.932 4.547-6.489c0 0 3.708 2.789 4.911.649 0 0-.227 7.57 7.049 7.391" />
    <path d="m654.982 506.319s5.594 4.968 3.351 10.475c-2.228 5.47-9.156 3.271-9.834-1.774 0 0-4.674 3.65-7.803-1.375-3.128-5.024 2.793-6.855 2.793-6.855s-2.51-7.458 4.337-6.279" />
    <path d="m634.46 493.282s-8.085 5.315-.898 11.351c0 0-3.177 10.546 6.728 8.281" />
    <path d="m648.563 468.616s-.805-5.442-4.484-5.863c-3.729-.399-4.797 3.341-4.797 3.341s-9.263-4.699-6.365 6.481" />
    <path d="m627.404 480.62s-5.714-.607-3.628-6.438c0 0-6.114 2.305-7.576-3.762-1.477-6.03 5.994-4.755 5.994-4.755s-.97-6.969 3.972-6.093c4.942.877 6.655 6.836 6.655 6.836" />
    <path d="m633.199 509.489s-7.277.179-5.203 6.979c0 0-4.611 4.106-1.096 7.369 3.514 3.262 10.863 2.6 10.863 2.6s-.632-2.412 1.864-4.169c0 0-6.431-3.828-3.253-9.191" />
    <path d="m631.639 496.142s-8.44-4.689-8.476 3.734c0 0-4.891 1.844-1.728 7.697 2.077 3.846 6.915 4.164 6.915 4.164" />
    <path d="m652.273 519.679s3.576 4.231.656 8.248c-2.884 4.032-5.874 1.208-5.874 1.208s-1.543 5.721-6.273 3.308c-3.33-1.685-3.019-6.006-3.019-6.006" />
    <path d="m624.99 495.391s-5.58-.936-6.541-6.402c-.947-5.503 5.732-10.008 5.732-10.008" />
    <path d="m643.03 533.021s1.485 3.977-.473 5.837c-1.958 1.859-4.731-.786-4.731-.786s.477 6.758-5.046 5.376c-5.508-1.419-4.441-6.273-2.082-9.117 0 0-3.092-2.268-.02-8.489" />
    <path d="m626.899 523.836s-2.435 4.353-5.538 2.723c-3.104-1.63-2.732-4.982-2.732-4.982s-6.597 1.969-6.892-6.253c0 0 .297-5.098 4.849-4.689 1.312.134 2.657-.018 3.874-.567.852-.363 1.507-.853 1.374-1.339" />
    <path d="m615.492 510.68s-6.157-1.654-3.956-9.192c0 0 3.831-1.784 2.21-4.106 0 0 6.642 1.176 5.85-5.417" />
    <path d="m619.578 483.776s-4.515-.907-4.087-5.821c0 0-4.202 4.624-7.884 1.975s-2.549-6.447-.085-7.618c0 0-1.549-4.733.872-6.308 2.422-1.575 6.513-1.149 7.816 1.851" />
    <path d="m611.536 501.488s-4.546 1.607-6.509-5.06c-1.332-4.555.731-6.368 2.214-7.061 1.347-.665 2.481-1.72 3.06-3.143.609-1.495.814-3.42-.479-5.431" />
    <path d="m628.873 539.117s-2.888 2.617-5.917-.009c-3.049-2.678-5.15-6.362-2.543-13.169" />
    <path d="m611.687 515.346s-4.889 3.772-8.302-.047c-3.412-3.818-.411-6.815-.411-6.815s-7.181 2.79-6.979-2.178 5.361-3.099 5.361-3.099-4.008-6.729 3.651-6.83" />
    <path d="m619.242 531.862s-4.582-1.15-4.744 2.807c0 0-4.465-1.743-4.918 3.332 0 0-.509 1.452 2.001 3.727 0 0-3.568 5.71-.225 7.87 3.448 2.207 6.395.257 7.529-3.24 0 0 7.141 1.476 6.303-6.122" />
    <path d="m611.356 549.598s.828 5.795-4.649 6.231c-1.401.085-2.77-.416-3.616-1.592-.769-1.058-1.16-2.639.249-4.777 0 0-4.821 1.875-5.155-3.708-.319-5.62 4.543-4.649 4.543-4.649s.733-6.068 6.99-3.643" />
    <path d="m611.58 534.617s-4.948-.151-6.195-4.712c-1.248-4.56 2.198-6.21 2.198-6.21s-2.815-3.049-1.28-6.717" />
    <path d="m600.684 498.25s-5.743 2.207-7.692-2.055c-1.948-4.262 1.802-7.88 3.272-9.049 0 0 5.205 2.874 6.867-1.511 0 0 .544 4.559 2.859 4.567" />
    <path d="m596.988 508.745s-.743 5.078-4.509 5.177c-3.767.099-5.89-3.124-4.249-6.747 0 0-5.813 1.364-5.837-4.472s6.447-7.088 10.649-6.529" />
    <path d="m605.099 528.37s-2.382 5.746-6.404 4.236c-4.021-1.509-4.282-4.02-3.541-7.771 0 0-5.139 2.251-6.333-2.543-1.193-4.795 1.808-8.606 1.808-8.606" />
    <path d="m604.308 555.315s1.426 3.31-1.091 5.829c-2.551 2.504-6.404.681-7.082-1.922 0 0-3.766 4.468-7.205.509-3.438-3.958 1.606-8.006 1.606-8.006s-3.154-1.609-1.382-6.161c1.771-4.552 9.182-1.504 9.182-1.504" />
    <path d="m595.472 530.154s-6.898 4.839-1.915 12.628" />
    <path d="m588.153 554.73s-3.417 4.018-6.099 2.268c-2.682-1.749-3.441-3.445-2.63-7.466 0 0-6.421-.397-5.143-6.788s8.668-6.95 8.668-6.95 2.155 9.448 8.958 3.112" />
    <path d="m589.29 523.478s-3.517 6.502-7.242 3.449c0 0-2.05-.964-1.19-4.194 0 0-4.564.228-4.807-2.832-.209-3.045 2.632-5.853 2.632-5.853s6.475.163 6.664-6.909" />
    <path d="m582.709 557.322c.103 1.372.012 2.918-.558 4.215-.585 1.334-1.782 1.935-3.101 2.226-3.215.678-4.792-1.754-5.442-4.731 0 0-2.845 3.835-6.093 1.543s-.466-5.768-.466-5.768c-.399.471-2.537-1.088-2.795-1.37-.961-1.097-.89-2.694-.511-4.031.384-1.248 1.142-3.108 2.67-2.796.815.135 1.321.823 1.982 1.235.801.472 1.717.865 2.608 1.118 1.745.491 3.365.072 3.664-1.984" />
    <path d="m580.396 536.37s-5.236-5.542.945-10.046" />
    <path d="m565.56 546.673s-2.327-2.925.061-5.842c0 0-5.956-1.739-4.931-5.883s6.472-3.693 6.472-3.693 4.745 8.373 11.283 1.367" />
    <path d="m578.718 514.063s-3.061-1.226-1.824-3.652c0 0-6.698 2.012-7.709-4.247-1.011-6.258 5.493-4.541 5.493-4.541s-3.335-4.214 1.163-7.126c4.533-2.897 7.422 4.852 7.422 4.852" />
    <path d="m567.162 531.254s-.712-2.318.647-4.434c0 0-6.289-.211-5.532-5.627.756-5.415 7.939-1.908 9.452-11.111" />
    <path d="m561.115 533.802s-6.078 2.32-7.934-1.559c-1.856-3.88 1.278-6.391 1.278-6.391s-4.413-1.464-2.445-5.888c1.968-4.425 8.921-2.387 10.58-.262" />
    <path d="m565.279 517.683s-6.316-1.465-2.771-6.713c0 0-3.635-3.272-.751-6.49 2.884-3.219 7.368 1.017 7.368 1.017" />
    <path d="m596.314 487.125s-3.607-3.645.577-7.719c0 0-1.995-2.826 1.089-6.13 3.035-3.282 7.414 1.722 7.414 1.722" />
    <path d="m586.367 496.91s-5.409-2.575-.536-7.425c0 0-5.287-.639-3.301-5.313 1.987-4.674 5.608-2.179 5.608-2.179s-2.57-4.058 1.278-6.391c3.813-2.349 7.067.03 7.067.03" />
    <path d="m566.879 560.002s-2.446 6.919-5.938 4.822c-3.493-2.097-2.253-5.548-2.253-5.548s-6.032 1.697-5.896-4.327c.135-6.024 9.307-3.335 9.201-16.187" />
    <path d="m552.777 554.985s-4.912 3.42-7.985.09c-3.108-3.346-.013-7.287-.013-7.287s-4.088-1.752-2.931-4.897c1.156-3.145 5.832-3.24 5.832-3.24s1.699 5.483 6.911 3.562c0 0 .145 5.845 5.207 3.988" />
    <path d="m552.823 531.19s-6.451 1.304-5.129 8.424" />
    <path d="m552.064 519.942s-6.335-2.03-7.826 1.529c-1.455 3.574 1.655 5.592 1.655 5.592s-5.09 4.672 2.009 8.485" />
    <path d="m653.727 588.578s-.433 4.012-3.366 3.996c-2.934-.015-3.382-3.591-2.565-5.596 0 0-3.04-1.989-1.814-5.404 1.225-3.415 5.046-1.006 5.046-1.006s3.612-4.192 5.581.121c1.984 4.277-2.882 7.889-2.882 7.889z" />
    <path d="m619.69 567.862s-1.493 4.072-4.779 3.092c-3.285-.98-2.666-4.227-1.168-7.397 0 0-2.107-2.959-.469-5.555 1.637-2.596 3.955.453 3.955.453s1.605-2.824 3.787-.861c2.181 1.963-.445 4.65-.445 4.65s4.593-.302 4.136 2.244c-.472 2.582-5.017 3.374-5.017 3.374z" />
    <path d="m619.277 589.916s.356 4.307-2.23 4.355-2.6-2.357-2.6-2.357-3.594 1.201-4.005-2.873c-.411-4.073 4.029-3.284 4.029-3.284s-.331-3.354 1.622-3.374c1.989-.004 2.159 2.425 2.159 2.425s3.023-1.018 3.605.603c.602 1.671-2.58 4.505-2.58 4.505z" />
    <path d="m592.376 576.072s-.255 4.388-4.533 3.711c-4.278-.678-2.674-5.43-1.788-6.892 0 0-3.718-1.851-1.899-4.283 1.784-2.448 4.777.163 4.777.163s3.801-3.64 5.933.273c2.077 3.845-2.49 7.028-2.49 7.028z" />
    <path d="m535.5 563.557s-.751 4.689-4.795 4.455c-4.045-.235-1.622-4.251-1.622-4.251s-3.353-.409-3.042-3.102c.311-2.694 3.778-2.364 3.778-2.364s-.612-5.103 3.122-4.616c3.72.524 2.021 4.593 2.021 4.593s4.098.814 3.513 2.962-2.975 2.323-2.975 2.323z" />
    <path d="m537.065 541.012s-1.277 4.764-4.585 4.245c-3.323-.482-1.646-4.903-1.646-4.903s-5.26-1.012-4.201-4.628c1.059-3.615 4.802-2.439 4.802-2.439s-1.34-4.129 1.539-3.88c2.844.234 2.641 3.273 2.641 3.273s5.251-1.304 5.137 2.331c-.15 3.619-3.687 6.001-3.687 6.001z" />
    <path d="m671.522 530.457s3.27 1.016 2.039 3.53c-1.23 2.513-3.68.092-3.68.092s-1.076 4.165-3.611 2.564c-2.536-1.6.092-5.614.092-5.614s-1.313-2.875.634-4.097c1.896-1.2 4.985 1.28 4.526 3.525z" />
    <path d="m512.127 548.269s2.331 1.899.42 3.949c-1.912 2.051-3.662-.97-3.662-.97s-5.452 3.018-6.538-.618c-1.086-3.635 3.207-4.621 3.207-4.621s3.071-5.709 5.307-2.866c2.237 2.844 1.266 5.126 1.266 5.126z" />
    <path d="m549.293 485.174s2.949-3.277.212-5.093c-2.738-1.816-6.037-.017-6.037-.017s-4.735-7.384-7.869-4.059c-3.135 3.326.625 8.021.625 8.021s-4.091 3.943-.08 6.905c4.01 2.961 6.564-1.684 6.564-1.684s6.44 3.703 6.478-3.605" />
    <path d="m522.051 484.976c-.2-.729-.486-1.451-.851-2.078-1.242-2.032-3.503-3.087-5.642-3.833-6.497-2.142-5.208 5.264-5.208 5.264s-4.862-2.598-5.09 3.044 6.54 7.729 11.204 7.458c0 0 3.728-4.784 7.22-3.801-.227-.055-.59-2.009-.692-2.267-.398-1.156-.587-2.522-.941-3.787z" />
    <path d="m534.344 479.494c-1.903-1.63-4.147-3.234-6.611-3.691-3.087-.552-4.882 1.72-6.409 4.149-.359.575-.891 1.374-.762 2.072" />
    <path d="m536.164 490.982s-3.791 1.074-4.069 6.737c-.263 5.627 5.16 3.797 5.16 3.797s-.909 7.619 3.716 7.546c4.64-.11 4.091-7.198 4.091-7.198s4.693 3.724 6.269-1.468c1.577-5.192-4.499-10.195-4.499-10.195" />
    <path d="m523.654 491.103s4.062 2.426 6.078-1.507c0 0 .417 4.162 2.824 5.365" />
    <path d="m516.434 494.904s-2.918 5.945.619 9.56 6.571-.482 6.571-.482.909 6.001 4.954 5.422c4.024-.631 6.871-4.165 5.177-7.933" />
    <path d="m506.524 491.384s-8.198 1.326-7.272 5.963c.926 4.638 4.521 5.365 4.521 5.365s-1.144 6.877 4.775 7.487c5.935.573 7.796-6.639 7.796-6.639" />
    <path d="m647.531 195.119c-1.933 4.184-6.023 7.064-10.819 7.064s-8.923-2.88-10.819-7.064c3.272.345 6.952.499 10.819.499s7.547-.192 10.819-.499z" fill="#fefffa" />
    <path d="m648.646 189.859c0 1.881-.409 3.647-1.152 5.26-3.272.345-6.953.499-10.819.499-3.867 0-7.547-.192-10.819-.499-.744-1.613-1.153-3.379-1.153-5.26 0-1.305.186-2.572.558-3.724 1.524-4.991 6.06-8.599 11.414-8.599 5.353 0 9.852 3.608 11.376 8.599.409 1.152.595 2.419.595 3.724z" fill="#fefffa" />
    <path d="m624.741 189.859c0 1.881.408 3.647 1.152 5.26-8.179-.807-13.793-2.534-13.793-4.53 0-1.958 5.354-3.609 13.198-4.454-.334 1.152-.557 2.419-.557 3.724z" />
    <path d="m661.324 190.589c0 1.996-5.614 3.723-13.793 4.53.743-1.613 1.152-3.379 1.152-5.26 0-1.305-.186-2.572-.557-3.724 7.844.806 13.198 2.496 13.198 4.454z" />
    <path d="m594.106 147.206-6.358.308-3.309 5.566-2.267-6.142-6.172-1.536 4.945-4.108-.447-6.565 5.317 3.609 5.874-2.495-1.673 6.334z" fill="#ffdc38" />
    <path d="m591.355 245.833c3.511 0 6.357-2.939 6.357-6.564 0-3.626-2.846-6.565-6.357-6.565-3.512 0-6.358 2.939-6.358 6.565 0 3.625 2.846 6.564 6.358 6.564z" fill="#ffdc38" />
    <path d="m671.622 231.053c2.074 0 3.755-1.736 3.755-3.878 0-2.141-1.681-3.877-3.755-3.877s-3.755 1.736-3.755 3.877c0 2.142 1.681 3.878 3.755 3.878z" fill="#fefffa" />
    <path d="m694.747 150.585c4.435 0 8.031-3.713 8.031-8.293 0-4.579-3.596-8.292-8.031-8.292s-8.03 3.713-8.03 8.292c0 4.58 3.595 8.293 8.03 8.293z" fill="#fefffa" />
    <path d="m717.612 228.327-5.466-3.378-5.762 2.725 1.413-6.411-4.276-4.837 6.32-.576 3.123-5.682 2.491 6.027 6.209 1.306-4.796 4.299z" fill="#fefffa" />
    <path d="m753.972 175.309c1.807 0 3.272-1.513 3.272-3.379 0-1.865-1.465-3.378-3.272-3.378s-3.272 1.513-3.272 3.378c0 1.866 1.465 3.379 3.272 3.379z" fill="#ffdc38" />
  </g>
</svg>