<svg width="225" height="260" viewBox="0 0 225 260" fill="none" xmlns="http://www.w3.org/2000/svg">
<path d="M223.735 36.0129H1.14551V258.173H223.735V36.0129Z" fill="#FA6456"/>
<path d="M223.735 36.0129H1.14551V258.173H223.735V36.0129Z" stroke="#2E1E00" stroke-width="2" stroke-miterlimit="10" stroke-linecap="round" stroke-linejoin="round"/>
<path d="M223.734 258.176H1.15576C1.43421 240.488 6.80344 191.216 55.6229 163.074C57.8686 161.773 60.2112 160.519 62.6446 159.321C70.1446 155.623 78.5525 152.396 87.9774 149.793C89.8358 149.273 91.7305 148.788 93.6675 148.328H138.183C138.183 148.328 145.568 151.331 155.998 157.354C158.564 158.837 161.319 160.501 164.194 162.354C188.541 178.026 221.512 206.875 223.734 249.085C223.891 252.044 223.898 255.071 223.734 258.176Z" fill="#FDEAA7"/>
<path d="M223.734 258.176H1.15576C1.43421 240.488 6.80344 191.216 55.6229 163.074C57.8686 161.773 60.2112 160.519 62.6446 159.321C70.1446 155.623 78.5525 152.396 87.9774 149.793C89.8358 149.273 91.7305 148.788 93.6675 148.328H138.183C138.183 148.328 145.568 151.331 155.998 157.354C158.564 158.837 161.319 160.501 164.194 162.354C188.541 178.026 221.512 206.875 223.734 249.085C223.891 252.044 223.898 255.071 223.734 258.176Z" stroke="#2E1E00" stroke-width="2" stroke-miterlimit="10" stroke-linecap="round" stroke-linejoin="round"/>
<path d="M164.194 162.353L109.001 209.163L55.623 163.074C57.8688 161.772 60.2114 160.519 62.6448 159.321C70.1448 155.622 78.5527 152.396 87.9776 149.793C89.836 149.273 91.7307 148.788 93.6677 148.328H138.183C138.183 148.328 145.568 151.33 155.998 157.353C158.565 158.836 161.319 160.501 164.194 162.353Z" fill="#FFDC38"/>
<path d="M164.194 162.353L109.001 209.163L55.623 163.074C57.8688 161.772 60.2114 160.519 62.6448 159.321C70.1448 155.622 78.5527 152.396 87.9776 149.793C89.836 149.273 91.7307 148.788 93.6677 148.328H138.183C138.183 148.328 145.568 151.33 155.998 157.353C158.565 158.836 161.319 160.501 164.194 162.353Z" stroke="#2E1E00" stroke-width="2" stroke-miterlimit="10" stroke-linecap="round" stroke-linejoin="round"/>
<path d="M134.813 111.073L138.205 148.057C138.92 155.843 132.791 162.562 124.971 162.562H93.5444C86.2043 162.562 80.2539 156.612 80.2539 149.271V111.206L134.813 111.073Z" fill="#F5E9DC"/>
<path d="M134.813 111.073L138.205 148.057C138.92 155.843 132.791 162.562 124.971 162.562H93.5444C86.2043 162.562 80.2539 156.612 80.2539 149.271V111.206L134.813 111.073Z" stroke="#2E1E00" stroke-width="2" stroke-miterlimit="10" stroke-linecap="round" stroke-linejoin="round"/>
<path d="M121.49 4.49907C121.49 4.49907 106.713 -3.66373 87.6942 5.59774C75.9473 11.3181 67.1767 21.7181 63.0061 34.1007C60.1513 42.577 57.1616 54.7973 56.1308 70.5975C53.9601 103.864 52.4044 136.181 41.419 160.541C32.39 180.563 23.8579 258.173 23.8579 258.173H83.3837V86.0484H147.162C147.162 86.0484 163.934 65.0097 151.276 41.1563C150.912 40.4705 150.634 39.7459 150.478 38.985C149.413 33.801 143.604 11.4639 121.49 4.49907Z" fill="#2E1E00"/>
<path d="M121.49 4.49907C121.49 4.49907 106.713 -3.66373 87.6942 5.59774C75.9473 11.3181 67.1767 21.7181 63.0061 34.1006C60.1513 42.577 57.1616 54.7973 56.1308 70.5975C53.9601 103.864 52.4044 136.181 41.419 160.541C32.39 180.563 23.8579 258.173 23.8579 258.173H83.3837V86.0484H147.162C147.162 86.0484 163.934 65.0097 151.276 41.1563C150.912 40.4705 150.634 39.7459 150.478 38.985C149.413 33.801 143.604 11.4639 121.49 4.49907Z" stroke="#2E1E00" stroke-width="2" stroke-miterlimit="10" stroke-linecap="round" stroke-linejoin="round"/>
<path d="M122.277 12.4004C119.879 17.9488 110.513 36.8252 87.0485 56.1908C84.5751 58.2319 83.1411 61.2743 83.1411 64.4813V115.51C83.1411 115.51 97.8547 132.805 114.496 130.152C119.905 129.29 124.981 126.084 129.372 122.149C139.689 112.901 145.864 99.9279 147.163 86.1331C149.097 65.5624 148.206 30.8337 124.386 11.881C123.68 11.3199 122.634 11.5729 122.277 12.4004Z" fill="#F5E9DC"/>
<path d="M122.277 12.4004C119.879 17.9488 110.513 36.8252 87.0485 56.1908C84.5751 58.2319 83.1411 61.2743 83.1411 64.4813V115.51C83.1411 115.51 97.8547 132.805 114.496 130.152C119.905 129.29 124.981 126.084 129.372 122.149C139.689 112.901 145.864 99.9279 147.163 86.1331C149.097 65.5624 148.206 30.8337 124.386 11.881C123.68 11.3199 122.634 11.5729 122.277 12.4004Z" stroke="#2E1E00" stroke-width="2" stroke-miterlimit="10" stroke-linecap="round" stroke-linejoin="round"/>
<path d="M110.956 69.4207L111.527 90.67L113.697 92.0404" stroke="#2E1E00" stroke-width="2" stroke-miterlimit="10" stroke-linecap="round" stroke-linejoin="round"/>
<path d="M129.063 63.6325C133.057 65.3093 137.004 64.9782 137.88 62.8922C138.755 60.8069 136.228 57.7567 132.235 56.0799C128.24 54.4026 124.293 54.7343 123.417 56.8196C122.542 58.9056 125.069 61.9558 129.063 63.6325Z" fill="#2E1E00"/>
<path d="M90.1405 63.7512C86.0213 65.0896 82.1151 64.4304 81.416 62.2791C80.7168 60.1277 83.4898 57.2984 87.6096 55.9607C91.7289 54.6223 95.635 55.2815 96.3342 57.4328C97.0327 59.5848 94.2597 62.4128 90.1405 63.7512Z" fill="#2E1E00"/>
<path d="M92.8563 69.4206C92.8563 70.5199 91.9647 71.4115 90.8654 71.4115C89.7661 71.4115 88.8745 70.5199 88.8745 69.4206C88.8745 68.3213 89.7661 67.4297 90.8654 67.4297C91.9647 67.4297 92.8563 68.3213 92.8563 69.4206Z" fill="#2E1E00"/>
<path d="M130.649 69.4206C130.649 70.5199 129.757 71.4115 128.658 71.4115C127.559 71.4115 126.667 70.5199 126.667 69.4206C126.667 68.3213 127.559 67.4297 128.658 67.4297C129.757 67.4303 130.649 68.3213 130.649 69.4206Z" fill="#2E1E00"/>
<path d="M93.8408 99.6833H128.658C128.658 99.6833 123.861 108.904 111.249 108.704C98.638 108.504 93.8408 99.6833 93.8408 99.6833Z" fill="#FEFFFA"/>
<path d="M93.8408 99.6833H128.658C128.658 99.6833 123.861 108.904 111.249 108.704C98.638 108.504 93.8408 99.6833 93.8408 99.6833Z" stroke="#2E1E00" stroke-width="2" stroke-miterlimit="10" stroke-linecap="round" stroke-linejoin="round"/>
<path d="M109 209.163V258.176" stroke="#2E1E00" stroke-width="2" stroke-miterlimit="10" stroke-linecap="round" stroke-linejoin="round"/>
<path d="M114.52 207.739C114.52 210.785 112.05 213.255 109.004 213.255C105.958 213.255 103.488 210.785 103.488 207.739C103.488 204.693 105.958 202.223 109.004 202.223C112.049 202.223 114.52 204.693 114.52 207.739Z" fill="#FFDC38"/>
<path d="M109.004 213.255C112.05 213.255 114.519 210.785 114.519 207.739C114.519 204.693 112.05 202.223 109.004 202.223C105.957 202.223 103.488 204.693 103.488 207.739C103.488 210.785 105.957 213.255 109.004 213.255Z" stroke="#2E1E00" stroke-width="2" stroke-miterlimit="10" stroke-linecap="round" stroke-linejoin="round"/>
<path d="M114.517 239.185C114.517 242.231 112.047 244.701 109.001 244.701C105.955 244.701 103.485 242.231 103.485 239.185C103.485 236.14 105.955 233.67 109.001 233.67C112.047 233.669 114.517 236.14 114.517 239.185Z" fill="#FFDC38"/>
<path d="M109.001 244.701C112.047 244.701 114.517 242.231 114.517 239.185C114.517 236.139 112.047 233.669 109.001 233.669C105.955 233.669 103.485 236.139 103.485 239.185C103.485 242.231 105.955 244.701 109.001 244.701Z" stroke="#2E1E00" stroke-width="2" stroke-miterlimit="10" stroke-linecap="round" stroke-linejoin="round"/>
</svg>
