<svg width="229" height="258" viewBox="0 0 229 258" fill="none" xmlns="http://www.w3.org/2000/svg">
<path d="M228.089 29.6971H0.789062V256.558H228.089V29.6971Z" fill="#73B7EA"/>
<path d="M228.089 257.176H0.789031C0.447822 257.176 0.170898 256.899 0.170898 256.558V29.6965C0.170898 29.3553 0.447822 29.0784 0.789031 29.0784H228.089C228.43 29.0784 228.707 29.3553 228.707 29.6965V256.558C228.707 256.899 228.43 257.176 228.089 257.176ZM1.40716 255.94H227.471V30.3153H1.40716V255.94Z" fill="#2E1E00"/>
<path d="M228.089 256.558H0.80127C1.14124 235.102 8.80608 168.146 89.46 145.881C91.3577 145.355 93.2924 144.855 95.2704 144.385H140.728C140.728 144.385 224.466 178.432 228.089 247.273C228.249 250.302 228.255 253.393 228.089 256.558Z" fill="#FFDC38"/>
<path d="M228.089 257.176H0.801307C0.635648 257.176 0.476789 257.11 0.36058 256.992C0.244372 256.874 0.180702 256.714 0.183175 256.547C0.359961 245.402 2.4511 223.392 14.4694 201.228C29.4017 173.691 54.577 154.87 89.2956 145.285C91.2477 144.744 93.2102 144.24 95.1277 143.783C95.1747 143.772 95.2223 143.767 95.2705 143.767H140.728C140.808 143.767 140.887 143.782 140.961 143.812C141.171 143.898 162.224 152.555 183.436 169.531C195.906 179.51 205.997 190.373 213.429 201.817C222.734 216.146 227.874 231.428 228.706 247.24C228.87 250.331 228.87 253.477 228.706 256.589C228.689 256.919 228.417 257.176 228.089 257.176ZM1.43118 255.94H227.5C227.632 253.062 227.623 250.16 227.472 247.306C226.651 231.718 221.581 216.646 212.402 202.506C205.046 191.175 195.049 180.411 182.689 170.516C162.406 154.277 142.274 145.7 140.605 145.003H95.3428C93.4624 145.451 91.5394 145.946 89.6251 146.477C55.2427 155.968 30.3221 174.588 15.5567 201.817C3.88517 223.341 1.67473 244.722 1.43118 255.94Z" fill="#2E1E00"/>
<path d="M118.339 160.503C93.2426 162.172 89.8923 145.884 89.8923 145.884V105.285L133.953 91.9029L134.478 95.9764L140.728 144.388C140.728 144.388 143.435 158.827 118.339 160.503Z" fill="#FEFFFA"/>
<path d="M114.938 161.236C108.149 161.236 99.9981 159.827 94.2736 154.263C90.2094 150.312 89.323 146.182 89.2871 146.009C89.2785 145.968 89.2742 145.925 89.2742 145.884V105.285C89.2742 105.013 89.4522 104.772 89.7124 104.693L133.774 91.3108C133.947 91.2582 134.136 91.2848 134.288 91.383C134.441 91.4819 134.542 91.6427 134.566 91.8232L141.341 144.309C141.369 144.456 142.134 148.788 138.802 153.086C135.184 157.754 128.314 160.457 118.38 161.119C117.289 161.192 116.134 161.236 114.938 161.236ZM118.339 160.502H118.345H118.339ZM90.5104 145.817C90.7843 147.023 94.5821 161.46 118.298 159.886C127.844 159.249 134.407 156.715 137.806 152.355C140.806 148.505 140.127 144.54 140.12 144.5L133.434 92.7065L90.5104 105.743V145.817Z" fill="#2E1E00"/>
<path d="M134.478 95.9764L89.8923 140.265V105.285L133.953 91.9023L134.478 95.9764Z" fill="#2E1E00"/>
<path d="M63.6821 69.5927C61.6645 56.3894 62.389 41.6748 67.6993 29.3158C74.9296 12.4884 94.4849 0.241337 112.696 0.814345C146.574 1.88124 169.066 43.5909 157.379 73.948L58.9045 67.5343" fill="#2E1E00"/>
<path d="M157.38 74.5661C157.366 74.5661 157.353 74.5655 157.34 74.5649L64.1452 68.4949C64.1928 68.8293 64.2422 69.1643 64.2935 69.4993C64.3449 69.8368 64.1131 70.1526 63.7756 70.2039C63.4424 70.2596 63.1228 70.0241 63.0715 69.6866C63.0066 69.2613 62.9442 68.8373 62.8854 68.4126L58.8645 68.1512C58.5233 68.1289 58.2655 67.8347 58.2872 67.4941C58.31 67.1535 58.608 66.8995 58.9442 66.9174L62.721 67.1634C60.981 53.2325 62.5251 39.7918 67.132 29.0716C74.4575 12.0229 94.064 -0.384275 112.715 0.195534C127.566 0.664078 141.454 9.02367 150.817 23.1319C161.274 38.8881 164.01 58.4446 157.957 74.1693C157.864 74.4097 157.635 74.5661 157.38 74.5661ZM63.9771 67.2449L156.964 73.3015C162.664 58.0169 159.932 39.102 149.787 23.8162C140.648 10.0455 127.122 1.88614 112.677 1.43119C94.4819 0.86004 75.4039 12.9519 68.2675 29.5593C63.7212 40.1411 62.2172 53.4464 63.9771 67.2449Z" fill="#2E1E00"/>
<path d="M169.73 77.4015C169.73 84.7944 163.734 90.7835 156.341 90.7835C154.376 90.7835 152.509 90.3631 150.828 89.5966C148.287 103.047 134.651 120.992 123.376 125.479C100.771 134.467 80.1133 109.804 74.4265 89.1213C72.5041 90.1783 70.2974 90.7835 67.9485 90.7835C60.5556 90.7835 54.5659 84.7944 54.5659 77.4015C54.5659 70.008 60.5556 64.0127 67.9485 64.0127C69.7967 64.0127 71.5646 64.3892 73.1655 65.0698C74 62.3556 75.2919 59.7779 77.0041 57.4544L83.6058 48.4914C85.5467 45.852 86.9684 42.8603 87.7782 39.6892C90.6648 28.4022 100.827 20.5148 112.473 20.5148H119.482C130.986 20.5148 141.067 28.2229 144.084 39.3246L151.081 65.0945C152.694 64.396 154.475 64.0127 156.341 64.0127C163.734 64.0127 169.73 70.008 169.73 77.4015Z" fill="#FEFFFA"/>
<path d="M113.662 128.014C109.405 128.014 105.125 126.95 100.857 124.826C87.3103 118.08 77.7045 102.623 74.0384 90.0163C72.1438 90.9249 70.0545 91.4022 67.9492 91.4022C60.2287 91.4022 53.9485 85.1213 53.9485 77.4015C53.9485 69.6779 60.2287 63.3946 67.9492 63.3946C69.615 63.3946 71.2364 63.6833 72.7799 64.2526C73.6416 61.6861 74.8933 59.279 76.5072 57.0878L83.1083 48.1249C85.0177 45.5299 86.3875 42.6396 87.1799 39.5366C90.1371 27.9732 100.538 19.8966 112.473 19.8966H119.483C131.237 19.8966 141.598 27.8193 144.681 39.1626L151.496 64.2613C153.039 63.6858 154.666 63.3946 156.342 63.3946C164.065 63.3946 170.349 69.6779 170.349 77.4015C170.349 85.1213 164.065 91.4022 156.342 91.4022C154.584 91.4022 152.887 91.0851 151.284 90.4608C148.336 104.143 134.84 121.583 123.606 126.055C120.318 127.361 116.997 128.014 113.662 128.014ZM74.4272 88.5025C74.5088 88.5025 74.591 88.5186 74.6677 88.5513C74.842 88.6249 74.973 88.7745 75.0231 88.9568C78.4519 101.427 87.9402 117.012 101.408 123.719C108.691 127.345 116.006 127.745 123.148 124.905C134.065 120.56 147.727 102.682 150.221 89.481C150.256 89.295 150.375 89.1342 150.544 89.0471C150.713 88.9599 150.911 88.955 151.085 89.0341C152.731 89.7845 154.499 90.1653 156.342 90.1653C163.384 90.1653 169.113 84.4383 169.113 77.4009C169.113 70.3591 163.384 64.6302 156.342 64.6302C154.594 64.6302 152.907 64.9776 151.327 65.6607C151.163 65.7324 150.975 65.7287 150.814 65.6508C150.652 65.5729 150.532 65.4289 150.485 65.2558L143.488 39.4859C140.552 28.6803 130.68 21.1323 119.483 21.1323H112.473C101.103 21.1323 91.1947 28.8262 88.3772 39.8425C87.5458 43.0995 86.1081 46.1333 84.1041 48.8574L77.5024 57.8209C75.8384 60.0796 74.5786 62.5799 73.7572 65.2515C73.7058 65.419 73.5859 65.5562 73.4271 65.6304C73.2682 65.7046 73.0859 65.7077 72.9245 65.6397C71.3495 64.9709 69.6756 64.6308 67.9492 64.6308C60.9105 64.6308 55.1848 70.3603 55.1848 77.4015C55.1848 84.4395 60.9105 90.1659 67.9492 90.1659C70.1046 90.1659 72.2415 89.617 74.1293 88.5798C74.222 88.5285 74.324 88.5025 74.4272 88.5025Z" fill="#2E1E00"/>
<path d="M100.996 89.682H130.76C130.76 89.682 126.659 97.5638 115.878 97.3932C105.097 97.222 100.996 89.682 100.996 89.682Z" fill="#FEFFFA"/>
<path d="M116.218 98.0144C116.102 98.0144 115.986 98.0138 115.869 98.0119C104.853 97.837 100.628 90.2983 100.453 89.9781C100.349 89.7858 100.354 89.5534 100.465 89.3667C100.577 89.1794 100.778 89.0645 100.996 89.0645H130.76C130.976 89.0645 131.176 89.1782 131.289 89.3617C131.4 89.5466 131.408 89.7759 131.308 89.9669C131.266 90.0485 126.994 98.0144 116.218 98.0144ZM102.161 90.3001C103.642 92.2497 107.864 96.6483 115.888 96.7756C120.194 96.8405 123.9 95.6278 126.926 93.1596C128.223 92.1026 129.108 91.0295 129.63 90.3001H102.161Z" fill="#2E1E00"/>
<path d="M72.0263 77.336H60.2534C59.9116 77.336 59.6353 77.0597 59.6353 76.7179C59.6353 76.3767 59.9116 76.0998 60.2534 76.0998H72.0263C72.3675 76.0998 72.6445 76.3767 72.6445 76.7179C72.6445 77.0597 72.3675 77.336 72.0263 77.336Z" fill="#2E1E00"/>
<path d="M164.746 77.336H152.973C152.631 77.336 152.355 77.0597 152.355 76.7179C152.355 76.3767 152.631 76.0998 152.973 76.0998H164.746C165.087 76.0998 165.364 76.3767 165.364 76.7179C165.364 77.0597 165.087 77.336 164.746 77.336Z" fill="#2E1E00"/>
<path d="M119.184 79.3993C119.13 79.3993 119.075 79.3919 119.02 79.3765L115.714 78.4654C115.446 78.3918 115.26 78.1476 115.26 77.8694V59.8274C115.26 59.4862 115.537 59.2092 115.878 59.2092C116.22 59.2092 116.496 59.4862 116.496 59.8274V77.399L119.348 78.1847C119.678 78.2749 119.87 78.6155 119.78 78.9443C119.704 79.2194 119.456 79.3993 119.184 79.3993Z" fill="#2E1E00"/>
<path d="M102.747 61.6416C102.633 61.6416 102.518 61.6101 102.414 61.544C96.8828 58.0064 91.4142 61.3987 91.1836 61.5446C90.8968 61.7275 90.5148 61.6435 90.3306 61.3554C90.1476 61.068 90.2311 60.6866 90.5185 60.503C90.775 60.3379 96.871 56.529 103.081 60.503C103.368 60.6866 103.452 61.0692 103.268 61.3566C103.15 61.5408 102.951 61.6416 102.747 61.6416Z" fill="#2E1E00"/>
<path d="M139.835 61.6416C139.721 61.6416 139.606 61.6101 139.502 61.544C133.971 58.0064 128.502 61.3987 128.271 61.5446C127.985 61.7275 127.603 61.6435 127.418 61.3554C127.236 61.068 127.319 60.6866 127.606 60.503C127.863 60.3379 133.959 56.529 140.169 60.503C140.456 60.6866 140.54 61.0692 140.356 61.3566C140.238 61.5408 140.039 61.6416 139.835 61.6416Z" fill="#2E1E00"/>
<path d="M98.1258 52.2337C95.3937 54.1054 92.3865 54.4663 91.4086 53.0403C90.4307 51.6143 91.853 48.939 94.5852 47.0667C97.3167 45.1944 100.325 44.8334 101.302 46.26C102.28 47.6867 100.858 50.3614 98.1258 52.2337Z" fill="#2E1E00"/>
<path d="M132.583 51.4678C135.315 53.3395 138.322 53.7005 139.3 52.2744C140.278 50.8472 138.856 48.1732 136.123 46.3009C133.392 44.4285 130.384 44.0675 129.406 45.4942C128.428 46.9202 129.851 49.5949 132.583 51.4678Z" fill="#2E1E00"/>
</svg>
