<svg width="243" height="259" viewBox="0 0 243 259" fill="none" xmlns="http://www.w3.org/2000/svg">
<path d="M241.277 17.9536H1.59277V257.175H241.277V17.9536Z" fill="#FFDC38"/>
<path d="M241.277 17.9536H1.59277V257.175H241.277V17.9536Z" stroke="#2E1E00" stroke-width="2" stroke-miterlimit="10" stroke-linecap="round" stroke-linejoin="round"/>
<mask id="path-3-inside-1_229_7398" fill="white">
<path fill-rule="evenodd" clip-rule="evenodd" d="M75.7723 66.1692C73.6121 54.8513 72.3953 38.1675 79.2504 23.9497C90.8937 -0.198631 115.474 3.25076 115.474 3.25076C140.7 -6.66722 150.618 10.5817 150.618 10.5817C184.299 23.4601 181.317 56.9464 178.071 71.928C180.534 74.1484 182.086 77.3594 182.099 80.9324C182.123 87.5248 176.704 93.0561 170.112 93.1591C167.817 93.1949 165.66 92.5979 163.815 91.5243L162.253 98.7275C160.142 108.455 154.79 117.238 146.909 123.319C146.838 123.374 146.766 123.429 146.695 123.484L149.157 138.892C149.157 138.892 237.458 174.793 241.277 247.386C241.447 250.58 241.453 253.839 241.277 257.176H1.60596C1.95794 234.937 9.77317 166.34 90.813 141.714L90.8133 141.714L93.2958 118.574C88.8372 113.257 85.7371 106.838 84.253 99.9503L82.0264 89.621C80.2971 90.2527 78.3841 90.5056 76.3941 90.2729C70.7963 89.6191 66.3001 85.0564 65.7311 79.4495C65.0634 72.8739 69.6338 67.2237 75.7723 66.1692Z"/>
</mask>
<path fill-rule="evenodd" clip-rule="evenodd" d="M75.7723 66.1692C73.6121 54.8513 72.3953 38.1675 79.2504 23.9497C90.8937 -0.198631 115.474 3.25076 115.474 3.25076C140.7 -6.66722 150.618 10.5817 150.618 10.5817C184.299 23.4601 181.317 56.9464 178.071 71.928C180.534 74.1484 182.086 77.3594 182.099 80.9324C182.123 87.5248 176.704 93.0561 170.112 93.1591C167.817 93.1949 165.66 92.5979 163.815 91.5243L162.253 98.7275C160.142 108.455 154.79 117.238 146.909 123.319C146.838 123.374 146.766 123.429 146.695 123.484L149.157 138.892C149.157 138.892 237.458 174.793 241.277 247.386C241.447 250.58 241.453 253.839 241.277 257.176H1.60596C1.95794 234.937 9.77317 166.34 90.813 141.714L90.8133 141.714L93.2958 118.574C88.8372 113.257 85.7371 106.838 84.253 99.9503L82.0264 89.621C80.2971 90.2527 78.3841 90.5056 76.3941 90.2729C70.7963 89.6191 66.3001 85.0564 65.7311 79.4495C65.0634 72.8739 69.6338 67.2237 75.7723 66.1692Z" fill="#ADF0E7"/>
<path d="M75.7723 66.1692L76.1109 68.1403L78.1188 67.7953L77.7368 65.7942L75.7723 66.1692ZM79.2504 23.9497L77.4488 23.0811L77.4488 23.0811L79.2504 23.9497ZM115.474 3.25076L115.196 5.23136L115.716 5.30441L116.205 5.11208L115.474 3.25076ZM150.618 10.5817L148.884 11.5786L149.239 12.1956L149.904 12.4498L150.618 10.5817ZM178.071 71.928L176.116 71.5045L175.871 72.6372L176.732 73.4134L178.071 71.928ZM182.099 80.9324L184.099 80.9253V80.925L182.099 80.9324ZM170.112 93.1591L170.143 95.1588L170.112 93.1591ZM163.815 91.5243L164.821 89.7956L162.444 88.4126L161.861 91.1004L163.815 91.5243ZM162.253 98.7275L164.207 99.1517L164.207 99.1515L162.253 98.7275ZM146.909 123.319L145.687 121.736L145.687 121.736L146.909 123.319ZM146.695 123.484L145.481 121.894L144.531 122.619L144.72 123.799L146.695 123.484ZM149.157 138.892L147.182 139.207L147.36 140.32L148.403 140.744L149.157 138.892ZM241.277 247.386L239.28 247.491L239.28 247.492L241.277 247.386ZM241.277 257.176V259.176H243.175L243.275 257.281L241.277 257.176ZM1.60596 257.176L-0.393793 257.144L-0.425947 259.176H1.60596V257.176ZM90.813 141.714L90.2512 139.794L90.2414 139.797L90.2315 139.8L90.813 141.714ZM90.8133 141.714L91.3751 143.633L92.6592 143.258L92.8019 141.927L90.8133 141.714ZM93.2958 118.574L95.2844 118.787L95.3752 117.941L94.8282 117.288L93.2958 118.574ZM84.253 99.9503L86.2081 99.529L86.2081 99.5289L84.253 99.9503ZM82.0264 89.621L83.9815 89.1996L83.4975 86.9545L81.3402 87.7424L82.0264 89.621ZM76.3941 90.2729L76.6264 88.2864L76.6261 88.2864L76.3941 90.2729ZM65.7311 79.4495L67.7209 79.2476L67.7209 79.2475L65.7311 79.4495ZM77.7368 65.7942C75.602 54.609 74.4795 38.4498 81.0519 24.8183L77.4488 23.0811C70.3111 37.8851 71.6223 55.0936 73.8077 66.5441L77.7368 65.7942ZM81.0519 24.8183C86.5803 13.3525 95.1159 8.49941 102.274 6.46868C105.875 5.44715 109.136 5.1398 111.494 5.08864C112.671 5.06311 113.617 5.10153 114.259 5.14512C114.58 5.1669 114.825 5.18993 114.984 5.2068C115.064 5.21523 115.122 5.22211 115.157 5.22651C115.175 5.22872 115.187 5.2303 115.194 5.23115C115.197 5.23157 115.199 5.23181 115.199 5.23185C115.199 5.23187 115.199 5.23184 115.198 5.23176C115.198 5.23172 115.197 5.23162 115.197 5.2316C115.196 5.23148 115.196 5.23136 115.474 3.25076C115.751 1.27017 115.75 1.27002 115.749 1.26985C115.749 1.26978 115.747 1.2696 115.746 1.26946C115.744 1.26917 115.742 1.26883 115.739 1.26845C115.733 1.26767 115.726 1.26671 115.717 1.26557C115.7 1.26328 115.677 1.26028 115.648 1.2567C115.59 1.24952 115.509 1.23998 115.405 1.22904C115.199 1.20717 114.904 1.17968 114.53 1.1543C113.783 1.10358 112.717 1.06118 111.408 1.08958C108.793 1.1463 105.182 1.48587 101.182 2.62054C93.1397 4.9022 83.5638 10.3986 77.4488 23.0811L81.0519 24.8183ZM116.205 5.11208C128.303 0.355804 136.467 2.18154 141.548 4.95277C144.128 6.3602 145.985 8.0513 147.192 9.38396C147.794 10.0493 148.231 10.621 148.511 11.0162C148.65 11.2135 148.751 11.3662 148.813 11.4636C148.844 11.5123 148.865 11.5471 148.877 11.5668C148.883 11.5766 148.886 11.5826 148.888 11.5846C148.888 11.5856 148.888 11.5857 148.888 11.5847C148.887 11.5842 148.887 11.5834 148.886 11.5824C148.886 11.5819 148.885 11.581 148.885 11.5807C148.885 11.5797 148.884 11.5786 150.618 10.5817C152.352 9.58476 152.351 9.58355 152.35 9.58228C152.35 9.58177 152.349 9.58043 152.349 9.5794C152.347 9.57735 152.346 9.57503 152.345 9.57245C152.342 9.56729 152.338 9.56108 152.334 9.55384C152.325 9.53937 152.314 9.52079 152.301 9.49826C152.273 9.45322 152.236 9.3924 152.188 9.31717C152.092 9.16677 151.955 8.95853 151.774 8.70362C151.413 8.19421 150.878 7.49587 150.157 6.69908C148.715 5.10751 146.516 3.10626 143.463 1.4412C137.278 -1.93253 127.871 -3.77226 114.742 1.38945L116.205 5.11208ZM149.904 12.4498C166.072 18.6319 173.34 29.6656 176.256 40.9659C179.202 52.3827 177.711 64.1441 176.116 71.5045L180.026 72.3514C181.677 64.7303 183.3 52.2578 180.129 39.9665C176.927 27.5586 168.845 15.4099 151.332 8.71359L149.904 12.4498ZM176.732 73.4134C178.794 75.2723 180.088 77.9541 180.099 80.9398L184.099 80.925C184.084 76.7648 182.274 73.0246 179.41 70.4426L176.732 73.4134ZM180.099 80.9395C180.119 86.4384 175.576 91.0735 170.08 91.1593L170.143 95.1588C177.832 95.0387 184.127 88.6113 184.099 80.9253L180.099 80.9395ZM170.08 91.1593C168.156 91.1894 166.358 90.6896 164.821 89.7956L162.809 93.2531C164.963 94.5061 167.477 95.2005 170.143 95.1588L170.08 91.1593ZM161.861 91.1004L160.298 98.3036L164.207 99.1515L165.77 91.9483L161.861 91.1004ZM160.298 98.3033C158.282 107.594 153.175 115.957 145.687 121.736L148.131 124.902C156.404 118.518 162.001 109.316 164.207 99.1517L160.298 98.3033ZM145.687 121.736C145.619 121.789 145.55 121.841 145.481 121.894L147.908 125.074C147.983 125.017 148.057 124.96 148.131 124.902L145.687 121.736ZM151.132 138.576L148.669 123.168L144.72 123.799L147.182 139.207L151.132 138.576ZM243.275 247.281C241.321 210.152 217.775 182.555 195.034 164.355C183.641 155.236 172.376 148.416 163.963 143.876C159.755 141.604 156.254 139.9 153.8 138.762C152.573 138.192 151.607 137.764 150.945 137.477C150.613 137.334 150.358 137.226 150.184 137.153C150.097 137.116 150.03 137.088 149.984 137.069C149.961 137.06 149.944 137.053 149.931 137.048C149.925 137.045 149.92 137.043 149.917 137.042C149.915 137.041 149.913 137.04 149.912 137.04C149.911 137.039 149.91 137.039 149.157 138.892C148.403 140.744 148.403 140.744 148.403 140.744C148.404 140.744 148.404 140.745 148.405 140.745C148.407 140.746 148.41 140.747 148.415 140.749C148.424 140.753 148.438 140.758 148.457 140.766C148.496 140.783 148.556 140.807 148.636 140.841C148.797 140.908 149.038 141.01 149.354 141.148C149.987 141.422 150.922 141.836 152.117 142.39C154.507 143.499 157.934 145.167 162.064 147.396C170.326 151.855 181.376 158.547 192.535 167.478C214.9 185.378 237.414 212.027 239.28 247.491L243.275 247.281ZM243.275 257.281C243.454 253.873 243.448 250.544 243.275 247.28L239.28 247.492C239.446 250.617 239.452 253.805 239.28 257.071L243.275 257.281ZM1.60596 259.176H241.277V255.176H1.60596V259.176ZM90.2315 139.8C49.1715 152.278 26.5446 175.955 14.1823 199.407C1.85348 222.796 -0.215084 245.853 -0.393793 257.144L3.60571 257.208C3.77898 246.26 5.79402 223.899 17.7208 201.273C29.6141 178.71 51.4147 155.777 91.3945 143.628L90.2315 139.8ZM90.2515 139.794L90.2512 139.794L91.3748 143.633L91.3751 143.633L90.2515 139.794ZM91.3072 118.36L88.8247 141.501L92.8019 141.927L95.2844 118.787L91.3072 118.36ZM94.8282 117.288C90.5849 112.229 87.6258 106.108 86.2081 99.529L82.2979 100.372C83.8485 107.567 87.0894 114.286 91.7634 119.859L94.8282 117.288ZM86.2081 99.5289L83.9815 89.1996L80.0713 90.0425L82.2979 100.372L86.2081 99.5289ZM81.3402 87.7424C79.8982 88.2691 78.2994 88.482 76.6264 88.2864L76.1618 92.2593C78.4688 92.5291 80.6961 92.2362 82.7126 91.4997L81.3402 87.7424ZM76.6261 88.2864C71.9599 87.7414 68.1951 83.9205 67.7209 79.2476L63.7413 79.6515C64.4051 86.1924 69.6328 91.4968 76.1621 92.2594L76.6261 88.2864ZM67.7209 79.2475C67.1621 73.7451 70.9809 69.0216 76.1109 68.1403L75.4336 64.198C68.2868 65.4258 62.9646 72.0027 63.7413 79.6516L67.7209 79.2475Z" fill="#2E1E00" mask="url(#path-3-inside-1_229_7398)"/>
</svg>
