<svg width="231" height="260" viewBox="0 0 231 260" fill="none" xmlns="http://www.w3.org/2000/svg">
<path d="M229.446 31.2312H2.06201V258.176H229.446V31.2312Z" fill="#73B7EA"/>
<path d="M229.446 31.2312H2.06201V258.176H229.446V31.2312Z" stroke="#2E1E00" stroke-width="2" stroke-miterlimit="10" stroke-linecap="round" stroke-linejoin="round"/>
<path d="M228.925 257.917H1.55371C1.86908 238.167 8.3866 179.862 72.3128 153.333C77.8471 151.033 83.8143 148.974 90.2453 147.199C92.1436 146.674 94.0791 146.173 96.0579 145.703H141.532C141.532 145.703 149.033 148.751 159.644 154.873C184.49 169.207 226.384 200.372 228.925 248.629C229.086 251.659 229.092 254.751 228.925 257.917Z" fill="#FA6456"/>
<path d="M228.925 257.917H1.55371C1.86908 238.167 8.3866 179.862 72.3128 153.333C77.8471 151.033 83.8143 148.974 90.2453 147.199C92.1436 146.674 94.0791 146.173 96.0579 145.703H141.532C141.532 145.703 149.033 148.751 159.644 154.873C184.49 169.207 226.384 200.372 228.925 248.629C229.086 251.659 229.092 254.751 228.925 257.917Z" stroke="#2E1E00" stroke-width="2" stroke-miterlimit="10" stroke-linecap="round" stroke-linejoin="round"/>
<path d="M118.918 257.916V150.552" stroke="#2E1E00" stroke-width="2" stroke-miterlimit="10" stroke-linecap="round" stroke-linejoin="round"/>
<path d="M159.644 154.874L119.38 196.151L72.313 153.334C77.8473 151.034 83.8145 148.975 90.2455 147.2C92.1438 146.674 94.0793 146.174 96.0581 145.704H141.532C141.532 145.704 149.033 148.752 159.644 154.874Z" fill="#FDEAA7"/>
<path d="M159.644 154.874L119.38 196.151L72.313 153.334C77.8473 151.034 83.8145 148.975 90.2455 147.2C92.1438 146.674 94.0793 146.174 96.0581 145.704H141.532C141.532 145.704 149.033 148.752 159.644 154.874Z" stroke="#2E1E00" stroke-width="2" stroke-miterlimit="10" stroke-linecap="round" stroke-linejoin="round"/>
<path d="M146.56 108.236V147.967L118.919 175.131L86.9248 148.158L87.2711 142.426L89.3364 108.236H146.56Z" fill="#E9CAB8"/>
<path d="M146.56 108.236V147.967L118.919 175.131L86.9248 148.158L87.2711 142.426L89.3364 108.236H146.56Z" stroke="#2E1E00" stroke-width="2" stroke-miterlimit="10" stroke-linecap="round" stroke-linejoin="round"/>
<path d="M119.079 108.236L87.271 142.426L89.3363 108.236H119.079Z" fill="#2E1E00"/>
<path d="M119.079 108.236L87.271 142.426L89.3363 108.236H119.079Z" stroke="#2E1E00" stroke-width="2" stroke-miterlimit="10" stroke-linecap="round" stroke-linejoin="round"/>
<path d="M81.3073 80.9846H158.589C158.589 80.9846 176.248 1.73971 142.995 9.30722C142.995 9.30722 138.409 -3.3055 108.367 2.88615C100.857 4.43453 95.0516 7.3297 90.5691 10.8018C80.1045 18.9073 74.9647 32.1365 76.6689 45.2625L81.3073 80.9846Z" fill="#2E1E00"/>
<path d="M81.3073 80.9846H158.589C158.589 80.9846 176.248 1.73971 142.995 9.30722C142.995 9.30722 138.409 -3.3055 108.367 2.88615C100.857 4.43453 95.0516 7.3297 90.5691 10.8018C80.1045 18.9073 74.9647 32.1365 76.6689 45.2625L81.3073 80.9846Z" stroke="#2E1E00" stroke-width="2" stroke-miterlimit="10" stroke-linecap="round" stroke-linejoin="round"/>
<path d="M171.894 75.4694C171.894 82.6238 166.087 88.4241 158.933 88.4241C158.661 88.4241 158.389 88.4179 158.117 88.3932C155.872 102.683 148.062 136.477 123.965 142.778C98.8968 149.327 84.7425 106.443 80.3769 90.4028C79.8946 90.4585 79.3999 90.4894 78.899 90.4894C71.7446 90.4894 65.9443 84.6892 65.9443 77.5347C65.9443 70.3741 71.7446 64.5739 78.899 64.5739C81.3477 64.5739 83.6418 65.2541 85.5959 66.4413C86.8264 59.9423 90.0171 46.1591 96.2131 37.0939C97.4746 35.2512 100.325 35.7768 100.832 37.9534L104.011 51.5017C104.011 51.5017 108.277 36.1787 115.104 28.2142C116.6 26.4704 119.464 27.4784 119.587 29.7787C119.921 35.752 121.572 45.2563 128.318 50.3577C128.318 50.3577 130.211 23.9166 139.61 18.8089C140.426 18.3637 141.428 18.4379 142.213 18.9573C145.881 21.3751 156.064 31.0649 154.042 63.467C155.551 62.8486 157.202 62.5085 158.934 62.5085C166.087 62.5092 171.894 68.3156 171.894 75.4694Z" fill="#E9CAB8"/>
<path d="M171.894 75.4694C171.894 82.6238 166.087 88.4241 158.933 88.4241C158.661 88.4241 158.389 88.4179 158.117 88.3931C155.872 102.683 148.062 136.477 123.965 142.778C98.8968 149.327 84.7425 106.443 80.3769 90.4028C79.8946 90.4585 79.3999 90.4894 78.899 90.4894C71.7446 90.4894 65.9443 84.6892 65.9443 77.5347C65.9443 70.3741 71.7446 64.5739 78.899 64.5739C81.3477 64.5739 83.6418 65.2541 85.5959 66.4413C86.8264 59.9423 90.0171 46.1591 96.2131 37.0939C97.4746 35.2512 100.325 35.7768 100.832 37.9534L104.011 51.5017C104.011 51.5017 108.277 36.1787 115.104 28.2142C116.6 26.4704 119.464 27.4784 119.587 29.7787C119.921 35.752 121.572 45.2563 128.318 50.3577C128.318 50.3577 130.211 23.9166 139.61 18.8089C140.426 18.3637 141.428 18.4379 142.213 18.9573C145.881 21.3751 156.064 31.0649 154.042 63.467C155.551 62.8486 157.202 62.5085 158.934 62.5085C166.087 62.5092 171.894 68.3156 171.894 75.4694Z" stroke="#2E1E00" stroke-width="2" stroke-miterlimit="10" stroke-linecap="round" stroke-linejoin="round"/>
<path d="M107.951 107.249C108.219 107.144 120.159 112.38 131.04 107.251" stroke="#2E1E00" stroke-width="2" stroke-miterlimit="10" stroke-linecap="round" stroke-linejoin="round"/>
<path d="M112.272 113.325C112.272 113.325 118.669 117.889 126.718 113.976" stroke="#2E1E00" stroke-width="2" stroke-miterlimit="10" stroke-linecap="round" stroke-linejoin="round"/>
<path d="M73.9131 76.7234H83.4705" stroke="#2E1E00" stroke-width="2" stroke-miterlimit="10" stroke-linecap="round" stroke-linejoin="round"/>
<path d="M155.212 74.812H164.514" stroke="#2E1E00" stroke-width="2" stroke-miterlimit="10" stroke-linecap="round" stroke-linejoin="round"/>
<path d="M119.901 71.4995L120.159 92.8423L124.002 94.0351" stroke="#2E1E00" stroke-width="2" stroke-miterlimit="10" stroke-linecap="round" stroke-linejoin="round"/>
<path d="M138.785 63.8825C142.865 65.5953 146.898 65.2571 147.792 63.1262C148.686 60.996 146.104 57.88 142.025 56.1672C137.944 54.4537 133.913 54.7926 133.018 56.9228C132.123 59.0537 134.705 62.1696 138.785 63.8825Z" fill="#2E1E00"/>
<path d="M102.12 64.0044C97.9118 65.3716 93.9216 64.6982 93.2074 62.5005C92.4931 60.3029 95.3259 57.4127 99.5344 56.0455C103.742 54.6789 107.733 55.3523 108.447 57.5499C109.16 59.7476 106.328 62.6372 102.12 64.0044Z" fill="#2E1E00"/>
<path d="M104.894 70.6913C104.894 71.8142 103.983 72.725 102.86 72.725C101.738 72.725 100.827 71.8142 100.827 70.6913C100.827 69.5683 101.738 68.6575 102.86 68.6575C103.983 68.6575 104.894 69.5683 104.894 70.6913Z" fill="#2E1E00"/>
<path d="M140.405 70.6913C140.405 71.8142 139.494 72.725 138.371 72.725C137.249 72.725 136.338 71.8142 136.338 70.6913C136.338 69.5683 137.249 68.6575 138.371 68.6575C139.494 68.6575 140.405 69.5683 140.405 70.6913Z" fill="#2E1E00"/>
<path d="M142.751 113.339V115.229" stroke="#2E1E00" stroke-width="2" stroke-miterlimit="10" stroke-linecap="round" stroke-linejoin="round"/>
<path d="M133.29 112.394V114.285" stroke="#2E1E00" stroke-width="2" stroke-miterlimit="10" stroke-linecap="round" stroke-linejoin="round"/>
<path d="M139.434 101.156V103.046" stroke="#2E1E00" stroke-width="2" stroke-miterlimit="10" stroke-linecap="round" stroke-linejoin="round"/>
<path d="M104.089 99.7537V101.645" stroke="#2E1E00" stroke-width="2" stroke-miterlimit="10" stroke-linecap="round" stroke-linejoin="round"/>
<path d="M104.894 112.38V114.27" stroke="#2E1E00" stroke-width="2" stroke-miterlimit="10" stroke-linecap="round" stroke-linejoin="round"/>
<path d="M149.526 103.046V104.936" stroke="#2E1E00" stroke-width="2" stroke-miterlimit="10" stroke-linecap="round" stroke-linejoin="round"/>
<path d="M127.989 98.8201V100.71" stroke="#2E1E00" stroke-width="2" stroke-miterlimit="10" stroke-linecap="round" stroke-linejoin="round"/>
<path d="M96.6138 112.399V114.29" stroke="#2E1E00" stroke-width="2" stroke-miterlimit="10" stroke-linecap="round" stroke-linejoin="round"/>
<path d="M115.979 98.8201V100.71" stroke="#2E1E00" stroke-width="2" stroke-miterlimit="10" stroke-linecap="round" stroke-linejoin="round"/>
<path d="M91.124 103.046V104.936" stroke="#2E1E00" stroke-width="2" stroke-miterlimit="10" stroke-linecap="round" stroke-linejoin="round"/>
<path d="M130.02 131.992V133.882" stroke="#2E1E00" stroke-width="2" stroke-miterlimit="10" stroke-linecap="round" stroke-linejoin="round"/>
<path d="M126.282 122.764V124.654" stroke="#2E1E00" stroke-width="2" stroke-miterlimit="10" stroke-linecap="round" stroke-linejoin="round"/>
<path d="M100.352 121.819V123.71" stroke="#2E1E00" stroke-width="2" stroke-miterlimit="10" stroke-linecap="round" stroke-linejoin="round"/>
<path d="M109.125 131.046V132.937" stroke="#2E1E00" stroke-width="2" stroke-miterlimit="10" stroke-linecap="round" stroke-linejoin="round"/>
<path d="M113.667 122.764V124.654" stroke="#2E1E00" stroke-width="2" stroke-miterlimit="10" stroke-linecap="round" stroke-linejoin="round"/>
<path d="M137.612 122.764V124.654" stroke="#2E1E00" stroke-width="2" stroke-miterlimit="10" stroke-linecap="round" stroke-linejoin="round"/>
<path d="M119.811 136.547V138.438" stroke="#2E1E00" stroke-width="2" stroke-miterlimit="10" stroke-linecap="round" stroke-linejoin="round"/>
</svg>
