<svg width="235" height="258" viewBox="0 0 235 258" fill="none" xmlns="http://www.w3.org/2000/svg">
<path d="M233.968 23.9302H0.90625V256.542H233.968V23.9302Z" fill="#ADF0E7"/>
<path d="M233.968 257.175H0.906262C0.55577 257.175 0.272461 256.891 0.272461 256.542V23.9301C0.272461 23.5802 0.55577 23.2963 0.906262 23.2963H233.968C234.318 23.2963 234.602 23.5802 234.602 23.9301V256.542C234.602 256.891 234.318 257.175 233.968 257.175ZM1.54006 255.908H233.335V24.5639H1.54006V255.908Z" fill="#2E1E00"/>
<path d="M233.968 256.542H0.919434C1.26169 234.917 8.86095 168.216 87.6615 144.271C89.0235 143.852 90.4121 143.447 91.8255 143.06C93.7707 142.521 95.7545 142.008 97.7827 141.526H144.392C144.392 141.526 230.253 176.436 233.968 247.023C234.132 250.128 234.139 253.297 233.968 256.542Z" fill="#FFDC38"/>
<path d="M233.968 257.176H0.918998C0.749773 257.176 0.587497 257.109 0.467709 256.987C0.348554 256.867 0.283295 256.702 0.285197 256.532C0.462027 245.385 2.51802 223.346 14.3074 200.981C28.9196 173.262 53.5372 153.978 87.4772 143.664C88.89 143.231 90.297 142.821 91.6577 142.448C93.6694 141.892 95.6818 141.374 97.6371 140.91C97.6852 140.898 97.7334 140.892 97.7835 140.892H144.393C144.474 140.892 144.555 140.908 144.632 140.939C144.848 141.027 166.434 149.903 188.184 167.309C200.969 177.542 211.316 188.68 218.936 200.414C228.478 215.106 233.748 230.776 234.602 246.988C234.77 250.164 234.77 253.389 234.602 256.575C234.583 256.912 234.306 257.176 233.968 257.176ZM1.56479 255.908H233.364C233.5 252.963 233.49 249.987 233.335 247.056C232.494 231.074 227.294 215.619 217.883 201.121C210.34 189.503 200.09 178.466 187.417 168.32C166.621 151.669 145.978 142.874 144.266 142.16H97.857C95.9391 142.616 93.9667 143.125 91.9937 143.671C90.6437 144.041 89.2487 144.447 87.8474 144.877C54.2407 155.088 29.8767 174.163 15.4286 201.572C3.98466 223.282 1.8088 244.685 1.56479 255.908Z" fill="#2E1E00"/>
<path d="M88.2061 256.542V147.623L87.6616 144.271C89.0237 143.852 90.4123 143.447 91.825 143.06C93.7708 142.521 95.7546 142.008 97.7828 141.526H144.393L147.631 256.542H88.2061Z" fill="#FA6456"/>
<path d="M147.632 257.176H88.2062C87.8557 257.176 87.5724 256.893 87.5724 256.542V147.674L87.0349 144.372C86.9848 144.06 87.1724 143.758 87.4748 143.665C88.8888 143.231 90.2964 142.821 91.6572 142.448C93.6689 141.892 95.6813 141.374 97.6365 140.91C97.6847 140.898 97.7335 140.892 97.7823 140.892H144.392C144.735 140.892 145.016 141.165 145.026 141.508L148.265 256.525C148.27 256.696 148.205 256.861 148.086 256.985C147.967 257.108 147.803 257.176 147.632 257.176ZM88.84 255.908H146.979L143.776 142.16H97.857C95.9398 142.616 93.9674 143.125 91.9938 143.671C90.813 143.994 89.5993 144.345 88.3754 144.716L88.8311 147.522C88.8374 147.555 88.84 147.589 88.84 147.623V255.908Z" fill="#2E1E00"/>
<path d="M100.896 158.442C98.1258 156.978 87.5033 151.255 88.2062 147.624C88.2131 147.573 89.2399 142.249 90.5766 135.303C93.1118 122.164 96.7625 103.214 96.7625 103.214H140.102L144.393 141.527C146.928 164.197 114.509 165.636 100.896 158.442Z" fill="#FEFFFA"/>
<path d="M118.854 162.965C112.051 162.965 105.327 161.502 100.598 159.003H100.597C91.4236 154.154 87.0447 150.284 87.5828 147.504C87.5828 147.496 87.6189 147.308 88.7103 141.64L89.9532 135.183C92.4884 122.044 96.1391 103.094 96.1391 103.094C96.1968 102.795 96.4579 102.58 96.7615 102.58H140.101C140.423 102.58 140.696 102.822 140.731 103.143L145.022 141.456C145.811 148.517 143.296 154.247 137.749 158.026C132.7 161.466 125.737 162.965 118.854 162.965ZM101.19 157.882C110.367 162.731 127.645 163.375 137.036 156.978C142.244 153.43 144.507 148.255 143.762 141.597L139.535 103.847H97.2856C96.6854 106.961 93.4872 123.56 91.1979 135.422L89.9551 141.879C89.3143 145.209 88.851 147.615 88.8313 147.729C88.4314 149.79 93.0537 153.581 101.19 157.882Z" fill="#2E1E00"/>
<path d="M136.318 103.213L90.5762 135.302C93.1114 122.164 96.7621 103.213 96.7621 103.213H136.318Z" fill="#2E1E00"/>
<path d="M72.1534 72.9787C70.7622 73.0668 71.5164 47.8929 71.6799 46.2703C74.4648 18.6265 99.4518 -5.33126 128.726 2.1926C156.482 9.32603 169.169 41.4287 160.972 67.3658C160.972 67.3658 72.1629 72.9781 72.1534 72.9787Z" fill="#2E1E00"/>
<path d="M72.1446 73.6125C71.9348 73.6125 71.7364 73.5257 71.5818 73.3647C69.9631 71.6852 71.024 46.4472 71.0481 46.207C72.5902 30.9038 80.8131 16.6699 93.0455 8.13134C103.689 0.701924 116.416 -1.62539 128.882 1.57848C140.786 4.63847 150.82 12.5921 157.137 23.9758C164.402 37.0695 166.061 53.3613 161.575 67.5566C161.497 67.8063 161.272 67.9819 161.011 67.9983C77.2708 73.2906 72.4774 73.5929 72.1922 73.6106V73.6113C72.1763 73.6119 72.1611 73.6125 72.1446 73.6125ZM72.1154 72.3462H72.1122H72.1136H72.1154ZM117.924 1.44475C109.398 1.44475 101.081 4.06869 93.7718 9.17079C81.838 17.5008 73.8147 31.3938 72.3107 46.3337C72.1129 48.296 71.5672 69.5423 72.4444 72.3253C78.0757 71.9691 154.002 67.1712 160.497 66.7605C164.718 52.9893 163.058 37.2584 156.029 24.5906C149.884 13.5149 140.131 5.77805 128.568 2.80616C125.023 1.89539 121.454 1.44475 117.924 1.44475Z" fill="#2E1E00"/>
<path d="M171.132 74.5905C171.132 81.2391 165.745 86.6264 159.097 86.6264C156.619 86.6264 154.312 85.8722 152.398 84.5919L150.775 99.632C150.445 102.655 149.159 105.488 147.092 107.719L134.676 121.143C131.995 124.04 128.23 125.688 124.282 125.688H114.109C110.529 125.688 107.08 124.331 104.457 121.885L88.9728 107.459C86.4122 105.07 84.8277 101.819 84.5235 98.3264L83.3319 84.6363C81.4305 85.8912 79.1482 86.6264 76.7024 86.6264C70.0538 86.6264 64.6602 81.2391 64.6602 74.5905C64.6602 70.455 66.7473 66.8049 69.9251 64.6361C71.8563 63.319 74.1894 62.5483 76.7024 62.5483C78.6475 62.5483 80.4862 63.011 82.1151 63.8413C83.3827 54.5244 89.156 26.3076 113 20.5273C115.65 19.8871 118.444 20.4576 120.669 22.0357L123.273 23.8737C125.777 25.6484 128.984 26.1047 131.887 25.1033C132.895 24.7547 133.94 24.5836 134.987 24.5836C136.527 24.5836 138.054 24.9575 139.449 25.6864C146.3 29.2927 158.849 39.3322 154.793 63.3469C156.13 62.8272 157.581 62.5483 159.097 62.5483C165.745 62.5483 171.132 67.942 171.132 74.5905Z" fill="#FEFFFA"/>
<path d="M124.282 126.321H114.109C110.354 126.321 106.772 124.911 104.024 122.348L88.5405 107.923C85.8608 105.422 84.2104 102.034 83.8922 98.3815L82.7888 85.7036C80.9267 86.7246 78.8427 87.2602 76.7024 87.2602C69.7128 87.2602 64.0264 81.5763 64.0264 74.5905C64.0264 70.3973 66.0983 66.4804 69.5677 64.1125C71.6751 62.6744 74.1431 61.9145 76.7024 61.9145C78.4149 61.9145 80.0616 62.2472 81.6074 62.9051C83.0493 53.2269 89.2149 25.6407 112.851 19.9112C115.655 19.2324 118.64 19.8187 121.036 21.5191L123.639 23.3559C125.97 25.0082 128.976 25.4366 131.68 24.5043C134.286 23.6024 137.259 23.8268 139.742 25.1248C147.228 29.0652 159.123 39.1211 155.585 62.4095C156.715 62.0805 157.893 61.9145 159.096 61.9145C166.081 61.9145 171.765 67.6009 171.765 74.5905C171.765 81.5763 166.081 87.2602 159.096 87.2602C156.92 87.2602 154.805 86.7075 152.92 85.6541L151.404 99.6998C151.056 102.886 149.726 105.808 147.556 108.15L135.141 121.574C132.349 124.592 128.391 126.321 124.282 126.321ZM83.3326 84.0031C83.4257 84.0031 83.5208 84.024 83.6089 84.0665C83.8098 84.1634 83.9449 84.3593 83.9645 84.5817L85.156 98.2719C85.4476 101.612 86.9566 104.71 89.4063 106.997L104.89 121.422C107.402 123.764 110.677 125.054 114.111 125.054H124.283C128.04 125.054 131.659 123.472 134.212 120.713L146.628 107.29C148.612 105.148 149.829 102.476 150.147 99.5635L151.769 84.524C151.793 84.3041 151.93 84.1121 152.131 84.0177C152.331 83.9245 152.567 83.9422 152.751 84.0658C154.638 85.3265 156.832 85.9932 159.099 85.9932C165.386 85.9932 170.501 80.8778 170.501 74.5911C170.501 68.3006 165.386 63.1827 159.099 63.1827C157.686 63.1827 156.315 63.4369 155.024 63.9382C154.811 64.02 154.571 63.9826 154.395 63.8387C154.218 63.6948 154.133 63.4666 154.171 63.2416C158.096 39.997 146.448 30.0862 139.157 26.2479C136.983 25.1115 134.381 24.9131 132.098 25.7028C129.007 26.7689 125.574 26.279 122.91 24.3915L120.307 22.5541C118.208 21.066 115.601 20.55 113.152 21.1439C89.5616 26.8627 83.9151 55.3369 82.7457 63.9274C82.7185 64.1309 82.5942 64.3083 82.4123 64.4034C82.2304 64.4985 82.0136 64.5004 81.8304 64.4066C80.2364 63.5947 78.5132 63.1827 76.7056 63.1827C74.4011 63.1827 72.1815 63.8666 70.2852 65.1608C67.1611 67.2916 65.2971 70.8168 65.2971 74.5911C65.2971 80.8778 70.4151 85.9932 76.7056 85.9932C78.9454 85.9932 81.1174 85.341 82.9859 84.1083C83.0885 84.0379 83.2102 84.0031 83.3326 84.0031Z" fill="#2E1E00"/>
<path d="M133.616 99.0248C133.616 103.757 127.921 107.592 120.894 107.592C113.868 107.592 108.174 103.757 108.174 99.0248C108.174 94.2928 113.868 90.457 120.894 90.457C127.92 90.457 133.616 94.2928 133.616 99.0248Z" fill="#FEFFFA"/>
<path d="M120.894 108.226C113.53 108.226 107.54 104.098 107.54 99.0255C107.54 93.9519 113.53 89.824 120.894 89.824C128.258 89.824 134.249 93.9519 134.249 99.0255C134.25 104.098 128.258 108.226 120.894 108.226ZM120.894 91.0916C114.229 91.0916 108.807 94.6504 108.807 99.0255C108.807 103.4 114.229 106.959 120.894 106.959C127.559 106.959 132.982 103.4 132.982 99.0255C132.982 94.6504 127.559 91.0916 120.894 91.0916Z" fill="#2E1E00"/>
<path d="M108.173 99.0248C108.173 99.0248 122.72 101.881 133.49 99.0248H108.173Z" fill="#FEFFFA"/>
<path d="M122.097 100.938C114.754 100.938 108.447 99.7239 108.052 99.6466C107.708 99.5794 107.484 99.2467 107.552 98.9031C107.619 98.5596 107.951 98.3346 108.296 98.4024C108.44 98.4303 122.825 101.196 133.328 98.412C133.662 98.3239 134.013 98.5235 134.103 98.8626C134.193 99.2004 133.991 99.5477 133.652 99.6377C129.974 100.613 125.897 100.938 122.097 100.938Z" fill="#2E1E00"/>
<path d="M81.7059 75.5989H71.3286C70.9781 75.5989 70.6948 75.315 70.6948 74.9651C70.6948 74.6152 70.9781 74.3313 71.3286 74.3313H81.7059C82.0564 74.3313 82.3397 74.6152 82.3397 74.9651C82.3397 75.315 82.0564 75.5989 81.7059 75.5989Z" fill="#2E1E00"/>
<path d="M164.1 75.5989H153.723C153.372 75.5989 153.089 75.315 153.089 74.9651C153.089 74.6152 153.372 74.3313 153.723 74.3313H164.1C164.45 74.3313 164.734 74.6152 164.734 74.9651C164.734 75.315 164.45 75.5989 164.1 75.5989Z" fill="#2E1E00"/>
<path d="M116.399 70.8194C116.387 70.8194 116.377 70.8187 116.365 70.8181L93.3823 69.5961C93.208 69.5873 93.0464 69.5068 92.9336 69.375C92.8208 69.2425 92.7669 69.0694 92.7853 68.897L94.3863 53.7442C94.4217 53.4032 94.7355 53.1553 95.0657 53.1788L117.946 54.9794C118.116 54.9927 118.274 55.0745 118.383 55.2057C118.492 55.3362 118.544 55.5061 118.527 55.676L117.029 70.2502C116.996 70.5754 116.722 70.8194 116.399 70.8194ZM94.1169 68.3666L115.83 69.5207L117.2 56.1925L95.5828 54.4914L94.1169 68.3666Z" fill="#2E1E00"/>
<path d="M149.218 72.298C149.203 72.298 149.188 72.2973 149.173 72.2967L128.469 70.818C128.299 70.806 128.142 70.7261 128.032 70.5968C127.921 70.4675 127.868 70.2996 127.883 70.1304L129.084 56.4561C129.114 56.1113 129.413 55.859 129.76 55.8793L150.614 57.3795C150.785 57.3922 150.944 57.4727 151.053 57.6033C151.163 57.7345 151.216 57.9043 151.199 58.0742L149.848 71.7269C149.815 72.0533 149.541 72.298 149.218 72.298ZM129.202 69.5992L148.648 70.9879L149.874 58.5977L130.292 57.1881L129.202 69.5992Z" fill="#2E1E00"/>
<path d="M128.838 63.4989C128.823 63.4989 128.807 63.4983 128.791 63.497L117.173 62.63C116.823 62.604 116.562 62.2998 116.588 61.9512C116.614 61.6013 116.913 61.3371 117.266 61.3662L128.885 62.2332C129.234 62.2592 129.496 62.5628 129.47 62.912C129.445 63.2454 129.167 63.4989 128.838 63.4989Z" fill="#2E1E00"/>
<path d="M124.883 82.4585C124.819 82.4585 124.755 82.449 124.692 82.4287L121.669 81.4742C121.385 81.3849 121.202 81.1104 121.228 80.8144L123.297 57.2662C123.328 56.9182 123.63 56.6647 123.984 56.6907C124.333 56.7211 124.59 57.0285 124.559 57.3771L122.536 80.4183L125.073 81.2201C125.407 81.3253 125.593 81.6814 125.487 82.0155C125.402 82.2855 125.152 82.4585 124.883 82.4585Z" fill="#2E1E00"/>
<path d="M106.747 48.5748C103.946 50.4946 100.863 50.8647 99.86 49.4019C98.8573 47.9391 100.316 45.1966 103.117 43.2769C105.919 41.3571 109.002 40.9869 110.005 42.4498C111.007 43.9126 109.548 46.655 106.747 48.5748Z" fill="#2E1E00"/>
<path d="M139.81 52.0899C142.611 54.0097 145.695 54.3799 146.697 52.9171C147.7 51.4542 146.241 48.7118 143.44 46.792C140.638 44.8722 137.556 44.5021 136.553 45.9649C135.55 47.4277 137.009 50.1702 139.81 52.0899Z" fill="#2E1E00"/>
<path d="M107.017 61.9981C107.017 63.1491 106.084 64.0827 104.932 64.0827C103.782 64.0827 102.848 63.1491 102.848 61.9981C102.848 60.8472 103.782 59.9136 104.932 59.9136C106.084 59.9136 107.017 60.8472 107.017 61.9981Z" fill="#2E1E00"/>
<path d="M141.625 64.0877C141.625 65.2387 140.691 66.1723 139.541 66.1723C138.39 66.1723 137.456 65.2387 137.456 64.0877C137.456 62.9368 138.39 62.0032 139.541 62.0032C140.692 62.0038 141.625 62.9368 141.625 64.0877Z" fill="#2E1E00"/>
</svg>
