<svg width="227" height="260" viewBox="0 0 227 260" fill="none" xmlns="http://www.w3.org/2000/svg">
<path d="M224.901 35.6863H1.98047V258.176H224.901V35.6863Z" fill="#FDEAA7"/>
<path d="M224.901 35.6863H1.98047V258.176H224.901V35.6863Z" stroke="#2E1E00" stroke-width="2" stroke-miterlimit="10" stroke-linecap="round" stroke-linejoin="round"/>
<path d="M113.217 148.165V258.176" stroke="#2E1E00" stroke-width="2" stroke-miterlimit="10" stroke-linecap="round" stroke-linejoin="round"/>
<path d="M109.921 5.6625C109.921 5.6625 121.26 -5.19374 136.7 6.86888C152.139 18.9309 162.754 55.842 162.754 55.842H146.349V106.987C146.349 106.987 174.093 105.298 182.295 130.387C190.498 155.477 180.848 179.36 180.848 179.36H36.5819C36.5819 179.36 6.01012 137.642 51.3628 117.618C52.3564 100.74 54.4109 83.827 57.3293 67.1807C59.7275 53.4983 57.9694 41.5788 63.9359 28.8996C70.1448 15.7046 82.222 3.77957 97.6698 3.80382C101.817 3.81109 105.925 4.60767 109.921 5.6625Z" fill="#2E1E00"/>
<path d="M109.921 5.6625C109.921 5.6625 121.26 -5.19374 136.7 6.86888C152.139 18.9309 162.754 55.842 162.754 55.842H146.349V106.987C146.349 106.987 174.093 105.298 182.295 130.387C190.498 155.477 180.848 179.36 180.848 179.36H36.5819C36.5819 179.36 6.01012 137.642 51.3628 117.618C52.3564 100.74 54.4109 83.827 57.3293 67.1808C59.7275 53.4983 57.9694 41.5788 63.9359 28.8996C70.1448 15.7046 82.222 3.77957 97.6698 3.80382C101.817 3.81109 105.925 4.60767 109.921 5.6625Z" stroke="#2E1E00" stroke-width="2" stroke-miterlimit="10" stroke-linecap="round" stroke-linejoin="round"/>
<path d="M224.899 258.176H1.99072C2.28171 239.856 8.01658 187.727 61.6794 160.132C65.7108 158.052 70.0089 156.119 74.6041 154.349C79.0295 152.639 83.7216 151.081 88.6987 149.699C88.7775 149.675 88.8624 149.657 88.9412 149.633C88.9594 149.627 88.9776 149.62 89.0018 149.614C92.5543 148.632 96.2341 148.166 99.9199 148.166H129.873C133.086 148.166 136.275 148.529 139.379 149.257C142.713 150.033 145.957 151.221 149.018 152.803C152.073 154.38 155.698 156.356 159.681 158.738C161.518 159.841 163.434 161.024 165.41 162.297C189.78 178.017 222.68 206.884 224.899 249.072C225.056 252.041 225.062 255.072 224.899 258.176Z" fill="#73B7EA"/>
<path d="M224.899 258.176H1.99072C2.28171 239.856 8.01658 187.727 61.6794 160.132C65.7108 158.052 70.0089 156.119 74.6041 154.349C79.0295 152.639 83.7216 151.081 88.6987 149.699C88.7775 149.675 88.8624 149.657 88.9412 149.633C88.9594 149.627 88.9776 149.62 89.0018 149.614C92.5543 148.632 96.2341 148.166 99.9199 148.166H129.873C133.086 148.166 136.275 148.529 139.379 149.257C142.713 150.033 145.957 151.221 149.018 152.803C152.073 154.38 155.698 156.356 159.681 158.738C161.518 159.841 163.434 161.024 165.41 162.297C189.78 178.017 222.68 206.884 224.899 249.072C225.056 252.041 225.062 255.072 224.899 258.176Z" stroke="#2E1E00" stroke-width="2" stroke-miterlimit="10" stroke-linecap="round" stroke-linejoin="round"/>
<path d="M165.41 161.924V180.697C165.41 195.179 153.092 206.909 137.9 206.909H89.1891C73.9911 206.909 61.6787 195.178 61.6787 180.697V159.862C64.5886 158.43 67.6439 157.072 70.8448 155.796V173.056C70.8448 185.451 80.9808 195.49 93.4933 195.49H133.595C146.101 195.49 156.243 185.451 156.243 173.056V156.992C154.813 156.074 153.418 155.219 152.073 154.416C154.394 155.606 156.953 156.98 159.681 158.534C161.519 159.585 163.434 160.711 165.41 161.924Z" fill="#ADF0E7"/>
<path d="M165.41 161.924V180.697C165.41 195.179 153.092 206.909 137.9 206.909H89.1891C73.9911 206.909 61.6787 195.178 61.6787 180.697V159.862C64.5886 158.43 67.6439 157.072 70.8448 155.796V173.056C70.8448 185.451 80.9808 195.49 93.4933 195.49H133.595C146.101 195.49 156.243 185.451 156.243 173.056V156.992C154.813 156.074 153.418 155.219 152.073 154.416C154.394 155.606 156.953 156.98 159.681 158.534C161.519 159.585 163.434 160.711 165.41 161.924Z" stroke="#2E1E00" stroke-width="2" stroke-miterlimit="10" stroke-linecap="round" stroke-linejoin="round"/>
<path d="M156.244 157.119V173.978C156.244 186.988 146.102 197.524 133.596 197.524H93.4942C80.9817 197.524 70.8457 186.988 70.8457 173.978V155.864C72.0763 155.343 73.3312 154.84 74.6043 154.349C79.0297 152.639 83.7219 151.081 88.699 149.699V105.299L139.839 103.365L139.397 147.432L139.379 149.257C142.713 150.032 145.957 151.221 149.018 152.803C149.976 153.295 150.982 153.827 152.043 154.398C152.049 154.398 152.061 154.404 152.073 154.415C153.419 155.258 154.814 156.155 156.244 157.119Z" fill="#FEFFFA"/>
<path d="M156.244 157.119V173.978C156.244 186.988 146.102 197.524 133.596 197.524H93.4942C80.9817 197.524 70.8457 186.988 70.8457 173.978V155.864C72.0763 155.343 73.3312 154.84 74.6043 154.349C79.0297 152.639 83.7219 151.081 88.699 149.699V105.299L139.839 103.365L139.397 147.432L139.379 149.257C142.713 150.032 145.957 151.221 149.018 152.803C149.976 153.295 150.982 153.827 152.043 154.398C152.049 154.398 152.061 154.404 152.073 154.415C153.419 155.258 154.814 156.155 156.244 157.119Z" stroke="#2E1E00" stroke-width="2" stroke-miterlimit="10" stroke-linecap="round" stroke-linejoin="round"/>
<path d="M136.215 128.214C136.215 128.214 129.734 133.797 116.646 133.367C96.5071 132.694 79.545 118.005 75.4833 98.2665C75.3863 97.7815 75.2893 97.2905 75.1923 96.7873C72.2461 99.5275 68.2996 101.195 63.9651 101.195C54.8354 101.195 47.4395 93.7986 47.4395 84.6689C47.4395 75.5453 54.8354 68.1433 63.9651 68.1433C66.0929 68.1433 68.1238 68.5434 69.9909 69.283C69.5605 65.4456 69.0089 60.1654 68.6269 56.4978C68.3299 53.6485 69.6211 50.8781 71.9793 49.2534C80.5816 43.3124 104.024 31.1455 144.234 38.5354C147.084 39.0568 149.412 41.0997 150.291 43.858C154.856 58.1588 166.247 103.626 136.215 128.214Z" fill="#FEFFFA"/>
<path d="M136.215 128.214C136.215 128.214 129.734 133.797 116.646 133.367C96.5071 132.694 79.545 118.005 75.4833 98.2665C75.3863 97.7815 75.2893 97.2905 75.1923 96.7873C72.2461 99.5275 68.2996 101.195 63.9651 101.195C54.8354 101.195 47.4395 93.7986 47.4395 84.6689C47.4395 75.5453 54.8354 68.1433 63.9651 68.1433C66.0929 68.1433 68.1238 68.5434 69.9909 69.283C69.5605 65.4456 69.0089 60.1654 68.6269 56.4978C68.3299 53.6485 69.6211 50.8781 71.9793 49.2534C80.5816 43.3124 104.024 31.1455 144.234 38.5354C147.084 39.0568 149.412 41.0997 150.291 43.858C154.856 58.1588 166.247 103.626 136.215 128.214Z" stroke="#2E1E00" stroke-width="2" stroke-miterlimit="10" stroke-linecap="round" stroke-linejoin="round"/>
<path d="M96.8196 97.0056C96.8196 97.0056 93.6054 100.863 95.0197 105.106" stroke="#2E1E00" stroke-width="2" stroke-miterlimit="10" stroke-linecap="round" stroke-linejoin="round"/>
<path d="M142.336 95.7192C142.336 95.7192 145.422 99.824 144.007 103.365" stroke="#2E1E00" stroke-width="2" stroke-miterlimit="10" stroke-linecap="round" stroke-linejoin="round"/>
<path d="M55.2231 84.0393H68.126" stroke="#2E1E00" stroke-width="2" stroke-miterlimit="10" stroke-linecap="round" stroke-linejoin="round"/>
<path d="M121.869 70.635L124.124 91.5557L122.997 93.6854" stroke="#2E1E00" stroke-width="2" stroke-miterlimit="10" stroke-linecap="round" stroke-linejoin="round"/>
<path d="M90.9263 72.1385C90.9263 72.1385 98.067 67.3778 104.33 69.8834" stroke="#2E1E00" stroke-width="2" stroke-miterlimit="10" stroke-linecap="round" stroke-linejoin="round"/>
<path d="M132.518 69.1547C132.518 69.1547 141.139 66.2963 146.349 69.1547" stroke="#2E1E00" stroke-width="2" stroke-miterlimit="10" stroke-linecap="round" stroke-linejoin="round"/>
<path d="M97.5004 61.9841C93.1175 64.9874 88.2931 65.5669 86.7248 63.2778C85.1559 60.9893 87.4378 56.6991 91.8201 53.6953C96.2031 50.692 101.027 50.1125 102.596 52.4016C104.165 54.6907 101.883 58.9809 97.5004 61.9841Z" fill="#2E1E00"/>
<path d="M137.696 59.9673C142.079 62.9705 146.903 63.5501 148.472 61.261C150.041 58.9725 147.758 54.6823 143.376 51.6784C138.993 48.6752 134.169 48.0956 132.601 50.3847C131.032 52.6738 133.313 56.9641 137.696 59.9673Z" fill="#2E1E00"/>
<path d="M99.7114 100.89L139.445 99.0232C139.445 99.0232 134.465 109.802 120.062 110.251C105.659 110.699 99.7114 100.89 99.7114 100.89Z" fill="#FEFFFA"/>
<path d="M99.7114 100.89L139.445 99.0232C139.445 99.0232 134.465 109.802 120.062 110.251C105.659 110.699 99.7114 100.89 99.7114 100.89Z" stroke="#2E1E00" stroke-width="2" stroke-miterlimit="10" stroke-linecap="round" stroke-linejoin="round"/>
<path d="M121.694 223.176C121.694 226.226 119.22 228.7 116.17 228.7C113.119 228.7 110.646 226.226 110.646 223.176C110.646 220.126 113.12 217.652 116.17 217.652C119.22 217.652 121.694 220.126 121.694 223.176Z" fill="#ADF0E7"/>
<path d="M116.17 228.7C119.221 228.7 121.694 226.227 121.694 223.176C121.694 220.125 119.221 217.652 116.17 217.652C113.119 217.652 110.646 220.125 110.646 223.176C110.646 226.227 113.119 228.7 116.17 228.7Z" stroke="#2E1E00" stroke-width="2" stroke-miterlimit="10" stroke-linecap="round" stroke-linejoin="round"/>
<path d="M121.694 242.113C121.694 245.163 119.22 247.637 116.17 247.637C113.119 247.637 110.646 245.163 110.646 242.113C110.646 239.063 113.12 236.59 116.17 236.59C119.22 236.59 121.694 239.063 121.694 242.113Z" fill="#ADF0E7"/>
<path d="M116.17 247.637C119.221 247.637 121.694 245.164 121.694 242.113C121.694 239.062 119.221 236.589 116.17 236.589C113.119 236.589 110.646 239.062 110.646 242.113C110.646 245.164 113.119 247.637 116.17 247.637Z" stroke="#2E1E00" stroke-width="2" stroke-miterlimit="10" stroke-linecap="round" stroke-linejoin="round"/>
</svg>
