<svg width="239" height="260" viewBox="0 0 239 260" fill="none" xmlns="http://www.w3.org/2000/svg">
<path d="M237.752 22.1282H1.24805V258.175H237.752V22.1282Z" fill="#FDEAA7"/>
<path d="M237.752 22.1282H1.24805V258.175H237.752V22.1282Z" stroke="#2E1E00" stroke-width="2" stroke-miterlimit="10" stroke-linecap="round" stroke-linejoin="round"/>
<path d="M237.752 154.594V258.176H1.24805V166.814C7.08154 159.9 22.9548 144.091 52.6175 134.554C60.6056 131.987 66.9665 129.736 72.0282 127.787C83.5729 123.349 88.3838 120.461 90.384 118.834C91.7733 117.715 91.8119 117.2 91.8119 117.2H149.285C149.285 117.2 151.092 118.39 153.986 119.87C157.962 121.902 163.988 124.475 170.226 125.285C171.918 125.504 173.629 125.594 175.314 125.504C186.255 124.944 223.789 138.174 237.752 154.594Z" fill="#73B7EA"/>
<path d="M237.752 154.594V258.176H1.24805V166.814C7.08154 159.9 22.9548 144.091 52.6175 134.554C60.6056 131.987 66.9665 129.736 72.0282 127.787C83.5729 123.349 88.3838 120.461 90.384 118.834C91.7733 117.715 91.8119 117.2 91.8119 117.2H149.285C149.285 117.2 151.092 118.39 153.986 119.87C157.962 121.902 163.988 124.475 170.226 125.285C171.918 125.504 173.629 125.594 175.314 125.504C186.255 124.944 223.789 138.174 237.752 154.594Z" stroke="#2E1E00" stroke-width="2" stroke-miterlimit="10" stroke-linecap="round" stroke-linejoin="round"/>
<path d="M153.986 119.87L122.04 146.169L89.1812 173.214L69.002 128.93C80.5467 124.492 88.3837 120.461 90.3839 118.834C91.7731 117.715 91.8117 117.2 91.8117 117.2H149.285C149.285 117.2 151.092 118.39 153.986 119.87Z" fill="#FEFFFA"/>
<path d="M153.986 119.87L122.04 146.169L89.1812 173.214L69.002 128.93C80.5467 124.492 88.3837 120.461 90.3839 118.834C91.7731 117.715 91.8117 117.2 91.8117 117.2H149.285C149.285 117.2 151.092 118.39 153.986 119.87Z" stroke="#2E1E00" stroke-width="2" stroke-miterlimit="10" stroke-linecap="round" stroke-linejoin="round"/>
<path d="M170.226 125.285L148.553 173.633L118.627 147.098L89.3975 119.963C90.7867 118.844 91.8125 117.2 91.8125 117.2H149.286C149.286 117.2 151.093 118.39 153.987 119.87C157.961 121.902 163.988 124.475 170.226 125.285Z" fill="#FEFFFA"/>
<path d="M170.226 125.285L148.553 173.633L118.627 147.098L89.3975 119.963C90.7867 118.844 91.8125 117.2 91.8125 117.2H149.286C149.286 117.2 151.093 118.39 153.987 119.87C157.961 121.902 163.988 124.475 170.226 125.285Z" stroke="#2E1E00" stroke-width="2" stroke-miterlimit="10" stroke-linecap="round" stroke-linejoin="round"/>
<path d="M147.902 115.914C147.902 115.914 146.082 141.911 123.05 147.609C110.985 150.599 100.611 146.516 94.1596 139.46C88.2875 133.041 85.6505 124.172 87.9338 115.914H147.902Z" fill="#FFF3E9"/>
<path d="M147.902 115.914C147.902 115.914 146.082 141.911 123.05 147.609C110.985 150.599 100.611 146.516 94.1596 139.46C88.2875 133.041 85.6505 124.172 87.9338 115.914H147.902Z" stroke="#2E1E00" stroke-width="2" stroke-miterlimit="10" stroke-linecap="round" stroke-linejoin="round"/>
<path d="M125.361 172.766C125.361 176.002 122.736 178.627 119.5 178.627C116.264 178.627 113.64 176.002 113.64 172.766C113.64 169.53 116.264 166.906 119.5 166.906C122.736 166.905 125.361 169.529 125.361 172.766Z" fill="#FDEAA7"/>
<path d="M119.5 178.627C122.737 178.627 125.361 176.003 125.361 172.766C125.361 169.529 122.737 166.906 119.5 166.906C116.263 166.906 113.64 169.529 113.64 172.766C113.64 176.003 116.263 178.627 119.5 178.627Z" stroke="#2E1E00" stroke-width="2" stroke-miterlimit="10" stroke-linecap="round" stroke-linejoin="round"/>
<path d="M125.361 204.924C125.361 208.16 122.736 210.784 119.5 210.784C116.264 210.784 113.64 208.16 113.64 204.924C113.64 201.688 116.264 199.063 119.5 199.063C122.736 199.063 125.361 201.687 125.361 204.924Z" fill="#FDEAA7"/>
<path d="M119.5 210.784C122.737 210.784 125.361 208.161 125.361 204.924C125.361 201.687 122.737 199.063 119.5 199.063C116.263 199.063 113.64 201.687 113.64 204.924C113.64 208.161 116.263 210.784 119.5 210.784Z" stroke="#2E1E00" stroke-width="2" stroke-miterlimit="10" stroke-linecap="round" stroke-linejoin="round"/>
<path d="M125.361 237.082C125.361 240.319 122.736 242.943 119.5 242.943C116.264 242.943 113.64 240.319 113.64 237.082C113.64 233.846 116.264 231.222 119.5 231.222C122.736 231.221 125.361 233.845 125.361 237.082Z" fill="#FDEAA7"/>
<path d="M119.5 242.943C122.737 242.943 125.361 240.319 125.361 237.082C125.361 233.846 122.737 231.222 119.5 231.222C116.263 231.222 113.64 233.846 113.64 237.082C113.64 240.319 116.263 242.943 119.5 242.943Z" stroke="#2E1E00" stroke-width="2" stroke-miterlimit="10" stroke-linecap="round" stroke-linejoin="round"/>
<path d="M116.606 115.914L94.1596 139.46C88.2875 133.041 85.6505 124.172 87.9338 115.914H116.606Z" fill="#2E1E00"/>
<path d="M116.606 115.914L94.1596 139.46C88.2875 133.041 85.6505 124.172 87.9338 115.914H116.606Z" stroke="#2E1E00" stroke-width="2" stroke-miterlimit="10" stroke-linecap="round" stroke-linejoin="round"/>
<path d="M77.2158 83.9927H154.516C154.516 83.9927 162.725 30.8629 144.94 12.8485C135.256 3.04157 120.54 -1.28885 102.527 2.58749C95.2803 4.14716 89.5613 8.09233 85.2791 12.588C78.5986 19.6024 74.5878 28.7301 73.5324 38.3589C72.3201 49.4271 71.545 68.1753 77.2158 83.9927Z" fill="#2E1E00"/>
<path d="M77.2158 83.9927H154.516C154.516 83.9927 162.725 30.8629 144.94 12.8485C135.256 3.04157 120.54 -1.28885 102.527 2.58749C95.2803 4.14716 89.5613 8.09233 85.2791 12.588C78.5986 19.6024 74.5878 28.7301 73.5324 38.3589C72.3201 49.4271 71.545 68.1753 77.2158 83.9927Z" stroke="#2E1E00" stroke-width="2" stroke-miterlimit="10" stroke-linecap="round" stroke-linejoin="round"/>
<path d="M173.205 79.2923C173.205 86.1034 167.686 91.6281 160.868 91.6281C159.736 91.6281 158.636 91.4738 157.594 91.1908C157.473 91.7954 157.324 92.3678 157.273 92.7472C156.823 95.9695 156.192 99.1724 155.414 102.337C152.661 113.502 147.978 125.233 138.775 132.643C127.301 141.878 111.152 143.718 98.2755 136.334C91.9275 132.694 87.8176 126.597 84.7305 120.062C81.1094 112.415 78.331 104.202 76.2857 95.9052C74.8064 96.5226 73.1857 96.8699 71.4813 96.8699C64.6702 96.8699 59.1519 91.3516 59.1519 84.534C59.1519 77.7229 64.6702 72.2046 71.4813 72.2046C73.0506 72.2046 74.5492 72.494 75.9256 73.0343C75.932 67.6317 76.2729 62.2098 76.8646 56.8652C77.9837 46.7675 80.2926 28.9519 91.5608 24.8228C91.831 24.7263 92.1075 24.6363 92.3841 24.5591C95.6514 23.6587 99.0923 24.6684 102.379 23.9867C105.537 23.3242 108.72 21.6134 111.422 19.9154C121.224 13.7604 141.29 18.0953 145.394 30.1803C148.494 39.3132 151.208 60.5505 152.346 70.3845C154.559 68.262 157.569 66.9564 160.868 66.9564C167.686 66.9564 173.205 72.4812 173.205 79.2923Z" fill="#FFF3E9"/>
<path d="M173.205 79.2923C173.205 86.1034 167.686 91.6281 160.868 91.6281C159.736 91.6281 158.636 91.4738 157.594 91.1908C157.473 91.7954 157.324 92.3678 157.273 92.7472C156.823 95.9695 156.192 99.1724 155.414 102.337C152.661 113.502 147.978 125.233 138.775 132.643C127.301 141.878 111.152 143.718 98.2755 136.334C91.9275 132.694 87.8176 126.597 84.7305 120.062C81.1095 112.415 78.331 104.202 76.2857 95.9052C74.8064 96.5226 73.1857 96.8699 71.4813 96.8699C64.6702 96.8699 59.1519 91.3516 59.1519 84.534C59.1519 77.723 64.6702 72.2046 71.4813 72.2046C73.0506 72.2046 74.5492 72.494 75.9256 73.0343C75.932 67.6317 76.2729 62.2098 76.8646 56.8652C77.9837 46.7675 80.2926 28.9519 91.5608 24.8228C91.831 24.7263 92.1075 24.6363 92.3841 24.5591C95.6514 23.6587 99.0923 24.6684 102.379 23.9867C105.537 23.3242 108.72 21.6134 111.422 19.9154C121.224 13.7604 141.29 18.0953 145.394 30.1803C148.494 39.3132 151.208 60.5505 152.346 70.3845C154.559 68.262 157.569 66.9564 160.868 66.9564C167.686 66.9564 173.205 72.4812 173.205 79.2923Z" stroke="#2E1E00" stroke-width="2" stroke-miterlimit="10" stroke-linecap="round" stroke-linejoin="round"/>
<path d="M135.133 58.9838C139.376 60.7654 143.57 60.4135 144.5 58.1972C145.43 55.9815 142.745 52.7406 138.501 50.959C134.258 49.1768 130.064 49.5293 129.134 51.745C128.204 53.9613 130.889 57.2022 135.133 58.9838Z" fill="#2E1E00"/>
<path d="M93.7766 59.1106C89.3999 60.5326 85.2495 59.8322 84.5067 57.5464C83.7638 55.2606 86.7102 52.2545 91.0875 50.8331C95.4643 49.4111 99.6146 50.1115 100.357 52.3973C101.1 54.6831 98.1533 57.6886 93.7766 59.1106Z" fill="#2E1E00"/>
<path d="M96.6629 66.0658C96.6629 67.2338 95.7155 68.1812 94.5475 68.1812C93.3795 68.1812 92.4321 67.2338 92.4321 66.0658C92.4321 64.8978 93.3795 63.9504 94.5475 63.9504C95.7161 63.9504 96.6629 64.8978 96.6629 66.0658Z" fill="#2E1E00"/>
<path d="M136.817 66.0658C136.817 67.2338 135.87 68.1812 134.702 68.1812C133.534 68.1812 132.586 67.2338 132.586 66.0658C132.586 64.8978 133.534 63.9504 134.702 63.9504C135.87 63.9504 136.817 64.8978 136.817 66.0658Z" fill="#2E1E00"/>
<path d="M113.709 63.9504V88.3971L116.178 90.1156" stroke="#2E1E00" stroke-width="2" stroke-miterlimit="10" stroke-linecap="round" stroke-linejoin="round"/>
<path d="M66.2812 83.9927H74.0134" stroke="#2E1E00" stroke-width="2" stroke-miterlimit="10" stroke-linecap="round" stroke-linejoin="round"/>
<path d="M155.152 79.0132H165.262" stroke="#2E1E00" stroke-width="2" stroke-miterlimit="10" stroke-linecap="round" stroke-linejoin="round"/>
<path d="M100.221 104.581C100.221 104.581 115.248 109.878 131.788 105.121" stroke="#2E1E00" stroke-width="2" stroke-miterlimit="10" stroke-linecap="round" stroke-linejoin="round"/>
<path d="M104.134 110.681C104.134 110.681 114.945 116.899 125.756 111.763" stroke="#2E1E00" stroke-width="2" stroke-miterlimit="10" stroke-linecap="round" stroke-linejoin="round"/>
<path d="M101.194 101.662C101.194 101.662 98.5993 103.716 99.5724 107.824" stroke="#2E1E00" stroke-width="2" stroke-miterlimit="10" stroke-linecap="round" stroke-linejoin="round"/>
<path d="M131.031 102.419C131.031 102.419 132.628 104.04 132.587 107.824" stroke="#2E1E00" stroke-width="2" stroke-miterlimit="10" stroke-linecap="round" stroke-linejoin="round"/>
<path d="M109.609 95.6455V97.6123" stroke="#2E1E00" stroke-width="2" stroke-miterlimit="10" stroke-linecap="round" stroke-linejoin="round"/>
<path d="M93.748 107.824V109.791" stroke="#2E1E00" stroke-width="2" stroke-miterlimit="10" stroke-linecap="round" stroke-linejoin="round"/>
<path d="M110.567 122.092V124.058" stroke="#2E1E00" stroke-width="2" stroke-miterlimit="10" stroke-linecap="round" stroke-linejoin="round"/>
<path d="M101.194 118.94V120.906" stroke="#2E1E00" stroke-width="2" stroke-miterlimit="10" stroke-linecap="round" stroke-linejoin="round"/>
<path d="M104.469 131.83V133.796" stroke="#2E1E00" stroke-width="2" stroke-miterlimit="10" stroke-linecap="round" stroke-linejoin="round"/>
<path d="M116.004 134.388V136.353" stroke="#2E1E00" stroke-width="2" stroke-miterlimit="10" stroke-linecap="round" stroke-linejoin="round"/>
<path d="M84.9932 103.598V105.564" stroke="#2E1E00" stroke-width="2" stroke-miterlimit="10" stroke-linecap="round" stroke-linejoin="round"/>
<path d="M89.9111 115.917V117.883" stroke="#2E1E00" stroke-width="2" stroke-miterlimit="10" stroke-linecap="round" stroke-linejoin="round"/>
<path d="M93.748 107.824V109.791" stroke="#2E1E00" stroke-width="2" stroke-miterlimit="10" stroke-linecap="round" stroke-linejoin="round"/>
<path d="M110.567 122.092V124.058" stroke="#2E1E00" stroke-width="2" stroke-miterlimit="10" stroke-linecap="round" stroke-linejoin="round"/>
<path d="M101.194 118.94V120.906" stroke="#2E1E00" stroke-width="2" stroke-miterlimit="10" stroke-linecap="round" stroke-linejoin="round"/>
<path d="M84.9932 103.598V105.564" stroke="#2E1E00" stroke-width="2" stroke-miterlimit="10" stroke-linecap="round" stroke-linejoin="round"/>
<path d="M89.9111 115.917V117.883" stroke="#2E1E00" stroke-width="2" stroke-miterlimit="10" stroke-linecap="round" stroke-linejoin="round"/>
<path d="M137.912 107.824V109.791" stroke="#2E1E00" stroke-width="2" stroke-miterlimit="10" stroke-linecap="round" stroke-linejoin="round"/>
<path d="M121.092 122.092V124.058" stroke="#2E1E00" stroke-width="2" stroke-miterlimit="10" stroke-linecap="round" stroke-linejoin="round"/>
<path d="M130.465 118.94V120.906" stroke="#2E1E00" stroke-width="2" stroke-miterlimit="10" stroke-linecap="round" stroke-linejoin="round"/>
<path d="M146.666 103.598V105.564" stroke="#2E1E00" stroke-width="2" stroke-miterlimit="10" stroke-linecap="round" stroke-linejoin="round"/>
<path d="M141.748 115.917V117.883" stroke="#2E1E00" stroke-width="2" stroke-miterlimit="10" stroke-linecap="round" stroke-linejoin="round"/>
<path d="M96.4033 127.009V128.975" stroke="#2E1E00" stroke-width="2" stroke-miterlimit="10" stroke-linecap="round" stroke-linejoin="round"/>
<path d="M130.465 130.402V132.369" stroke="#2E1E00" stroke-width="2" stroke-miterlimit="10" stroke-linecap="round" stroke-linejoin="round"/>
<path d="M138.531 125.582V127.548" stroke="#2E1E00" stroke-width="2" stroke-miterlimit="10" stroke-linecap="round" stroke-linejoin="round"/>
<path d="M117.042 95.6455V97.6123" stroke="#2E1E00" stroke-width="2" stroke-miterlimit="10" stroke-linecap="round" stroke-linejoin="round"/>
<path d="M123.915 95.6455V97.6123" stroke="#2E1E00" stroke-width="2" stroke-miterlimit="10" stroke-linecap="round" stroke-linejoin="round"/>
</svg>
