<svg width="229" height="259" viewBox="0 0 229 259" fill="none" xmlns="http://www.w3.org/2000/svg">
<path d="M227.717 31.0579H1.16113V257.176H227.717V31.0579Z" fill="#FA6456"/>
<path d="M227.717 31.0579H1.16113V257.176H227.717V31.0579Z" stroke="#2E1E00" stroke-width="2" stroke-miterlimit="10" stroke-linecap="round" stroke-linejoin="round"/>
<mask id="path-3-inside-1_229_7382" fill="white">
<path fill-rule="evenodd" clip-rule="evenodd" d="M83.1877 9.64316C83.1877 9.64316 63.4956 4.90959 55.732 25.3589C48.5623 44.2457 62.3391 53.7509 66.8609 56.2784C66.2119 59.6196 65.7647 63.3927 65.6054 67.6485C65.4941 70.6243 65.3672 73.4862 65.245 76.2413C64.7658 87.0511 64.3594 96.2177 65.2481 104.171C66.0035 110.932 67.8857 117.568 71.8066 123.202C75.6265 128.691 80.819 133.572 87.3787 135.389C88.0938 135.587 88.8153 135.754 89.5418 135.893V146.862L89.5413 146.862C9.15147 169.055 1.51171 235.791 1.17285 257.176H227.716C227.883 254.022 227.876 250.941 227.716 247.922C224.106 179.306 140.641 145.371 140.641 145.371H140.641V100.661C141.082 100.701 141.528 100.721 141.978 100.721C150.086 100.721 156.654 94.1467 156.654 86.0449C156.654 81.6548 154.726 77.7133 151.669 75.0234C155.509 60.0685 162.248 24.2052 139.045 22.7084C139.045 22.7084 135.916 0.176025 110.688 0.176025C91.7085 0.176025 83.1877 9.64316 83.1877 9.64316Z"/>
</mask>
<path fill-rule="evenodd" clip-rule="evenodd" d="M83.1877 9.64316C83.1877 9.64316 63.4956 4.90959 55.732 25.3589C48.5623 44.2457 62.3391 53.7509 66.8609 56.2784C66.2119 59.6196 65.7647 63.3927 65.6054 67.6485C65.4941 70.6243 65.3672 73.4862 65.245 76.2413C64.7658 87.0511 64.3594 96.2177 65.2481 104.171C66.0035 110.932 67.8857 117.568 71.8066 123.202C75.6265 128.691 80.819 133.572 87.3787 135.389C88.0938 135.587 88.8153 135.754 89.5418 135.893V146.862L89.5413 146.862C9.15147 169.055 1.51171 235.791 1.17285 257.176H227.716C227.883 254.022 227.876 250.941 227.716 247.922C224.106 179.306 140.641 145.371 140.641 145.371H140.641V100.661C141.082 100.701 141.528 100.721 141.978 100.721C150.086 100.721 156.654 94.1467 156.654 86.0449C156.654 81.6548 154.726 77.7133 151.669 75.0234C155.509 60.0685 162.248 24.2052 139.045 22.7084C139.045 22.7084 135.916 0.176025 110.688 0.176025C91.7085 0.176025 83.1877 9.64316 83.1877 9.64316Z" fill="#FDEAA7"/>
<path d="M55.732 25.3589L53.8623 24.649L53.8622 24.649L55.732 25.3589ZM83.1877 9.64316L82.7203 11.5878L83.8778 11.866L84.6743 10.9811L83.1877 9.64316ZM66.8609 56.2784L68.8242 56.6597L69.1002 55.2388L67.8367 54.5326L66.8609 56.2784ZM65.6054 67.6485L67.604 67.7233V67.7233L65.6054 67.6485ZM65.245 76.2413L63.247 76.1528L65.245 76.2413ZM65.2481 104.171L63.2605 104.394L65.2481 104.171ZM71.8066 123.202L73.4482 122.059L73.4482 122.059L71.8066 123.202ZM87.3787 135.389L86.8447 137.316L86.845 137.317L87.3787 135.389ZM89.5418 135.893H91.5418V134.238L89.9163 133.928L89.5418 135.893ZM89.5418 146.862L90.0437 148.798L91.5418 148.409V146.862H89.5418ZM89.5413 146.862L89.0394 144.926L89.0242 144.93L89.0091 144.934L89.5413 146.862ZM1.17285 257.176L-0.826897 257.144L-0.859091 259.176H1.17285V257.176ZM227.716 257.176V259.176H229.613L229.713 257.282L227.716 257.176ZM227.716 247.922L225.719 248.027L225.719 248.028L227.716 247.922ZM140.641 145.371L141.395 143.518L141.032 143.371H140.641V145.371ZM140.641 145.371H138.641V147.371H140.641V145.371ZM140.641 100.661L140.822 98.6693L138.641 98.4712V100.661H140.641ZM151.669 75.0234L149.731 74.526L149.426 75.7143L150.347 76.5248L151.669 75.0234ZM139.045 22.7084L137.064 22.9834L137.288 24.5992L138.916 24.7042L139.045 22.7084ZM57.6018 26.0687C61.219 16.541 67.4989 13.021 72.8249 11.7804C75.5343 11.1493 78.0351 11.1036 79.8634 11.2191C80.7744 11.2766 81.5091 11.3735 82.0072 11.4541C82.256 11.4943 82.445 11.5303 82.5666 11.555C82.6273 11.5673 82.6712 11.5768 82.6971 11.5826C82.7101 11.5855 82.7186 11.5874 82.7225 11.5883C82.7244 11.5888 82.7252 11.5889 82.7249 11.5889C82.7247 11.5888 82.7242 11.5887 82.7234 11.5885C82.7231 11.5884 82.7223 11.5882 82.7221 11.5882C82.7212 11.588 82.7203 11.5878 83.1877 9.64316C83.6551 7.69855 83.654 7.69829 83.6529 7.69801C83.6524 7.69789 83.6511 7.69759 83.6502 7.69736C83.6482 7.69689 83.6459 7.69635 83.6433 7.69574C83.6382 7.69453 83.6319 7.69304 83.6243 7.6913C83.6092 7.6878 83.5893 7.68327 83.5648 7.67782C83.5158 7.66693 83.4481 7.65234 83.3627 7.635C83.192 7.60034 82.9504 7.5546 82.6456 7.50533C82.0365 7.40687 81.1721 7.29375 80.1156 7.22703C78.009 7.09399 75.1015 7.14301 71.9175 7.88467C65.4566 9.38961 58.0086 13.7274 53.8623 24.649L57.6018 26.0687ZM67.8367 54.5326C65.7123 53.3452 61.4724 50.5423 58.6149 45.9043C55.8216 41.3704 54.2412 34.9214 57.6018 26.0687L53.8622 24.649C50.0531 34.6832 51.7763 42.4302 55.2094 48.0025C58.5783 53.4707 63.4877 56.6842 65.8851 58.0242L67.8367 54.5326ZM67.604 67.7233C67.7597 63.5632 68.1962 59.893 68.8242 56.6597L64.8976 55.8971C64.2276 59.3463 63.7697 63.2222 63.6068 67.5737L67.604 67.7233ZM67.2431 76.3299C67.3652 73.5756 67.4924 70.707 67.604 67.7233L63.6068 67.5737C63.4958 70.5415 63.3692 73.3967 63.247 76.1528L67.2431 76.3299ZM67.2357 103.949C66.368 96.1831 66.7617 87.1882 67.2431 76.3299L63.247 76.1528C62.7699 86.914 62.3509 96.2523 63.2605 104.394L67.2357 103.949ZM73.4482 122.059C69.7778 116.786 67.968 110.503 67.2357 103.949L63.2605 104.394C64.0389 111.361 65.9935 118.351 70.165 124.344L73.4482 122.059ZM87.9128 133.462C81.9782 131.817 77.1287 127.348 73.4482 122.059L70.165 124.344C74.1242 130.033 79.6599 135.326 86.8447 137.316L87.9128 133.462ZM89.9163 133.928C89.2416 133.8 88.5732 133.645 87.9125 133.462L86.845 137.317C87.6143 137.53 88.389 137.709 89.1672 137.857L89.9163 133.928ZM91.5418 146.862V135.893H87.5418V146.862H91.5418ZM90.0433 148.798L90.0437 148.798L89.0398 144.926L89.0394 144.926L90.0433 148.798ZM3.1726 257.208C3.33928 246.689 5.3066 225.016 17.0961 203.275C28.8487 181.602 50.424 159.735 90.0736 148.79L89.0091 144.934C48.2688 156.181 25.8293 178.779 13.5798 201.368C1.36727 223.89 -0.654716 246.278 -0.826897 257.144L3.1726 257.208ZM227.716 255.176H1.17285V259.176H227.716V255.176ZM225.719 248.028C225.875 250.978 225.882 253.988 225.719 257.07L229.713 257.282C229.884 254.055 229.877 250.904 229.713 247.816L225.719 248.028ZM140.641 145.371C139.888 147.223 139.888 147.223 139.888 147.223C139.888 147.224 139.889 147.224 139.889 147.224C139.891 147.225 139.894 147.226 139.898 147.228C139.907 147.231 139.92 147.237 139.939 147.244C139.975 147.259 140.032 147.283 140.107 147.314C140.258 147.378 140.486 147.474 140.784 147.604C141.382 147.863 142.265 148.254 143.393 148.777C145.65 149.824 148.888 151.4 152.789 153.505C160.595 157.718 171.034 164.041 181.575 172.477C202.705 189.388 223.957 214.552 225.719 248.027L229.713 247.817C227.864 212.676 205.579 186.565 184.075 169.354C173.298 160.729 162.645 154.279 154.689 149.985C150.709 147.837 147.398 146.225 145.076 145.149C143.916 144.61 143.002 144.205 142.375 143.934C142.061 143.798 141.82 143.695 141.655 143.626C141.572 143.591 141.509 143.565 141.465 143.547C141.444 143.538 141.427 143.531 141.415 143.526C141.409 143.524 141.404 143.522 141.401 143.521C141.399 143.52 141.398 143.519 141.397 143.519C141.396 143.518 141.395 143.518 140.641 145.371ZM140.641 147.371H140.641V143.371H140.641V147.371ZM138.641 100.661V145.371H142.641V100.661H138.641ZM141.978 98.7206C141.586 98.7206 141.2 98.7036 140.822 98.6693L140.46 102.653C140.964 102.699 141.471 102.721 141.978 102.721V98.7206ZM154.654 86.0449C154.654 93.0427 148.981 98.7206 141.978 98.7206V102.721C151.191 102.721 158.654 95.2508 158.654 86.0449H154.654ZM150.347 76.5248C152.991 78.8512 154.654 82.2535 154.654 86.0449H158.654C158.654 81.0561 156.46 76.5754 152.99 73.5219L150.347 76.5248ZM138.916 24.7042C144.11 25.0393 147.47 27.2463 149.689 30.5305C151.977 33.9185 153.145 38.6041 153.502 43.9523C154.216 54.6416 151.641 67.0892 149.731 74.526L153.606 75.5208C155.536 68.0027 158.251 55.0412 157.493 43.6859C157.115 38.0118 155.857 32.5163 153.003 28.2915C150.079 23.9631 145.581 21.1258 139.174 20.7125L138.916 24.7042ZM110.688 2.17603C122.583 2.17603 129.087 7.43386 132.687 12.5877C134.515 15.2033 135.617 17.8299 136.26 19.8066C136.581 20.7922 136.785 21.6077 136.907 22.1677C136.968 22.4474 137.009 22.6626 137.034 22.8023C137.046 22.8722 137.054 22.9231 137.059 22.9537C137.062 22.9691 137.063 22.9793 137.064 22.9843C137.064 22.9868 137.064 22.988 137.064 22.9879C137.064 22.9878 137.064 22.9874 137.064 22.9867C137.064 22.9863 137.064 22.9855 137.064 22.9853C137.064 22.9844 137.064 22.9834 139.045 22.7084C141.026 22.4333 141.026 22.4321 141.025 22.4309C141.025 22.4304 141.025 22.4291 141.025 22.428C141.025 22.4259 141.024 22.4234 141.024 22.4206C141.023 22.415 141.022 22.4081 141.021 22.3997C141.018 22.3831 141.015 22.361 141.011 22.3337C141.002 22.2791 140.99 22.2035 140.973 22.1083C140.94 21.918 140.888 21.649 140.815 21.3126C140.668 20.6404 140.43 19.6956 140.064 18.5687C139.332 16.3207 138.075 13.3142 135.966 10.2967C131.696 4.18436 124.021 -1.82397 110.688 -1.82397V2.17603ZM83.1877 9.64316C84.6743 10.9811 84.6736 10.9819 84.6729 10.9826C84.6727 10.9828 84.6721 10.9835 84.6717 10.9839C84.671 10.9847 84.6704 10.9853 84.67 10.9858C84.6691 10.9868 84.6687 10.9873 84.6688 10.9872C84.669 10.9869 84.6712 10.9845 84.6755 10.9799C84.6841 10.9707 84.7009 10.9529 84.7259 10.927C84.7758 10.8753 84.8587 10.7915 84.9749 10.6802C85.2073 10.4574 85.5727 10.1246 86.0747 9.71784C87.0788 8.90424 88.6279 7.79596 90.7511 6.67991C94.9879 4.45282 101.545 2.17603 110.688 2.17603V-1.82397C100.851 -1.82397 93.6583 0.632791 88.8899 3.13927C86.5105 4.39 84.7432 5.6485 83.5565 6.60999C82.9632 7.09077 82.5146 7.49759 82.2069 7.79255C82.053 7.94005 81.9343 8.05966 81.8502 8.14664C81.8081 8.19014 81.7747 8.22549 81.7499 8.25211C81.7375 8.26542 81.7272 8.27655 81.7191 8.28542C81.715 8.28985 81.7115 8.29373 81.7085 8.29702C81.707 8.29867 81.7057 8.30018 81.7044 8.30154C81.7038 8.30222 81.703 8.30314 81.7027 8.30348C81.7019 8.30435 81.7011 8.30519 83.1877 9.64316Z" fill="#2E1E00" mask="url(#path-3-inside-1_229_7382)"/>
</svg>
