<svg width="243" height="260" viewBox="0 0 243 260" fill="none" xmlns="http://www.w3.org/2000/svg">
<path d="M241.278 18.9536H1.59326V258.175H241.278V18.9536Z" fill="#ADF0E7"/>
<path d="M241.278 18.9536H1.59326V258.175H241.278V18.9536Z" stroke="#2E1E00" stroke-width="2" stroke-miterlimit="10" stroke-linecap="round" stroke-linejoin="round"/>
<path d="M241.277 258.176H1.60596C1.95794 235.937 9.77317 167.34 90.813 142.714C92.2144 142.284 93.6419 141.867 95.0954 141.469C97.0965 140.915 99.1367 140.387 101.222 139.892H149.157C149.157 139.892 237.458 175.793 241.277 248.386C241.447 251.58 241.453 254.839 241.277 258.176Z" fill="#FDEAA7"/>
<path d="M241.277 258.176H1.60596C1.95794 235.937 9.77317 167.34 90.813 142.714C92.2144 142.284 93.6419 141.867 95.0954 141.469C97.0965 140.915 99.1367 140.387 101.222 139.892H149.157C149.157 139.892 237.458 175.793 241.277 248.386C241.447 251.58 241.453 254.839 241.277 258.176Z" stroke="#2E1E00" stroke-width="2" stroke-miterlimit="10" stroke-linecap="round" stroke-linejoin="round"/>
<path d="M91.3735 258.176V146.162L90.813 142.714C92.2144 142.284 93.6418 141.867 95.0954 141.469C97.0965 140.915 99.1366 140.387 101.222 139.892H149.157L152.487 258.176H91.3735Z" fill="#73B7EA"/>
<path d="M91.3735 258.176V146.162L90.813 142.714C92.2144 142.284 93.6418 141.867 95.0954 141.469C97.0965 140.915 99.1366 140.387 101.222 139.892H149.157L152.487 258.176H91.3735V258.176Z" stroke="#2E1E00" stroke-width="2" stroke-miterlimit="10" stroke-linecap="round" stroke-linejoin="round"/>
<path d="M132.216 159.134H107.799C103.217 159.134 99.0519 157.315 95.9884 154.356C92.9249 151.397 90.9694 147.29 90.813 142.715L94.4631 108.69H144.17L149.157 139.892L149.209 141.659C149.476 151.227 141.791 159.134 132.216 159.134Z" fill="#FFF3E9"/>
<path d="M132.216 159.134H107.799C103.217 159.134 99.0519 157.315 95.9884 154.356C92.9249 151.397 90.9694 147.29 90.813 142.715L94.4631 108.69H144.17L149.157 139.892L149.209 141.659C149.476 151.227 141.791 159.134 132.216 159.134Z" stroke="#2E1E00" stroke-width="2" stroke-miterlimit="10" stroke-linecap="round" stroke-linejoin="round"/>
<path d="M128.677 108.689L90.813 142.715L94.4631 108.689H128.677Z" fill="#2E1E00"/>
<path d="M128.677 108.689L90.813 142.715L94.4631 108.689H128.677Z" stroke="#2E1E00" stroke-width="2" stroke-miterlimit="10" stroke-linecap="round" stroke-linejoin="round"/>
<path d="M79.2505 80.3622H176.061C176.061 80.3622 194.603 28.3998 150.618 11.5817C150.618 11.5817 140.7 -5.66721 115.474 4.25076C115.474 4.25076 90.8938 0.801369 79.2505 24.9497C67.6072 49.0987 79.2505 80.3622 79.2505 80.3622Z" fill="#2E1E00"/>
<path d="M79.2505 80.3622H176.061C176.061 80.3622 194.603 28.3998 150.618 11.5817C150.618 11.5817 140.7 -5.66721 115.474 4.25076C115.474 4.25076 90.8938 0.801369 79.2505 24.9497C67.6072 49.0987 79.2505 80.3622 79.2505 80.3622Z" stroke="#2E1E00" stroke-width="2" stroke-miterlimit="10" stroke-linecap="round" stroke-linejoin="round"/>
<path d="M182.099 81.9324C182.123 88.5248 176.704 94.0561 170.112 94.1591C167.817 94.1949 165.661 93.5979 163.815 92.5243L162.253 99.7275C160.142 109.455 154.79 118.238 146.909 124.319C141.052 128.839 133.281 132.799 123.664 133.406C114.692 133.971 107.204 130.928 101.348 126.904C92.5123 120.829 86.5118 111.431 84.2532 100.95L82.0266 90.621C80.2974 91.2526 78.3843 91.5055 76.3943 91.2729C70.7966 90.6191 66.3004 86.0564 65.7313 80.4495C64.9902 73.1512 70.7021 66.9928 77.8485 66.9928C79.2304 66.9928 80.5535 67.2216 81.792 67.6512C82.3917 39.2712 101.464 20.0949 107.571 14.6653C108.379 13.949 109.618 14.0396 110.263 14.8941C115.263 21.5094 137.392 18.4459 140.488 31.2025C143.936 45.4309 155.577 48.8855 155.577 48.8855L150.943 30.9026C150.624 29.6505 151.954 28.6148 153.081 29.2405C165.126 35.9411 166.945 55.9648 166.567 70.2649C167.629 69.9586 168.756 69.7956 169.917 69.7956C176.629 69.7956 182.075 75.2265 182.099 81.9324Z" fill="#FFF3E9"/>
<path d="M182.099 81.9324C182.123 88.5248 176.704 94.0561 170.112 94.1591C167.817 94.1949 165.661 93.5979 163.815 92.5243L162.253 99.7275C160.142 109.455 154.79 118.238 146.909 124.319C141.052 128.839 133.281 132.799 123.664 133.406C114.692 133.971 107.204 130.928 101.348 126.904C92.5123 120.829 86.5118 111.431 84.2532 100.95L82.0266 90.621C80.2974 91.2526 78.3843 91.5055 76.3943 91.2729C70.7966 90.6191 66.3004 86.0564 65.7313 80.4495C64.9902 73.1512 70.7021 66.9928 77.8485 66.9928C79.2304 66.9928 80.5535 67.2216 81.792 67.6512C82.3917 39.2712 101.464 20.0949 107.571 14.6653C108.379 13.949 109.618 14.0396 110.263 14.8941C115.263 21.5094 137.392 18.4459 140.488 31.2025C143.936 45.4309 155.577 48.8855 155.577 48.8855L150.943 30.9026C150.624 29.6505 151.954 28.6148 153.081 29.2405C165.126 35.9411 166.945 55.9648 166.567 70.2649C167.629 69.9586 168.756 69.7956 169.917 69.7956C176.629 69.7956 182.075 75.2265 182.099 81.9324Z" stroke="#2E1E00" stroke-width="2" stroke-miterlimit="10" stroke-linecap="round" stroke-linejoin="round"/>
<path d="M100.336 97.7781C100.336 97.7781 102.321 101.967 108.164 102.409C114.006 102.849 128.449 106.929 134.733 104.724" stroke="#2E1E00" stroke-width="2" stroke-miterlimit="10" stroke-linecap="round" stroke-linejoin="round"/>
<path d="M112.354 107.479C112.684 107.59 117.332 110.456 123.883 109.574" stroke="#2E1E00" stroke-width="2" stroke-miterlimit="10" stroke-linecap="round" stroke-linejoin="round"/>
<path d="M99.4538 94.3606C99.4538 94.3606 95.0436 96.1127 96.3668 101.576" stroke="#2E1E00" stroke-width="2" stroke-miterlimit="10" stroke-linecap="round" stroke-linejoin="round"/>
<path d="M120.621 67.1292L118.968 87.7453L121.434 90.2809" stroke="#2E1E00" stroke-width="2" stroke-miterlimit="10" stroke-linecap="round" stroke-linejoin="round"/>
<path d="M71.8921 77.9336H81.153" stroke="#2E1E00" stroke-width="2" stroke-miterlimit="10" stroke-linecap="round" stroke-linejoin="round"/>
<path d="M165.052 81.1306H175.966" stroke="#2E1E00" stroke-width="2" stroke-miterlimit="10" stroke-linecap="round" stroke-linejoin="round"/>
<path d="M143.453 59.3192C147.754 61.1247 152.005 60.7681 152.947 58.522C153.89 56.2765 151.168 52.992 146.868 51.1865C142.567 49.3803 138.317 49.7375 137.374 51.983C136.431 54.2298 139.153 57.5143 143.453 59.3192Z" fill="#2E1E00"/>
<path d="M101.541 59.4476C97.1054 60.8888 92.8993 60.179 92.1464 57.8624C91.3936 55.5459 94.3795 52.4993 98.8158 51.0588C103.251 49.6177 107.457 50.3275 108.21 52.644C108.963 54.9606 105.977 58.0065 101.541 59.4476Z" fill="#2E1E00"/>
<path d="M104.466 66.4964C104.466 67.68 103.506 68.6402 102.323 68.6402C101.139 68.6402 100.179 67.68 100.179 66.4964C100.179 65.3127 101.139 64.3525 102.323 64.3525C103.506 64.3525 104.466 65.3127 104.466 66.4964Z" fill="#2E1E00"/>
<path d="M145.161 66.4964C145.161 67.68 144.2 68.6402 143.017 68.6402C141.834 68.6402 140.874 67.68 140.874 66.4964C140.874 65.3127 141.834 64.3525 143.017 64.3525C144.201 64.3525 145.161 65.3127 145.161 66.4964Z" fill="#2E1E00"/>
</svg>
