<svg width="231" height="258" viewBox="0 0 231 258" fill="none" xmlns="http://www.w3.org/2000/svg">
<path d="M229.481 28.9122H1.39697V256.555H229.481V28.9122Z" fill="#FDEAA7"/>
<path d="M229.48 257.176H1.39614C1.05376 257.176 0.775879 256.899 0.775879 256.556V28.9123C0.775879 28.5699 1.05376 28.292 1.39614 28.292H229.48C229.823 28.292 230.1 28.5699 230.1 28.9123V256.556C230.1 256.898 229.823 257.176 229.48 257.176ZM2.01701 255.936H228.86V29.5331H2.01701V255.936Z" fill="#2E1E00"/>
<path d="M229.48 256.556H1.40918C1.75032 235.026 9.44155 167.839 90.3735 145.497C92.2777 144.97 94.2192 144.468 96.204 143.996H141.818C141.818 143.996 225.845 178.16 229.48 247.239C229.641 250.278 229.648 253.379 229.48 256.556Z" fill="#ADF0E7"/>
<path d="M229.48 257.176H1.4094C1.24254 257.176 1.08375 257.11 0.96714 256.991C0.85053 256.873 0.786651 256.712 0.789132 256.545C0.966528 245.361 3.06486 223.276 15.124 201.035C30.1077 173.403 55.3704 154.517 90.2088 144.899C92.1676 144.356 94.1369 143.85 96.061 143.392C96.1081 143.381 96.1559 143.376 96.2042 143.376H141.818C141.898 143.376 141.978 143.391 142.052 143.422C142.263 143.508 163.388 152.194 184.674 169.228C197.186 179.242 207.312 190.143 214.77 201.626C224.108 216.004 229.264 231.339 230.101 247.205C230.266 250.313 230.266 253.469 230.101 256.587C230.083 256.918 229.811 257.176 229.48 257.176ZM2.0414 255.936H228.89C229.023 253.053 229.013 250.141 228.861 247.272C228.038 231.631 222.95 216.506 213.739 202.317C206.358 190.947 196.327 180.147 183.924 170.218C163.571 153.923 143.37 145.316 141.695 144.616H96.2769C94.39 145.066 92.4604 145.563 90.5394 146.096C56.0385 155.619 31.0319 174.303 16.2157 201.626C4.50387 223.225 2.28578 244.679 2.0414 255.936Z" fill="#2E1E00"/>
<path d="M141.817 143.997C141.817 143.997 141.029 162.052 115.505 163.733C89.9814 165.408 83.5747 147.532 83.5747 147.532L84.2377 140.207L86.4769 115.452L111.598 112.562L133.753 110.006L141.817 143.997Z" fill="#FEFFFA"/>
<path d="M112.231 164.463C89.2604 164.463 83.0529 147.917 82.9902 147.741C82.9598 147.657 82.948 147.567 82.9561 147.476L85.8589 115.396C85.8856 115.103 86.1138 114.868 86.406 114.835L133.683 109.389C133.991 109.356 134.285 109.558 134.356 109.863L142.42 143.854C142.433 143.91 142.439 143.967 142.436 144.023C142.428 144.211 141.327 162.655 115.545 164.352C114.404 164.427 113.299 164.463 112.231 164.463ZM84.2047 147.444C84.5006 148.179 86.2206 152.12 90.4303 155.842C94.7107 159.628 102.53 163.966 115.464 163.115C139.485 161.533 141.095 145.514 141.191 144.053L133.276 110.686L87.0486 116.011L84.2047 147.444Z" fill="#2E1E00"/>
<path d="M111.599 112.562L84.2383 140.207L86.478 115.452L111.599 112.562Z" fill="#2E1E00"/>
<path d="M66.7194 77.7264C64.2297 77.7264 68.4034 41.9769 68.9486 39.5716C74.5887 14.6959 101.653 -5.25742 127.434 2.48347C155.259 10.8384 159.474 44.3872 158.084 69.1109C157.922 71.9877 157.682 74.8608 157.382 77.7264H66.7194Z" fill="#2E1E00"/>
<path d="M157.382 78.3466H66.7187C66.4396 78.3466 66.1798 78.2139 65.9875 77.9733C63.6596 75.0586 68.27 39.7575 68.3438 39.4344C71.3633 26.1142 80.5556 13.8529 92.9311 6.63363C103.993 0.181026 116.308 -1.50612 127.612 1.8892C140.279 5.69266 149.258 14.9669 154.3 29.455C159.02 43.017 159.3 58.5242 158.703 69.1456C158.548 71.8965 158.311 74.8043 157.999 77.7909C157.965 78.1066 157.7 78.3466 157.382 78.3466ZM66.898 77.1061H156.823C157.105 74.3347 157.32 71.6366 157.465 69.0768C158.64 48.169 156.277 11.7923 127.256 3.07764C116.285 -0.215963 104.319 1.42777 93.5564 7.70546C81.4724 14.7548 72.499 26.719 69.554 39.7092C68.6335 43.7651 65.5031 74.421 66.898 77.1061Z" fill="#2E1E00"/>
<path d="M165.506 81.4622C165.506 88.2665 159.991 93.7744 153.193 93.7744C151.289 93.7744 149.477 93.3402 147.871 92.5648C146.023 102.173 142.568 111.415 137.655 119.906C131.651 130.271 119.543 135.68 107.802 133.31C97.9644 131.325 91.2593 123.808 86.4771 115.453C83.2207 109.765 75.7093 98.6925 74.9892 92.323C74.9892 92.323 74.983 92.261 74.9706 92.1369C73.1662 93.1789 71.0698 93.7744 68.8362 93.7744C62.0381 93.7744 56.5239 88.2665 56.5239 81.4622C56.5239 74.6641 62.0381 69.1493 68.8362 69.1493C70.1202 69.1493 71.3607 69.3478 72.5205 69.7075C71.5585 50.3491 82.9162 30.0169 101.331 22.9397C119.598 15.9189 144.092 23.2932 149.935 43.5634C152.41 52.1237 151.901 60.7137 150.915 69.3608C151.653 69.2238 152.416 69.1493 153.191 69.1493C159.991 69.1493 165.506 74.6641 165.506 81.4622Z" fill="#FEFFFA"/>
<path d="M113.396 134.49C111.502 134.49 109.589 134.303 107.679 133.917C99.0469 132.176 91.9356 126.237 85.9395 115.76C85.2913 114.629 84.4534 113.25 83.5676 111.791C80.0972 106.075 75.4 98.3402 74.477 93.1009C72.7304 93.9494 70.7976 94.3948 68.837 94.3948C61.7064 94.3948 55.9038 88.5935 55.9038 81.4623C55.9038 74.3311 61.7058 68.5291 68.837 68.5291C69.8598 68.5291 70.8758 68.6488 71.8676 68.8851C71.2225 48.6348 83.4132 29.1616 101.111 22.3605C111.425 18.3945 123.971 18.9856 133.852 23.9012C142.18 28.0439 148.104 34.9661 150.533 43.3917C153.071 52.1672 152.473 60.9744 151.624 68.6247C152.149 68.5614 152.674 68.5291 153.193 68.5291C160.325 68.5291 166.126 74.3311 166.126 81.4623C166.126 88.5935 160.325 94.3948 153.193 94.3948C151.527 94.3948 149.861 94.0691 148.33 93.4464C146.432 102.864 143.024 111.866 138.192 120.217C133.004 129.172 123.49 134.49 113.396 134.49ZM74.9714 91.5167C75.0681 91.5167 75.1649 91.5397 75.2542 91.5844C75.4415 91.6805 75.5675 91.8647 75.5885 92.0744L75.6071 92.2598C76.1666 97.2114 81.0574 105.266 84.6283 111.146C85.5183 112.613 86.3594 113.999 87.0156 115.144C92.8238 125.292 99.664 131.034 107.925 132.701C119.492 135.037 131.225 129.768 137.119 119.595C142.011 111.138 145.423 102.005 147.261 92.4471C147.298 92.2573 147.421 92.0967 147.592 92.0099C147.765 91.9243 147.967 91.9224 148.141 92.0055C149.698 92.7566 151.444 93.1536 153.193 93.1536C159.64 93.1536 164.885 87.9086 164.885 81.4616C164.885 75.014 159.64 69.7691 153.193 69.7691C152.479 69.7691 151.751 69.8367 151.03 69.9694C150.837 70.0054 150.638 69.9471 150.494 69.8131C150.351 69.6785 150.279 69.4844 150.301 69.2896C151.181 61.5748 151.905 52.6007 149.341 43.7353C146.353 33.3682 138.968 27.8311 133.3 25.0108C123.72 20.2453 111.556 19.6734 101.556 23.5185C84.0961 30.2272 72.1461 49.6396 73.141 69.676C73.1515 69.8782 73.0616 70.073 72.9015 70.1971C72.7421 70.3211 72.5312 70.3595 72.3377 70.2994C71.2038 69.9477 70.0254 69.7691 68.837 69.7691C62.39 69.7691 57.1443 75.014 57.1443 81.4616C57.1443 87.9086 62.39 93.1536 68.837 93.1536C70.8863 93.1536 72.9003 92.6159 74.6613 91.5993C74.7568 91.5441 74.8641 91.5167 74.9714 91.5167Z" fill="#2E1E00"/>
<path d="M113.286 103.774C112.607 103.774 111.971 103.72 111.367 103.614C106.709 102.796 102.12 100.849 98.6426 99.2433C98.3319 99.0994 98.196 98.7316 98.3393 98.4202C98.4826 98.1089 98.8523 97.973 99.1624 98.1169C102.572 99.6905 107.064 101.598 111.581 102.392C115.241 103.033 120.612 101.457 129.549 97.1164C129.857 96.9669 130.227 97.0959 130.377 97.4036C130.527 97.7119 130.398 98.0828 130.09 98.2323C122.189 102.069 117.086 103.774 113.286 103.774Z" fill="#2E1E00"/>
<path d="M113.989 110.896C108.585 110.896 104.306 108.434 104.242 108.397C103.947 108.223 103.848 107.843 104.022 107.549C104.195 107.252 104.575 107.153 104.871 107.327C104.961 107.381 113.96 112.539 121.964 107.342C122.253 107.156 122.636 107.237 122.823 107.524C123.01 107.812 122.928 108.196 122.641 108.382C119.735 110.268 116.718 110.896 113.989 110.896Z" fill="#2E1E00"/>
<path d="M72.8583 81.3834H62.671C62.328 81.3834 62.0508 81.1055 62.0508 80.7631C62.0508 80.4208 62.328 80.1429 62.671 80.1429H72.8583C73.2013 80.1429 73.4786 80.4208 73.4786 80.7631C73.4786 81.1055 73.2007 81.3834 72.8583 81.3834Z" fill="#2E1E00"/>
<path d="M158.455 81.3834H148.268C147.924 81.3834 147.647 81.1055 147.647 80.7631C147.647 80.4208 147.924 80.1429 148.268 80.1429H158.455C158.798 80.1429 159.075 80.4208 159.075 80.7631C159.075 81.1055 158.797 81.3834 158.455 81.3834Z" fill="#2E1E00"/>
<path d="M114.922 90.9131C114.834 90.9131 114.746 90.8945 114.662 90.8554L113.407 90.2736C111.223 89.2613 109.812 87.0526 109.812 84.6453V68.2741C109.812 67.9317 110.089 67.6538 110.432 67.6538C110.774 67.6538 111.052 67.9317 111.052 68.2741V84.6453C111.052 86.5706 112.181 88.339 113.928 89.1485L115.183 89.7303C115.494 89.8742 115.63 90.2426 115.485 90.5534C115.38 90.7804 115.156 90.9131 114.922 90.9131Z" fill="#2E1E00"/>
<path d="M90.8646 58.1099C88.1231 59.9887 85.1055 60.351 84.1242 58.9194C83.143 57.4879 84.5703 54.8039 87.3112 52.9252C90.054 51.047 93.0709 50.6848 94.0522 52.1158C95.0334 53.5467 93.6062 56.2312 90.8646 58.1099Z" fill="#2E1E00"/>
<path d="M131.455 58.954C134.197 60.8327 137.214 61.195 138.195 59.7634C139.177 58.3319 137.75 55.648 135.008 53.7692C132.266 51.891 129.249 51.5282 128.268 52.9598C127.287 54.3913 128.714 57.0752 131.455 58.954Z" fill="#2E1E00"/>
<path d="M95.5567 67.1354C95.5567 68.2611 94.6436 69.1754 93.5166 69.1754C92.3902 69.1754 91.4766 68.2611 91.4766 67.1354C91.4766 66.009 92.3902 65.0953 93.5166 65.0953C94.6442 65.0953 95.5567 66.0083 95.5567 67.1354Z" fill="#2E1E00"/>
<path d="M132.038 65.8092C132.038 66.935 131.124 67.8493 129.998 67.8493C128.872 67.8493 127.958 66.935 127.958 65.8092C127.958 64.6828 128.872 63.7692 129.998 63.7692C131.124 63.7692 132.038 64.6828 132.038 65.8092Z" fill="#2E1E00"/>
<path d="M119.826 182.269C119.826 184.978 117.63 187.173 114.923 187.173C112.214 187.173 110.019 184.978 110.019 182.269C110.019 179.561 112.214 177.365 114.923 177.365C117.63 177.365 119.826 179.561 119.826 182.269Z" fill="#73B7EA"/>
<path d="M114.923 187.793C111.876 187.793 109.398 185.315 109.398 182.269C109.398 179.223 111.876 176.745 114.923 176.745C117.969 176.745 120.447 179.223 120.447 182.269C120.447 185.315 117.969 187.793 114.923 187.793ZM114.923 177.986C112.56 177.986 110.639 179.907 110.639 182.269C110.639 184.632 112.561 186.553 114.923 186.553C117.284 186.553 119.206 184.631 119.206 182.269C119.206 179.907 117.285 177.986 114.923 177.986Z" fill="#2E1E00"/>
<path d="M119.826 200.877C119.826 203.586 117.63 205.781 114.923 205.781C112.214 205.781 110.019 203.586 110.019 200.877C110.019 198.169 112.214 195.973 114.923 195.973C117.63 195.973 119.826 198.169 119.826 200.877Z" fill="#73B7EA"/>
<path d="M114.923 206.401C111.876 206.401 109.398 203.923 109.398 200.877C109.398 197.831 111.876 195.353 114.923 195.353C117.969 195.353 120.447 197.831 120.447 200.877C120.447 203.923 117.969 206.401 114.923 206.401ZM114.923 196.594C112.56 196.594 110.639 198.515 110.639 200.877C110.639 203.24 112.561 205.161 114.923 205.161C117.284 205.161 119.206 203.239 119.206 200.877C119.206 198.515 117.285 196.594 114.923 196.594Z" fill="#2E1E00"/>
<path d="M119.826 219.485C119.826 222.194 117.63 224.389 114.923 224.389C112.214 224.389 110.019 222.194 110.019 219.485C110.019 216.776 112.214 214.581 114.923 214.581C117.63 214.581 119.826 216.776 119.826 219.485Z" fill="#73B7EA"/>
<path d="M114.923 225.009C111.876 225.009 109.398 222.531 109.398 219.484C109.398 216.439 111.876 213.961 114.923 213.961C117.969 213.961 120.447 216.439 120.447 219.484C120.447 222.531 117.969 225.009 114.923 225.009ZM114.923 215.202C112.56 215.202 110.639 217.123 110.639 219.484C110.639 221.848 112.561 223.769 114.923 223.769C117.284 223.769 119.206 221.847 119.206 219.484C119.206 217.122 117.285 215.202 114.923 215.202Z" fill="#2E1E00"/>
</svg>
