<svg width="225" height="259" viewBox="0 0 225 259" fill="none" xmlns="http://www.w3.org/2000/svg">
<path d="M223.735 35.0129H1.14551V257.173H223.735V35.0129Z" fill="#FA6456"/>
<path d="M223.735 35.0129H1.14551V257.173H223.735V35.0129Z" stroke="#2E1E00" stroke-width="2" stroke-miterlimit="10" stroke-linecap="round" stroke-linejoin="round"/>
<mask id="path-3-inside-1_253_6687" fill="white">
<path fill-rule="evenodd" clip-rule="evenodd" d="M121.525 2.09471C121.525 2.09471 106.764 -3.05077 87.7664 2.78726C76.0323 6.3931 67.2714 12.9489 63.1053 20.7543C60.2537 26.0974 57.2673 33.8006 56.2375 43.7603C56.1231 44.8669 56.0104 45.9719 55.8979 47.0745C53.879 66.8664 51.9362 85.912 41.5418 100.457C32.5227 113.078 24 162 24 162H53.7696C5.73844 190.534 0.433536 239.523 0.155886 257.16C0.151668 257.428 0.255143 257.687 0.443112 257.878C0.63108 258.068 0.887817 258.176 1.15576 258.176H223.734C224.265 258.176 224.704 257.76 224.732 257.229C224.898 254.088 224.891 251.026 224.732 248.032C222.485 205.328 189.162 176.243 164.762 160.53C164.753 160.524 164.745 160.518 164.736 160.513C161.845 158.651 159.077 156.978 156.498 155.487L156.498 155.487C151.257 152.461 146.78 150.192 143.61 148.679C142.025 147.923 140.766 147.355 139.902 146.976C139.615 146.849 139.371 146.744 139.173 146.659L136.574 118.323C146.2 109.369 151.972 97.5354 153.275 85.0204C154.306 75.102 154.606 61.8686 151.647 48.7239C155.499 43.5436 159.29 34.7289 151.278 25.2019C150.915 24.7696 150.637 24.3128 150.482 23.8332C149.418 20.5654 143.615 6.48506 121.525 2.09471ZM224.732 248.032L223.74 248.084L224.732 248.032L224.732 248.032Z"/>
</mask>
<path fill-rule="evenodd" clip-rule="evenodd" d="M121.525 2.09471C121.525 2.09471 106.764 -3.05077 87.7664 2.78726C76.0323 6.3931 67.2714 12.9489 63.1053 20.7543C60.2537 26.0974 57.2673 33.8006 56.2375 43.7603C56.1231 44.8669 56.0104 45.9719 55.8979 47.0745C53.879 66.8664 51.9362 85.912 41.5418 100.457C32.5227 113.078 24 162 24 162H53.7696C5.73844 190.534 0.433536 239.523 0.155886 257.16C0.151668 257.428 0.255143 257.687 0.443112 257.878C0.63108 258.068 0.887817 258.176 1.15576 258.176H223.734C224.265 258.176 224.704 257.76 224.732 257.229C224.898 254.088 224.891 251.026 224.732 248.032C222.485 205.328 189.162 176.243 164.762 160.53C164.753 160.524 164.745 160.518 164.736 160.513C161.845 158.651 159.077 156.978 156.498 155.487L156.498 155.487C151.257 152.461 146.78 150.192 143.61 148.679C142.025 147.923 140.766 147.355 139.902 146.976C139.615 146.849 139.371 146.744 139.173 146.659L136.574 118.323C146.2 109.369 151.972 97.5354 153.275 85.0204C154.306 75.102 154.606 61.8686 151.647 48.7239C155.499 43.5436 159.29 34.7289 151.278 25.2019C150.915 24.7696 150.637 24.3128 150.482 23.8332C149.418 20.5654 143.615 6.48506 121.525 2.09471ZM224.732 248.032L223.74 248.084L224.732 248.032L224.732 248.032Z" fill="#73B7EA"/>
<path d="M87.7664 2.78726L88.3539 4.69903L88.3539 4.69903L87.7664 2.78726ZM121.525 2.09471L120.867 3.98326L120.999 4.02915L121.135 4.05634L121.525 2.09471ZM63.1053 20.7543L61.3409 19.8125L61.3408 19.8126L63.1053 20.7543ZM56.2375 43.7603L58.2269 43.966L58.2269 43.966L56.2375 43.7603ZM55.8979 47.0745L57.8876 47.2775L55.8979 47.0745ZM41.5418 100.457L43.169 101.62L43.169 101.62L41.5418 100.457ZM24 162L22.0297 161.657L21.6215 164H24V162ZM53.7696 162L54.791 163.719L61.0521 160H53.7696V162ZM0.155886 257.16L2.15564 257.192L0.155886 257.16ZM224.732 257.229L226.729 257.334L226.729 257.334L224.732 257.229ZM164.762 160.53L163.626 162.176L163.652 162.194L163.679 162.212L164.762 160.53ZM164.736 160.513L163.652 162.194L163.654 162.195L164.736 160.513ZM156.498 155.487L157.499 153.756L157.489 153.75L157.479 153.744L156.498 155.487ZM156.498 155.487L155.498 157.219L155.508 157.225L155.517 157.23L156.498 155.487ZM143.61 148.679L142.749 150.484L143.61 148.679ZM139.902 146.976L139.098 148.807L139.098 148.807L139.902 146.976ZM139.173 146.659L137.181 146.842L137.29 148.029L138.386 148.498L139.173 146.659ZM136.574 118.323L135.212 116.859L134.493 117.528L134.582 118.506L136.574 118.323ZM153.275 85.0204L155.264 85.2274L155.264 85.2272L153.275 85.0204ZM151.647 48.7239L150.042 47.5304L149.494 48.2672L149.695 49.1632L151.647 48.7239ZM151.278 25.2019L149.747 26.4888L149.748 26.4891L151.278 25.2019ZM150.482 23.8332L152.385 23.2167L152.384 23.2139L150.482 23.8332ZM223.74 248.084L223.634 246.087L223.845 250.082L223.74 248.084ZM224.732 248.032L226.729 247.917L226.615 245.929L224.626 246.034L224.732 248.032ZM88.3539 4.69903C97.5543 1.87173 105.725 1.70533 111.587 2.24335C114.518 2.51228 116.866 2.95677 118.469 3.32988C119.27 3.51637 119.884 3.6848 120.291 3.80414C120.494 3.86379 120.646 3.91115 120.743 3.94231C120.791 3.95788 120.826 3.96941 120.847 3.9764C120.857 3.97989 120.864 3.98225 120.867 3.98342C120.869 3.984 120.87 3.98428 120.87 3.98426C120.87 3.98424 120.87 3.98415 120.869 3.98399C120.869 3.98391 120.868 3.98372 120.868 3.98368C120.868 3.98348 120.867 3.98326 121.525 2.09471C122.184 0.20616 122.183 0.205898 122.182 0.205617C122.182 0.205498 122.181 0.205197 122.18 0.204958C122.179 0.204479 122.177 0.203923 122.175 0.203291C122.172 0.202026 122.167 0.200455 122.162 0.198585C122.151 0.194846 122.136 0.189914 122.118 0.183851C122.082 0.171724 122.031 0.15507 121.967 0.134388C121.839 0.0930252 121.654 0.0355321 121.417 -0.0341056C120.942 -0.173362 120.255 -0.36131 119.375 -0.565991C117.617 -0.975214 115.087 -1.45223 111.953 -1.73991C105.685 -2.31512 96.9763 -2.13524 87.1789 0.875491L88.3539 4.69903ZM64.8697 21.696C68.7158 14.4902 76.959 8.20063 88.3539 4.69903L87.1789 0.87549C75.1056 4.58558 65.827 11.4076 61.3409 19.8125L64.8697 21.696ZM58.2269 43.966C59.2263 34.3 62.1217 26.8451 64.8697 21.696L61.3408 19.8126C58.3857 25.3498 55.3082 33.3011 54.2481 43.5547L58.2269 43.966ZM57.8876 47.2775C58.0001 46.1746 58.1127 45.0711 58.2269 43.966L54.2481 43.5546C54.1335 44.6628 54.0207 45.7691 53.9082 46.8715L57.8876 47.2775ZM43.169 101.62C53.9301 86.5616 55.8826 66.9324 57.8876 47.2775L53.9082 46.8715C51.8753 66.8004 49.9422 85.2623 39.9146 99.2944L43.169 101.62ZM24 162C25.9703 162.343 25.9703 162.343 25.9704 162.343C25.9704 162.343 25.9705 162.342 25.9706 162.342C25.9709 162.34 25.9712 162.338 25.9717 162.335C25.9727 162.33 25.9742 162.321 25.9762 162.31C25.9802 162.287 25.9862 162.253 25.9943 162.207C26.0104 162.115 26.0347 161.979 26.0667 161.8C26.1308 161.441 26.2261 160.913 26.3508 160.235C26.6002 158.88 26.9669 156.927 27.4351 154.544C28.3718 149.777 29.7137 143.293 31.3353 136.421C32.9581 129.543 34.8546 122.303 36.8981 116.016C38.9627 109.663 41.1097 104.502 43.169 101.62L39.9146 99.2943C37.4644 102.723 35.1639 108.41 33.0939 114.779C31.0027 121.214 29.0774 128.572 27.4422 135.502C25.8057 142.438 24.4532 148.973 23.5101 153.773C23.0384 156.174 22.6688 158.142 22.4168 159.511C22.2909 160.196 22.1943 160.731 22.1291 161.095C22.0966 161.278 22.0718 161.417 22.0551 161.512C22.0468 161.559 22.0405 161.595 22.0363 161.619C22.0341 161.631 22.0325 161.641 22.0314 161.647C22.0309 161.65 22.0304 161.652 22.0302 161.654C22.03 161.655 22.0299 161.656 22.0298 161.656C22.0297 161.656 22.0297 161.657 24 162ZM53.7696 160H24V164H53.7696V160ZM2.15564 257.192C2.42974 239.78 7.67202 191.711 54.791 163.719L52.7481 160.281C3.80485 189.356 -1.56267 239.267 -1.84387 257.129L2.15564 257.192ZM1.8684 256.474C2.05638 256.665 2.15986 256.924 2.15564 257.192L-1.84387 257.129C-1.85652 257.932 -1.54609 258.708 -0.98218 259.281L1.8684 256.474ZM1.15576 256.176C1.42378 256.176 1.68049 256.284 1.8684 256.474L-0.98218 259.281C-0.418328 259.853 0.351855 260.176 1.15576 260.176V256.176ZM223.734 256.176H1.15576V260.176H223.734V256.176ZM222.735 257.123C222.763 256.592 223.202 256.176 223.734 256.176V260.176C225.329 260.176 226.645 258.927 226.729 257.334L222.735 257.123ZM222.735 248.138C222.891 251.063 222.897 254.054 222.735 257.123L226.729 257.334C226.899 254.122 226.892 250.989 226.729 247.926L222.735 248.138ZM163.679 162.212C187.968 177.852 220.541 206.454 222.735 248.137L226.729 247.927C224.428 204.201 190.356 174.633 165.845 158.849L163.679 162.212ZM163.654 162.195C163.643 162.188 163.634 162.182 163.626 162.176L165.898 158.884C165.873 158.867 165.846 158.849 165.818 158.831L163.654 162.195ZM155.498 157.219C158.052 158.695 160.792 160.351 163.652 162.194L165.819 158.831C162.898 156.95 160.102 155.26 157.499 153.756L155.498 157.219ZM155.517 157.23L155.518 157.231L157.479 153.744L157.479 153.744L155.517 157.23ZM142.749 150.484C145.879 151.978 150.309 154.223 155.498 157.219L157.498 153.755C152.206 150.699 147.682 148.407 144.472 146.875L142.749 150.484ZM139.098 148.807C139.944 149.178 141.184 149.738 142.749 150.484L144.472 146.875C142.866 146.108 141.589 145.532 140.706 145.144L139.098 148.807ZM138.386 148.498C138.579 148.58 138.817 148.683 139.098 148.807L140.706 145.144C140.413 145.015 140.163 144.907 139.96 144.82L138.386 148.498ZM134.582 118.506L137.181 146.842L141.165 146.477L138.566 118.14L134.582 118.506ZM151.285 84.8134C150.033 96.8491 144.482 108.236 135.212 116.859L137.936 119.787C147.918 110.503 153.912 98.2217 155.264 85.2274L151.285 84.8134ZM149.695 49.1632C152.59 62.0197 152.304 75.0165 151.285 84.8136L155.264 85.2272C156.308 75.1876 156.622 61.7176 153.598 48.2847L149.695 49.1632ZM149.748 26.4891C153.421 30.8579 154.29 34.9084 153.923 38.3824C153.546 41.9369 151.85 45.0987 150.042 47.5304L153.251 49.9175C155.296 47.1688 157.421 43.3331 157.9 38.8034C158.388 34.1932 157.146 29.0728 152.809 23.9147L149.748 26.4891ZM148.579 24.4497C148.834 25.2364 149.266 25.9157 149.747 26.4888L152.809 23.915C152.564 23.6234 152.44 23.3892 152.385 23.2167L148.579 24.4497ZM121.135 4.05634C142.304 8.26375 147.664 21.6406 148.58 24.4525L152.384 23.2139C151.171 19.4902 144.925 4.70637 121.915 0.133077L121.135 4.05634ZM223.845 250.082L224.837 250.029L224.627 246.035L223.635 246.087L223.845 250.082ZM224.626 246.034L223.634 246.087L223.846 250.081L224.838 250.029L224.626 246.034ZM226.729 247.918L226.729 247.917L222.735 248.146L222.735 248.146L226.729 247.918Z" fill="#2E1E00" mask="url(#path-3-inside-1_253_6687)"/>
</svg>
