<svg width="231" height="260" viewBox="0 0 231 260" fill="none" xmlns="http://www.w3.org/2000/svg">
<path d="M229.615 30.2646H1.2627V258.176H229.615V30.2646Z" fill="#FFDC38"/>
<path d="M229.615 30.2646H1.2627V258.176H229.615V30.2646Z" stroke="#2E1E00" stroke-width="2" stroke-miterlimit="10" stroke-linecap="round" stroke-linejoin="round"/>
<path d="M229.613 258.176H1.27344C1.5591 240.006 7.07974 189.364 57.3307 160.5C66.6953 155.122 77.6124 150.502 90.3428 146.987C90.362 146.981 90.3807 146.976 90.3999 146.971C94.042 145.964 97.8102 145.484 101.589 145.484H130.735C138.743 145.484 146.624 147.438 153.699 151.187C159.863 154.452 167.879 159.121 176.388 165.201C200.066 182.116 227.564 209.955 229.613 248.848C229.775 251.892 229.782 254.997 229.613 258.176Z" fill="#ADF0E7"/>
<path d="M229.613 258.176H1.27344C1.5591 240.006 7.07974 189.364 57.3307 160.5C66.6953 155.122 77.6124 150.502 90.3428 146.987C90.362 146.981 90.3807 146.976 90.3999 146.971C94.042 145.964 97.8102 145.484 101.589 145.484H130.735C138.743 145.484 146.624 147.438 153.699 151.187C159.863 154.452 167.879 159.121 176.388 165.201C200.066 182.116 227.564 209.955 229.613 248.848C229.775 251.892 229.782 254.997 229.613 258.176Z" stroke="#2E1E00" stroke-width="2" stroke-miterlimit="10" stroke-linecap="round" stroke-linejoin="round"/>
<path d="M44.6201 168.939V258.176" stroke="#2E1E00" stroke-width="2" stroke-miterlimit="10" stroke-linecap="round" stroke-linejoin="round"/>
<path d="M116.254 173.255V258.176" stroke="#2E1E00" stroke-width="2" stroke-miterlimit="10" stroke-linecap="round" stroke-linejoin="round"/>
<path d="M189.703 176.308V257.028" stroke="#2E1E00" stroke-width="2" stroke-miterlimit="10" stroke-linecap="round" stroke-linejoin="round"/>
<path d="M146.847 102.095V152.154C146.847 169.771 132.564 184.054 114.947 184.054C99.7454 184.054 87.0275 173.423 83.8293 159.19C83.3139 156.929 83.0469 154.576 83.0469 152.154V102.095H146.847Z" fill="#FFF4F1"/>
<path d="M146.847 102.095V152.154C146.847 169.771 132.564 184.054 114.947 184.054C99.7454 184.054 87.0275 173.423 83.8293 159.19C83.3139 156.929 83.0469 154.576 83.0469 152.154V102.095H146.847Z" stroke="#2E1E00" stroke-width="2" stroke-miterlimit="10" stroke-linecap="round" stroke-linejoin="round"/>
<path d="M128.435 102.095L83.0465 152.154C82.531 149.893 83.0465 154.576 83.0465 152.154V102.095H128.435Z" fill="#2E1E00"/>
<path d="M128.435 102.095L83.0465 152.154C82.531 149.893 83.0465 154.576 83.0465 152.154V102.095H128.435Z" stroke="#2E1E00" stroke-width="2" stroke-miterlimit="10" stroke-linecap="round" stroke-linejoin="round"/>
<path d="M62.2001 79.2009C62.2001 79.2009 45.7289 48.22 66.1217 31.7488C66.1217 31.7488 66.318 17.8267 80.0438 9.00295C95.8307 -1.14535 113.378 -0.8007 125.338 6.45377C125.338 6.45377 138.915 5.62101 142.79 18.2191C142.79 18.2191 161.81 19.984 164.556 38.4158C167.3 56.8475 154.948 77.436 154.948 77.436L62.2001 79.2009Z" fill="#2E1E00"/>
<path d="M62.2001 79.2009C62.2001 79.2009 45.7289 48.22 66.1217 31.7488C66.1217 31.7488 66.318 17.8267 80.0438 9.00295C95.8308 -1.14535 113.378 -0.8007 125.338 6.45377C125.338 6.45377 138.915 5.62101 142.79 18.2191C142.79 18.2191 161.81 19.984 164.556 38.4158C167.3 56.8475 154.948 77.436 154.948 77.436L62.2001 79.2009Z" stroke="#2E1E00" stroke-width="2" stroke-miterlimit="10" stroke-linecap="round" stroke-linejoin="round"/>
<path d="M176.388 82.9249C176.388 90.6438 170.128 96.9097 162.409 96.9097C160.168 96.9097 158.044 96.3818 156.168 95.4379C156.721 121.333 139.849 131.946 139.849 131.946C139.849 131.946 126.162 145.485 99.6516 137.436C80.5311 131.629 76.3456 110.436 75.4949 99.0713C73.7871 99.8165 71.9055 100.226 69.9307 100.226C62.2118 100.226 55.9521 93.9668 55.9521 86.2478C55.9521 78.5288 62.2118 72.2692 69.9307 72.2692C72.1601 72.2692 74.2653 72.7908 76.1345 73.7223C77.1902 65.5438 79.4009 55.5148 83.9156 45.672C94.2551 23.1236 103.769 24.2973 117.493 27.4333C126.789 29.5572 133.564 28.3586 136.973 27.3588C139.048 26.7503 141.296 26.9924 143.158 28.0854C154.174 34.5562 155.578 52.0744 155.808 70.6049C157.777 69.543 160.018 68.9469 162.409 68.9469C170.128 68.9463 176.388 75.2059 176.388 82.9249Z" fill="#FFF4F1"/>
<path d="M176.388 82.9249C176.388 90.6438 170.128 96.9097 162.409 96.9097C160.168 96.9097 158.044 96.3818 156.168 95.4379C156.721 121.333 139.849 131.946 139.849 131.946C139.849 131.946 126.162 145.485 99.6516 137.436C80.5311 131.629 76.3456 110.436 75.4949 99.0713C73.7871 99.8165 71.9055 100.226 69.9307 100.226C62.2118 100.226 55.9521 93.9668 55.9521 86.2478C55.9521 78.5288 62.2118 72.2692 69.9307 72.2692C72.1601 72.2692 74.2653 72.7908 76.1345 73.7223C77.1902 65.5438 79.4009 55.5148 83.9156 45.672C94.2551 23.1236 103.769 24.2973 117.493 27.4333C126.789 29.5572 133.564 28.3586 136.973 27.3588C139.048 26.7503 141.295 26.9924 143.158 28.0854C154.174 34.5562 155.578 52.0744 155.808 70.6049C157.777 69.543 160.018 68.9469 162.409 68.9469C170.128 68.9463 176.388 75.2059 176.388 82.9249Z" stroke="#2E1E00" stroke-width="2" stroke-miterlimit="10" stroke-linecap="round" stroke-linejoin="round"/>
<path d="M99.8296 110.043C99.8296 110.043 111.48 112.925 118.5 112.517C126.07 112.076 133.238 110.043 133.238 110.043" stroke="#2E1E00" stroke-width="2" stroke-miterlimit="10" stroke-linecap="round" stroke-linejoin="round"/>
<path d="M108.012 117.08C112.846 119.623 120.127 120.297 124.857 117.144" stroke="#2E1E00" stroke-width="2" stroke-miterlimit="10" stroke-linecap="round" stroke-linejoin="round"/>
<path d="M115.439 99.5669C115.894 100.149 115.439 105.271 115.439 105.271L95.5356 107.416C95.0122 107.473 94.8457 106.731 95.3431 106.558L115.439 99.5669Z" fill="#2E1E00"/>
<path d="M115.439 99.5669C115.894 100.149 115.439 105.271 115.439 105.271L95.5356 107.416C95.0122 107.473 94.8457 106.731 95.3431 106.558L115.439 99.5669Z" stroke="#2E1E00" stroke-width="2" stroke-miterlimit="10" stroke-linecap="round" stroke-linejoin="round"/>
<path d="M121.481 99.5669V105.504L138.133 107.463C138.643 107.522 138.829 106.812 138.355 106.615L121.481 99.5669Z" fill="#2E1E00"/>
<path d="M121.481 99.5669V105.504L138.133 107.463C138.643 107.522 138.829 106.812 138.355 106.615L121.481 99.5669Z" stroke="#2E1E00" stroke-width="2" stroke-miterlimit="10" stroke-linecap="round" stroke-linejoin="round"/>
<path d="M117.174 70.4646L117.873 92.4658L120.783 94.4449" stroke="#2E1E00" stroke-width="2" stroke-miterlimit="10" stroke-linecap="round" stroke-linejoin="round"/>
<path d="M62.5786 85.8306H73.4044" stroke="#2E1E00" stroke-width="2" stroke-miterlimit="10" stroke-linecap="round" stroke-linejoin="round"/>
<path d="M156.985 82.8591H169.557" stroke="#2E1E00" stroke-width="2" stroke-miterlimit="10" stroke-linecap="round" stroke-linejoin="round"/>
<path d="M136.01 65.5284C140.108 67.2485 144.157 66.9088 145.054 64.7689C145.953 62.6296 143.36 59.5004 139.263 57.7802C135.166 56.0594 131.116 56.3997 130.218 58.5391C129.32 60.679 131.912 63.8082 136.01 65.5284Z" fill="#2E1E00"/>
<path d="M96.9458 66.9498C92.7199 68.3228 88.7127 67.6466 87.9954 65.4396C87.2782 63.2326 90.1229 60.33 94.3494 58.9576C98.5753 57.5846 102.583 58.2609 103.3 60.4679C104.016 62.6749 101.171 65.5762 96.9458 66.9498Z" fill="#2E1E00"/>
<path d="M99.7324 73.6653C99.7324 74.793 98.8176 75.7077 97.6899 75.7077C96.5622 75.7077 95.6475 74.793 95.6475 73.6653C95.6475 72.5375 96.5622 71.6228 97.6899 71.6228C98.8176 71.6228 99.7324 72.5375 99.7324 73.6653Z" fill="#2E1E00"/>
<path d="M138.503 73.6653C138.503 74.793 137.588 75.7077 136.46 75.7077C135.333 75.7077 134.418 74.793 134.418 73.6653C134.418 72.5375 135.333 71.6228 136.46 71.6228C137.588 71.6228 138.503 72.5375 138.503 73.6653Z" fill="#2E1E00"/>
</svg>
